<?xml version="1.0" standalone="no"?>
<!DOCTYPE svg PUBLIC "-//W3C//DTD SVG 20010904//EN"
 "http://www.w3.org/TR/2001/REC-SVG-20010904/DTD/svg10.dtd">
<svg version="1.0" xmlns="http://www.w3.org/2000/svg"
 width="750.000000pt" height="750.000000pt" viewBox="0 0 750.000000 750.000000"
 preserveAspectRatio="xMidYMid meet">
<metadata>
Created by potrace 1.10, written by Peter Selinger 2001-2011
</metadata>
<g transform="translate(0.000000,750.000000) scale(0.100000,-0.100000)"
fill="#ff00ff" stroke="none">
<path d="M397 6785 c-15 -15 -17 -48 -17 -319 0 -281 1 -304 18 -319 22 -20
71 -22 95 -4 12 9 17 31 19 92 l3 80 107 6 c148 8 208 39 254 131 49 97 19
234 -64 291 -62 43 -92 50 -248 55 -132 4 -152 2 -167 -13z m337 -27 c62 -19
121 -83 135 -146 16 -78 0 -147 -46 -194 -54 -55 -105 -71 -228 -72 l-104 -1
-3 -90 -3 -90 -40 0 -40 0 -3 290 c-1 159 0 295 3 302 6 18 272 18 329 1z"/>
<path d="M447 6733 c-4 -3 -6 -126 -5 -272 1 -146 4 -228 5 -181 2 46 8 89 13
95 6 7 6 15 -1 22 -7 7 -9 70 -7 177 2 91 3 166 2 166 0 0 -4 -3 -7 -7z"/>
<path d="M789 6665 c17 -20 31 -41 31 -47 0 -6 3 -9 6 -6 8 8 -15 49 -39 71
-32 28 -31 20 2 -18z"/>
<path d="M490 6558 l0 -133 102 3 c57 2 114 8 128 14 44 19 65 57 65 119 0 98
-48 129 -200 129 l-95 0 0 -132z m229 86 c42 -25 59 -89 36 -133 -23 -46 -69
-62 -163 -59 l-77 3 -3 94 c-1 52 0 101 3 109 8 21 164 10 204 -14z"/>
<path d="M792 6452 l-23 -37 26 28 c14 15 25 32 25 38 0 14 -3 11 -28 -29z"/>
<path d="M960 6780 c-19 -19 -20 -33 -20 -313 0 -332 1 -337 69 -337 58 0 71
21 71 113 l0 77 73 0 73 0 67 -95 68 -95 44 0 c37 0 47 5 61 25 17 26 16 27
-40 109 -31 46 -56 88 -56 93 0 6 11 18 24 26 66 43 91 205 45 287 -55 98
-136 130 -336 130 -110 0 -125 -2 -143 -20z m339 -25 c101 -35 141 -93 141
-204 0 -63 -3 -73 -33 -113 -18 -24 -45 -49 -61 -56 -28 -14 -28 -14 -9 -35
37 -42 113 -158 113 -173 0 -12 -10 -14 -41 -12 -40 3 -45 7 -106 93 l-65 89
-94 1 -94 0 0 -92 0 -93 -40 0 -40 0 0 305 0 305 144 0 c101 0 156 -4 185 -15z"/>
<path d="M1010 6465 c0 -148 2 -266 5 -263 7 7 7 520 0 526 -3 3 -5 -115 -5
-263z"/>
<path d="M1346 6680 c12 -14 29 -38 37 -55 9 -16 16 -26 17 -22 0 16 -29 63
-51 82 l-24 20 21 -25z"/>
<path d="M1051 6558 l2 -133 106 3 c149 5 193 34 195 126 2 99 -53 136 -204
136 l-100 0 1 -132z m189 103 c55 -11 90 -48 90 -96 0 -86 -43 -115 -169 -115
l-81 0 0 103 c0 57 3 107 7 110 9 10 99 8 153 -2z"/>
<path d="M1264 6389 c-3 -6 1 -18 10 -27 16 -16 17 -16 10 2 -4 11 -2 21 7 27
11 7 11 9 -3 9 -9 0 -20 -5 -24 -11z"/>
<path d="M1710 6787 c-61 -17 -110 -48 -155 -98 -59 -65 -77 -118 -79 -223 -1
-80 2 -98 26 -146 59 -120 156 -182 293 -188 103 -5 178 22 247 86 31 29 48
39 48 29 0 -8 11 -29 25 -45 72 -86 241 -97 312 -20 48 52 53 84 53 344 0 207
-2 245 -16 258 -23 23 -269 23 -302 0 -25 -17 -31 -84 -9 -102 7 -6 53 -12
103 -14 l89 -3 2 -175 c3 -204 -2 -223 -59 -228 -30 -3 -44 3 -76 32 -42 38
-60 44 -80 24 -19 -19 -23 -4 -8 28 34 70 28 193 -15 280 -25 53 -97 120 -156
146 -57 25 -181 33 -243 15z m233 -41 c112 -50 177 -153 177 -279 0 -120 -37
-196 -125 -257 -127 -87 -304 -72 -412 36 -63 63 -86 123 -86 219 0 95 23 155
83 215 95 95 239 121 363 66z m515 -204 c3 -255 -3 -289 -57 -343 -65 -66
-174 -62 -252 8 -43 39 -48 57 -22 85 23 25 31 23 70 -17 29 -30 40 -35 80
-35 34 0 53 6 70 22 23 21 23 25 23 224 l0 203 -102 3 c-99 3 -103 4 -106 26
-8 51 -3 53 150 50 l143 -3 3 -223z"/>
<path d="M1783 6733 c15 -2 37 -2 50 0 12 2 0 4 -28 4 -27 0 -38 -2 -22 -4z"/>
<path d="M1983 6670 c21 -17 49 -53 62 -78 13 -26 24 -40 25 -32 0 24 -61 107
-94 125 -28 16 -27 14 7 -15z"/>
<path d="M1601 6644 c-23 -26 -41 -52 -41 -58 0 -6 7 1 17 14 9 14 30 40 46
58 17 17 28 32 25 32 -4 0 -25 -21 -47 -46z"/>
<path d="M1702 6669 c-73 -36 -122 -120 -122 -207 0 -68 42 -148 98 -187 39
-26 53 -30 125 -33 70 -2 88 1 122 20 111 65 146 222 75 330 -61 92 -197 127
-298 77z m222 -36 c130 -90 109 -297 -36 -358 -123 -51 -265 31 -276 159 -2
30 -1 71 2 90 9 45 71 113 121 132 59 21 139 12 189 -23z"/>
<path d="M1560 6345 c0 -20 85 -115 103 -115 5 0 -3 10 -18 22 -15 11 -40 39
-56 61 -16 22 -29 36 -29 32z"/>
<path d="M1993 6274 c-29 -30 -44 -50 -34 -45 18 10 91 87 91 96 0 8 -2 6 -57
-51z"/>
<path d="M2382 6242 l-23 -37 26 28 c14 15 25 32 25 38 0 14 -3 11 -28 -29z"/>
<path d="M2602 6784 c-22 -15 -22 -16 -22 -321 0 -280 2 -307 18 -319 25 -19
419 -19 445 0 21 16 24 88 4 105 -8 6 -76 12 -173 13 l-159 3 -3 68 -3 67 133
0 c95 1 138 4 151 14 21 16 24 88 4 104 -8 7 -69 13 -148 14 l-134 3 0 65 0
65 154 3 c93 1 160 7 168 13 7 7 13 29 13 50 0 65 -15 69 -235 69 -156 0 -195
-3 -213 -16z m423 -34 c3 -11 3 -29 0 -40 -6 -19 -15 -20 -171 -20 l-164 0 0
-90 0 -89 148 -3 147 -3 3 -37 3 -38 -150 0 -150 0 -3 -95 -3 -95 175 -2 175
-3 0 -35 0 -35 -212 -3 -212 -2 -3 295 c-2 162 -1 300 0 305 2 6 81 10 207 10
195 0 204 -1 210 -20z"/>
<path d="M2640 6464 c0 -22 2 -25 15 -14 12 10 13 16 4 26 -16 20 -19 18 -19
-12z"/>
<path d="M3283 6782 c-52 -19 -113 -59 -145 -97 -10 -11 -30 -45 -45 -75 -23
-47 -27 -68 -28 -145 0 -78 4 -97 27 -146 36 -72 89 -125 158 -158 47 -22 68
-26 150 -26 78 0 103 4 140 22 98 49 124 100 73 148 -32 29 -55 32 -74 8 -40
-47 -148 -66 -217 -37 -80 33 -124 98 -125 183 -1 171 181 269 321 171 23 -17
49 -30 57 -30 8 0 29 16 47 35 31 35 34 36 97 33 l66 -3 5 -251 c6 -280 7
-284 70 -284 64 0 65 3 66 284 l1 251 89 3 c69 2 92 6 102 19 18 25 15 70 -9
94 -19 19 -29 20 -261 17 -149 -2 -243 -7 -245 -13 -11 -33 -19 -34 -63 -13
-61 30 -186 35 -257 10z m232 -28 c22 -9 52 -25 67 -35 34 -24 33 -25 33 14
l0 32 243 3 243 2 -3 -37 -3 -38 -97 -3 -98 -3 0 -264 0 -265 -40 0 -40 0 -1
228 c-1 125 -2 244 -1 265 l1 37 -99 0 c-76 0 -100 -3 -100 -13 0 -8 -11 -23
-23 -35 l-24 -22 -38 30 c-48 38 -68 43 -155 38 -57 -3 -77 -9 -112 -34 -64
-45 -93 -103 -93 -189 0 -86 29 -144 93 -190 38 -26 54 -30 122 -33 67 -4 84
-1 119 19 23 12 41 26 41 31 0 16 37 8 55 -12 24 -26 14 -45 -41 -80 -64 -40
-143 -56 -217 -42 -163 30 -259 145 -260 310 -1 180 146 318 328 306 34 -2 79
-11 100 -20z"/>
<path d="M3378 6733 c12 -2 30 -2 40 0 9 3 -1 5 -23 4 -22 0 -30 -2 -17 -4z"/>
<path d="M3229 6682 c-38 -28 -84 -90 -75 -100 3 -3 6 0 6 7 0 7 25 37 55 67
31 30 55 54 53 54 -2 -1 -19 -13 -39 -28z"/>
<path d="M3140 6370 c0 -29 75 -121 115 -142 11 -6 -1 8 -26 30 -26 23 -56 61
-68 84 -11 24 -21 36 -21 28z"/>
<path d="M414 5979 c-4 -7 -7 -109 -7 -227 1 -247 -1 -242 89 -242 28 0 68 -7
88 -15 54 -23 116 -84 142 -140 l24 -50 0 -565 0 -565 -158 3 c-133 3 -161 1
-171 -12 -18 -21 -18 -431 0 -452 10 -12 93 -14 540 -14 466 0 529 2 543 16
14 13 16 48 16 224 0 181 -2 211 -17 225 -14 14 -36 16 -160 13 -78 -1 -143
-1 -143 3 0 3 5 10 10 15 14 14 13 1096 -1 1184 -46 290 -258 519 -546 591
-85 21 -238 26 -249 8z m214 -25 c257 -53 456 -235 545 -498 20 -58 21 -88 24
-657 l4 -596 -58 -17 c-108 -32 -102 -34 120 -35 121 -1 223 -3 228 -7 15 -9
11 -400 -4 -412 -13 -11 -1014 -16 -1042 -6 -13 5 -15 40 -15 215 l0 209 175
0 176 0 -3 583 c-3 568 -4 583 -24 628 -49 106 -136 166 -255 176 l-69 6 0
207 c0 114 3 210 7 213 12 12 112 7 191 -9z"/>
<path d="M470 5755 l0 -175 46 0 c101 0 223 -88 277 -199 22 -46 22 -46 22
-656 l0 -610 -172 -3 -173 -2 0 -170 0 -170 493 0 492 0 0 167 0 168 -270 5
c-235 4 -270 7 -273 21 -2 12 26 26 112 57 63 23 119 42 125 42 18 0 15 999
-4 1123 -26 173 -110 320 -245 429 -99 80 -224 127 -377 142 l-53 5 0 -174z
m200 119 c168 -48 315 -173 394 -338 64 -134 66 -155 66 -749 l0 -535 -106
-38 c-58 -20 -112 -44 -120 -51 -19 -19 -18 -48 2 -68 14 -13 49 -15 268 -15
l251 1 3 -145 3 -146 -466 2 -466 3 -2 143 c-1 89 2 142 8 142 6 1 74 1 152 0
86 -1 151 3 163 10 20 11 21 15 18 633 l-3 622 -29 60 c-52 105 -151 180 -256
193 l-52 7 1 143 c0 78 0 145 1 148 0 9 107 -5 170 -22z"/>
<path d="M2840 5928 c-41 -33 -84 -67 -95 -76 -41 -34 -165 -133 -405 -323
-411 -327 -471 -374 -478 -377 -6 -1 -269 205 -577 453 -56 45 -65 48 -91 36
-31 -14 -30 -33 5 -128 41 -108 51 -174 51 -342 l0 -144 37 -34 c106 -92 557
-443 572 -443 9 0 37 17 63 38 25 20 72 58 105 83 109 86 468 372 487 388 18
15 18 15 7 -6 -15 -29 -16 -1305 -1 -1334 10 -18 23 -19 223 -19 152 0 216 3
225 12 17 17 17 2249 0 2266 -22 22 -53 11 -128 -50z m118 -1073 c1 -828 -1
-1111 -9 -1122 -10 -11 -51 -14 -203 -13 -116 1 -196 6 -203 12 -10 8 -13 151
-13 657 l0 647 80 94 c44 51 78 96 75 98 -2 3 -42 -29 -87 -70 -46 -41 -99
-85 -118 -98 -19 -13 -66 -49 -105 -80 -321 -258 -499 -395 -515 -395 -10 0
-109 72 -220 160 -111 88 -237 187 -279 219 -42 32 -79 64 -83 70 -4 6 -8 74
-8 150 0 164 -12 245 -51 341 -31 75 -34 91 -20 99 9 6 61 -34 445 -338 116
-91 212 -166 216 -166 5 0 113 84 270 210 19 15 116 92 215 171 316 251 529
420 560 445 16 13 34 23 40 21 7 -3 11 -355 13 -1112z"/>
<path d="M2879 5872 c-14 -15 -92 -79 -173 -142 -82 -63 -300 -236 -485 -383
-185 -148 -343 -272 -351 -276 -11 -6 -57 25 -165 111 -82 66 -204 162 -270
213 -66 51 -129 102 -139 114 -28 31 -39 26 -21 -10 28 -52 45 -175 45 -313
l0 -132 251 -199 c138 -110 257 -206 264 -212 8 -7 17 -13 21 -13 7 0 113 77
124 89 3 4 59 49 125 102 66 52 238 189 382 304 297 237 308 244 324 228 8 -8
-21 -53 -110 -172 l-121 -160 0 -626 0 -625 168 0 168 0 -1 1065 c0 586 -2
1065 -5 1065 -3 -1 -17 -13 -31 -28z m11 -1057 l0 -1025 -145 0 -145 0 0 608
1 607 119 160 c66 88 120 168 120 177 0 22 -45 52 -62 42 -7 -4 -67 -50 -133
-103 -66 -52 -163 -128 -215 -170 -52 -41 -115 -91 -139 -110 -213 -171 -421
-336 -429 -339 -4 -1 -46 29 -92 66 -47 38 -163 130 -257 205 l-173 137 0 141
c0 77 -5 160 -11 185 -6 25 -9 47 -7 50 3 3 121 -88 263 -201 141 -113 265
-205 274 -205 10 0 76 46 147 103 71 57 275 220 454 362 179 141 345 275 370
296 25 21 48 38 53 38 4 1 7 -460 7 -1024z"/>
<path d="M3022 5978 c-9 -9 -12 -73 -12 -225 l0 -213 24 -15 c19 -13 50 -16
148 -14 l123 1 5 -608 c5 -530 8 -616 22 -665 68 -228 237 -414 447 -493 119
-45 304 -62 335 -30 14 13 16 48 16 224 0 204 0 209 -22 224 -13 9 -44 16 -73
16 -90 1 -182 59 -228 145 -22 39 -22 50 -27 600 -3 308 -8 567 -13 575 -6 13
14 15 157 12 222 -5 206 -23 206 239 0 119 -4 208 -10 220 -10 18 -27 19 -548
19 -405 0 -541 -3 -550 -12z m1076 -217 c1 -113 -1 -208 -6 -213 -4 -4 -117
-8 -251 -8 -134 -1 -241 -3 -238 -6 5 -5 34 -14 112 -33 l30 -7 5 -559 c5
-547 6 -561 27 -606 52 -112 156 -179 281 -179 l42 0 -2 -212 -3 -213 -90 3
c-182 6 -322 69 -460 207 -74 73 -99 106 -133 175 -79 162 -76 131 -80 817
l-3 612 -147 3 -147 3 -3 200 c-1 110 0 205 3 212 3 11 109 13 532 11 l528 -3
3 -204z"/>
<path d="M3080 5754 l0 -174 144 0 145 0 3 -622 c4 -698 1 -668 80 -828 32
-67 58 -102 122 -165 119 -119 242 -177 404 -193 l82 -8 0 172 0 171 -56 6
c-115 12 -210 83 -263 196 l-26 56 -3 545 -3 545 -122 38 c-140 44 -152 49
-152 68 0 12 54 14 313 17 l312 2 0 175 0 175 -490 -1 -490 -1 0 -174z m950
146 c1 -5 1 -74 1 -152 l1 -141 -294 2 c-161 1 -298 -2 -304 -6 -6 -5 -14 -18
-18 -30 -11 -36 21 -56 152 -98 l121 -39 3 -550 3 -551 28 -50 c15 -28 47 -71
70 -95 48 -50 150 -100 202 -100 21 0 35 -5 36 -12 0 -7 0 -74 0 -148 0 -158
6 -152 -118 -125 -257 56 -449 252 -502 513 -7 34 -11 264 -11 650 0 534 -2
600 -16 621 -16 22 -20 23 -148 20 l-131 -3 -3 147 -3 147 458 3 c252 1 461 3
466 5 4 1 7 -2 7 -8z"/>
</g>
</svg>
