<?xml version="1.0" encoding="UTF-8" standalone="no"?>
<svg
   xmlns:dc="http://purl.org/dc/elements/1.1/"
   xmlns:cc="http://creativecommons.org/ns#"
   xmlns:rdf="http://www.w3.org/1999/02/22-rdf-syntax-ns#"
   xmlns:svg="http://www.w3.org/2000/svg"
   xmlns="http://www.w3.org/2000/svg"
   xmlns:sodipodi="http://sodipodi.sourceforge.net/DTD/sodipodi-0.dtd"
   xmlns:inkscape="http://www.inkscape.org/namespaces/inkscape"
   width="64mm"
   height="64mm"
   viewBox="0 0 64 64"
   version="1.1"
   id="svg923"
   sodipodi:docname="BNB-BTCB.svg"
   inkscape:version="1.0.1 (3bc2e813f5, 2020-09-07)"
   inkscape:export-filename="bnb_busd.png"
   inkscape:export-xdpi="136.95"
   inkscape:export-ydpi="136.95">
  <defs
     id="defs917" />
  <sodipodi:namedview
     id="base"
     pagecolor="#ffffff"
     bordercolor="#666666"
     borderopacity="1.0"
     inkscape:pageopacity="0.0"
     inkscape:pageshadow="2"
     inkscape:zoom="2.8"
     inkscape:cx="104.8781"
     inkscape:cy="143.41044"
     inkscape:document-units="mm"
     inkscape:current-layer="layer1"
     inkscape:document-rotation="0"
     showgrid="false"
     inkscape:window-width="1920"
     inkscape:window-height="1016"
     inkscape:window-x="0"
     inkscape:window-y="27"
     inkscape:window-maximized="1"
     borderlayer="true"
     inkscape:pagecheckerboard="true"
     inkscape:snap-global="false"
     showguides="true"
     inkscape:guide-bbox="true">
    <sodipodi:guide
       position="12.895754,33.397638"
       orientation="0,-1"
       id="guide984" />
    <sodipodi:guide
       position="17.973875,19.499623"
       orientation="0,-1"
       id="guide986" />
    <sodipodi:guide
       position="23.72017,28.319517"
       orientation="1,0"
       id="guide988" />
    <sodipodi:guide
       position="32.807334,32.929916"
       orientation="1,0"
       id="guide990" />
  </sodipodi:namedview>
  <metadata
     id="metadata920">
    <rdf:RDF>
      <cc:Work
         rdf:about="">
        <dc:format>image/svg+xml</dc:format>
        <dc:type
           rdf:resource="http://purl.org/dc/dcmitype/StillImage" />
        <dc:title></dc:title>
      </cc:Work>
    </rdf:RDF>
  </metadata>
  <g
     inkscape:label="Capa 1"
     inkscape:groupmode="layer"
     id="layer1">
    <path
       id="path7541-5"
       style="fill:#b1d4e6;fill-opacity:1;stroke:#b1d4e6;stroke-width:0.480803;stroke-linecap:round;stroke-linejoin:round;stroke-miterlimit:4;stroke-dasharray:none;stroke-opacity:1"
       d="m 49.547977,45.161424 c -0.02733,-0.0012 -0.04808,0.0044 -0.06147,0.01779 -0.03471,0.03471 -0.154337,0.598913 -0.265805,1.253757 -0.111469,0.654842 -0.31355,1.441307 -0.449119,1.747788 -0.315226,0.712621 -0.312123,0.761562 0.08871,1.393609 0.825263,1.301305 0.710371,2.738706 -0.309159,3.869664 -1.284441,1.424827 -3.463227,1.364427 -4.752343,-0.131844 l -0.521044,-0.604869 -0.509933,0.2588 c -1.167802,0.592912 -2.293475,1.39951 -2.368108,1.696876 -0.269267,1.07285 2.235819,3.157436 4.257529,3.542942 1.143448,0.218042 2.771274,0.116591 3.785178,-0.236012 2.298058,-0.799187 3.965098,-2.567269 4.649951,-4.931767 0.66373,-2.291555 0.05913,-4.557264 -1.72622,-6.469006 -0.679642,-0.727753 -1.553899,-1.39526 -1.818164,-1.407725 z m -35.108003,1.785587 c -0.09295,-0.0077 -0.22677,0.122543 -0.542281,0.473468 -0.284675,0.316627 -0.695397,0.930126 -0.912692,1.363258 -0.393899,0.785152 -0.395093,0.79237 -0.395093,2.400126 0,1.603424 0.0023,1.61714 0.39387,2.414804 0.700655,1.427216 2.048573,2.532159 3.652884,2.994323 0.775056,0.223273 2.432108,0.137703 3.312822,-0.17109 0.770496,-0.270149 2.03911,-1.167798 2.461158,-1.741339 l 0.276366,-0.37553 -0.274363,-0.222113 c -0.150912,-0.122197 -0.714902,-0.482396 -1.253314,-0.800417 l -0.97895,-0.578181 -0.345402,0.206436 c -1.172547,0.700662 -1.800929,0.797178 -2.656925,0.408432 -0.619426,-0.281305 -1.272092,-0.944426 -1.405726,-1.428404 -0.05879,-0.212928 -0.0812,-0.746164 -0.0498,-1.184941 0.0541,-0.75612 0.03278,-0.84603 -0.407545,-1.721781 -0.255518,-0.508201 -0.499692,-1.111644 -0.542724,-1.341022 -0.04303,-0.229381 -0.141032,-0.502845 -0.217666,-0.60765 -0.03861,-0.0528 -0.07236,-0.08486 -0.114616,-0.08838 z"
       sodipodi:nodetypes="scsssscccssssssssssssssccccccsssssss" />
    <path
       id="path7696-9"
       style="fill:#245978;fill-opacity:1;stroke:none;stroke-width:0.0542997px;stroke-linecap:butt;stroke-linejoin:miter;stroke-opacity:1"
       d="m 38.575922,1.2905612 c -0.05625,9.03e-4 -0.114993,0.00291 -0.176262,0.00594 -0.506351,-0.00472 -1.169165,0.025744 -2.0355,0.048256 l -3.011939,0.078691 -10e-4,-0.023332 -2.18037,0.053344 c -0.553024,0.02892 -1.325946,0.055864 -2.170718,0.072756 -1.568189,0.031315 -2.969525,0.1044892 -3.114603,0.1628994 -0.01217,0.0049 -0.02467,0.012032 -0.03722,0.020151 l -6.16e-4,-3.284e-4 -0.0086,0.00658 c -0.0066,0.00466 -0.01334,0.00969 -0.02005,0.015166 L 25.020531,2.337205 c 0,0 0.328585,0.092288 0.337041,0.099266 0.0027,0.0022 0.05675,-0.012125 0.12281,-0.030544 -0.142713,0.9471673 -0.101834,8.629034 0.05706,8.886078 0.06145,0.09945 0.258659,0.243078 0.437792,0.318479 0.179129,0.07452 1.655741,0.10494 3.282167,0.0666 6.120837,-0.144226 8.58028,-0.204922 9.624001,-0.283059 l 0.003,0.447973 0.784907,-0.593589 c 0.01077,-0.0073 0.02082,-0.01485 0.03001,-0.02269 l 0.04985,-0.03765 -0.0053,-0.0085 c 0.08583,-0.10665 0.140173,-0.328481 0.176262,-0.813758 l 0.143916,0.275321 c 0,0 0.186162,-0.03068 0.372145,-0.06321 -1.27e-4,0.0014 -2.05e-4,0.0027 -4.1e-4,0.004 -0.05567,0.613941 -0.169338,0.995559 -0.333222,1.115372 -0.341942,0.250029 -2.387258,0.346883 -8.924574,0.422099 -5.344607,0.06153 -5.599167,0.05141 -5.876466,-0.225898 -0.159427,-0.159397 -0.301396,-0.512041 -0.315725,-0.783106 -0.06256,-1.1886164 0.0024,-1.102687 -0.803465,-1.059693 -1.002683,0.05342 -4.742144,1.178148 -6.683647,2.010363 -0.839574,0.359888 -1.679006,1.116219 -2.087148,1.878968 -0.327471,0.612029 -0.331929,0.701037 -0.282317,6.194096 0.02778,3.070739 -0.0084,5.572938 -0.0806,5.572938 -0.07209,0 -0.607209,-0.255583 -1.188337,-0.567389 -1.006847,-0.540201 -1.124378,-0.566661 -2.49726,-0.568345 -1.286631,-0.0021 -1.5374417,0.04575 -2.3500565,0.442354 -1.1641942,0.568154 -2.4358353,1.861478 -3.0719688,3.123937 -1.5999046,3.175033 -1.0367315,7.794186 1.5465905,12.675073 0.8470582,1.600449 2.1441537,3.642159 2.7138218,4.271546 0.299479,0.33085 0.301476,0.36313 0.05451,0.781195 -0.141677,0.239995 -0.257183,0.471291 -0.257183,0.513732 0,0.0424 0.440246,0.390697 0.978246,0.774619 0.538002,0.383921 1.014524,0.757513 1.058951,0.829341 0.04433,0.07185 -0.02369,0.482535 -0.151763,0.913551 -0.269386,0.907127 -0.549226,1.073695 -1.801332,1.073695 -0.5181008,0 -0.8235984,0.02768 -0.9719881,0.20437 l -0.8273276,0.615217 c 0,0 0.4441288,0.215889 0.7780134,0.360267 0.036929,0.213604 0.088061,0.461907 0.1532475,0.759241 0.1776635,0.810402 0.3653091,1.726663 0.4174308,2.036454 0.1420462,0.844204 0.3325281,0.924985 1.353145,0.573861 1.344864,-0.462703 1.586594,-0.414128 2.160326,0.432173 0.271074,0.399842 0.492517,0.778937 0.492517,0.843237 2e-6,0.06432 -0.2727,0.50645 -0.606314,0.98206 -0.333628,0.475617 -0.607266,0.998753 -0.607266,1.162463 0,0.229036 0.438807,0.51784 1.902083,1.254198 0.658446,0.331344 1.283762,0.61564 1.690612,0.774619 l -0.429203,0.377765 0.07254,0.378827 0.855645,-0.644277 c 0.146612,-0.09854 0.392501,-0.512748 0.593692,-1.011018 0.567555,-1.405665 0.519345,-1.365131 1.620721,-1.365131 1.103835,0 1.060993,-0.04391 1.495684,1.538211 0.243237,0.885352 0.516036,1.137895 0.962654,0.89234 0.142664,-0.07846 1.009648,-0.484799 1.927111,-0.902412 0.246243,-0.112087 0.454793,-0.211167 0.642691,-0.303423 l 0.07625,0.104886 0.724351,-0.550845 c 0.172701,-0.12162 0.258381,-0.219891 0.271818,-0.305012 0.02573,-0.162579 -0.162358,-0.708907 -0.417431,-1.214214 -0.25508,-0.505293 -0.463669,-1.012718 -0.463669,-1.127362 0,-0.209864 0.567498,-0.812982 0.656158,-0.69709 0.02621,0.03425 0.241752,0.472386 0.479471,0.972836 0.284995,0.600024 0.823816,1.302901 1.581799,2.064129 1.67518,1.682318 3.16812,2.377317 5.396148,2.512008 2.187613,0.132349 3.952594,-0.356936 5.654495,-1.566958 0.392301,-0.2789 0.820768,-0.507256 0.951519,-0.507256 0.130822,0 0.866604,0.443541 1.635462,0.98567 0.665688,0.469395 1.114579,0.761875 1.447217,0.88746 l -0.420186,0.187508 0.222501,0.423472 0.817466,-0.621053 4.11e-4,-0.0014 c 0.172389,-0.109663 0.319332,-0.327048 0.495696,-0.647357 0.229338,-0.416528 0.534366,-0.79619 0.677475,-0.843128 0.27381,-0.08979 1.92048,0.188643 2.223217,0.375749 0.09717,0.06009 0.217597,0.581968 0.267574,1.159811 0.05163,0.597727 0.17901,1.121611 0.295255,1.215273 0.193156,0.155681 2.383494,-0.17855 3.624191,-0.487635 l 0.04582,0.280829 0.735061,-0.538014 c 0.01796,-0.01096 0.03275,-0.0216 0.04327,-0.03181 0.186146,-0.180785 0.178918,-0.332451 -0.05642,-1.109752 -0.149954,-0.495029 -0.233533,-0.963256 -0.185167,-1.041345 0.04828,-0.07816 0.505047,-0.400038 1.014516,-0.714487 l 0.925638,-0.571103 0.906127,0.711729 c 0.283086,0.222405 0.562524,0.408197 0.772821,0.522 l -0.536108,0.656685 0.03373,0.09227 0.850344,-0.646401 -4.1e-4,-2.05e-4 c 0.369265,-0.236601 2.64755,-3.579072 2.569906,-3.781578 -0.03852,-0.100459 -0.472859,-0.434267 -0.965413,-0.742168 l -0.896048,-0.559968 0.213804,-0.803467 c 0.117591,-0.441691 0.214549,-0.952045 0.215608,-1.134779 0.0022,-0.440768 0.118923,-0.495676 1.283788,-0.604406 0.08235,-0.0077 0.159534,-0.01551 0.23247,-0.02365 l 0.03203,0.388266 0.762531,-0.580014 c 0.287191,-0.174249 0.272291,-0.493954 0.126416,-1.165535 -0.216281,-0.995766 -0.404317,-1.975116 -0.541512,-2.820407 l -0.09545,-0.589553 -0.835711,0.08696 c -0.613045,0.06323 -0.815681,0.0376 -0.75998,-0.09439 0.04178,-0.09896 0.357032,-0.819927 0.700694,-1.603114 1.500195,-3.418882 2.186295,-6.644925 2.184507,-10.253646 -0.0016,-2.762899 -0.226101,-4.192667 -1.053402,-6.724313 -1.157676,-3.542572 -2.700609,-6.07847 -5.860873,-9.631739 L 50.48868,16.726018 V 15.33766 c 0,-1.118179 -0.06171,-1.506037 -0.318478,-1.992759 C 49.507804,12.0893 48.94155,11.741554 46.015202,10.787512 44.605234,10.327821 41.381783,9.5861942 40.78376,9.5723424 v 1.031e-4 c -0.03987,0 -0.06804,0.00198 -0.08325,0.00711 -0.0018,6.998e-4 -0.0038,0.00251 -0.0056,0.0035 -6e-6,-2.17e-5 -4.1e-4,-0.0017 -4.1e-4,-0.0017 -0.07468,0.020281 -0.575943,0.4258405 -0.760728,0.5766145 0.02459,-0.4360324 0.03933,-1.0434242 0.05038,-1.8991128 -0.278424,-5.9348631 0.336737,-6.9959841 -1.40819,-6.9682966 z m -2.260015,1.0830255 c 1.70243,0 2.292874,0.043396 2.414005,0.143916 0.323741,0.2685831 0.34382,7.5920163 0.02312,7.8581993 -0.330806,0.274388 -11.934592,0.421665 -12.187225,0.154521 -0.26783,-0.283667 -0.261875,-7.3954022 0.0074,-7.7637015 0.17995,-0.24613 0.684188,-0.2754357 6.059836,-0.3554951 1.159369,-0.017239 2.108628,-0.028898 2.88319,-0.034149 0.29046,-0.00205 0.556445,-0.00308 0.79965,-0.00329 z M 33.276284,13.418081 h 1.07e-4 c 4.864759,0.0072 7.22123,0.316465 11.222662,1.473517 2.430537,0.702824 3.037522,0.986958 3.409008,1.592933 0.305247,0.498049 0.308065,0.652743 0.269376,15.149113 l -0.03892,14.645564 -0.459958,0.74333 c -0.400384,0.647559 -0.809044,0.963827 -3.179504,2.457489 -1.496098,0.942715 -2.815405,1.694045 -2.932188,1.670571 -0.124304,-0.02498 -0.250829,-0.515679 -0.486894,-1.12736 -0.684836,-1.774496 -0.804779,-2.482315 -2.491746,-4.208973 -1.802035,-1.633797 -3.853343,-2.031816 -5.957917,-2.053531 -2.104575,-0.02171 -4.084959,0.760497 -5.778472,2.416661 -1.239603,1.265 -2.113351,2.824768 -2.438931,4.362433 -0.146438,0.69166 -0.266639,0.946733 -0.445216,0.943146 -0.134568,-0.0023 -1.457766,-0.735529 -2.940566,-1.62995 -2.006579,-1.210413 -2.80184,-1.776554 -3.109086,-2.214095 l -0.412764,-0.587753 -0.03977,-14.903808 -0.04072,-14.903802 0.384976,-0.457204 c 0.442604,-0.525997 1.920687,-1.137738 4.669675,-1.932627 3.874959,-1.12046 6.292287,-1.442816 10.796854,-1.435654 z m -5.198249,2.453672 v 0.0011 c -0.964504,-0.02719 -5.024832,0.8554 -5.788442,1.270745 l -0.386885,0.210091 h 0.379462 c 0.208521,0 0.822244,-0.09633 1.364387,-0.215608 1.193659,-0.262588 1.213367,-0.264212 1.213367,-0.08421 0,0.07893 -0.372952,0.39123 -0.829238,0.694125 -0.456314,0.302873 -1.183646,0.93754 -1.616054,1.410627 -1.23665,1.352982 -1.488973,2.334755 -0.653506,2.544455 0.202974,0.05102 0.36928,0.14693 0.36928,0.21285 0,0.06598 -0.247704,0.484913 -0.55074,0.93116 -0.604539,0.890277 -1.420647,2.515557 -1.420809,2.830479 0,0.109756 0.07106,0.331994 0.157385,0.493368 0.101723,0.189979 0.316754,0.293344 0.611826,0.293344 0.372158,0 0.697575,-0.245615 1.777151,-1.341162 0.726606,-0.737385 1.817848,-1.736176 2.425039,-2.219612 0.607186,-0.483453 1.072018,-0.910575 1.032967,-0.949611 -0.141678,-0.141684 -2.267795,1.116708 -3.072923,1.818728 -0.454355,0.396171 -0.890601,0.720216 -0.96923,0.720216 -0.379324,0 -0.01958,-0.586525 1.319952,-2.154811 l 1.462383,-1.712457 -0.894143,-0.04624 c -0.491483,-0.02545 -0.950795,-0.103539 -1.021727,-0.173928 -0.42675,-0.424288 0.875061,-1.563171 3.9957,-3.495022 1.387227,-0.858751 1.538845,-0.991405 1.178262,-1.032966 -0.02445,-0.0029 -0.05235,-0.0048 -0.08346,-0.0056 z m 22.647464,3.51262 v 1.08e-4 c 0.200435,-0.0029 0.650875,0.488932 1.720732,1.848419 1.078992,1.371043 2.615317,4.048234 3.302421,5.754295 2.216207,5.502702 1.902761,11.790719 -0.891174,17.864841 -0.258956,0.56298 -0.524274,1.023631 -0.589664,1.023631 -0.120306,0 -0.746088,-0.809636 -0.746088,-0.965302 0,-0.04642 0.308455,-0.463048 0.685956,-0.926491 0.789059,-0.968756 0.767083,-1.143489 -0.219425,-1.744803 -0.340193,-0.207366 -0.618295,-0.460153 -0.618295,-0.56082 0,-0.100682 0.200002,-0.783507 0.44426,-1.518059 1.199982,-3.608617 1.467457,-7.911836 0.682142,-10.965374 -0.287155,-1.116583 -1.095082,-2.963872 -1.691989,-3.86716 -0.220467,-0.33364 -0.843031,-1.063081 -1.382841,-1.620724 l -0.981002,-1.013559 0.03044,-1.563346 c 0.01701,-0.859679 0.09884,-1.631643 0.182306,-1.715112 0.0195,-0.01949 0.04358,-0.03011 0.07223,-0.03054 z m -0.111886,5.86088 c 0.603553,-0.03023 2.161739,2.772916 2.614769,4.935236 0.270781,1.292254 0.242318,4.57915 -0.05367,6.217217 -0.279459,1.546474 -0.966809,4.024011 -1.174657,4.234536 -0.08433,0.08544 -0.290177,0.07056 -0.528467,-0.03796 -0.253173,-0.115351 -0.368418,-0.131808 -0.535049,6.15e-4 l -8.21e-4,-0.0021 -0.646614,0.498243 c -0.07019,-1.159061 0.04172,-15.371177 0.130022,-15.649578 0.04126,-0.130097 0.10829,-0.19189 0.194506,-0.196201 z m -39.315377,0.840479 c 1.465089,0 2.308137,0.36187 3.263606,1.398431 0.485002,0.526225 0.601116,0.758861 0.56368,1.132129 -0.0436,0.435636 -0.179845,0.537285 -1.866874,1.394825 -2.316133,1.177328 -3.6949784,2.437229 -4.0772558,3.724521 -0.4860054,1.636569 -0.1847704,3.717927 1.2134738,8.386769 0.161536,0.539404 -0.263808,0.241754 -0.7571216,-0.530374 -2.200074,-3.44343 -3.419419,-7.792822 -2.9924288,-10.672985 0.3129782,-2.111214 1.3754616,-3.81431 2.8277255,-4.534347 0.4482477,-0.222347 0.9133339,-0.298969 1.8251949,-0.298969 z m 3.752304,4.805531 c 0.02168,0.0021 0.03814,0.0077 0.04815,0.01771 0.06484,0.06472 0.121345,1.078039 0.12493,2.252805 l 0.0065,2.136355 -0.985669,0.853309 c -1.556218,1.347134 -2.437473,2.28165 -2.604588,2.761021 -0.08492,0.243625 -0.21169,0.442351 -0.281361,0.442351 -0.15479,0 -0.222308,-0.215803 -0.520196,-1.667812 -0.530657,-2.586684 -0.162815,-4.005684 1.345829,-5.189761 0.970061,-0.761375 2.541527,-1.632289 2.866433,-1.605981 z m -8.2e-4,6.669437 c 0.01094,1.02e-4 0.02134,0 0.03139,0.0033 0.206808,0.04248 0.229773,0.504854 0.238834,1.526226 0.0075,0.854896 0.03173,2.338779 0.05451,3.297974 0.02329,0.982565 -0.02334,1.826818 -0.107326,1.933578 -0.08209,0.104298 -0.198781,0.189734 -0.258244,0.189734 -0.0595,0 -0.562204,-0.471116 -1.118024,-1.046863 l -1.0108,-1.046879 v -1.233729 c 0,-1.489605 0.268364,-2.111332 1.304149,-3.023075 0.435345,-0.383242 0.701421,-0.601582 0.865511,-0.600164 z m 35.3131,7.013152 c 0.01133,-6e-5 0.02301,-3.7e-5 0.03511,0.0021 0.67715,0.05935 2.515828,1.849706 3.136763,3.176645 0.96311,2.058081 0.931622,4.051138 -0.09725,6.132907 -0.911003,1.843331 -2.449251,3.101624 -4.602858,3.765346 -0.367739,0.113331 -1.254993,0.204462 -1.971549,0.200873 -2.060084,-0.0078 -3.551786,-0.656866 -4.98243,-2.169555 -0.860941,-0.91033 -1.025013,-1.517444 -0.528469,-1.953944 0.438494,-0.385436 2.517362,-1.633768 2.721141,-1.633768 0.10428,0 0.296311,0.204945 0.425808,0.455505 0.317473,0.613957 1.224736,1.18909 2.056712,1.303195 1.369892,0.187765 2.648851,-0.470193 3.253316,-1.674382 0.576833,-1.149151 0.448734,-2.323487 -0.366522,-3.359907 -0.295316,-0.375462 -0.295316,-0.378481 0.07594,-1.1894 0.204932,-0.44762 0.41404,-1.256637 0.464729,-1.800162 0.05078,-0.542933 0.141761,-1.067589 0.202669,-1.166283 0.03712,-0.06001 0.09758,-0.08814 0.176897,-0.08855 z m -16.871324,0.556361 v 1.09e-4 c 0.03393,0 0.07188,-8.2e-5 0.114326,0.0021 0.113194,0.0057 0.258706,0.02227 0.447973,0.04454 1.010711,0.118788 2.374583,0.620364 2.889766,1.063512 l 0.392401,0.336825 -0.476713,0.543428 c -0.762178,0.868047 -0.200573,1.489774 0.587751,0.650641 0.195878,-0.208593 0.471638,-0.378507 0.612783,-0.378507 0.526643,0 1.6624,2.334088 1.6624,3.417172 0,0.436847 -0.05778,0.529347 -0.341601,0.547982 -0.187682,0.01231 -0.443141,0.03758 -0.568345,0.05367 -0.125106,0.01703 -0.313187,0.04027 -0.417428,0.05282 -0.104301,0.01231 -0.189731,0.193111 -0.189731,0.401622 0,0.346716 0.05669,0.379573 0.663685,0.379573 0.365118,0 0.73523,0.08529 0.821922,0.189728 0.421384,0.507715 -0.862044,4.055939 -1.467048,4.055939 -0.126041,0 -0.423011,-0.185737 -0.659977,-0.41276 -0.336959,-0.322806 -0.485958,-0.378409 -0.68214,-0.254638 -0.401693,0.253374 -0.381425,0.432618 0.106479,0.943144 0.252313,0.264021 0.459001,0.548638 0.459001,0.632293 0,0.454354 -2.100304,1.516404 -3.438597,1.739076 -0.544346,0.09057 -0.656359,0.06154 -0.799649,-0.206383 -0.09188,-0.171343 -0.12681,-0.470882 -0.07774,-0.666442 0.103045,-0.410518 -0.253963,-0.795074 -0.610872,-0.658066 -0.149531,0.05738 -0.229606,0.289586 -0.229606,0.668354 0,0.31954 -0.08134,0.663458 -0.181461,0.763593 -0.227217,0.227287 -0.441483,0.218366 -1.48635,-0.0612 -0.886086,-0.237079 -2.410208,-1.070477 -2.535227,-1.386448 -0.0412,-0.104027 0.138112,-0.431595 0.398023,-0.727638 0.386556,-0.440295 0.443386,-0.592525 0.313706,-0.834859 -0.219447,-0.410105 -0.434197,-0.372242 -0.999667,0.175839 -0.285334,0.276505 -0.561022,0.426128 -0.666339,0.361116 -0.274793,-0.169828 -1.029382,-1.85638 -1.22832,-2.745323 -0.236592,-1.057188 -0.135433,-1.272759 0.599737,-1.272759 0.636094,0 1.025021,-0.300597 0.879402,-0.680229 -0.06079,-0.158479 -0.301525,-0.229504 -0.779286,-0.229504 -0.458544,0 -0.719918,-0.07279 -0.774728,-0.21571 -0.13057,-0.340292 0.365629,-2.0585 0.835709,-2.892529 0.497868,-0.883338 0.862572,-1.005736 1.373615,-0.461759 0.423062,0.450312 0.691861,0.487899 0.894991,0.124932 0.111553,-0.199334 0.04168,-0.378871 -0.296102,-0.76359 -0.242885,-0.276626 -0.441611,-0.563789 -0.441611,-0.638658 0,-0.361839 1.700651,-1.239622 2.938764,-1.51711 0.914639,-0.204958 1.156202,-0.04273 1.156202,0.777486 0,0.389239 0.07792,0.622488 0.228548,0.68034 0.337909,0.129661 0.71395,-0.247716 0.620099,-0.62201 -0.04429,-0.175529 -0.03805,-0.478697 0.01293,-0.673867 0.05703,-0.218035 0.100769,-0.300196 0.338314,-0.305756 z m -18.22882,1.130751 c 0.006,2e-5 0.01174,6.9e-5 0.01738,0.0021 0.05427,0.01026 0.09298,0.06818 0.143491,0.16576 0.08015,0.154885 0.189659,0.525672 0.243395,0.823728 0.0537,0.298052 0.297658,0.857231 0.542361,1.243059 0.410954,0.64809 0.438619,0.78094 0.361962,1.733563 -0.07338,0.911417 -0.04125,1.092371 0.275001,1.561439 0.196803,0.291932 0.664785,0.689266 1.039436,0.88216 0.841308,0.433089 1.587524,0.372496 2.448158,-0.197047 l 0.608009,-0.401842 1.276468,0.73029 c 0.76997,0.440744 1.276057,0.82799 1.276363,0.975592 4.11e-4,0.347019 -1.309452,1.525797 -2.142826,1.928065 -0.386648,0.186614 -1.103818,0.404927 -1.592935,0.484986 -1.064086,0.174339 -1.115551,0.173329 -2.17793,-0.06289 -1.731106,-0.384904 -3.108688,-1.480197 -3.89198,-3.093388 -0.373003,-0.768066 -0.422225,-1.039385 -0.425808,-2.385272 -0.0044,-1.406607 0.03126,-1.592438 0.479367,-2.502665 0.266198,-0.540691 0.720724,-1.212193 1.009848,-1.492185 0.284692,-0.275703 0.419916,-0.395188 0.510227,-0.394944 z m 11.668301,2.979487 c -0.01422,1.64e-4 -0.02636,0.0021 -0.03659,0.0046 -0.05455,0.01498 -0.05495,0.06731 -0.02864,0.146142 0.05284,0.158496 2.879051,1.831484 5.105558,3.022973 0.449629,0.240607 0.911514,0.437792 1.026501,0.437792 0.189754,0 2.77099,-2.251439 3.435733,-2.996989 0.58684,-0.658163 -0.08164,-0.43914 -1.809604,0.594224 -0.991321,0.592818 -1.973006,1.07924 -2.181536,1.082813 -0.208513,0.0029 -1.4895,-0.517412 -2.847132,-1.156841 -1.767499,-0.832464 -2.450921,-1.136848 -2.664297,-1.134568 z" />
    <path
       style="fill:#cbdfec;fill-opacity:1;stroke:none;stroke-width:0.0569182px;stroke-linecap:butt;stroke-linejoin:miter;stroke-opacity:1"
       d="m 15.696275,16.928526 c 0,0 8.200604,-3.649217 16.506403,-3.548041 8.3058,0.101176 16.215482,2.852705 16.215482,2.852705 0,0 0.712251,29.990396 0.421704,30.738606 -0.290547,0.748206 -5.868748,5.177109 -6.71376,5.397045 -0.845014,0.219934 -1.452822,-0.138252 -1.842492,-0.841757 -0.38967,-0.703508 -0.866175,-6.081085 -7.670888,-6.338765 -6.804711,-0.257679 -7.366689,6.423815 -7.895125,6.993514 -0.528435,0.569698 -1.021471,0.967539 -2.469723,0.338474 C 20.799629,51.891239 16.50443,48.898406 16.347318,47.983531 16.190206,47.068659 15.696275,16.928526 15.696275,16.928526 Z"
       id="path7548-3-6"
       sodipodi:nodetypes="cscsssssssc" />
    <path
       style="fill:#ffffff;fill-opacity:1;stroke:none;stroke-width:1.07002;stroke-linecap:round;stroke-linejoin:round;stroke-miterlimit:4;stroke-dasharray:none;stroke-opacity:1"
       d="m 30.290523,60.280114 c -0.934421,-0.229835 -2.976772,-1.339071 -2.976772,-1.616738 0,-0.07101 -0.431573,-1.022889 -0.192189,-1.359585 0.332325,-0.46742 0.653165,-0.202471 0.576293,-0.411777 -0.15061,-0.410058 -0.109113,0.0341 -0.646109,0.45168 -0.260165,0.202305 -0.62703,0.110158 -0.707294,0.156578 -0.336824,0.194804 -1.44156,-2.378528 -1.476883,-3.440186 -0.02264,-0.680444 -0.03077,-0.97644 0.269125,-1.007946 0.713145,-0.07493 1.27735,-0.04005 1.356511,-0.289463 0.121525,-0.382889 -0.35755,-0.373863 -0.922578,-0.373863 -0.624023,0 -0.790299,-0.438867 -0.790299,-0.760247 0,-0.136052 0.170891,-0.780864 0.379762,-1.432909 0.393587,-1.228702 0.997112,-2.237615 1.33852,-2.237615 0.424971,-0.295964 1.301366,0.733106 1.425498,0.703992 -1.381033,-1.273186 -1.10539,-1.411608 -0.230727,-2.121826 3.41867,-1.347814 5.770155,-2.613598 9.108093,-0.350141 l 0.534488,0.387184 -0.139109,0.534528 c -0.363495,1.396678 -0.705762,1.522189 0.359417,0.586948 0.546455,-0.479791 0.775302,-0.195218 1.371045,0.682103 0.493163,0.726244 0.92191,1.841192 1.017101,2.644939 0.08042,0.679022 0.19392,0.976481 -0.800876,1.118778 -0.600469,0.0859 -0.746059,-0.183242 -0.746059,0.248553 0,0.398991 0.09319,0.25708 0.436394,0.287287 0.209003,0.01837 0.516373,0.253081 0.751947,0.291807 l 0.42831,0.07042 -0.0644,0.782836 c -0.07863,0.955804 -0.755049,2.756419 -1.238924,3.297972 l -0.353685,0.39583 -0.757938,-0.245883 c -0.656398,-0.212942 -0.634277,-0.675157 -0.886431,-0.423009 -0.24338,0.24338 0.06073,0.282753 0.533093,0.859206 0.243843,0.297574 0.201599,0.784952 0.201599,0.858301 0,0.407797 -2.634149,1.653688 -3.736999,1.767511 -1.880093,0.04945 -1.618215,-0.179826 -2.11521,-0.115565 -0.150301,0.150312 -0.814074,0.180986 -1.304714,0.06031 z"
       id="path7545-3"
       sodipodi:nodetypes="sssssssssssscccccsssssssscsscssssccss" />
    <path
       id="path7443-7"
       style="fill:#3685b5;fill-opacity:1;stroke-width:0.151649"
       d="m 37.549618,1.8820575 c -0.506352,-0.00472 -1.169161,0.025715 -2.035496,0.048249 l -3.011888,0.078705 -0.001,-0.023355 -2.180459,0.053359 c -0.553024,0.028917 -1.325903,0.055822 -2.170675,0.072712 -1.568189,0.031318 -2.969529,0.1045839 -3.114607,0.1629711 -0.145069,0.058387 -0.3232,0.3547974 -0.395204,0.6590062 -0.154381,0.6518642 -0.115209,8.6810222 0.04725,8.9438162 0.06145,0.09945 0.258648,0.243112 0.437781,0.318513 0.179129,0.0745 1.65571,0.104912 3.282138,0.06658 9.89331,-0.233118 10.231943,-0.247751 10.463733,-0.471121 0.18285,-0.176208 0.23461,-0.754868 0.262913,-2.9470877 C 38.8467,2.7180967 39.511507,1.7850092 37.54962,1.8820613 Z m -2.083743,1.0770957 c 1.70243,0 2.292893,0.043365 2.414024,0.1438645 0.32374,0.2686018 0.343824,7.5921053 0.02313,7.8582643 -0.330806,0.27439 -11.934545,0.421661 -12.187178,0.154516 -0.26783,-0.283665 -0.261951,-7.3954764 0.0073,-7.7637572 0.17995,-0.2461499 0.684259,-0.2753538 6.059907,-0.3554131 1.159369,-0.017239 2.108592,-0.028978 2.883153,-0.034252 0.290461,-0.00205 0.55643,-0.00308 0.799635,-0.00328 z m 4.467861,7.1988278 c -0.03987,0 -0.06805,0.0021 -0.08326,0.0072 -0.09908,0.03795 -0.218126,0.489262 -0.264696,1.002393 -0.05567,0.613938 -0.169286,0.995538 -0.333171,1.11537 -0.341941,0.250008 -2.387288,0.346876 -8.924604,0.422092 -5.344607,0.06153 -5.599175,0.05141 -5.876475,-0.225894 -0.159427,-0.1594 -0.301391,-0.512002 -0.31572,-0.783066 -0.06256,-1.188596 0.0024,-1.10275 -0.803414,-1.059775 -1.002682,0.05342 -4.742166,1.17815 -6.683672,2.010388 -0.839573,0.359867 -1.679044,1.116212 -2.087186,1.878961 -0.327474,0.61205 -0.33187,0.701016 -0.282258,6.194075 0.02778,3.070758 -0.0084,5.572994 -0.0806,5.572994 -0.07209,0 -0.607264,-0.25559 -1.188391,-0.567392 -1.006846,-0.5402 -1.124408,-0.566613 -2.497288,-0.568296 -1.2866331,-0.0021 -1.5373781,0.04573 -2.3499929,0.442327 -1.1641922,0.568173 -2.4358948,1.861496 -3.0720283,3.123953 -1.5999046,3.175034 -1.0367479,7.79409 1.5465762,12.674976 0.8470561,1.600446 2.1441741,3.642173 2.7138447,4.271544 0.2994782,0.330847 0.3015469,0.363232 0.054582,0.781281 -0.1416747,0.240013 -0.2572425,0.471284 -0.2572425,0.513725 0,0.04238 0.4402829,0.390712 0.9782828,0.774611 0.538,0.383919 1.014454,0.757495 1.05888,0.829324 0.04433,0.07185 -0.02367,0.482552 -0.151745,0.913591 -0.269386,0.907106 -0.549158,1.073648 -1.8012642,1.073648 -1.1964334,0 -1.2611765,0.146225 -0.8681145,1.939113 0.1776634,0.810402 0.3653173,1.7266 0.4174369,2.036391 0.1420482,0.844203 0.3325261,0.925001 1.3531458,0.573857 1.344862,-0.462686 1.586603,-0.414067 2.160335,0.432209 0.271075,0.399865 0.492477,0.778921 0.492477,0.843218 4e-6,0.06432 -0.272698,0.50644 -0.606312,0.982076 -0.333628,0.475594 -0.607203,0.99876 -0.607203,1.16247 0,0.229054 0.438816,0.517851 1.902094,1.254207 1.045838,0.526286 2.010575,0.935242 2.143661,0.908912 0.136119,-0.02695 0.415695,-0.47857 0.639553,-1.032972 0.567552,-1.405665 0.519347,-1.365153 1.620723,-1.365153 1.103834,0 1.061081,-0.04388 1.495772,1.538242 0.243238,0.885351 0.515991,1.137904 0.962609,0.89235 0.142664,-0.07846 1.00964,-0.48485 1.927103,-0.902468 1.203619,-0.547855 1.681431,-0.840981 1.715109,-1.054315 0.02573,-0.162602 -0.162363,-0.709 -0.417437,-1.214311 -0.255079,-0.505291 -0.463685,-1.012716 -0.463685,-1.127356 0,-0.209845 0.567567,-0.812906 0.656228,-0.697014 0.02621,0.03427 0.241752,0.472393 0.479471,0.97284 0.284995,0.600003 0.823832,1.302825 1.581816,2.064055 1.67518,1.682312 3.168087,2.377377 5.396115,2.512067 2.187612,0.132352 3.952573,-0.357013 5.654474,-1.567014 0.3923,-0.278925 0.82074,-0.507261 0.95149,-0.507261 0.130822,0 0.866655,0.443578 1.635514,0.985728 1.737714,1.22529 2.001151,1.249056 2.562988,0.228665 0.229335,-0.41653 0.534353,-0.796283 0.677462,-0.843219 0.27381,-0.08979 1.920517,0.188666 2.223254,0.375751 0.09717,0.06009 0.217607,0.581985 0.267584,1.159823 0.05163,0.597725 0.179018,1.12163 0.295265,1.215296 0.259568,0.209229 4.128782,-0.466318 4.448295,-0.776622 0.186147,-0.180785 0.178974,-0.332489 -0.05636,-1.109788 -0.149958,-0.49503 -0.233569,-0.963236 -0.185206,-1.041325 0.04828,-0.07815 0.505059,-0.400029 1.014524,-0.714479 l 0.925589,-0.571066 0.906135,0.711688 c 0.49822,0.39143 0.99317,0.677723 1.099564,0.636882 0.298452,-0.114516 2.66995,-3.587582 2.590784,-3.794061 -0.03852,-0.100439 -0.472832,-0.434364 -0.965386,-0.742267 l -0.896018,-0.559964 0.213774,-0.803404 c 0.117593,-0.441691 0.21461,-0.952071 0.215669,-1.134805 0.0022,-0.440768 0.118915,-0.495707 1.283776,-0.604437 1.277016,-0.119237 1.396414,-0.262014 1.153375,-1.380935 -0.216285,-0.995764 -0.404311,-1.975027 -0.541505,-2.820339 l -0.09538,-0.589516 -0.835764,0.08693 c -0.61305,0.06323 -0.815651,0.03762 -0.75995,-0.09438 0.04179,-0.09896 0.357031,-0.819986 0.700696,-1.603176 1.500191,-3.418885 2.18625,-6.644898 2.184463,-10.253619 -0.0016,-2.762937 -0.226138,-4.192716 -1.053433,-6.724362 -1.157678,-3.542576 -2.700538,-6.07847 -5.860804,-9.631738 L 49.63864,17.311634 V 15.92325 c 0,-1.118162 -0.06161,-1.506083 -0.318386,-1.992801 -0.662394,-1.255602 -1.228689,-1.603278 -4.155032,-2.557319 -1.409971,-0.45969 -4.633455,-1.20132 -5.231478,-1.215173 z m -7.50743,3.845635 h 1.09e-4 c 4.864758,0.0072 7.221248,0.316502 11.22268,1.473555 2.430535,0.702822 3.037495,0.986959 3.408979,1.592935 0.305248,0.498025 0.308047,0.652767 0.269361,15.149137 l -0.03891,14.64557 -0.460013,0.743272 c -0.400387,0.647534 -0.808956,0.96381 -3.179418,2.457477 -1.496098,0.942733 -2.815397,1.694112 -2.93218,1.670655 -0.124304,-0.025 -0.250852,-0.515696 -0.486919,-1.127377 -0.684834,-1.7745 -0.804764,-2.482391 -2.491731,-4.209052 -1.802035,-1.633796 -3.853391,-2.031773 -5.957964,-2.053507 -2.104576,-0.02171 -4.084911,0.760512 -5.778423,2.416698 -1.239603,1.264981 -2.113349,2.824711 -2.438929,4.362357 -0.146438,0.691658 -0.266652,0.946736 -0.445228,0.943165 -0.13457,-0.0023 -1.457826,-0.735536 -2.940626,-1.629959 -2.006579,-1.210411 -2.801803,-1.77649 -3.109051,-2.214035 l -0.412768,-0.587751 -0.0398,-14.903808 -0.04069,-14.903788 0.384976,-0.457247 c 0.442606,-0.525998 1.920644,-1.137781 4.669632,-1.932648 3.874959,-1.120481 6.292336,-1.442791 10.796904,-1.435649 z m -5.198237,2.454727 c -0.964504,-0.02721 -5.024822,0.855409 -5.78843,1.270769 l -0.386977,0.210091 h 0.379527 c 0.208521,0 0.82223,-0.09637 1.364373,-0.215653 1.193659,-0.262589 1.213402,-0.264148 1.213402,-0.08416 0,0.07893 -0.37303,0.391267 -0.829316,0.694141 -0.456314,0.302875 -1.183648,0.937541 -1.616056,1.410611 -1.23665,1.352983 -1.488916,2.334751 -0.653449,2.544432 0.202974,0.05102 0.369303,0.146984 0.369303,0.212882 0,0.066 -0.247693,0.484891 -0.55073,0.931159 -0.604539,0.890277 -1.420682,2.515514 -1.420844,2.830457 0,0.109735 0.07109,0.331976 0.157412,0.493367 0.101723,0.189979 0.31669,0.293372 0.611762,0.293372 0.372158,0 0.697563,-0.245575 1.77714,-1.341141 0.726606,-0.737383 1.817839,-1.736143 2.425028,-2.219597 0.607186,-0.483434 1.072028,-0.910656 1.032977,-0.949711 -0.141678,-0.141689 -2.26779,1.116827 -3.072919,1.818829 -0.454355,0.396191 -0.890535,0.720164 -0.969164,0.720164 -0.379326,0 -0.01962,-0.586479 1.319902,-2.154787 l 1.462421,-1.712439 -0.894127,-0.04626 c -0.491483,-0.02543 -0.950817,-0.103578 -1.02175,-0.173972 -0.42675,-0.424287 0.875088,-1.563177 3.995727,-3.495024 1.387227,-0.858754 1.538857,-0.991414 1.178274,-1.032972 -0.02445,-0.0029 -0.05237,-0.0047 -0.08349,-0.0055 z m 22.647463,3.511587 v 1.02e-4 c 0.200436,-0.0029 0.650808,0.488914 1.720665,1.848402 1.078994,1.371064 2.615376,4.048237 3.302482,5.754293 2.216209,5.502704 1.9027,11.790773 -0.891237,17.864893 -0.258958,0.563 -0.524254,1.023633 -0.589639,1.023633 -0.120309,0 -0.74605,-0.809725 -0.74605,-0.96539 0,-0.04642 0.308406,-0.463034 0.685912,-0.926479 0.789056,-0.968756 0.767056,-1.143466 -0.21945,-1.744783 -0.340195,-0.207362 -0.618207,-0.460182 -0.618207,-0.560846 0,-0.100684 0.199972,-0.783435 0.444231,-1.518006 1.199978,-3.608598 1.467449,-7.91187 0.682134,-10.96543 -0.287157,-1.116582 -1.095082,-2.963814 -1.691988,-3.867103 -0.220466,-0.333638 -0.843016,-1.063078 -1.382828,-1.620723 l -0.981059,-1.013536 0.03046,-1.563362 c 0.01701,-0.859657 0.09885,-1.631641 0.182316,-1.715107 0.0195,-0.0195 0.04361,-0.03015 0.07226,-0.03056 z m -0.111947,5.860908 c 0.603553,-0.03023 2.161766,2.772911 2.614793,4.935209 0.270784,1.292277 0.24229,4.579139 -0.05369,6.217204 -0.279456,1.546471 -0.966757,4.024019 -1.174608,4.234521 -0.08433,0.08544 -0.290204,0.07062 -0.528493,-0.0379 -0.343783,-0.15663 -0.432868,-0.132064 -0.742273,0.201779 -0.193261,0.20845 -0.387103,0.378645 -0.430443,0.378645 -0.08972,0 0.02822,-15.443023 0.120282,-15.733235 0.04126,-0.130114 0.108215,-0.191908 0.194433,-0.196218 z m -39.315397,0.840427 c 1.465088,0 2.308212,0.361939 3.263684,1.398503 0.485002,0.526244 0.60106,0.758767 0.563625,1.132035 -0.0436,0.435636 -0.179821,0.537306 -1.866853,1.394829 -2.316134,1.177328 -3.6949366,2.437323 -4.0772139,3.724592 -0.4860075,1.636567 -0.1848402,3.717943 1.2134037,8.386767 0.1615366,0.539399 -0.263742,0.241737 -0.7570577,-0.53039 C 6.5877021,38.73417 5.3683509,34.384804 5.7953432,31.504661 6.1083214,29.393444 7.1707617,27.69024 8.6230256,26.9702 9.0712733,26.747877 9.5363271,26.671265 10.448188,26.671265 Z m 3.752382,4.805587 c 0.02168,0.0021 0.03813,0.0076 0.04814,0.01765 0.06484,0.06473 0.12137,1.078081 0.124953,2.252844 l 0.0064,2.136316 -0.98573,0.853336 c -1.556218,1.347134 -2.437455,2.2817 -2.604567,2.761091 -0.08492,0.243605 -0.211697,0.442326 -0.281367,0.442326 -0.154791,0 -0.22227,-0.215858 -0.5201578,-1.667843 -0.5306589,-2.586708 -0.1628398,-4.005713 1.3458058,-5.189793 0.97006,-0.761353 2.541575,-1.632237 2.866479,-1.605947 z m -8.21e-4,6.669444 c 0.01094,1.23e-4 0.02141,0 0.03146,0.0033 0.206807,0.04248 0.229729,0.50488 0.238788,1.526236 0.0075,0.854916 0.0318,2.338752 0.05458,3.297924 0.02329,0.982568 -0.0234,1.826812 -0.107389,1.933551 -0.08209,0.104297 -0.198781,0.189774 -0.258244,0.189774 -0.0595,0 -0.562202,-0.471141 -1.118022,-1.046886 L 12.03018,43.003329 v -1.233746 c 0,-1.489603 0.268329,-2.111237 1.304117,-3.023001 0.435345,-0.383242 0.701357,-0.601604 0.865446,-0.600209 z m 35.313099,7.013076 c 0.01133,-6.1e-5 0.02304,0 0.03513,0.0021 0.67715,0.05935 2.515907,1.849716 3.136841,3.176635 0.963108,2.058083 0.931598,4.051171 -0.09727,6.132938 -0.911003,1.843333 -2.449316,3.101562 -4.602927,3.765289 -0.367739,0.113326 -1.254905,0.204468 -1.971461,0.200876 -2.060082,-0.0078 -3.551817,-0.656871 -4.982462,-2.169563 -0.86094,-0.910327 -1.025038,-1.51739 -0.528494,-1.953909 0.438493,-0.385438 2.517405,-1.633714 2.721184,-1.633714 0.10428,0 0.296278,0.204879 0.425775,0.455441 0.317475,0.613979 1.224751,1.18915 2.056725,1.303236 1.369893,0.187762 2.648877,-0.470238 3.253346,-1.674411 0.576833,-1.149151 0.448732,-2.323442 -0.366522,-3.359862 -0.295318,-0.375463 -0.295322,-0.37848 0.07593,-1.189375 0.204934,-0.447643 0.413996,-1.256752 0.464683,-1.800277 0.05078,-0.542929 0.141755,-1.067573 0.20266,-1.166267 0.03712,-0.06001 0.09755,-0.08808 0.176867,-0.08849 z m -16.871261,0.556516 c 0.03393,0 0.07184,-6.2e-5 0.114283,0.0021 0.113196,0.0057 0.258741,0.02219 0.448008,0.04445 1.010711,0.118786 2.374532,0.620403 2.889714,1.063551 l 0.392424,0.33684 -0.476692,0.543401 c -0.762176,0.868051 -0.200575,1.489788 0.587749,0.650654 0.195877,-0.208594 0.471617,-0.378522 0.612762,-0.378522 0.526643,0 1.662413,2.334114 1.662413,3.417202 0,0.436848 -0.0578,0.529323 -0.34162,0.547958 -0.187682,0.01231 -0.443092,0.0376 -0.568295,0.05369 -0.125107,0.01703 -0.313196,0.04029 -0.417437,0.0528 -0.104301,0.01231 -0.189764,0.193161 -0.189764,0.401651 0,0.346712 0.05668,0.379548 0.663675,0.379548 0.365119,0 0.735289,0.08531 0.821982,0.189753 0.421383,0.507733 -0.862087,4.055871 -1.467092,4.055871 -0.12604,0 -0.423042,-0.185751 -0.660008,-0.412774 -0.336958,-0.322782 -0.48595,-0.378337 -0.682131,-0.254564 -0.401694,0.253374 -0.381401,0.432619 0.106503,0.943143 0.252313,0.264046 0.459012,0.548574 0.459012,0.632224 0,0.454354 -2.100257,1.516447 -3.43855,1.739119 -0.544344,0.09057 -0.656347,0.06159 -0.799637,-0.206336 -0.09188,-0.171344 -0.12689,-0.470874 -0.07782,-0.666456 0.103045,-0.410516 -0.253961,-0.795133 -0.61087,-0.658103 -0.149531,0.05736 -0.229563,0.289576 -0.229563,0.668344 0,0.319539 -0.0813,0.663501 -0.181427,0.763611 -0.227218,0.227289 -0.441566,0.218423 -1.486433,-0.06114 -0.886086,-0.237078 -2.410179,-1.070548 -2.535198,-1.386496 -0.0412,-0.104051 0.138075,-0.431573 0.397984,-0.727593 0.386556,-0.440296 0.443398,-0.592554 0.313716,-0.834887 -0.219447,-0.410106 -0.434154,-0.372221 -0.999624,0.17586 -0.285334,0.276503 -0.56103,0.426114 -0.666347,0.361077 -0.274793,-0.169826 -1.029364,-1.856365 -1.228299,-2.745308 -0.236595,-1.057188 -0.135415,-1.272759 0.599755,-1.272759 0.636094,0 1.024959,-0.300618 0.87934,-0.680248 -0.06079,-0.158476 -0.301526,-0.229547 -0.779288,-0.229547 -0.458544,0 -0.719925,-0.07273 -0.774736,-0.215673 -0.130569,-0.340288 0.365687,-2.058453 0.835767,-2.892498 0.497868,-0.883319 0.862553,-1.005758 1.373596,-0.461782 0.423062,0.45031 0.691888,0.487908 0.895018,0.124943 0.111551,-0.199338 0.04163,-0.378892 -0.296152,-0.763611 -0.242884,-0.276626 -0.441561,-0.563801 -0.441561,-0.638668 0,-0.361837 1.700624,-1.239636 2.938737,-1.517104 0.91464,-0.204981 1.156153,-0.04271 1.156153,0.777505 0,0.389234 0.07793,0.622496 0.228562,0.68035 0.337909,0.129662 0.71395,-0.247689 0.620099,-0.621983 -0.04429,-0.175511 -0.038,-0.478735 0.01299,-0.673906 0.05703,-0.218013 0.100742,-0.300166 0.338287,-0.305707 z m -18.228849,1.13068 c 0.006,2.1e-5 0.0118,0 0.01745,0.0021 0.05427,0.01026 0.0929,0.06816 0.143407,0.165763 0.08015,0.154864 0.189722,0.52569 0.243459,0.823742 0.0537,0.298052 0.297689,0.857256 0.542392,1.243104 0.410953,0.648068 0.43862,0.780911 0.361964,1.733557 -0.07338,0.911416 -0.04133,1.092385 0.27492,1.561474 0.196805,0.291915 0.664773,0.689236 1.039424,0.882109 0.84131,0.433112 1.587522,0.372447 2.448153,-0.197101 l 0.60809,-0.401753 1.276439,0.730261 c 0.769969,0.440747 1.276019,0.828011 1.276324,0.975611 4.11e-4,0.347039 -1.309398,1.525723 -2.142772,1.927989 -0.386651,0.186613 -1.103816,0.404976 -1.592933,0.485035 -1.064086,0.174341 -1.11552,0.173294 -2.177901,-0.06292 -1.731107,-0.384884 -3.108717,-1.480183 -3.892009,-3.093374 -0.373003,-0.768064 -0.422192,-1.039354 -0.425775,-2.385216 -0.0044,-1.406629 0.03125,-1.592525 0.479358,-2.50275 0.266198,-0.540672 0.72073,-1.212114 1.009855,-1.492106 0.284693,-0.275683 0.419842,-0.395228 0.510152,-0.394981 z"
       sodipodi:nodetypes="ccccccsccccsccccccccccccsccscccccccscccccscssccsscssscssccscsccssssccssssscccsccccccscccccscccccccccsccsscsccccssscsccccccccccscccccscscscccsssccscccccsccccccssscsscsscccsccccsccsccscccsscccssccccssccsscccccsccscccccccscscsccscsccccsccccccsscccsscsccssscccscscssccsssscssscscscccssccccccscccccccscccsccsc" />
    <path
       style="fill:#3685b5;fill-opacity:0.254556;stroke:none;stroke-width:0.0569182px;stroke-linecap:butt;stroke-linejoin:miter;stroke-opacity:1"
       d="m 15.696275,16.928526 c 0,0 8.200604,-3.649217 16.506403,-3.548041 8.3058,0.101176 16.215482,2.852705 16.215482,2.852705 -22.852036,-1.108647 -8.712372,28.436076 -15.805436,28.955129 -6.804711,-0.257679 -7.366689,6.423815 -7.895125,6.993514 -0.528435,0.569698 -1.021471,0.967539 -2.469723,0.338474 C 20.799629,51.891239 16.50443,48.898406 16.347318,47.983531 16.190206,47.068659 15.696275,16.928526 15.696275,16.928526 Z"
       id="path7548-3"
       sodipodi:nodetypes="csccsssc" />
    <path
       id="path7443-9-8"
       style="fill:#ffffff;fill-opacity:1;stroke-width:0.151649"
       d="m 45.106258,36.582715 c -0.201831,-0.02675 -0.710769,0.4207 -1.696628,1.42818 -0.783202,0.800424 -2.072333,2.011004 -2.864702,2.689767 -1.65069,1.414024 -1.747559,1.522577 -1.419838,1.593867 0.132042,0.0287 0.918857,-0.363599 1.748442,-0.871909 1.375138,-0.843171 1.946508,-1.085444 1.946508,-0.828401 0,0.05246 -0.344007,0.60005 -0.764532,1.217157 -0.420544,0.617074 -0.803532,1.222927 -0.850621,1.345798 -0.127847,0.333171 0.362614,0.281618 1.541105,-0.161973 0.562875,-0.211892 1.083149,-0.365901 1.156056,-0.341546 0.183201,0.06108 -0.495924,1.306316 -1.570727,2.881359 -0.503433,0.737761 -0.854151,1.397746 -0.794155,1.494824 0.06781,0.109801 0.32073,0.139847 0.685861,0.08146 0.318127,-0.05087 0.619407,-0.02596 0.66921,0.05461 0.04986,0.08069 -0.184364,0.583045 -0.521118,1.116263 -0.336735,0.533202 -0.61274,1.017174 -0.61274,1.076462 0,0.392221 2.512457,-2.126956 3.079447,-3.087767 0.271445,-0.460677 0.270821,-0.464648 -0.0583,-0.464648 -0.182726,0 -0.596138,0.07914 -0.919125,0.175868 -0.322987,0.09743 -0.631003,0.13261 -0.684009,0.0796 -0.05303,-0.05304 0.247393,-0.627032 0.667336,-1.275469 1.00339,-1.549213 2.161276,-3.589897 2.161276,-3.809721 0,-0.273898 -0.35771,-0.209642 -1.607753,0.286931 -0.638303,0.253604 -1.193324,0.42833 -1.232886,0.388752 -0.03965,-0.03965 0.174339,-0.470252 0.474821,-0.957062 0.647181,-1.048524 1.389433,-2.773872 1.536493,-3.570926 0.06247,-0.338796 0.05167,-0.525438 -0.06942,-0.54147 z"
       sodipodi:nodetypes="ssssssscscsssssssssssssccss" />
    <g
       id="g1109-4-0-3-8-0-6-1-5"
       transform="matrix(0.02102744,0,0,0.02102744,18.555078,11.890599)"
       style="font-style:normal;font-variant:normal;font-weight:bold;font-stretch:normal;font-size:12.7845px;line-height:0.8;font-family:Waree;-inkscape-font-specification:'Waree Bold';letter-spacing:-1.52938px;display:inline;fill:#3685b5;fill-opacity:1;stroke:none;stroke-width:0.319612">
      <path
         style="fill:#3685b5;fill-opacity:1;stroke:#3685b5;stroke-width:4;stroke-linecap:round;stroke-linejoin:round;stroke-miterlimit:4;stroke-dasharray:none;stroke-opacity:1"
         d="m 566.23063,-385.63946 c 0,-0.16105 6.78289,-2.77871 10.52158,-4.90442 l 6.79763,-3.86492 h 95.75741 95.75745 l -5.22619,4.12572 -5.22618,4.12573 -97.32885,0.032 c -53.5309,0.0176 -101.05285,0.64693 -101.05285,0.48588 z"
         id="path1097-7-8-1-2-70-6-7-1"
         sodipodi:nodetypes="sscccccss" />
      <path
         style="fill:#a8d8f8;fill-opacity:1;stroke:#a8d8f8;stroke-width:3;stroke-linecap:round;stroke-linejoin:round;stroke-miterlimit:4;stroke-dasharray:none;stroke-opacity:1"
         d="m 754.85876,-109.80684 c -0.991,-24.72562 -4.65114,-40.92172 -13.32206,-58.95018 -7.22424,-15.02046 -18.98277,-29.87265 -30.50747,-38.53392 -2.75177,-2.06807 -4.99798,-3.93905 -4.99157,-4.15774 0.0159,-0.54574 21.49469,-12.87084 22.42976,-12.87084 0.41275,0 1.15279,0.88307 1.64457,1.96238 1.89201,4.15254 5.06841,7.25991 12.46674,12.19587 14.19545,9.47081 24.57273,21.10208 32.49015,36.41626 8.12829,15.72205 11.69656,30.04843 12.35125,49.58918 l 0.43053,12.85119 -10.48523,5.99237 c -5.76688,3.29581 -11.38819,6.612545 -12.49182,7.37054 -1.27738,0.877329 -3.36526,1.378161 -5.74532,1.378161 h -3.73875 z"
         id="path1101-8-8-8-5-1-2-0-0" />
      <path
         style="fill:#a8d8f8;fill-opacity:1;stroke:#a8d8f8;stroke-width:3;stroke-linecap:round;stroke-linejoin:round;stroke-miterlimit:4;stroke-dasharray:none;stroke-opacity:1"
         d="m 693.93077,-225.26928 c 0,-2.40854 0.81439,-4.98324 2.83483,-8.96236 2.63321,-5.18594 3.42058,-6.02273 11.0713,-11.76602 4.53007,-3.40065 10.08817,-7.99349 12.35133,-10.20631 6.94582,-6.79122 15.75174,-19.19954 20.55625,-28.96552 9.40644,-19.12013 13.08484,-34.9279 14.11751,-60.66937 l 0.5231,-13.04018 h 8.3161 8.31606 l -0.44992,17.57589 c -0.38672,15.10717 -0.76523,19.23643 -2.69478,29.39796 -3.03398,15.97772 -4.25905,20.26737 -8.08273,28.30178 -3.78728,7.95795 -8.50853,13.21626 -16.72892,18.63188 -2.94029,1.93708 -6.34582,4.73491 -7.5678,6.21739 -2.60093,3.15539 -7.63066,13.04567 -8.27643,16.27451 -0.26186,1.30933 -1.06857,2.43731 -1.94122,2.71427 -0.82124,0.26066 -7.9184,4.19112 -15.77147,8.73438 -7.8531,4.54325 -14.79468,8.45859 -15.42576,8.70077 -0.92049,0.35322 -1.14745,-0.22809 -1.14745,-2.93907 z"
         id="path1099-4-5-9-3-0-1-6-8" />
      <path
         style="fill:#a8d8f8;fill-opacity:1;stroke:#a8d8f8;stroke-width:3;stroke-linecap:round;stroke-linejoin:round;stroke-miterlimit:4;stroke-dasharray:none;stroke-opacity:1"
         d="m 575.78691,-102.81438 c -1.45309,-2.40923 2.19511,-31.89368 5.19128,-41.95536 6.8163,-22.89052 21.02832,-42.87191 39.3359,-55.30435 12.40972,-8.42729 15.69852,-13.63685 15.69852,-24.86696 0,-13.30841 -4.88881,-21.88655 -18.47699,-32.42069 -25.09864,-19.45754 -39.01996,-46.60928 -40.82272,-79.61952 l -0.83659,-15.31867 45.18721,-1.13322 c 45.37226,-1.13787 117.81856,-0.42346 119.41966,1.17762 0.47127,0.47128 0.12335,8.14551 -0.77327,17.05384 -3.4702,34.47989 -18.57814,62.6996 -42.29439,79.00051 -11.11631,7.64059 -17.30568,18.5629 -17.30568,30.5391 0,11.30586 3.5269,17.29627 14.44466,24.53419 28.00385,18.5651 42.78331,46.69126 45.70238,86.97423 l 0.90387,12.47321 h -82.34497 c -45.28971,0 -82.65271,-0.51027 -83.02887,-1.13393 z m 141.83016,-23.43452 c -4.64053,-28.1268 -17.39604,-48.38653 -40.40574,-64.17693 -3.87477,-2.65906 -9.55318,-8.61218 -12.61867,-13.22916 -3.06551,-4.61698 -6.14021,-8.39451 -6.83268,-8.39451 -0.69244,0 -2.30973,2.03189 -3.59396,4.51531 -3.70822,7.17092 -11.18423,14.91433 -20.52048,21.25444 -4.75189,3.22695 -11.15772,8.78416 -14.23514,12.34932 -10.37288,12.01693 -20.43946,36.35249 -20.43946,49.41166 v 4.69546 h 59.85312 59.85314 z m -55.72829,-117.92857 c 5.37853,-10.4904 11.60074,-17.92202 20.83319,-24.88257 5.28566,-3.98497 12.16607,-10.30701 15.28982,-14.04898 6.0802,-7.28355 13.98717,-22.03547 12.57035,-23.4523 -1.84621,-1.84621 -86.165,26.21293 -86.36055,28.73858 -0.0641,0.82859 2.90277,3.71749 6.59315,6.41979 10.79902,7.90763 15.81443,13.43079 20.95621,23.07776 2.65634,4.98377 5.45267,9.06141 6.21411,9.06141 0.76142,0 2.5181,-2.21116 3.90372,-4.91369 z"
         id="path1095-5-0-6-4-1-9-0-7" />
      <path
         id="path861-0-9-4-9-3-6-8-6"
         style="fill:#3685b5;fill-opacity:1;stroke-width:0.617699"
         d="m 581.76506,-408.61532 c -1.13874,0.0209 -2.25328,0.32931 -3.24168,0.89452 -0.48027,0.2124 -0.91149,0.46301 -1.29397,0.74621 l -29.59304,17.08371 c -1.69735,0.97992 -2.80961,2.58348 -3.21736,4.35374 h -0.23876 v 12.97182 12.97181 l 8.80206,0.17106 8.80255,0.17156 v 10.41849 c 0,17.96401 2.10513,31.82952 7.11533,46.86432 8.1388,24.4233 22.29663,43.80812 41.78713,57.2146 6.28973,4.32636 6.42112,4.46728 9.12656,9.78751 2.44005,4.79837 2.74887,5.87237 2.77969,9.66814 0.0307,3.77787 -0.17902,4.5732 -1.81851,6.90088 -1.19626,1.69838 -3.47829,3.58991 -6.43784,5.3361 -15.36279,9.06429 -29.49114,24.70141 -38.64467,42.77155 -3.03022,5.98197 -7.09734,16.72037 -8.99533,23.74997 -3.30779,12.25122 -4.37092,20.32817 -4.74027,36.01641 l -0.0656,2.79621 -14.25133,8.228439 c -1.47003,0.848873 -2.50053,2.165588 -3.01533,3.653006 l -0.44442,0.0088 -0.16793,12.336714 c -0.0925,6.785103 -0.031,12.692733 0.13589,13.127883 0.24559,0.64013 22.06324,0.7614 114.1331,0.6351 l 113.83026,-0.15607 v -0.91467 c 0.6097,-0.1493 1.2092,-0.38459 1.78025,-0.71417 l 30.86168,-17.816477 c 2.85539,-1.648471 4.05742,-5.059312 3.02771,-8.06514 l -0.7679,-18.661395 -4.72064,0.0816 c -8.2e-4,-18.01714 -2.11111,-31.88922 -7.16029,-47.04054 -8.82115,-26.47011 -25.25834,-47.80391 -46.36719,-60.1524 -2.19734,-1.2854 -4.44194,-3.23229 -5.50974,-4.75165 -1.61724,-2.30119 -1.8066,-3.01277 -1.8066,-6.67607 0,-3.7426 0.26318,-4.64628 2.74608,-9.52914 1.36493,-2.68434 2.22065,-3.79118 3.44525,-4.90616 1.22462,-1.11497 2.84429,-2.24147 5.65237,-4.86327 20.88269,-19.49723 23.24007,-28.36155 28.03292,-50.85581 3.31938,-15.57889 3.89385,-46.67711 3.89485,-64.94126 v -0.7338 l 13.16612,-12.05508 c 0.1479,-0.13538 0.28702,-0.27672 0.42013,-0.42168 l 3.25612,-1.68258 -0.0858,-23.7014 -7.42743,-0.0336 c -0.47421,-0.10161 -0.96504,-0.15878 -1.46968,-0.15865 l -209.70711,0.062 c -0.50694,-0.12157 -1.04291,-0.18992 -1.60763,-0.1912 z m 194.12045,14.09888 -11.48615,8.9793 H 658.14592 567.22639 l 15.45383,-8.92245 z m -3.97963,34.92707 c 0.035,2.92519 0.0587,6.07157 0.0661,9.28832 0.0136,5.83735 -0.0235,11.81793 -0.13073,16.71112 -0.10721,4.89321 -0.29224,8.72724 -0.54674,10.16631 -2.63858,14.91974 -4.42481,26.76808 -8.21708,36.42362 -3.79228,9.65554 -9.56842,17.12883 -20.26179,23.38255 -4.83937,2.83018 -7.18215,5.67062 -11.16987,13.52941 -1.99413,3.92991 -3.14976,7.1247 -3.67628,10.47533 -0.0142,1.7e-4 -0.0282,-7.8e-4 -0.0424,-5.2e-4 -1.14853,0.0211 -2.27279,0.3334 -3.26749,0.90795 l -30.59814,17.66559 c -0.32644,-1.02174 -0.39791,-2.18674 -0.39791,-4.18941 0,-3.75867 0.29335,-4.77907 2.77966,-9.66866 2.74654,-5.40137 2.85554,-5.51839 9.1612,-9.85572 19.4905,-13.40648 33.64831,-32.7913 41.78713,-57.2146 5.01152,-15.03875 7.1138,-29.00464 7.1148,-47.26223 l 5.3e-4,-10.02058 8.80203,-0.17156 z m -69.07588,5.34128 c 33.97025,0.003 38.24462,0.21326 38.50309,0.88676 0.5679,1.47998 -0.91474,23.88686 -1.97871,29.90309 -5.27571,29.83123 -22.37227,56.91401 -43.86088,69.48103 -4.80002,2.80716 -7.06945,5.56023 -11.04895,13.4028 -3.30491,6.51314 -4.29389,10.92557 -3.91551,17.46715 0.50477,8.7264 5.11056,15.85117 13.36249,20.67057 24.44551,14.27694 41.64994,42.2385 46.05663,74.85435 0.523,3.8709 1.02454,11.34654 1.11466,16.61242 l 0.1633,9.57461 -82.8208,0.15658 c -38.34037,0.0725 -70.85004,0.002 -80.34806,-0.15813 l 0.14055,-0.0811 -1.9699,0.0408 c -0.61026,-0.0187 -1.03667,-0.0383 -1.0573,-0.0589 -0.34071,-0.34072 -0.46242,-2.2839 -0.4258,-5.08651 l 0.22014,-5.71748 c 0.43539,-7.37363 1.43494,-16.79374 2.5895,-22.54126 6.14987,-30.61434 22.41711,-54.73912 46.08298,-68.34157 3.72764,-2.14254 8.07979,-7.02851 10.19162,-11.44168 3.30017,-6.8966 2.6144,-17.00647 -1.74355,-25.70385 -3.52036,-7.02574 -6.84972,-11.05319 -11.27736,-13.64258 -17.10198,-10.00161 -32.12428,-29.96514 -39.50663,-52.50067 -4.18603,-12.77838 -5.89442,-23.49663 -6.10455,-38.29741 l -0.13176,-9.26558 82.94481,-0.15658 c 18.87349,-0.0357 33.49659,-0.0578 44.81999,-0.0568 z m 6.12159,48.05649 c -2.18112,-0.0586 -84.31366,26.89739 -84.65633,27.78436 -0.49199,1.27345 5.3104,6.18581 11.83183,10.01644 4.7658,2.79938 6.0157,3.92003 9.72449,8.71885 3.86334,4.99882 9.68142,15.35057 10.58334,18.83089 0.22135,0.85423 0.83301,1.38958 1.5875,1.38958 0.93927,0 1.61816,-0.97887 2.89179,-4.16926 2.14026,-5.36115 5.12601,-10.3314 9.96166,-16.584 3.35193,-4.33411 4.63614,-5.44812 9.61441,-8.33902 10.2857,-5.97292 20.20927,-17.06585 26.90638,-30.07724 2.86149,-5.55936 3.26506,-7.52461 1.55493,-7.5706 z m 20.09851,80.61576 c 2.00258,5.72678 6.12296,10.50362 12.16205,14.03066 24.34836,14.22018 41.51074,42.09568 45.90624,74.62904 0.51946,3.84459 1.02172,11.32498 1.11157,16.57625 l 0.15452,8.92193 0.41494,0.003 -23.72206,13.696842 c -0.78193,0.451429 -1.43841,1.036114 -1.96059,1.707388 l -8.60981,-0.16795 v -10.4185 c 0,-17.99817 -2.10431,-31.82754 -7.14478,-46.95269 -8.31813,-24.96061 -23.42097,-45.33101 -42.81392,-57.88018 z m -70.87732,13.92369 c -0.5705,0.002 -1.99843,2.04834 -3.55584,5.09633 -4.46675,8.74174 -11.3927,15.7291 -20.65973,20.84421 -5.00954,2.76507 -14.7379,12.34018 -18.96475,18.66604 -3.9502,5.91184 -8.68923,15.36259 -10.77349,21.48448 -3.09099,9.07874 -5.89976,22.44234 -5.13561,24.43365 v 5.2e-4 c 0.52197,1.35961 117.6093,1.34379 118.13129,-0.0165 0.80143,-2.08848 -2.66202,-17.73435 -5.74693,-25.96173 -2.32593,-6.20324 -6.66364,-14.69175 -10.25364,-20.06595 -4.15427,-6.21892 -13.90872,-15.79712 -18.88204,-18.54047 -9.49161,-5.23572 -16.95527,-12.85539 -21.10621,-21.54701 -1.26545,-2.64964 -2.47851,-4.39537 -3.05305,-4.39353 z" />
      <g
         id="g1062-3-6-3-0-7-4-5-3"
         style="opacity:1"
         transform="translate(35.924652,-182.25446)" />
    </g>
    <path
       style="fill:#3584b5;fill-opacity:1;fill-rule:nonzero;stroke:none;stroke-width:0.0563822px;stroke-linecap:butt;stroke-linejoin:miter;stroke-opacity:1"
       d="m 30.551493,53.847224 c 0.09042,0.104797 0.524046,0.112504 0.587962,0.05958 0.784076,-0.649108 4.830999,-3.958692 4.582199,-4.247166 -0.248799,-0.288474 -4.084731,2.726146 -5.02542,3.504913 -0.07669,0.06349 -0.235169,0.577876 -0.144741,0.682669 z"
       id="path8019"
       sodipodi:nodetypes="zszsz" />
    <path
       style="fill:#3584b5;fill-opacity:1;fill-rule:nonzero;stroke:none;stroke-width:0.0588289px;stroke-linecap:butt;stroke-linejoin:miter;stroke-opacity:1"
       d="m 33.593172,54.255631 c 0.09946,-0.07722 0.133441,-0.722545 0.05829,-0.814546 -1.047664,-1.282609 -5.257669,-6.41909 -5.672358,-6.058526 -0.414689,0.360566 3.756614,5.484983 4.804278,6.767595 0.07515,0.092 0.710326,0.1827 0.809787,0.105477 z"
       id="path8023"
       inkscape:transform-center-x="7.1073452"
       inkscape:transform-center-y="-8.9383025"
       sodipodi:nodetypes="zczsz" />
    <g
       id="g1474"
       transform="matrix(0.33439253,0,0,0.33439253,37.545021,52.700741)">
      <path
         class="fil0"
         d="m -42.256148,-39.849647 c 0.378136,-0.817401 2.039605,-2.122533 2.633758,-2.999615 0.453847,0.195457 4.737448,4.192299 5.247799,4.746044 0.84993,-0.365322 4.127152,-4.683919 5.026104,-5.167947 0.661849,0.819881 2.421498,1.995993 2.861877,2.778522 -0.230057,0.449275 -7.192341,8.037779 -7.651267,8.231551 -1.35925,-1.484205 -7.555012,-6.691339 -8.118271,-7.588555 z m 5.695288,-25.928569 2.327265,-0.09489 c 2.542541,0.04745 5.130578,0.586801 7.770751,1.634243 2.04558,0.812839 4.330339,2.390973 5.922308,3.858207 0.903258,0.832483 1.626017,1.604994 2.370139,2.571147 2.485188,3.22779 3.88413,6.896376 4.22168,10.698013 l 0.08022,1.96727 c -0.01865,2.698472 -0.562488,5.433323 -1.620783,8.100871 -1.219851,3.072134 -3.838376,6.298552 -6.429291,8.29394 -3.227788,2.485191 -6.896376,3.884132 -10.698013,4.221681 l -1.967269,0.08021 c -2.698475,-0.01865 -5.433323,-0.562485 -8.100872,-1.620783 -0.596208,-0.23753 -1.084776,-0.513864 -1.677447,-0.811388 -1.396107,-0.700169 -3.126942,-2.013614 -4.246357,-3.046755 -0.903256,-0.832484 -1.626016,-1.604996 -2.370138,-2.571148 -0.339671,-0.441004 -0.752076,-0.977796 -1.054157,-1.487665 -2.380565,-4.001123 -3.0504,-6.337862 -3.252732,-11.300104 -0.267075,-6.550104 3.960943,-14.007668 9.54118,-17.327918 3.003426,-1.786276 6.060169,-2.852046 9.181965,-3.166364 z m 9.140008,20.39058 c 0.154481,-0.357915 2.421028,-2.785955 2.782009,-3.069997 l 2.952389,2.686556 c -0.14741,0.457875 -2.268294,2.715389 -2.769144,3.091915 z m -10.092207,0.254399 c 0.691386,-0.6207 2.212813,-2.681707 2.911226,-2.946588 l 2.96065,2.705668 c -0.216165,0.716535 -2.14991,2.426277 -2.711377,3.150907 -0.480159,-0.143512 -2.975508,-2.446216 -3.160499,-2.909987 z m -7.177483,-2.496326 2.965374,2.711463 c -0.151553,0.356299 -2.425325,2.790618 -2.751977,3.035854 -0.503716,-0.317612 -2.802845,-2.394903 -2.980645,-2.829043 z m 2.032627,-2.183593 c 0.08149,-0.166412 7.009615,-7.968981 7.65264,-8.234597 1.28176,1.418536 7.598603,6.73295 8.112417,7.591787 -0.379995,0.808497 -2.034577,2.135793 -2.626168,3.002295 -0.935375,-0.409235 -4.553311,-4.446687 -5.430158,-4.741601 -0.463576,0.593457 -4.406066,4.925714 -4.843989,5.15753 -0.670293,-0.843478 -2.384489,-1.969074 -2.866235,-2.775354 z"
         id="path1907"
         style="clip-rule:evenodd;fill:#f3ba2f;fill-rule:evenodd;stroke-width:0.149499;image-rendering:optimizeQuality;shape-rendering:geometricPrecision;text-rendering:geometricPrecision" />
      <path
         class="fil1"
         d="m -42.256148,-39.849647 c 0.56332,0.898712 6.759021,6.10435 8.118271,7.588555 0.458926,-0.193772 7.42115,-7.783769 7.651267,-8.231551 -0.440379,-0.782529 -2.200028,-1.958641 -2.861877,-2.778522 -0.898952,0.484028 -4.176174,4.802625 -5.026104,5.167947 -0.510351,-0.553745 -4.792456,-4.550647 -5.247799,-4.746044 -0.595646,0.877143 -2.255622,2.182214 -2.633758,2.999615 z"
         id="path1909"
         style="clip-rule:evenodd;fill:#fefefe;fill-rule:evenodd;stroke-width:0.149499;image-rendering:optimizeQuality;shape-rendering:geometricPrecision;text-rendering:geometricPrecision" />
      <path
         class="fil1"
         d="m -42.659408,-49.813096 c 0.481683,0.804787 2.195942,1.931876 2.866235,2.775354 0.436428,-0.231756 4.380413,-4.564073 4.843989,-5.15753 0.876847,0.294914 4.494783,4.332366 5.430158,4.741601 0.591591,-0.866502 2.246173,-2.193798 2.626168,-3.002295 -0.513814,-0.858837 -6.830657,-6.173251 -8.112417,-7.591787 -0.643025,0.265616 -7.571148,8.068185 -7.65264,8.234597 z"
         id="path1911"
         style="clip-rule:evenodd;fill:#fefefe;fill-rule:evenodd;stroke-width:0.149499;image-rendering:optimizeQuality;shape-rendering:geometricPrecision;text-rendering:geometricPrecision" />
      <path
         class="fil1"
         d="m -37.514552,-45.133177 c 0.184991,0.463771 2.68034,2.766475 3.160499,2.909987 0.561466,-0.724627 2.49521,-2.434371 2.711377,-3.150904 l -2.96065,-2.705671 c -0.696861,0.266317 -2.219777,2.327383 -2.911226,2.946588 z"
         id="path1913"
         style="clip-rule:evenodd;fill:#fefefe;fill-rule:evenodd;stroke-width:0.149499;image-rendering:optimizeQuality;shape-rendering:geometricPrecision;text-rendering:geometricPrecision" />
      <path
         class="fil1"
         d="m -27.420852,-45.387636 2.965254,2.708474 c 0.50079,-0.378019 2.621669,-2.635533 2.769144,-3.091915 l -2.952389,-2.686556 c -0.360981,0.284042 -2.627528,2.712082 -2.782009,3.069997 z"
         id="path1915"
         style="clip-rule:evenodd;fill:#fefefe;fill-rule:evenodd;stroke-width:0.149499;image-rendering:optimizeQuality;shape-rendering:geometricPrecision;text-rendering:geometricPrecision" />
      <path
         class="fil1"
         d="m -47.459344,-44.712722 c 0.179292,0.43408 2.478421,2.511371 2.980643,2.829043 0.326653,-0.245236 2.600424,-2.679554 2.75198,-3.035854 l -2.965377,-2.711463 z"
         id="path1917"
         style="clip-rule:evenodd;fill:#fefefe;fill-rule:evenodd;stroke-width:0.149499;image-rendering:optimizeQuality;shape-rendering:geometricPrecision;text-rendering:geometricPrecision" />
    </g>
    <g
       id="g93"
       transform="matrix(0.21807479,0,0,0.21807479,30.498388,15.99228)">
      <path
         id="path89"
         d="M 63.033,39.744 C 58.759,56.887 41.396,67.32 24.251,63.045 7.113,58.771 -3.32,41.407 0.956,24.265 5.228,7.12 22.591,-3.314 39.731,0.96 56.875,5.234 67.307,22.6 63.033,39.744 Z"
         inkscape:connector-curvature="0"
         style="fill:#f7931a" />
      <path
         id="path91"
         d="M 46.103,27.444 C 46.74,23.186 43.498,20.897 39.065,19.37 l 1.438,-5.768 -3.511,-0.875 -1.4,5.616 c -0.923,-0.23 -1.871,-0.447 -2.813,-0.662 l 1.41,-5.653 -3.509,-0.875 -1.439,5.766 c -0.764,-0.174 -1.514,-0.346 -2.242,-0.527 l 0.004,-0.018 -4.842,-1.209 -0.934,3.75 c 0,0 2.605,0.597 2.55,0.634 1.422,0.355 1.679,1.296 1.636,2.042 l -1.638,6.571 c 0.098,0.025 0.225,0.061 0.365,0.117 -0.117,-0.029 -0.242,-0.061 -0.371,-0.092 l -2.296,9.205 c -0.174,0.432 -0.615,1.08 -1.609,0.834 0.035,0.051 -2.552,-0.637 -2.552,-0.637 l -1.743,4.019 4.569,1.139 c 0.85,0.213 1.683,0.436 2.503,0.646 l -1.453,5.834 3.507,0.875 1.439,-5.772 c 0.958,0.26 1.888,0.5 2.798,0.726 l -1.434,5.745 3.511,0.875 1.453,-5.823 c 5.987,1.133 10.489,0.676 12.384,-4.739 1.527,-4.36 -0.076,-6.875 -3.226,-8.515 2.294,-0.529 4.022,-2.038 4.483,-5.155 z m -8.022,11.249 c -1.085,4.36 -8.426,2.003 -10.806,1.412 l 1.928,-7.729 c 2.38,0.594 10.012,1.77 8.878,6.317 z m 1.086,-11.312 c -0.99,3.966 -7.1,1.951 -9.082,1.457 l 1.748,-7.01 c 1.982,0.494 8.365,1.416 7.334,5.553 z"
         inkscape:connector-curvature="0"
         style="fill:#ffffff" />
    </g>
  </g>
</svg>
