<?xml version="1.0" encoding="utf-8"?>
<!-- Generator: Adobe Illustrator 25.2.3, SVG Export Plug-In . SVG Version: 6.00 Build 0)  -->
<svg version="1.1" id="Camada_1" xmlns="http://www.w3.org/2000/svg" xmlns:xlink="http://www.w3.org/1999/xlink" x="0px" y="0px"
	 viewBox="0 0 151.9 145.4" style="enable-background:new 0 0 151.9 145.4;" xml:space="preserve">
<style type="text/css">
	.st0{fill:#FFCC00;}
	.st1{fill:#FEFEFE;}
	.st2{fill:#FEFEFD;}
	.st3{fill:#F0B90C;}
</style>
<g>
	<g>
		<circle class="st0" cx="104.4" cy="97.9" r="47.5"/>
		<g>
			<path class="st1" d="M124.5,110.5c-0.3,0.3-0.5,0.6-0.7,0.9c-6.2,6.2-12.3,12.4-18.5,18.5c-0.7,0.7-1.1,0.6-1.8,0
				c-6.1-6.2-12.2-12.3-18.4-18.4c-0.7-0.7-0.8-1.2,0-1.9c1.9-1.8,3.7-3.6,5.5-5.5c0.8-0.8,1.2-0.8,2,0c3.3,3.4,6.7,6.7,10,10.1
				c1.8,1.8,1.8,1.8,3.6-0.1c3.3-3.3,6.6-6.6,9.9-9.9c0.8-0.8,1.3-1,2.2,0c1.7,1.9,3.5,3.6,5.3,5.4
				C123.9,109.8,124.2,110.1,124.5,110.5z"/>
			<path class="st1" d="M124.4,85.3c-0.2,0.2-0.4,0.5-0.7,0.8c-1.8,1.8-3.6,3.5-5.3,5.4c-1,1.1-1.6,0.8-2.5-0.1
				c-3.4-3.5-7-6.9-10.4-10.5c-0.9-0.9-1.4-0.9-2.3,0c-3.4,3.5-7,6.9-10.4,10.5c-1.1,1.1-1.6,1-2.6-0.1c-1.7-1.8-3.4-3.5-5.2-5.2
				c-0.8-0.7-0.7-1.2,0-1.9c6.1-6.1,12.2-12.1,18.3-18.3c0.8-0.8,1.2-0.8,2.1,0c6.1,6.1,12.2,12.2,18.2,18.3
				C124,84.5,124.4,84.7,124.4,85.3z"/>
			<path class="st2" d="M86.2,97.9c-0.2,0.2-0.4,0.5-0.6,0.7c-2,2-4,4-6,6c-0.6,0.6-0.9,0.6-1.5,0c-2-2-4-4-6-6
				c-0.6-0.6-0.5-1,0.1-1.5c2-1.9,3.9-3.9,5.9-5.8c0.4-0.4,0.7-0.9,1.3-0.3c2.1,2.1,4.2,4.3,6.4,6.4C86,97.5,86.1,97.7,86.2,97.9z"
				/>
			<path class="st1" d="M111.9,97.8c-0.3,0.3-0.5,0.6-0.7,0.8c-2,2-3.9,3.9-5.8,5.9c-0.7,0.7-1.1,0.7-1.8,0c-1.9-2-3.9-3.9-5.9-5.9
				c-0.6-0.6-0.7-1,0-1.6c2-2,4-4,6-6c0.5-0.5,0.9-0.7,1.5-0.1c2.1,2.1,4.2,4.2,6.2,6.3C111.5,97.4,111.6,97.6,111.9,97.8z"/>
			<path class="st2" d="M137,97.7c0,0.5-0.3,0.7-0.6,1c-1.9,2-3.9,3.9-5.8,5.9c-0.7,0.7-1.1,0.5-1.6-0.1c-1.9-1.9-3.8-3.9-5.7-5.7
				c-0.7-0.7-0.7-1.1,0-1.8c1.9-1.9,3.8-3.8,5.7-5.7c0.5-0.5,0.8-0.9,1.5-0.2c2,2.1,4.1,4.1,6.1,6.1C136.8,97.3,136.9,97.5,137,97.7
				z"/>
		</g>
	</g>
	<g>
		<circle class="st3" cx="47.5" cy="47.5" r="47.5"/>
		<g>
			<path class="st1" d="M47.4,79.5c-0.3-0.3-0.6-0.5-0.9-0.8c-2.1-2.1-4.2-4.2-6.3-6.3c-0.7-0.7-0.7-1.1,0-1.8
				c10.2-10.1,20.3-20.3,30.4-30.4c0.7-0.7,1.1-0.8,1.9,0c2,2.1,4.1,4.2,6.3,6.3c0.7,0.7,0.7,1.1,0,1.8
				C68.6,58.4,58.4,68.6,48.3,78.8C48,79,47.7,79.2,47.4,79.5z"/>
			<path class="st1" d="M59.5,27.3c0.3,0.3,0.6,0.5,0.9,0.7c2.1,2.1,4.3,4.3,6.4,6.4c0.7,0.6,0.6,1,0,1.6
				C56.6,46.2,46.4,56.4,36.2,66.7c-0.6,0.6-1,0.7-1.6,0c-2.1-2.1-4.1-4.2-6.3-6.3c-0.8-0.8-0.8-1.2,0-2c4.6-4.5,9.2-9.1,13.7-13.7
				c5.4-5.4,10.9-10.9,16.3-16.3C58.8,28,59.1,27.7,59.5,27.3z"/>
			<path class="st1" d="M35.3,43.3c-0.3-0.3-0.6-0.5-0.9-0.8c-2.1-2.1-4.1-4.2-6.3-6.2c-0.8-0.8-0.7-1.2,0.1-1.9
				c6.1-6.1,12.2-12.2,18.3-18.3c0.8-0.8,1.2-0.7,1.9,0c2,2.1,4.1,4.2,6.3,6.3c0.6,0.6,0.7,1,0,1.6c-6.2,6.2-12.5,12.4-18.7,18.6
				C35.9,42.9,35.6,43.1,35.3,43.3z"/>
			<path class="st1" d="M23.5,55.2c-0.6,0-0.8-0.4-1.1-0.7c-2.1-2-4.1-4.1-6.2-6.1c-0.8-0.7-0.8-1.2,0-1.9c2.1-2,4.1-4.1,6.1-6.1
				c0.7-0.7,1.1-0.9,1.9-0.1c2,2.1,4.2,4.2,6.3,6.3c0.4,0.4,1,0.8,0.3,1.5c-2.3,2.2-4.5,4.5-6.8,6.8C23.8,54.9,23.6,55,23.5,55.2z"
				/>
		</g>
	</g>
</g>
</svg>
