<svg xmlns="http://www.w3.org/2000/svg" viewBox="0 0 94.65627 94.66731">
  <g>
    <path d="M93.23964,58.78425A47.31672,47.31672,0,1,1,58.77222,1.41644,47.32066,47.32066,0,0,1,93.23964,58.78425Z" fill="#f7931a"/>
    <path d="M68.19743,40.59056c.94223-6.29827-3.85321-9.68407-10.41033-11.94275l2.127-8.53181-5.19334-1.29426L52.65,27.12871c-1.36526-.34021-2.76751-.66119-4.16088-.97921l2.08562-8.3617-5.19038-1.29427-2.12851,8.52885c-1.13008-.25737-2.23945-.51179-3.31628-.77952l.00591-.02662-7.1621-1.78831L31.4018,27.97479s3.85322.88306,3.77187.93779a2.76349,2.76349,0,0,1,2.4199,3.02044L35.17071,41.6526a4.30081,4.30081,0,0,1,.53989.17306c-.17306-.0429-.358-.09023-.54877-.13608L31.76568,55.30526a1.89038,1.89038,0,0,1-2.38,1.23362c.05177.07543-3.77482-.94223-3.77482-.94223L23.03271,61.5414,29.791,63.22617c1.25728.31506,2.48943.64491,3.70234.95554l-2.14922,8.62942,5.18742,1.29427,2.12851-8.53772c1.417.38458,2.79266.73958,4.1387,1.07387l-2.12112,8.49779L45.871,76.4336l2.14922-8.61316c8.85574,1.67589,15.51493.99991,18.31794-7.00974,2.25868-6.44915-.11242-10.16924-4.77178-12.59506C64.95954,47.43316,67.51553,45.2011,68.19743,40.59056ZM56.3316,57.22965c-1.60489,6.44915-12.46342,2.96276-15.98382,2.08857L43.1996,47.88578C46.72,48.76441,58.009,50.5039,56.3316,57.22965ZM57.938,40.49737c-1.46438,5.86636-10.502,2.88585-13.43375,2.15514l2.58557-10.36892C50.02149,33.01429,59.463,34.37808,57.938,40.49737Z" fill="#fff"/>
  </g>
</svg>
