<?xml version="1.0" encoding="utf-8"?>
<!-- Generator: Adobe Illustrator 25.2.3, SVG Export Plug-In . SVG Version: 6.00 Build 0)  -->
<svg version="1.1" id="Camada_1" xmlns="http://www.w3.org/2000/svg" xmlns:xlink="http://www.w3.org/1999/xlink" x="0px" y="0px"
	 viewBox="0 0 94.7 94.7" style="enable-background:new 0 0 94.7 94.7;" xml:space="preserve">
<style type="text/css">
	.st0{fill:#F0B90C;}
	.st1{fill:#FEFEFE;}
</style>
<g>
	<circle class="st0" cx="47" cy="47" r="47.5"/>
	<g>
		<path class="st1" d="M46.9,79c-0.3-0.3-0.6-0.5-0.9-0.8c-2.1-2.1-4.2-4.2-6.3-6.3c-0.7-0.7-0.7-1.1,0-1.8
			C49.9,60,60.1,49.9,70.2,39.7c0.7-0.7,1.1-0.8,1.9,0c2,2.1,4.1,4.2,6.3,6.3c0.7,0.7,0.7,1.1,0,1.8C68.1,57.9,57.9,68.1,47.8,78.3
			C47.5,78.5,47.2,78.7,46.9,79z"/>
		<path class="st1" d="M59,26.8c0.3,0.3,0.6,0.5,0.9,0.7c2.1,2.1,4.3,4.3,6.4,6.4c0.7,0.6,0.6,1,0,1.6
			C56.1,45.7,45.9,55.9,35.7,66.2c-0.6,0.6-1,0.7-1.6,0C32,64.1,30,62,27.8,59.9c-0.8-0.8-0.8-1.2,0-2c4.6-4.5,9.2-9.1,13.7-13.7
			c5.4-5.4,10.9-10.9,16.3-16.3C58.3,27.5,58.6,27.2,59,26.8z"/>
		<path class="st1" d="M34.8,42.8c-0.3-0.3-0.6-0.5-0.9-0.8c-2.1-2.1-4.1-4.2-6.3-6.2c-0.8-0.8-0.7-1.2,0.1-1.9
			C33.9,27.8,40,21.7,46,15.6c0.8-0.8,1.2-0.7,1.9,0c2,2.1,4.1,4.2,6.3,6.3c0.6,0.6,0.7,1,0,1.6C48,29.7,41.8,35.9,35.6,42.2
			C35.4,42.4,35.1,42.6,34.8,42.8z"/>
		<path class="st1" d="M23,54.7c-0.6,0-0.8-0.4-1.1-0.7c-2.1-2-4.1-4.1-6.2-6.1c-0.8-0.7-0.8-1.2,0-1.9c2.1-2,4.1-4.1,6.1-6.1
			c0.7-0.7,1.1-0.9,1.9-0.1c2,2.1,4.2,4.2,6.3,6.3c0.4,0.4,1,0.8,0.3,1.5c-2.3,2.2-4.5,4.5-6.8,6.8C23.3,54.4,23.1,54.5,23,54.7z"/>
	</g>
</g>
</svg>
