<?xml version="1.0" standalone="no"?>
<!DOCTYPE svg PUBLIC "-//W3C//DTD SVG 20010904//EN"
 "http://www.w3.org/TR/2001/REC-SVG-20010904/DTD/svg10.dtd">
<svg version="1.0" xmlns="http://www.w3.org/2000/svg"
 width="500.000000pt" height="500.000000pt" viewBox="0 0 500.000000 500.000000"
 preserveAspectRatio="xMidYMid meet">
<metadata>
Created by potrace 1.16, written by Peter Selinger 2001-2019
</metadata>
<g transform="translate(0.000000,500.000000) scale(0.100000,-0.100000)"
fill="#000000" stroke="none">
<path d="M1995 4621 c-63 -16 -123 -57 -223 -155 -140 -136 -236 -274 -367
-529 l-50 -97 -135 0 c-255 0 -415 -23 -585 -81 -86 -30 -114 -46 -167 -97
-65 -62 -83 -118 -75 -228 6 -80 43 -196 75 -235 7 -8 35 -43 62 -79 75 -95
137 -159 221 -225 41 -33 76 -63 79 -66 8 -9 190 -131 232 -156 l38 -22 -2
-143 c-2 -138 -1 -145 26 -198 22 -44 26 -63 22 -100 -5 -44 -4 -46 54 -107
56 -59 60 -66 60 -111 0 -54 43 -147 90 -195 15 -15 32 -39 38 -55 6 -15 23
-61 38 -102 16 -41 31 -77 34 -80 3 -3 18 -25 34 -50 63 -98 207 -253 248
-266 9 -3 20 -14 23 -25 10 -31 -4 -89 -23 -96 -43 -16 -124 -90 -172 -157
l-52 -73 -84 -7 c-46 -3 -107 -15 -136 -25 -29 -11 -69 -23 -88 -26 -55 -11
-91 -53 -115 -135 -9 -30 -21 -41 -90 -77 -44 -22 -81 -46 -83 -51 -3 -11 57
-72 72 -72 5 0 46 -28 90 -62 73 -56 159 -107 271 -160 22 -10 47 -23 55 -28
56 -36 172 -82 340 -136 102 -33 272 -74 380 -91 203 -32 685 -21 855 19 28 6
57 13 65 14 46 7 245 65 254 74 5 5 21 10 35 10 15 0 55 14 89 30 35 17 68 30
74 30 5 0 22 8 36 18 15 10 70 37 122 61 52 23 122 62 155 86 33 24 89 64 125
89 36 24 75 54 88 66 l23 22 -40 29 c-23 16 -45 29 -50 29 -5 0 -11 4 -13 8
-1 4 -25 17 -53 28 -45 18 -52 25 -64 65 -23 74 -61 123 -106 135 -22 6 -60
17 -85 24 -25 7 -91 15 -148 17 -84 4 -104 8 -109 21 -4 10 -10 19 -13 22 -4
3 -17 23 -28 45 -36 69 -158 185 -186 177 -12 -4 -26 18 -26 39 0 9 30 48 68
86 74 76 79 83 156 186 59 81 116 183 116 210 0 37 32 93 80 136 66 61 91 111
97 191 5 58 9 69 43 105 48 51 56 68 65 134 4 29 17 70 29 90 19 32 21 53 23
195 1 87 3 159 5 161 2 1 48 26 103 55 90 48 151 84 165 100 3 3 30 24 60 46
85 64 191 171 265 269 104 138 136 262 105 400 -12 49 -23 68 -65 111 -118
121 -246 156 -650 175 -126 6 -235 13 -241 14 -7 2 -42 63 -78 135 -64 127
-150 271 -198 335 -23 30 -140 157 -168 182 -33 30 -138 103 -161 111 -42 16
-162 23 -215 13 -45 -9 -161 -56 -174 -71 -3 -3 -22 -14 -42 -25 -21 -11 -38
-23 -38 -27 0 -17 -30 -6 -125 44 -145 76 -265 102 -360 79z m157 -105 c77
-15 158 -50 158 -69 0 -6 3 -8 6 -4 3 3 26 -5 51 -19 56 -29 87 -30 141 -4 22
11 48 20 55 20 8 0 18 7 21 16 4 10 15 14 31 12 14 -2 29 4 37 14 24 31 248
63 263 37 3 -4 25 -18 49 -29 23 -12 51 -36 61 -53 22 -39 70 -86 99 -97 12
-4 31 -25 41 -46 11 -22 25 -43 32 -49 6 -5 22 -26 35 -45 13 -20 29 -42 36
-50 26 -31 62 -92 68 -115 3 -14 10 -25 14 -25 4 0 11 -11 14 -25 4 -14 11
-25 16 -25 14 0 12 -56 -2 -67 -8 -6 -133 -11 -307 -12 -171 -1 -300 -6 -306
-11 -7 -6 -15 -6 -19 -2 -4 4 -279 9 -610 12 -547 5 -604 7 -619 22 -22 22
-21 44 3 68 11 11 20 27 20 35 0 8 8 23 18 33 10 10 24 33 32 52 8 19 20 39
27 43 7 4 13 12 13 18 0 13 52 92 67 102 7 4 13 14 13 21 0 7 17 29 38 49 20
19 55 54 77 76 22 23 47 43 57 46 9 3 19 12 22 20 6 17 58 45 94 51 15 3 29 7
31 10 8 7 48 4 123 -10z m-584 -775 c6 -1 12 -5 12 -10 0 -8 -108 -11 -540
-15 -47 -1 -90 -6 -97 -12 -6 -6 -44 -16 -85 -23 -78 -13 -250 -89 -299 -133
-38 -33 -44 -61 -16 -73 22 -10 67 1 67 17 0 17 83 47 225 83 135 34 164 38
287 39 91 1 138 5 138 12 0 6 15 11 33 11 101 4 172 1 249 -7 56 -7 103 -7
130 -1 23 5 49 6 57 1 36 -18 753 -29 1368 -19 188 3 243 7 243 17 0 8 8 11
23 7 19 -4 417 -23 487 -23 42 1 150 -24 150 -33 0 -5 11 -7 25 -3 15 4 32 1
40 -6 11 -9 15 -9 15 -1 0 8 5 9 19 1 11 -5 29 -10 40 -10 12 0 21 -4 21 -10
0 -5 6 -10 13 -10 14 0 69 -23 97 -41 50 -31 90 -32 90 -2 0 26 -63 103 -89
110 -14 3 -40 14 -58 24 -31 17 -115 39 -238 60 -33 6 -73 13 -90 16 -32 6
-488 7 -1295 4 -267 -1 -525 0 -575 3 -49 2 -162 4 -249 5 -128 1 -157 3 -147
14 9 9 72 11 274 7 302 -5 735 -6 1503 -2 477 3 547 2 589 -12 26 -9 75 -19
109 -23 33 -3 72 -11 86 -19 14 -7 52 -23 85 -35 58 -22 115 -66 115 -88 0 -6
4 -11 8 -11 23 0 44 -114 25 -134 -4 -4 -9 -19 -11 -34 -2 -15 -7 -31 -13 -36
-5 -6 -9 -18 -9 -28 0 -10 -9 -26 -20 -35 -11 -10 -20 -21 -20 -26 0 -4 -11
-19 -24 -32 -14 -13 -27 -34 -31 -45 -3 -11 -11 -20 -17 -20 -5 0 -8 -6 -5
-13 5 -12 -83 -117 -98 -117 -4 0 -18 -10 -30 -22 -34 -34 -52 -47 -57 -43 -2
3 -20 -11 -38 -30 -19 -19 -39 -35 -46 -35 -6 0 -17 -6 -23 -14 -7 -8 -25 -17
-39 -21 -15 -3 -43 -19 -62 -36 -77 -67 -84 -62 -85 63 0 56 -4 91 -12 99 -7
7 -13 23 -13 36 0 19 5 23 30 23 28 0 30 2 30 39 0 30 -6 44 -22 55 -12 8 -25
13 -30 10 -5 -3 -17 1 -26 9 -9 8 -55 29 -102 47 -47 17 -90 36 -96 41 -5 4
-37 10 -70 13 -32 3 -93 14 -134 25 -41 12 -97 21 -125 21 -27 -1 -75 4 -105
9 -30 6 -80 13 -110 16 -78 9 -932 12 -1010 4 -150 -16 -317 -41 -350 -51 -43
-14 -52 -16 -112 -22 -26 -3 -53 -8 -60 -13 -7 -4 -31 -9 -53 -10 -22 -2 -41
-8 -43 -13 -2 -6 -8 -10 -14 -10 -15 0 -217 -100 -223 -111 -3 -4 -12 -6 -20
-2 -9 3 -15 -1 -15 -11 0 -9 -7 -16 -15 -16 -8 0 -15 -4 -15 -9 0 -16 31 -41
51 -41 14 0 19 -7 19 -25 0 -14 -4 -25 -10 -25 -16 0 -12 -142 5 -164 8 -10
12 -23 9 -27 -9 -15 -50 -10 -75 10 -13 10 -34 21 -46 25 -13 4 -23 12 -23 17
0 5 -12 14 -26 19 -35 14 -140 89 -197 143 -26 24 -59 50 -73 58 -27 14 -91
98 -86 112 1 4 -11 19 -28 33 -16 14 -30 32 -30 39 0 8 -11 26 -24 40 -58 63
-61 265 -4 312 7 6 49 29 93 51 81 40 146 58 245 67 30 3 73 9 95 15 22 5 49
11 60 12 16 3 504 1 543 -1z m1222 -531 c212 -9 389 -21 508 -36 70 -9 72 -18
75 -346 l2 -283 33 -47 32 -47 0 -299 c0 -337 -4 -368 -69 -507 -107 -228
-285 -397 -561 -531 -155 -75 -171 -82 -260 -100 -86 -17 -140 -13 -270 23
-65 18 -318 144 -410 205 -138 91 -274 242 -339 378 -57 121 -61 150 -61 500
l0 319 35 75 35 76 0 275 c0 253 1 275 18 284 33 18 137 30 372 46 393 26 538
28 860 15z m770 -74 c73 -15 110 -37 110 -63 0 -7 7 -24 14 -36 20 -30 31
-145 17 -181 -11 -27 -14 -28 -54 -23 -23 3 -43 11 -45 16 -2 6 -17 11 -33 11
-28 0 -29 -2 -30 -47 -1 -27 -4 -100 -8 -163 l-6 -115 -30 3 c-61 6 -66 26
-64 221 1 97 -2 188 -6 204 -4 15 -4 61 0 103 6 65 10 76 28 83 12 5 25 7 28
5 3 -2 38 -10 79 -18z m-2099 -13 c12 -15 14 -67 13 -273 -1 -284 -5 -310 -53
-310 -37 0 -41 14 -41 151 0 122 -7 169 -25 169 -8 0 -35 -9 -61 -20 l-47 -21
-29 28 c-31 30 -38 83 -15 118 7 11 19 38 25 60 18 64 32 75 113 95 96 23 103
23 120 3z m-148 -465 c1 -35 -5 -77 -13 -95 -13 -30 -13 -35 5 -57 11 -13 33
-40 49 -60 23 -29 29 -49 34 -102 4 -57 2 -69 -13 -81 -44 -31 -121 -1 -165
66 -29 43 -30 49 -30 161 0 133 10 167 65 226 33 34 37 36 52 22 11 -11 16
-36 16 -80z m2358 52 c21 -22 43 -57 48 -77 14 -48 14 -207 1 -252 -21 -76
-82 -131 -144 -131 -37 0 -49 30 -44 118 3 72 5 76 41 107 37 32 50 76 27 90
-5 3 -10 36 -10 73 0 124 17 139 81 72z m19 -528 c0 -9 -10 -28 -23 -42 -43
-46 -56 -74 -72 -155 -15 -74 -43 -125 -67 -125 -4 0 -8 61 -8 136 l0 135 73
34 c83 39 97 41 97 17z m-2380 -18 l77 -25 6 -116 c3 -63 3 -122 0 -129 -3 -8
-15 -14 -28 -14 -28 0 -52 53 -58 127 -3 42 -12 63 -45 107 -39 52 -51 76 -36
76 4 0 42 -12 84 -26z m671 -1087 c46 -23 104 -54 129 -69 77 -44 214 -84 327
-94 50 -4 93 0 161 15 83 18 191 63 200 84 2 4 7 7 12 7 4 0 48 23 98 50 50
28 98 50 106 50 31 0 44 -43 51 -167 9 -147 1 -178 -62 -233 -80 -70 -271
-170 -439 -230 -110 -39 -150 -37 -257 13 -42 21 -79 37 -82 37 -17 0 -252
123 -290 153 -5 4 -22 17 -38 28 -50 37 -59 78 -51 224 6 122 19 175 43 175 4
0 46 -19 92 -43z"/>
<path d="M2008 3083 c17 -2 47 -2 65 0 17 2 3 4 -33 4 -36 0 -50 -2 -32 -4z"/>
<path d="M2808 3083 c12 -2 32 -2 45 0 12 2 2 4 -23 4 -25 0 -35 -2 -22 -4z"/>
<path d="M2898 3083 c12 -2 32 -2 45 0 12 2 2 4 -23 4 -25 0 -35 -2 -22 -4z"/>
<path d="M2990 3081 c41 -13 127 -22 109 -11 -9 5 -43 12 -75 14 -37 3 -50 2
-34 -3z"/>
<path d="M1878 3073 c7 -3 16 -2 19 1 4 3 -2 6 -13 5 -11 0 -14 -3 -6 -6z"/>
<path d="M2118 3073 c7 -3 16 -2 19 1 4 3 -2 6 -13 5 -11 0 -14 -3 -6 -6z"/>
<path d="M2156 3048 c4 -17 2 -28 -4 -28 -18 0 -65 -20 -60 -25 9 -9 78 25 78
38 0 6 -5 19 -10 27 -8 11 -9 8 -4 -12z"/>
<path d="M2750 3030 c0 -23 5 -30 19 -30 18 0 19 3 10 30 -6 17 -15 30 -20 30
-5 0 -9 -13 -9 -30z"/>
<path d="M1704 3001 c4 -5 0 -12 -6 -14 -7 -3 1 -6 19 -6 35 -1 52 13 27 23
-23 9 -46 7 -40 -3z"/>
<path d="M1905 3000 c3 -5 8 -10 11 -10 2 0 4 5 4 10 0 6 -5 10 -11 10 -5 0
-7 -4 -4 -10z"/>
<path d="M2814 2999 c-10 -4 51 -8 136 -9 88 0 182 -7 218 -14 63 -14 77 -10
66 18 -7 18 -24 22 -24 5 0 -8 -15 -9 -47 -4 -65 11 -325 13 -349 4z"/>
<path d="M2995 2880 c-82 -12 -135 -71 -135 -148 0 -49 0 -49 38 -56 48 -8
256 -8 276 0 28 11 20 78 -15 127 -17 23 -37 46 -45 50 -42 24 -83 33 -119 27z
m19 -73 c25 -18 11 -47 -23 -47 -24 0 -28 4 -28 30 0 33 20 40 51 17z"/>
<path d="M1841 2865 c-25 -8 -55 -27 -72 -47 -24 -28 -28 -42 -29 -89 0 -53 2
-57 25 -63 14 -4 31 -3 38 1 6 3 50 6 98 4 48 -1 103 1 123 4 35 7 36 8 36 54
0 55 -26 103 -72 131 -38 23 -84 24 -147 5z m93 -55 c16 -6 26 -17 26 -30 0
-16 -7 -20 -35 -20 -32 0 -35 2 -35 30 0 33 5 35 44 20z"/>
<path d="M2503 2813 c-5 -10 -8 -67 -8 -128 0 -138 20 -213 82 -313 l47 -75
-20 -36 c-36 -63 -192 -124 -223 -87 -11 13 -11 20 4 42 9 14 15 28 12 30 -12
12 -72 -13 -111 -47 -31 -28 -63 -44 -117 -58 -83 -23 -303 -101 -374 -132
-11 -5 -51 -20 -89 -32 -39 -13 -74 -31 -80 -40 -29 -45 158 -147 312 -170 75
-11 102 -20 145 -48 85 -57 131 -78 213 -99 177 -44 342 -16 510 87 52 32 89
46 135 54 35 5 89 16 119 25 95 26 220 100 220 130 0 16 -85 74 -108 74 -8 0
-28 6 -45 14 -144 63 -377 146 -412 146 -6 0 -19 6 -29 13 -17 13 -17 16 4 65
29 67 24 92 -41 198 -54 88 -101 232 -98 304 2 70 -31 127 -48 83z m-8 -994
c22 -5 58 -15 80 -20 59 -14 107 -39 102 -52 -2 -7 -32 -22 -68 -35 -56 -21
-78 -23 -179 -20 -95 3 -123 8 -162 27 -27 13 -48 28 -48 35 0 15 48 36 84 36
17 1 54 9 81 20 60 22 60 22 110 9z"/>
</g>
</svg>
