<?xml version="1.0" encoding="utf-8"?>
<!-- Generator: Adobe Illustrator 25.3.1, SVG Export Plug-In . SVG Version: 6.00 Build 0)  -->
<svg version="1.1" id="Camada_1" xmlns="http://www.w3.org/2000/svg" xmlns:xlink="http://www.w3.org/1999/xlink" x="0px" y="0px"
	 viewBox="0 0 151.9 145.8" style="enable-background:new 0 0 151.9 145.8;" xml:space="preserve">
<style type="text/css">
	.st0{fill:#F9F9F9;}
	.st1{fill:#810331;}
	.st2{fill:#FAF0DF;}
	.st3{fill:#FFFFFF;}
	.st4{fill:#CA054D;}
	.st5{fill:#A4D4B4;}
	.st6{fill:#B650A0;}
	.st7{fill:#FFCC00;}
	.st8{fill:#FEFEFE;}
	.st9{fill:#FEFEFD;}
	.st10{fill:#F0B90C;}
</style>
<g>
	<circle class="st0" cx="104.4" cy="98.3" r="47.5"/>
	<g>
		<path class="st1" d="M104.5,80.1c-1.2-1-2.5-1.7-4-2.3c-1.5-0.6-3.1-0.9-4.7-1.1c-0.2,0-0.3,0-0.5-0.1c0.6-0.8,1.4-1.5,2.2-2.1
			c1.4-1,3-1.7,4.7-2.1c1.5-0.3,3-0.3,4.6,0c1.7,0.4,3.3,1,4.8,2c1.2,0.9,2.4,2,3.3,3.3c0.5,0.7,0.9,1.5,1.2,2.3
			c-0.3,0-0.6-0.1-0.9-0.1c-1.6-0.2-3.2-0.3-4.9-0.2c-1.2,0.1-2.3,0.3-3.4,0.7c-0.5,0.2-1.1,0.4-1.2,0.4
			C105.6,80.9,105.4,80.7,104.5,80.1L104.5,80.1z"/>
		<path class="st2" d="M85.8,99.3c0.7,1.2,4.1,7.5,7.2,13.2c3.9,7.3,5.1,9.5,6.5,11.9c1.9,3.1,3.1,4.7,4.3,5.3
			c0.2,0.1,0.4,0.2,0.7,0.3c0.5-0.1,1-0.4,1.4-0.7c1.3-1,3-3.7,5.9-8.9c0.4-0.6,2.4-4.4,4.5-8.3c3.6-6.6,6.3-11.7,6.8-12.6
			c0,0,0-0.1,0.1-0.1L85.8,99.3z"/>
		<path class="st3" d="M85.8,99.3c0.7,1.2,4.1,7.5,7.2,13.2c3.9,7.3,5.1,9.5,6.5,11.9c1.9,3.1,3.1,4.7,4.3,5.3
			c0.2,0.1,0.4,0.2,0.7,0.3c0.5-0.1,1-0.4,1.4-0.7c1.3-1,3-3.7,5.9-8.9c0.4-0.6,2.4-4.4,4.5-8.3c3.6-6.6,6.3-11.7,6.8-12.6
			c0,0,0-0.1,0.1-0.1L85.8,99.3L85.8,99.3z"/>
		<path class="st4" d="M116.6,67c-0.3,0-0.6,0.1-0.9,0.4l-10.6,11.8c0.5,0.3,0.9,0.6,1.3,1c1.2-0.6,2.5-1,3.9-1.1
			c0.6,0,1.3,0,1.9,0.1l7.4-8.2c0.4-0.4,0.4-1.1-0.1-1.5l0,0l-2.3-2.1C117.1,67.1,116.8,67,116.6,67L116.6,67z M84.4,95.7l-0.1,0.2
			c-0.1,0.7-0.1,1.3,0,2c0.2,0.7,0.4,1.1,0.7,1.2c0.1,0,0.2,0.1,0.3,0.1l0,0c0,0,1.7,0,3.6,0h3.5v-3.5h-4.1L84.4,95.7z M104.5,95.8
			v0.8c0,0.5,0,1.2,0,1.6v0.7h0.8c1.8,0,10.9,0.1,14.8,0h4l0.3-0.5c0.2-0.4,0.3-0.8,0.3-1.3c0-0.4,0-0.7-0.1-1.1l-0.1-0.3h-10
			L104.5,95.8z M97,98c-0.3,0-0.3,0.3-0.3,0.7V99l1.9,0.1l1.9-0.1v-0.8l-0.3-0.1c-0.4,0-0.7,0-1.1,0.1c-0.6,0.1-1.2,0-1.8-0.2
			C97.2,98,97.1,98,97,98L97,98L97,98z M115.8,99.2c-0.5,0-1,0-1.5,0.1h3.5C117.1,99.2,116.5,99.2,115.8,99.2z M117.8,99.3
			c2.7,0.2,5,0.6,5.3,0.1c0,0,0-0.1,0.1-0.1H117.8z M114.3,99.3H85.8c0.7,1.2,4.1,7.5,7.2,13.2c3.9,7.3,5.1,9.5,6.5,11.9
			c1.9,3.1,3.1,4.7,4.3,5.3c0.2,0.1,0.4,0.2,0.7,0.3c-4.3-12.1-1.3-22.7,6.2-29.3C111.7,99.8,112.9,99.3,114.3,99.3z"/>
		<path class="st5" d="M109.1,93.7c0.4-1.3,0.5-2.7,0.5-4.1c0-0.7-0.1-1.5-0.2-2.2c-0.4-2.1-1.3-4.1-2.5-5.8
			c-0.4-0.6-0.4-0.6,0.6-0.8c1.1-0.3,2.3-0.5,3.4-0.4c1.2,0,2.5,0.1,3.6,0.6c3.5,1.3,6.3,4,7.6,7.4c0.1,0.3,0.3,1,0.4,1.5
			c0.2,0.9,0.3,1.8,0.2,2.7c0,1.4,0,1.9-0.1,1.9c-0.1,0.1-4.2,0.2-9.3,0.2h-4.5L109.1,93.7z"/>
		<path class="st3" d="M93.7,109.7c-0.3-0.3-0.3-1.3-0.3-7.8c0-5.5-0.8-6.5-1-6.7c-1.1,0-2.3-0.1-3.4-0.3l-3.7,0.2l-0.6-2.5
			c-0.4-2.2-0.4-4.4,0-6.6c0.6-2.1,1.8-4,3.3-5.6c4.6-4.7,12.1-4.9,16.9-0.3c1.5,1.4,2.7,3.2,3.4,5.2c0.7,2.4,0.8,5,0.2,7.4
			l-0.4,1.2l-0.9,0.9l-3,0.1l-0.3,1.6c-0.1,1.2-0.2,2.5-0.2,3.7c0,1.1-0.1,1.2-0.6,1.4c-0.9,0.2-2.1,0.4-2.1-2.2
			c0-2.4,0.3-2.8-0.4-2.8c-0.2,0-0.5,0.4-0.8,0.6c-1,0.5-2.1,0.4-3-0.3c-0.4-0.3-0.5-0.6-0.9-0.6c-0.6,0.1-0.4,0.1-0.5,0.8
			c-0.1,0.8-0.1,3.8,0,6.7c0.1,5.1,0.1,5.6-0.5,5.8C94.7,109.9,94.2,109.9,93.7,109.7L93.7,109.7z"/>
		<path class="st1" d="M116.8,65.9c-0.5,0-1.1,0.2-1.4,0.6l-5.4,6c-1.6-0.8-3.3-1.2-5.1-1.2l0,0c-3,0-5.8,1.1-8,3.2
			c-0.7,0.6-1.2,1.3-1.8,2.1c-0.3,0.1-0.5,0.1-0.8,0.2c-0.6,0.1-1.1,0.2-1.7,0.4c-4.6,1.5-8,5.4-9,10.1c-0.2,0.8-0.2,1.7-0.2,2.6
			c0,1.4,0.2,2.7,0.6,4l0.2,0.6l-0.3,0.3c-0.2,0.2-0.4,0.4-0.5,0.7c-0.3,0.7-0.3,1.5-0.2,2.3c0.3,1.8,1.2,2.8,2.4,2.8
			c0.1,0.1,0.1,0.2,0.2,0.4c0.4,0.8,1,1.9,1.7,3.1c1.4,2.5,3.1,5.7,4.7,8.8c3.9,7.3,5.1,9.5,6.6,11.9c1.6,2.1,3.4,4.7,4.6,5.5
			c0.5,0.3,1.2,0.4,1.7,0.1c2.5-1.1,12.4-19.7,18-29.8h0.1c0.7,0,1.3-0.4,1.6-1c0.8-1.3,0.9-3.5,0.2-4.5c-0.2-0.3-0.6-0.6-1-0.7
			c-0.2,0-0.2,0-0.2-1.6c0.1-1.6-0.1-3.1-0.6-4.6c-0.6-1.9-1.6-3.6-3-5c-1-1-2.1-1.9-3.3-2.5l-0.9-0.5l-0.3-0.8
			c-0.2-0.7-0.5-1.4-0.9-2l5.5-6.2c0.7-0.7,0.6-1.9-0.1-2.6l-2.4-2.2C117.7,66.1,117.3,66,116.8,65.9L116.8,65.9z M116.8,67.3
			c0.1,0,0.2,0.1,0.3,0.1l2.4,2.2c0.2,0.2,0.2,0.5,0.1,0.7l0,0l-5.3,5.9l-1.1,1.2l-1.3,1.4c-0.6,0-1.2-0.1-1.7-0.1
			c-1.4,0-2.7,0.4-4,1c-0.1-0.1-0.3-0.2-0.5-0.4l4.4-4.9l1.1-1.2l5.2-5.8C116.5,67.3,116.6,67.2,116.8,67.3L116.8,67.3z M104.9,72.9
			c1.4,0,2.7,0.3,4,0.9l-4.7,5.2c0,0,0,0-0.1,0.1c-1.5-1.1-3.3-1.8-5.1-2.2c-0.5-0.1-1-0.2-1.5-0.2c-0.3,0-0.5,0-0.5-0.1
			c0.6-0.7,1.3-1.3,2.1-1.9C100.9,73.5,102.9,72.9,104.9,72.9L104.9,72.9z M96.4,78.2L96.4,78.2c1,0,2,0.1,3,0.3
			c6.3,1.7,10.1,8.1,8.4,14.4c0,0.2-0.1,0.4-0.2,0.5l-0.3,0.9h-1.6c-0.6,0-1.2,0-1.8,0.1c-0.4,0.2-0.4,0.4-0.4,3.6
			c0,0.4,0,0.7,0,1.1l0,0v0.6c0,1.2,0,1.4-0.2,1.6c-0.3,0.4-0.8,0.5-1.2,0.3c-0.4-0.2-0.5-0.4-0.5-1.8l0,0v-3l-0.3-0.3
			c-0.2-0.2-0.3-0.3-0.6-0.2c-0.2,0-0.3,0.1-0.5,0.2c-0.5,0.4-1.1,0.6-1.7,0.5c-0.4,0.1-0.9,0-1.3-0.2c-0.2-0.1-0.5-0.3-0.7-0.5
			c-0.3-0.3-0.8-0.3-1.1,0l0,0l-0.2,0.2v2.8l0,0c0,0,0,0.1,0,0.3s0,0.3,0,0.3l0,0v2.9v6.2l-0.3,0.3c-0.3,0.3-0.8,0.4-1.1,0.1
			c-0.5-0.3-0.5-0.3-0.5-7.6v-2l0,0c0,0,0-0.1,0-0.3c0-0.2,0-0.3,0-0.3l0,0v-4.3l-0.2-0.2c-0.2-0.2-0.3-0.2-3.8-0.2h-3.6l-0.3-1
			C85.2,92.3,85,91.1,85,90c0-1.8,0.3-3.5,1.1-5.1c0.5-1.2,1.3-2.2,2.2-3.1c1.7-1.8,3.9-3,6.4-3.4C95.3,78.2,95.9,78.2,96.4,78.2
			L96.4,78.2z M113.9,78.5c0.2,0.3,0.3,0.6,0.4,0.9c-0.3,0-0.6,0-0.8-0.1c-0.1,0-0.1,0-0.2,0L113.9,78.5z M110.8,80.6
			c0.7,0,1.4,0,2,0.1c5,1,8.9,5,9.6,10.1c0.1,1.2,0.1,2.3,0,3.5c-2.2,0.2-4.5,0.2-6.7,0.1h-6.6l0.2-0.8c0.8-2.9,0.6-6.1-0.6-8.9
			c-0.4-1-1-1.9-1.6-2.8c-0.1-0.2-0.2-0.3-0.3-0.5c0.6-0.3,1.3-0.5,2-0.6C109.4,80.6,110.1,80.6,110.8,80.6L110.8,80.6z M92.4,81.2
			C92.4,81.2,92.3,81.2,92.4,81.2c-0.4,0.1-0.8,0.2-1.1,0.4c-0.8,0.4-1.6,1-2.2,1.8c-1.1,1.2-1.8,2.7-2.1,4.3
			c-0.1,0.3,0.2,0.6,0.5,0.7s0.6-0.2,0.7-0.5c0.3-1.4,0.9-2.7,1.8-3.7c0.5-0.6,1.2-1.1,1.9-1.5c0.2-0.1,0.5-0.2,0.7-0.3
			c0.3-0.1,0.5-0.3,0.5-0.7C92.9,81.4,92.7,81.2,92.4,81.2L92.4,81.2z M84.9,95.9H92V99h-3.2c-3.2,0-3.2,0-3.4-0.2
			c-0.5-0.8-0.6-1.7-0.5-2.6V95.9z M105.1,95.9h18.8l0.1,0.2c0.1,0.3,0.1,0.6,0.1,1c0,0.5-0.1,0.9-0.3,1.3l-0.3,0.6h-9.2
			c-5.1,0-9.2,0-9.2,0c-0.1-0.5-0.1-1-0.1-1.6L105.1,95.9z M97,98.1c0.1,0,0.1,0,0.2,0.1c0.9,0.3,1.9,0.3,2.8,0
			c0.2-0.1,0.2,0,0.2,0.3V99h-3.3v-0.4C96.9,98.3,96.9,98.2,97,98.1L97,98.1z M87.3,100.5h4.6v4.3c0,3.8,0,4.3,0.2,4.6
			c0.2,0.5,0.6,0.9,1.1,1.2c0.4,0.2,0.8,0.3,1.2,0.3c0.4,0.1,0.8,0,1.2-0.3c0.3-0.2,0.5-0.4,0.7-0.6c0.5-0.7,0.6-0.9,0.6-5.4v-4.1
			h3.3v0.4c0.1,1,0.8,1.8,1.7,2.2c0.6,0.1,1.2,0.1,1.8-0.1c0.8-0.4,1.3-1.2,1.4-2v-0.4h8.1c5.5,0,7.3,0,7.8,0.1h0.2h0.5
			c-1.1,1.9-3.2,5.8-6,11.1c-2.1,3.9-4.1,7.6-4.5,8.3c-2.9,5.3-4.7,7.8-5.8,8.7c-0.2,0.1-0.4,0.3-0.6,0.4c-0.2,0.2-0.4,0.1-0.6,0
			c-0.9-0.5-2.1-1.9-4-5c-1.4-2.4-2.6-4.6-6.5-11.9c-1.6-3.1-3.4-6.3-4.8-8.8C88.2,102.2,87.7,101.3,87.3,100.5L87.3,100.5z
			 M116.9,103.2c-0.2,0-0.5,0.1-0.6,0.3l-1.3,2.3c-0.2,0.3-0.1,0.7,0.3,0.9c0.3,0.2,0.7,0.1,0.9-0.3l1.3-2.3
			c0.2-0.3,0.1-0.7-0.3-0.9C117.2,103.3,117.1,103.2,116.9,103.2L116.9,103.2z M114.4,107.7c-0.3,0-0.5,0.1-0.6,0.4l-5.3,9.2
			c-0.2,0.3-0.1,0.8,0.3,1l0,0l0,0c0.3,0.2,0.8,0.1,1-0.3l0,0l0,0l5.3-9.2c0.2-0.3,0.1-0.8-0.3-1l0,0l0,0
			C114.6,107.7,114.5,107.7,114.4,107.7L114.4,107.7z"/>
		<path class="st6" d="M117,103.9l-1.3,2.3"/>
		<path class="st6" d="M114.4,108.4l-5.3,9.2"/>
	</g>
</g>
<g>
	<circle class="st7" cx="47.5" cy="47.3" r="47.5"/>
	<g>
		<path class="st8" d="M67.6,60c-0.3,0.3-0.5,0.6-0.7,0.9C60.7,67,54.5,73.2,48.3,79.4c-0.7,0.7-1.1,0.6-1.8,0
			C40.4,73.2,34.3,67,28.2,60.9c-0.7-0.7-0.8-1.2,0-1.9c1.9-1.8,3.7-3.6,5.5-5.5c0.8-0.8,1.2-0.8,2,0c3.3,3.4,6.7,6.7,10,10.1
			c1.8,1.8,1.8,1.8,3.6-0.1c3.3-3.3,6.6-6.6,9.9-9.9c0.8-0.8,1.3-1,2.2,0c1.7,1.9,3.5,3.6,5.3,5.4C67,59.3,67.2,59.6,67.6,60z"/>
		<path class="st8" d="M67.4,34.8c-0.2,0.2-0.4,0.5-0.7,0.8c-1.8,1.8-3.6,3.5-5.3,5.4c-1,1.1-1.6,0.8-2.5-0.1
			c-3.4-3.5-7-6.9-10.4-10.5c-0.9-0.9-1.4-0.9-2.3,0c-3.4,3.5-7,6.9-10.4,10.5c-1.1,1.1-1.6,1-2.6-0.1c-1.7-1.8-3.4-3.5-5.2-5.2
			c-0.8-0.7-0.7-1.2,0-1.9c6.1-6.1,12.2-12.1,18.3-18.3c0.8-0.8,1.2-0.8,2.1,0c6.1,6.1,12.2,12.2,18.2,18.3
			C67,34,67.4,34.2,67.4,34.8z"/>
		<path class="st9" d="M29.3,47.4c-0.2,0.2-0.4,0.5-0.6,0.7c-2,2-4,4-6,6c-0.6,0.6-0.9,0.6-1.5,0c-2-2-4-4-6-6
			c-0.6-0.6-0.5-1,0.1-1.5c2-1.9,3.9-3.9,5.9-5.8c0.4-0.4,0.7-0.9,1.3-0.3c2.1,2.1,4.2,4.3,6.4,6.4C29,47,29.2,47.2,29.3,47.4z"/>
		<path class="st8" d="M54.9,47.3c-0.3,0.3-0.5,0.6-0.7,0.8c-2,2-3.9,3.9-5.8,5.9c-0.7,0.7-1.1,0.7-1.8,0c-1.9-2-3.9-3.9-5.9-5.9
			c-0.6-0.6-0.7-1,0-1.6c2-2,4-4,6-6c0.5-0.5,0.9-0.7,1.5-0.1c2.1,2.1,4.2,4.2,6.2,6.3C54.6,46.9,54.7,47.1,54.9,47.3z"/>
		<path class="st9" d="M80.1,47.2c0,0.5-0.3,0.7-0.6,1c-1.9,2-3.9,3.9-5.8,5.9c-0.7,0.7-1.1,0.5-1.6-0.1c-1.9-1.9-3.8-3.9-5.7-5.7
			c-0.7-0.7-0.7-1.1,0-1.8c1.9-1.9,3.8-3.8,5.7-5.7c0.5-0.5,0.8-0.9,1.5-0.2c2,2.1,4.1,4.1,6.1,6.1C79.8,46.8,80,47,80.1,47.2z"/>
	</g>
</g>
<g>
	<circle class="st10" cx="47.6" cy="47.4" r="47.5"/>
	<g>
		<path class="st8" d="M47.5,79.3c-0.3-0.3-0.6-0.5-0.9-0.8c-2.1-2.1-4.2-4.2-6.3-6.3c-0.7-0.7-0.7-1.1,0-1.8
			c10.2-10.1,20.3-20.3,30.4-30.4c0.7-0.7,1.1-0.8,1.9,0c2,2.1,4.1,4.2,6.3,6.3c0.7,0.7,0.7,1.1,0,1.8
			C68.8,58.3,58.6,68.4,48.4,78.6C48.1,78.9,47.8,79.1,47.5,79.3z"/>
		<path class="st8" d="M59.7,27.2c0.3,0.3,0.6,0.5,0.9,0.7c2.1,2.1,4.3,4.3,6.4,6.4c0.7,0.6,0.6,1,0,1.6
			C56.7,46.1,46.5,56.3,36.3,66.5c-0.6,0.6-1,0.7-1.6,0c-2.1-2.1-4.1-4.2-6.3-6.3c-0.8-0.8-0.8-1.2,0-2c4.6-4.5,9.2-9.1,13.7-13.7
			c5.4-5.4,10.9-10.9,16.3-16.3C58.9,27.9,59.2,27.6,59.7,27.2z"/>
		<path class="st8" d="M35.5,43.2c-0.3-0.3-0.6-0.5-0.9-0.8c-2.1-2.1-4.1-4.2-6.3-6.2c-0.8-0.8-0.7-1.2,0.1-1.9
			c6.1-6.1,12.2-12.2,18.3-18.3c0.8-0.8,1.2-0.7,1.9,0c2,2.1,4.1,4.2,6.3,6.3c0.6,0.6,0.7,1,0,1.6c-6.2,6.2-12.5,12.4-18.7,18.6
			C36,42.8,35.7,42.9,35.5,43.2z"/>
		<path class="st8" d="M23.6,55.1c-0.6,0-0.8-0.4-1.1-0.7c-2.1-2-4.1-4.1-6.2-6.1c-0.8-0.7-0.8-1.2,0-1.9c2.1-2,4.1-4.1,6.1-6.1
			c0.7-0.7,1.1-0.9,1.9-0.1c2,2.1,4.2,4.2,6.3,6.3c0.4,0.4,1,0.8,0.3,1.5c-2.3,2.2-4.5,4.5-6.8,6.8C23.9,54.8,23.8,54.9,23.6,55.1z"
			/>
	</g>
</g>
</svg>
