<svg xmlns="http://www.w3.org/2000/svg" viewBox="0 0 95 95">
  <g>
    <circle cx="47.5" cy="47.5" r="47.5" fill="#f9f9f9"/>
    <g>
      <path d="M47.59191,29.32017a15.49958,15.49958,0,0,0-3.98288-2.3137,16.65289,16.65289,0,0,0-4.7217-1.06631,1.00961,1.00961,0,0,1-.49431-.07723,12.03738,12.03738,0,0,1,2.19983-2.0776,12.82005,12.82005,0,0,1,4.74979-2.07757,14.63886,14.63886,0,0,1,4.55806-.044,13.89132,13.89132,0,0,1,4.75352,1.96451,15.77606,15.77606,0,0,1,3.27333,3.30166,11.22893,11.22893,0,0,1,1.24285,2.31159,4.318,4.318,0,0,1-.90322-.12488,21.72521,21.72521,0,0,0-4.8512-.17385,12.20593,12.20593,0,0,0-3.36639.71507c-.5444.19034-1.08876.36447-1.2097.38695-.17495.03244-.4303-.11574-1.248-.72464Z" fill="#810331"/>
      <path d="M28.845,48.48872c.70274,1.208,4.09943,7.45118,7.15889,13.16457,3.8947,7.27311,5.13034,9.51633,6.54452,11.88205,1.87929,3.14386,3.11489,4.67514,4.25871,5.27788a2.74079,2.74079,0,0,0,.67371.2792,3.81589,3.81589,0,0,0,1.36993-.70468c1.29108-1.04983,3.02682-3.65715,5.94779-8.9343.35682-.64461,2.36681-4.36375,4.46658-8.26483,3.56277-6.61914,6.30592-11.65782,6.84891-12.58024.02695-.04614.04593-.08174.06648-.11965Z" fill="#faf0df"/>
      <path d="M28.845,48.48871c.70274,1.208,4.09943,7.45119,7.15889,13.16458,3.8947,7.27311,5.13034,9.51633,6.54452,11.88205,1.87929,3.14386,3.11489,4.67514,4.25871,5.27788a2.74079,2.74079,0,0,0,.67371.2792,3.81589,3.81589,0,0,0,1.36993-.70468c1.29108-1.04984,3.02682-3.65716,5.94779-8.9343.35682-.64461,2.36681-4.36375,4.46658-8.26483,3.56277-6.61914,6.30592-11.65782,6.84891-12.58024.02695-.04614.04593-.08174.06648-.11966Z" fill="#fff"/>
      <path d="M59.64433,16.185a1.08839,1.08839,0,0,0-.85839.362L48.22717,28.299a16.16528,16.16528,0,0,1,1.31655.99324A9.07564,9.07564,0,0,1,53.39449,28.233c.62487-.00718,1.28467.02861,1.8983.08118l7.41015-8.24756a1.08915,1.08915,0,0,0-.08238-1.54166l-2.2925-2.06a1.08948,1.08948,0,0,0-.68373-.27992ZM27.40566,44.86666l-.08.21064a5.23314,5.23314,0,0,0,.04645,1.99815c.16363.69416.42388,1.14923.69048,1.20738.115.02517.246.05773.2911.07278h0c.045.015,1.67953.03064,3.63194.03384l3.54984.006v-3.5293H31.47056Zm20.115.14532v.84768c0,.46622.0225,1.17715.049,1.57992l.04852.73222.836.02405c1.7504.05,10.94962.0538,14.78435.006l4.00241-.04966.25006-.49638a2.33849,2.33849,0,0,0,.2818-1.2902,2.51126,2.51126,0,0,0-.08563-1.07371l-.11685-.27993H57.54452Zm-7.49855,2.18476c-.25526.01645-.30164.26679-.30164.68745v.31955l1.89554.07978,1.85632-.07978v-.75251l-.26382-.0982a6.82213,6.82213,0,0,0-1.0525.06347,4.83684,4.83684,0,0,1-1.82812-.16445.96047.96047,0,0,0-.25191-.05527.417.417,0,0,0-.05387,0ZM58.83607,48.42c-.516.00159-1.02741.0226-1.523.06881h3.51808C60.17658,48.44619,59.50292,48.41762,58.83607,48.42Zm1.9951.06881c2.66371.17327,5.01039.58244,5.28279.11966.027-.04613.04592-.08174.06648-.11966Zm-3.51808,0H28.84492c.70274,1.208,4.09942,7.4512,7.15889,13.16457,3.8947,7.27312,5.13034,9.51633,6.54451,11.88206,1.87931,3.14386,3.11489,4.67512,4.25872,5.27786a2.7398,2.7398,0,0,0,.6737.27921c-4.33864-12.11422-1.26818-22.691,6.19715-29.33615a6.33877,6.33877,0,0,1,3.6352-1.26756Z" fill="#ca054d"/>
      <path d="M52.179,42.91112a13.01066,13.01066,0,0,0,.45056-4.09853,12.45232,12.45232,0,0,0-.19233-2.17808,14.35665,14.35665,0,0,0-2.5378-5.81053c-.41223-.56654-.42026-.55463.56151-.83153a10.67151,10.67151,0,0,1,3.4403-.43634,9.71478,9.71478,0,0,1,3.64179.566,12.83242,12.83242,0,0,1,7.60946,7.44991c.11954.32418.31038.98433.42409,1.467a8.89722,8.89722,0,0,1,.20894,2.73861c.00169,1.449-.019,1.87414-.09344,1.92021-.14266.08825-4.17328.15638-9.25184.15638H51.93755Z" fill="#a4d4b4"/>
      <path d="M36.767,58.95793c-.29342-.2934-.337-1.2999-.337-7.78417,0-5.50634-.7843-6.54017-.97458-6.73043a15.35387,15.35387,0,0,1-3.38973-.33836l-3.70821.2321-.58624-2.50948a16.66676,16.66676,0,0,1-.00537-6.56466,13.40542,13.40542,0,0,1,3.31851-5.56931,11.97444,11.97444,0,0,1,16.89319-.31006,12.99011,12.99011,0,0,1,3.41843,5.199,14.22748,14.22748,0,0,1,.202,7.38838l-.37893,1.225-.85919.89334-2.96674.11915-.26651,1.57679a24.648,24.648,0,0,0-.16081,3.695c-.02621,1.14129-.06882,1.23914-.59768,1.37187-.93149.2338-2.0544.43109-2.0544-2.17647,0-2.35206.32655-2.84342-.43916-2.84342-.21646,0-.49658.43422-.78274.62171a2.96475,2.96475,0,0,1-2.98915-.27356c-.38807-.2869-.5018-.62565-.85137-.58531-.55415.06393-.41606.08524-.5065.83619-.0991.82295-.05953,3.77537-.00341,6.72932.09633,5.07092.1463,5.5874-.5306,5.83443a3.87373,3.87373,0,0,1-1.44372-.037Z" fill="#fff"/>
      <path d="M59.90211,15.15674a1.81249,1.81249,0,0,0-1.422.59949l-5.42763,6.04063a11.60461,11.60461,0,0,0-5.08987-1.17938v.00012a11.72389,11.72389,0,0,0-7.99376,3.15259,15.22557,15.22557,0,0,0-1.766,2.09379,5.48337,5.48337,0,0,1-.795.17028,15.14173,15.14173,0,0,0-1.67252.42175,13.3825,13.3825,0,0,0-8.96462,10.08288,10.5218,10.5218,0,0,0-.20458,2.55893,11.30316,11.30316,0,0,0,.58294,3.98557l.18753.5974-.338.29695a2.343,2.343,0,0,0-.50592.676,4.48488,4.48488,0,0,0-.18523,2.251c.31168,1.78964,1.16112,2.77128,2.404,2.77912.07093.1268.1195.21139.19852.35433.44344.80172,1.03861,1.88859,1.72546,3.15,1.37378,2.52284,3.11534,5.74562,4.74929,8.7969,3.89549,7.27463,5.13828,9.532,6.56035,11.911,1.59266,2.11907,3.43292,4.68573,4.59929,5.50833a1.78751,1.78751,0,0,0,1.74155.097C50.74857,78.44064,60.71157,59.7598,66.31388,49.683l.12851-.01282a1.88061,1.88061,0,0,0,1.61559-.96735c.8345-1.30451.9192-3.47761.17379-4.45491a1.67762,1.67762,0,0,0-1.03126-.67951c-.195-.00012-.19744-.02275-.15231-1.5869a11.70764,11.70764,0,0,0-.63751-4.63661,12.48353,12.48353,0,0,0-3.0322-5.029,12.94812,12.94812,0,0,0-3.28629-2.53489l-.86678-.47188-.25635-.76465a11.735,11.735,0,0,0-.90626-2.03571l5.53259-6.15768a1.819,1.819,0,0,0-.13671-2.554l-2.42358-2.17777a1.81206,1.81206,0,0,0-1.1321-.46279Zm-.05459,1.30838a.48755.48755,0,0,1,.31208.12876l2.42365,2.17754a.48486.48486,0,0,1,.038.7054l-5.29278,5.89065-1.05157,1.17029L54.9934,27.966c-.56768-.042-1.15436-.08081-1.73245-.07417a8.8706,8.8706,0,0,0-3.97787,1.02007c-.09051-.0751-.30748-.229-.51412-.38793l4.402-4.89927,1.05176-1.17053,5.2317-5.82253a.49041.49041,0,0,1,.3933-.16656ZM47.98013,22.14093a10.11,10.11,0,0,1,3.98977.861l-4.65132,5.17663a.624.624,0,0,0-.05847.07558,12.69784,12.69784,0,0,0-5.08565-2.1871,10.64638,10.64638,0,0,0-1.51065-.19244c-.282,0-.5127-.03508-.5127-.07791a11.7486,11.7486,0,0,1,2.059-1.89388,10.15091,10.15091,0,0,1,5.77006-1.76186Zm-8.49224,5.24265h0a13.12762,13.12762,0,0,1,3.04526.31211A11.80952,11.80952,0,0,1,50.7819,42.6732l-.28694.89574H48.86a16.02746,16.02746,0,0,0-1.78728.05834c-.39167.15032-.4269.44991-.42989,3.58412,0,.44656-.00465.74141-.00465,1.06765h0v.56008c-.01242,1.21671-.04952,1.43115-.15864,1.5659a.93124.93124,0,0,1-1.23139.27713c-.37628-.19457-.46175-.39969-.47939-1.843h-.00465V45.8132l-.286-.286c-.23911-.23912-.33513-.27626-.58383-.2265a1.20826,1.20826,0,0,0-.49032.23513,2.10538,2.10538,0,0,1-1.69867.52695,1.92523,1.92523,0,0,1-1.27057-.2496,3.55814,3.55814,0,0,1-.65176-.49405.77944.77944,0,0,0-1.118-.02867l-.20272.21578-.01147,2.77049H38.4083c.02247,0,.04051.12494.04051.28015s-.01794.28016-.04051.28016h.04051l-.01207,2.90834-.02551,6.23939-.30743.27432a.89609.89609,0,0,1-1.14048.12129c-.48657-.3405-.48172-.26882-.48172-7.59185v-1.9515H36.522c-.02247,0-.04044-.125-.04044-.28016s.018-.28015.04044-.28015h-.04045v-4.2984l-.21762-.2048c-.21577-.20276-.25186-.20458-3.79614-.20458H28.88976L28.594,42.6042a9.72318,9.72318,0,0,1-.52066-3.41173,11.16312,11.16312,0,0,1,1.11734-5.11271,10.66293,10.66293,0,0,1,2.18079-3.13,11.38576,11.38576,0,0,1,6.39267-3.43367,9.99482,9.99482,0,0,1,1.72546-.1325Zm17.487.33613a4.53188,4.53188,0,0,1,.3998.86845,2.10765,2.10765,0,0,1-.82365-.10356c-.07457-.017-.14783-.03238-.22137-.04667Zm-3.14674,2.07a11.98185,11.98185,0,0,1,2.0406.12153A12.00977,12.00977,0,0,1,65.47643,39.962a16.29623,16.29623,0,0,1-.04245,3.49339,59.26163,59.26163,0,0,1-6.69122.1136h-6.621l.2253-.81924a13.40249,13.40249,0,0,0-.57522-8.89837,14.49221,14.49221,0,0,0-1.59531-2.76978,2.41687,2.41687,0,0,1-.33149-.51063,6.59577,6.59577,0,0,1,1.97648-.60953,11.43338,11.43338,0,0,1,2.00654-.17168Zm-18.37431.62958a.57135.57135,0,0,0-.08561.008,4.23886,4.23886,0,0,0-1.04107.38792,7.98733,7.98733,0,0,0-2.22793,1.76135,9.322,9.322,0,0,0-2.11057,4.30609.57032.57032,0,0,0,1.1248.1894A8.3736,8.3736,0,0,1,32.942,33.34542a6.82967,6.82967,0,0,1,1.90528-1.51458,2.64548,2.64548,0,0,1,.71405-.27946.57016.57016,0,0,0-.10752-1.132Zm-7.535,14.65561h7.05559v3.10593H31.73088c-3.20187,0-3.24584-.00285-3.43273-.20317a3.7401,3.7401,0,0,1-.45164-2.64406Zm20.232,0h18.8173l.12106.21157a2.65375,2.65375,0,0,1,.11407.97809,2.34994,2.34994,0,0,1-.28246,1.31772l-.2755.5512-9.18388.02423c-5.05121.01318-9.21256-.00465-9.24736-.03915a10.34612,10.34612,0,0,1-.06321-1.55331ZM40.03718,47.349a.42126.42126,0,0,1,.20323.0763,4.77837,4.77837,0,0,0,2.80451.042c.19527-.05654.21182-.03111.21182.3261v.38723H39.96256v-.42339c0-.28373.006-.3972.07462-.40821Zm-9.71734,2.33732h4.64664l.02849,4.25873c.0255,3.77743.04692,4.2975.18917,4.60046a2.67685,2.67685,0,0,0,1.09495,1.18965,1.8194,1.8194,0,0,0,1.19011.25707,1.81966,1.81966,0,0,0,1.19316-.2587,3.31194,3.31194,0,0,0,.732-.61185c.54739-.66183.56893-.86484.56893-5.35834v-4.077h3.29418v.35295a2.67659,2.67659,0,0,0,1.73786,2.18756,2.88081,2.88081,0,0,0,1.75764-.13017,2.53933,2.53933,0,0,0,1.39772-2.04177v-.36857h8.05748c5.53578,0,7.3251.01014,7.82672.07327l.1743-.02518h.47771c-1.05192,1.89118-3.18186,5.80881-6.04135,11.1214-2.09943,3.90042-4.11821,7.63739-4.46188,8.2583-2.91138,5.25976-4.688,7.844-5.77636,8.729a4.2468,4.2468,0,0,1-.62421.39071c-.2471.17061-.41781.079-.649-.04152-.89422-.4712-2.12107-1.90294-3.98233-5.01661-1.40627-2.35251-2.63471-4.58178-6.52861-11.85338-1.63563-3.0545-3.3781-6.27947-4.75374-8.80576-.61627-1.13182-1.12283-2.05574-1.54976-2.82975Zm29.66808,2.76491a.68632.68632,0,0,0-.57919.34313l-1.32706,2.29836a.68609.68609,0,0,0,1.18851.68579L60.597,53.48015a.68606.68606,0,0,0-.60907-1.02893Zm-2.5806,4.4409a.731.731,0,0,0-.62962.36576l-5.30022,9.18039a.731.731,0,0,0,.26666.99882l.00043.00025a.731.731,0,0,0,.99871-.26709L52.7434,67.17l5.30048-9.18132a.731.731,0,0,0-.26754-.99858l-.00046-.00027a.73112.73112,0,0,0-.36856-.09772Z" fill="#810331"/>
      <path d="M60.0028,53.13738,58.676,55.43546" fill="#b650a0"/>
      <path d="M57.41073,57.62327,52.11012,66.8042" fill="#b650a0"/>
    </g>
  </g>
</svg>
