<svg xmlns="http://www.w3.org/2000/svg" viewBox="0 0 249.98828 249.98828">
  <g>
    <circle cx="124.99414" cy="124.99414" r="124.99414" fill="#ffc41d"/>
    <path d="M211.27234,183.54666c0,26.52051-30.03516,32.11231-48.24805,11.98242-27.63769-30.19433,21.40821-98.252,15.65723-109.75489-4.63379-8.627-26.041,17.57325-41.21875,39.94043-5.11231,12.62013-9.9043,23.32423-11.502,25.56056-3.51464,5.43261-30.19531.63965-24.28417-11.82129,9.74608-19.81054,25.88183-54.15918,23.48535-60.709-2.55661-6.23046-26.52049,20.44924-42.33689,42.49611-4.63281,16.13574-10.54394,32.11134-20.28906,41.37793h.16016c-.16016.15918-.32032.31933-.4795.31933a26.14579,26.14579,0,0,1-3.99414,3.3545c-.16015,0-.16015,0-.31933.16015-15.49707,11.18262-25.40235,4.47363-34.18848-11.66211a18.37211,18.37211,0,0,1,2.71582-3.03613c-.63965.63965,7.18848,6.23047,18.37207-.958C64.13366,137.0574,72.7606,85.7742,83.14534,68.36014,73.5594,68.201,63.17463,71.076,54.70784,83.85721c-7.34864,11.02344,4.47265,18.53222,6.71,18.53222a2.00651,2.00651,0,0,0,.63867,1.59766C37.61315,115.80934,28.18734,90.407,43.20495,75.5496,58.22252,60.85134,79.47057,61.33085,94.80748,60.69217c5.11231-.31933,21.56739-1.11816,16.93457,7.82813-1.59765,2.07715-4.793,2.39648-8.627,2.07715C97.204,73.79276,93.37,83.69706,89.85434,95.99881c32.5918-42.01709,64.22363-27.958,61.50781-12.1416a127.60892,127.60892,0,0,1-4.793,17.2539c26.67969-35.626,50.165-38.3418,57.99317-23.80371,10.38383,20.12894-29.23629,72.3711-19.331,102.08594,4.95215,15.17676,17.2539,9.58594,21.72754,4.15332Z" fill="#fff"/>
  </g>
</svg>
