<svg id="svg" version="1.1" xmlns="http://www.w3.org/2000/svg" xmlns:xlink="http://www.w3.org/1999/xlink" width="400" height="400" viewBox="0, 0, 400,400"><g id="svgg"><path id="path0" d="M122.599 136.156 C 122.554 136.201,121.981 136.261,121.325 136.290 C 120.670 136.318,119.293 136.511,118.267 136.720 C 117.240 136.928,115.986 137.153,115.479 137.221 C 114.972 137.289,113.352 137.724,111.879 138.189 C 110.406 138.653,109.140 139.042,109.067 139.052 C 108.583 139.120,106.457 140.173,103.467 141.826 C 91.150 148.635,84.847 163.435,86.932 180.648 C 88.620 194.580,97.899 205.519,111.732 209.885 C 112.760 210.209,113.600 210.592,113.600 210.735 C 113.600 210.878,113.836 210.934,114.124 210.859 C 114.411 210.783,114.769 210.869,114.918 211.049 C 115.070 211.232,115.544 211.324,115.995 211.258 C 116.521 211.180,116.800 211.254,116.800 211.470 C 116.800 211.692,117.053 211.749,117.576 211.645 C 118.133 211.533,118.396 211.606,118.510 211.901 C 118.633 212.223,118.903 212.274,119.734 212.133 C 120.476 212.008,120.800 212.049,120.800 212.267 C 120.800 212.483,121.300 212.552,122.401 212.490 C 123.281 212.441,124.037 212.508,124.081 212.640 C 124.176 212.927,128.054 213.133,146.933 213.855 C 154.780 214.155,163.780 214.518,166.933 214.661 C 170.087 214.804,175.907 215.048,179.867 215.204 C 190.784 215.632,191.303 215.659,191.733 215.811 C 191.953 215.889,192.910 216.095,193.860 216.268 C 199.700 217.335,201.628 222.025,198.785 228.243 C 197.571 230.896,196.516 231.692,193.333 232.355 C 190.072 233.035,188.779 233.081,180.533 232.813 C 176.207 232.672,160.667 232.254,146.000 231.883 C 131.333 231.513,115.997 231.094,111.919 230.952 C 103.930 230.674,103.847 230.680,103.672 231.551 C 103.552 232.148,81.304 261.928,79.713 263.622 L 79.190 264.178 119.795 264.356 C 194.409 264.682,193.152 264.700,200.630 263.183 C 204.760 262.345,211.921 259.720,211.581 259.169 C 211.503 259.043,211.645 259.018,211.897 259.115 C 212.205 259.233,212.292 259.190,212.163 258.982 C 212.043 258.786,212.111 258.726,212.349 258.817 C 212.916 259.035,217.429 255.864,219.717 253.641 L 221.733 251.681 219.470 253.707 C 218.225 254.821,217.115 255.733,217.003 255.733 C 216.565 255.733,216.856 255.303,217.724 254.667 C 218.704 253.948,220.939 251.250,220.728 251.040 C 220.658 250.969,220.255 251.195,219.833 251.542 C 219.141 252.113,216.421 253.998,215.645 254.447 C 215.473 254.546,214.854 254.906,214.268 255.247 C 212.427 256.318,208.534 257.858,208.529 257.516 C 208.527 257.328,208.421 257.362,208.267 257.600 C 208.124 257.820,208.006 257.863,208.004 257.696 C 208.002 257.528,207.715 257.320,207.367 257.232 C 206.719 257.070,206.211 255.722,206.576 255.131 C 206.677 254.967,206.621 254.930,206.441 255.041 C 206.241 255.165,206.133 255.008,206.133 254.594 C 206.133 254.196,205.896 253.830,205.501 253.618 C 204.796 253.241,204.523 250.922,205.100 250.226 C 205.261 250.032,205.305 249.662,205.198 249.403 C 204.858 248.580,204.837 247.733,205.157 247.729 C 205.337 247.727,205.300 247.607,205.067 247.442 C 204.766 247.229,204.749 247.126,205.000 247.024 C 205.481 246.829,205.410 246.210,204.840 245.640 C 204.393 245.193,204.319 245.187,204.056 245.573 C 203.808 245.936,203.762 245.900,203.745 245.333 C 203.707 244.022,203.426 243.467,202.802 243.467 C 202.470 243.467,202.059 243.299,201.889 243.094 C 201.719 242.889,201.134 242.658,200.590 242.581 C 193.848 241.629,188.252 239.108,187.834 236.835 C 187.737 236.303,187.541 235.792,187.400 235.700 C 187.082 235.493,187.387 233.995,187.817 233.651 C 187.991 233.511,189.213 233.265,190.533 233.104 C 197.243 232.282,197.772 232.026,199.466 228.770 C 200.071 227.607,200.670 226.720,200.798 226.799 C 201.110 226.992,201.347 226.563,201.707 225.151 C 201.873 224.501,202.114 223.986,202.241 224.007 C 202.369 224.028,202.569 223.891,202.686 223.702 C 202.859 223.422,203.023 223.424,203.565 223.714 C 204.670 224.306,205.067 223.959,204.744 222.684 C 204.592 222.088,204.374 221.600,204.259 221.600 C 204.144 221.600,204.118 221.341,204.200 221.025 C 204.327 220.539,204.261 220.473,203.775 220.600 C 203.459 220.682,203.200 220.650,203.200 220.527 C 203.200 220.405,202.991 220.096,202.736 219.840 C 202.420 219.524,202.372 219.343,202.587 219.271 C 202.761 219.213,202.837 218.993,202.756 218.783 C 202.659 218.528,202.790 218.400,203.147 218.400 C 203.561 218.400,203.650 218.272,203.537 217.839 C 203.451 217.511,203.544 217.181,203.762 217.043 C 204.028 216.875,204.039 216.807,203.800 216.804 C 203.617 216.802,203.467 216.584,203.467 216.320 C 203.467 216.014,203.129 215.718,202.533 215.503 C 201.822 215.246,201.600 215.014,201.600 214.529 C 201.600 214.179,201.431 213.797,201.223 213.680 C 200.701 213.384,200.335 211.409,200.836 211.594 C 201.425 211.811,201.849 211.371,201.999 210.387 C 202.134 209.494,202.130 209.489,201.847 210.200 C 201.684 210.611,201.350 210.933,201.087 210.933 C 200.543 210.933,199.785 209.538,200.245 209.385 C 200.404 209.332,200.533 209.035,200.533 208.724 C 200.533 208.283,200.604 208.230,200.856 208.483 C 201.108 208.735,201.312 208.650,201.789 208.094 C 202.494 207.274,202.580 206.667,201.992 206.667 C 201.767 206.667,201.518 206.496,201.438 206.288 C 201.263 205.833,201.803 204.729,202.108 204.918 C 202.300 205.036,202.309 204.690,202.171 202.467 C 202.150 202.137,202.012 201.867,201.864 201.867 C 201.703 201.867,201.647 202.327,201.726 203.000 C 201.856 204.124,201.855 204.126,201.557 203.267 C 201.391 202.790,201.154 202.400,201.028 202.400 C 200.903 202.400,200.800 202.100,200.800 201.733 C 200.800 201.247,200.943 201.067,201.327 201.067 C 201.782 201.067,201.818 200.974,201.593 200.383 C 201.189 199.319,201.283 199.072,201.887 199.618 C 202.437 200.116,202.439 200.114,202.245 199.326 C 202.138 198.890,201.949 198.493,201.825 198.444 C 201.701 198.396,201.600 198.066,201.600 197.711 C 201.600 197.244,201.453 197.067,201.067 197.067 C 200.773 197.067,200.533 196.947,200.533 196.800 C 200.533 196.653,200.773 196.533,201.067 196.533 C 201.725 196.533,201.760 196.120,201.133 195.755 C 200.840 195.584,200.797 195.480,201.019 195.475 C 201.213 195.470,201.567 195.663,201.807 195.902 C 202.120 196.215,202.273 196.246,202.351 196.012 C 202.514 195.524,202.026 195.161,200.888 194.924 C 200.326 194.807,198.939 194.478,197.806 194.194 C 196.673 193.909,195.683 193.739,195.606 193.816 C 195.529 193.893,195.467 193.836,195.467 193.690 C 195.467 193.543,195.797 193.254,196.200 193.047 C 196.603 192.840,197.177 192.399,197.475 192.068 C 198.036 191.445,198.667 191.268,198.667 191.733 C 198.667 191.880,198.883 192.000,199.147 192.000 C 199.411 192.000,199.776 192.149,199.958 192.331 C 200.221 192.595,200.338 192.583,200.530 192.272 C 200.731 191.947,200.920 191.936,201.671 192.208 C 202.166 192.387,202.743 192.528,202.952 192.522 C 203.829 192.495,201.108 191.741,200.120 191.737 C 199.526 191.735,198.926 191.631,198.787 191.506 C 198.647 191.381,195.713 191.134,192.267 190.956 C 188.820 190.777,183.180 190.458,179.733 190.246 C 176.287 190.034,168.367 189.563,162.133 189.199 C 134.895 187.610,131.838 187.411,131.333 187.199 C 131.040 187.076,130.260 186.911,129.600 186.833 C 126.650 186.481,123.165 184.329,122.791 182.627 C 122.700 182.212,122.520 181.807,122.390 181.727 C 121.752 181.333,122.873 183.476,123.824 184.467 C 125.193 185.894,124.737 185.947,123.145 184.546 C 120.588 182.296,120.189 176.997,122.305 173.379 C 122.677 172.744,123.045 172.289,123.124 172.369 C 123.203 172.448,123.783 172.158,124.413 171.725 C 127.192 169.812,129.829 169.710,145.600 170.904 C 151.687 171.364,161.647 172.099,167.733 172.537 C 173.820 172.975,183.660 173.689,189.600 174.124 C 195.540 174.559,203.760 175.157,207.867 175.454 C 211.973 175.751,217.673 176.182,220.533 176.412 C 223.393 176.642,226.674 176.870,227.824 176.919 C 230.709 177.042,230.534 176.432,230.173 185.123 C 229.683 196.889,229.627 196.147,231.156 198.053 C 237.133 205.500,240.454 214.990,240.960 226.072 C 241.128 229.747,240.977 231.440,240.122 235.467 C 239.888 236.567,239.597 238.127,239.475 238.933 C 239.353 239.740,238.821 242.012,238.293 243.982 C 237.765 245.952,237.333 247.731,237.333 247.936 C 237.333 250.275,232.219 258.674,228.345 262.699 C 226.159 264.970,225.045 264.799,241.733 264.763 C 249.360 264.747,255.100 264.652,254.490 264.552 C 253.159 264.334,252.451 263.809,252.620 263.164 C 252.800 262.477,247.255 262.177,233.673 262.140 L 231.213 262.133 233.029 259.533 C 236.567 254.467,239.101 248.980,238.807 247.021 C 238.689 246.233,238.836 245.172,239.308 243.419 C 239.675 242.052,240.184 239.745,240.438 238.292 C 240.776 236.367,241.063 235.477,241.498 235.008 C 242.310 234.132,242.496 232.103,242.330 225.925 C 242.031 214.810,238.412 203.944,232.655 196.876 L 231.398 195.334 231.633 188.400 C 232.053 175.961,232.046 175.916,229.778 175.089 C 228.793 174.730,222.746 174.027,212.181 173.043 C 209.024 172.749,208.796 172.692,209.213 172.296 C 209.550 171.975,209.695 171.951,209.788 172.200 C 209.855 172.383,210.023 172.533,210.159 172.533 C 210.443 172.533,209.720 170.669,209.280 170.267 C 209.079 170.083,209.047 170.103,209.177 170.333 C 209.280 170.517,209.238 170.667,209.082 170.667 C 208.927 170.667,208.800 170.554,208.800 170.417 C 208.800 170.280,208.413 170.130,207.939 170.084 C 207.347 170.026,206.980 169.801,206.761 169.359 C 206.458 168.747,204.799 167.762,204.041 167.742 C 203.844 167.737,203.364 167.565,202.974 167.358 C 202.585 167.152,201.697 166.782,201.000 166.536 C 200.303 166.290,199.733 165.994,199.733 165.878 C 199.733 165.762,199.403 165.600,199.000 165.519 C 198.227 165.364,195.119 163.424,194.251 162.556 C 193.357 161.661,193.187 160.556,193.284 156.267 C 193.423 150.146,193.337 144.995,193.091 144.679 C 192.476 143.888,193.096 142.432,194.094 142.322 C 194.803 142.245,194.698 142.216,193.707 142.215 C 192.960 142.215,192.221 142.137,192.066 142.041 C 191.911 141.945,187.903 141.498,183.159 141.048 C 178.415 140.597,170.933 139.878,166.533 139.449 C 162.133 139.020,155.293 138.372,151.333 138.010 C 147.373 137.647,143.233 137.225,142.133 137.072 C 136.743 136.322,123.074 135.681,122.599 136.156 M205.404 143.391 C 205.809 143.453,206.409 143.451,206.737 143.388 C 207.065 143.324,206.733 143.274,206.000 143.276 C 205.267 143.278,204.998 143.330,205.404 143.391 M208.337 143.658 C 208.742 143.719,209.342 143.718,209.670 143.654 C 209.998 143.591,209.667 143.541,208.933 143.543 C 208.200 143.545,207.932 143.597,208.337 143.658 M221.937 144.991 C 222.342 145.053,222.942 145.051,223.270 144.988 C 223.598 144.924,223.267 144.874,222.533 144.876 C 221.800 144.878,221.532 144.930,221.937 144.991 M224.733 145.255 C 225.063 145.318,225.603 145.318,225.933 145.255 C 226.263 145.191,225.993 145.139,225.333 145.139 C 224.673 145.139,224.403 145.191,224.733 145.255 M238.333 146.588 C 238.663 146.652,239.203 146.652,239.533 146.588 C 239.863 146.525,239.593 146.473,238.933 146.473 C 238.273 146.473,238.003 146.525,238.333 146.588 M241.000 146.855 C 241.330 146.918,241.870 146.918,242.200 146.855 C 242.530 146.791,242.260 146.739,241.600 146.739 C 240.940 146.739,240.670 146.791,241.000 146.855 M254.737 148.191 C 255.142 148.253,255.742 148.251,256.070 148.188 C 256.398 148.124,256.067 148.074,255.333 148.076 C 254.600 148.078,254.332 148.130,254.737 148.191 M257.404 148.458 C 257.809 148.519,258.409 148.518,258.737 148.454 C 259.065 148.391,258.733 148.341,258.000 148.343 C 257.267 148.345,256.998 148.397,257.404 148.458 M271.004 149.791 C 271.409 149.853,272.009 149.851,272.337 149.788 C 272.665 149.724,272.333 149.674,271.600 149.676 C 270.867 149.678,270.598 149.730,271.004 149.791 M273.670 150.058 C 274.076 150.119,274.676 150.118,275.004 150.054 C 275.332 149.991,275.000 149.941,274.267 149.943 C 273.533 149.945,273.265 149.997,273.670 150.058 M287.270 151.391 C 287.676 151.453,288.276 151.451,288.604 151.388 C 288.932 151.324,288.600 151.274,287.867 151.276 C 287.133 151.278,286.865 151.330,287.270 151.391 M290.067 151.655 C 290.397 151.718,290.937 151.718,291.267 151.655 C 291.597 151.591,291.327 151.539,290.667 151.539 C 290.007 151.539,289.737 151.591,290.067 151.655 M303.537 152.991 C 303.942 153.053,304.542 153.051,304.870 152.988 C 305.198 152.924,304.867 152.874,304.133 152.876 C 303.400 152.878,303.132 152.930,303.537 152.991 M306.333 153.255 C 306.663 153.318,307.203 153.318,307.533 153.255 C 307.863 153.191,307.593 153.139,306.933 153.139 C 306.273 153.139,306.003 153.191,306.333 153.255 M320.070 154.591 C 320.476 154.653,321.076 154.651,321.404 154.588 C 321.732 154.524,321.400 154.474,320.667 154.476 C 319.933 154.478,319.665 154.530,320.070 154.591 M322.737 154.858 C 323.142 154.919,323.742 154.918,324.070 154.854 C 324.398 154.791,324.067 154.741,323.333 154.743 C 322.600 154.745,322.332 154.797,322.737 154.858 M329.333 161.333 C 329.020 161.773,328.824 162.133,328.897 162.133 C 328.970 162.133,329.287 161.773,329.600 161.333 C 329.913 160.893,330.110 160.533,330.036 160.533 C 329.963 160.533,329.647 160.893,329.333 161.333 M326.133 166.133 C 325.820 166.573,325.624 166.933,325.697 166.933 C 325.770 166.933,326.087 166.573,326.400 166.133 C 326.713 165.693,326.910 165.333,326.836 165.333 C 326.763 165.333,326.447 165.693,326.133 166.133 M122.428 173.861 C 122.045 174.751,121.812 175.948,121.738 177.403 L 121.626 179.600 121.862 177.587 C 121.992 176.480,122.351 174.935,122.659 174.153 C 123.378 172.328,123.190 172.090,122.428 173.861 M260.267 179.333 C 260.487 179.395,263.367 179.629,266.667 179.853 C 269.967 180.077,273.627 180.335,274.800 180.427 C 275.973 180.518,276.868 180.525,276.789 180.441 C 276.709 180.357,274.189 180.109,271.189 179.890 C 265.015 179.438,259.669 179.165,260.267 179.333 M279.133 180.722 C 279.463 180.785,280.003 180.785,280.333 180.722 C 280.663 180.658,280.393 180.606,279.733 180.606 C 279.073 180.606,278.803 180.658,279.133 180.722 M283.004 180.991 C 283.409 181.053,284.009 181.051,284.337 180.988 C 284.665 180.924,284.333 180.874,283.600 180.876 C 282.867 180.878,282.598 180.930,283.004 180.991 M287.200 181.319 C 290.793 181.660,295.399 181.869,293.467 181.602 C 292.587 181.481,290.307 181.319,288.400 181.243 C 285.604 181.130,285.372 181.145,287.200 181.319 M297.003 182.055 C 297.335 182.119,297.815 182.117,298.070 182.050 C 298.325 181.983,298.053 181.931,297.467 181.934 C 296.880 181.937,296.671 181.991,297.003 182.055 M301.003 182.322 C 301.335 182.386,301.815 182.383,302.070 182.317 C 302.325 182.250,302.053 182.198,301.467 182.201 C 300.880 182.204,300.671 182.258,301.003 182.322 M304.604 182.591 C 305.009 182.653,305.609 182.651,305.937 182.588 C 306.265 182.524,305.933 182.474,305.200 182.476 C 304.467 182.478,304.198 182.530,304.604 182.591 M306.689 182.767 C 306.750 182.822,308.300 182.930,310.133 183.007 C 312.397 183.101,312.910 183.079,311.733 182.937 C 309.880 182.715,306.505 182.601,306.689 182.767 M259.810 187.867 C 259.812 188.600,259.863 188.868,259.925 188.463 C 259.986 188.058,259.984 187.458,259.921 187.130 C 259.858 186.802,259.808 187.133,259.810 187.867 M203.915 192.532 C 204.035 192.639,204.772 192.848,205.552 192.995 C 206.332 193.143,206.872 193.176,206.752 193.068 C 206.632 192.961,205.895 192.752,205.115 192.605 C 204.334 192.457,203.794 192.424,203.915 192.532 M208.928 193.818 C 209.028 193.918,209.710 194.197,210.445 194.437 C 211.179 194.677,211.676 194.769,211.548 194.641 C 211.421 194.514,210.738 194.235,210.032 194.023 C 209.325 193.810,208.829 193.718,208.928 193.818 M259.933 194.055 C 260.263 194.118,260.803 194.118,261.133 194.055 C 261.463 193.991,261.193 193.939,260.533 193.939 C 259.873 193.939,259.603 193.991,259.933 194.055 M263.667 194.326 C 264.143 194.385,264.923 194.385,265.400 194.326 C 265.877 194.267,265.487 194.219,264.533 194.219 C 263.580 194.219,263.190 194.267,263.667 194.326 M267.938 194.593 C 268.417 194.653,269.137 194.651,269.538 194.591 C 269.939 194.530,269.547 194.481,268.667 194.483 C 267.787 194.484,267.459 194.534,267.938 194.593 M272.337 194.858 C 272.742 194.919,273.342 194.918,273.670 194.854 C 273.998 194.791,273.667 194.741,272.933 194.743 C 272.200 194.745,271.932 194.797,272.337 194.858 M276.870 195.125 C 277.276 195.186,277.876 195.184,278.204 195.121 C 278.532 195.058,278.200 195.008,277.467 195.010 C 276.733 195.012,276.465 195.063,276.870 195.125 M281.533 195.388 C 281.863 195.452,282.403 195.452,282.733 195.388 C 283.063 195.325,282.793 195.273,282.133 195.273 C 281.473 195.273,281.203 195.325,281.533 195.388 M285.933 195.658 C 286.337 195.719,286.997 195.719,287.400 195.658 C 287.803 195.597,287.473 195.547,286.667 195.547 C 285.860 195.547,285.530 195.597,285.933 195.658 M290.333 195.926 C 290.810 195.985,291.590 195.985,292.067 195.926 C 292.543 195.867,292.153 195.819,291.200 195.819 C 290.247 195.819,289.857 195.867,290.333 195.926 M294.733 196.191 C 295.137 196.252,295.797 196.252,296.200 196.191 C 296.603 196.130,296.273 196.080,295.467 196.080 C 294.660 196.080,294.330 196.130,294.733 196.191 M298.867 196.455 C 299.197 196.518,299.737 196.518,300.067 196.455 C 300.397 196.391,300.127 196.339,299.467 196.339 C 298.807 196.339,298.537 196.391,298.867 196.455 M303.670 196.722 C 304.001 196.786,304.481 196.783,304.736 196.717 C 304.991 196.650,304.720 196.598,304.133 196.601 C 303.547 196.604,303.338 196.658,303.670 196.722 M308.203 196.989 C 308.535 197.052,309.015 197.050,309.270 196.983 C 309.525 196.916,309.253 196.864,308.667 196.867 C 308.080 196.870,307.871 196.925,308.203 196.989 M312.600 197.258 C 313.003 197.319,313.663 197.319,314.067 197.258 C 314.470 197.197,314.140 197.147,313.333 197.147 C 312.527 197.147,312.197 197.197,312.600 197.258 M317.000 197.526 C 317.477 197.585,318.257 197.585,318.733 197.526 C 319.210 197.467,318.820 197.419,317.867 197.419 C 316.913 197.419,316.523 197.467,317.000 197.526 M322.210 197.797 C 323.058 197.850,324.378 197.850,325.143 197.796 C 325.908 197.743,325.213 197.699,323.600 197.700 C 321.987 197.700,321.361 197.744,322.210 197.797 M324.533 201.067 C 324.220 201.507,324.024 201.867,324.097 201.867 C 324.170 201.867,324.487 201.507,324.800 201.067 C 325.113 200.627,325.310 200.267,325.236 200.267 C 325.163 200.267,324.847 200.627,324.533 201.067 M200.533 209.847 C 200.533 210.229,200.705 210.400,201.086 210.400 C 201.468 210.400,201.611 210.256,201.550 209.936 C 201.416 209.241,200.533 209.164,200.533 209.847 M203.467 219.600 C 203.467 219.820,203.587 220.000,203.733 220.000 C 203.880 220.000,204.000 219.820,204.000 219.600 C 204.000 219.380,203.880 219.200,203.733 219.200 C 203.587 219.200,203.467 219.380,203.467 219.600 M258.261 222.718 C 258.178 222.935,258.151 224.063,258.201 225.224 L 258.293 227.333 258.346 224.974 L 258.400 222.615 261.133 222.777 C 265.787 223.053,287.854 223.784,288.683 223.689 C 289.114 223.640,284.127 223.387,277.600 223.126 C 271.073 222.866,264.086 222.578,262.073 222.487 C 258.976 222.347,258.390 222.382,258.261 222.718 M291.800 223.930 C 292.643 223.983,294.023 223.983,294.867 223.930 C 295.710 223.877,295.020 223.834,293.333 223.834 C 291.647 223.834,290.957 223.877,291.800 223.930 M298.600 224.197 C 299.517 224.250,301.017 224.250,301.933 224.197 C 302.850 224.145,302.100 224.103,300.267 224.103 C 298.433 224.103,297.683 224.145,298.600 224.197 M304.875 224.463 C 305.576 224.518,306.656 224.517,307.275 224.462 C 307.894 224.406,307.320 224.361,306.000 224.361 C 304.680 224.362,304.174 224.408,304.875 224.463 M229.129 234.133 C 229.129 234.647,229.183 234.857,229.250 234.600 C 229.318 234.343,229.318 233.923,229.250 233.667 C 229.183 233.410,229.129 233.620,229.129 234.133 M257.934 234.267 C 257.937 234.853,257.991 235.062,258.055 234.730 C 258.119 234.399,258.117 233.919,258.050 233.664 C 257.983 233.409,257.931 233.680,257.934 234.267 M257.691 240.667 C 257.692 241.840,257.739 242.287,257.796 241.660 C 257.852 241.032,257.851 240.072,257.794 239.526 C 257.737 238.980,257.690 239.493,257.691 240.667 M257.401 245.467 C 257.404 246.053,257.458 246.262,257.522 245.930 C 257.586 245.599,257.583 245.119,257.517 244.864 C 257.450 244.609,257.398 244.880,257.401 245.467 M205.786 246.772 C 205.677 247.049,205.650 247.339,205.727 247.416 C 205.970 247.659,206.184 247.261,206.082 246.754 C 205.989 246.290,205.975 246.291,205.786 246.772 M224.902 246.733 C 223.984 248.291,223.924 248.424,224.391 247.867 C 224.933 247.221,225.400 246.400,225.225 246.400 C 225.155 246.400,225.010 246.550,224.902 246.733 M205.600 248.400 C 205.600 248.620,205.720 248.800,205.867 248.800 C 206.013 248.800,206.133 248.620,206.133 248.400 C 206.133 248.180,206.013 248.000,205.867 248.000 C 205.720 248.000,205.600 248.180,205.600 248.400 M257.134 252.400 C 257.137 252.987,257.191 253.195,257.255 252.864 C 257.319 252.532,257.317 252.052,257.250 251.797 C 257.183 251.542,257.131 251.813,257.134 252.400 M216.133 256.380 C 215.359 257.004,213.597 258.105,213.867 257.797 C 214.275 257.332,216.441 255.738,216.667 255.737 C 216.813 255.737,216.573 256.026,216.133 256.380 M256.862 259.733 C 256.862 260.247,256.917 260.457,256.984 260.200 C 257.051 259.943,257.051 259.523,256.984 259.267 C 256.917 259.010,256.862 259.220,256.862 259.733 " stroke="none" fill="#5d6057" fill-rule="evenodd"></path><path id="path1" d="M198.600 143.120 C 198.197 143.183,197.858 143.377,197.847 143.551 C 197.836 143.725,197.777 144.137,197.715 144.467 C 197.654 144.797,197.718 145.067,197.859 145.067 C 198.000 145.067,198.525 145.427,199.026 145.867 C 199.527 146.307,200.078 146.667,200.251 146.667 C 200.424 146.667,200.491 146.787,200.400 146.933 C 200.301 147.093,200.643 147.202,201.251 147.204 C 202.435 147.209,202.705 147.362,203.123 148.267 C 203.292 148.633,203.439 148.787,203.449 148.609 C 203.460 148.397,203.810 148.487,204.458 148.870 C 205.003 149.191,205.723 149.419,206.058 149.375 C 206.477 149.320,206.667 149.432,206.667 149.732 C 206.667 150.058,206.813 150.123,207.240 149.987 C 207.696 149.842,207.780 149.893,207.649 150.236 C 207.558 150.473,207.600 150.667,207.742 150.667 C 207.884 150.667,208.000 150.547,208.000 150.400 C 208.000 149.902,208.545 150.130,208.797 150.733 C 209.236 151.783,210.061 152.533,210.776 152.533 C 211.289 152.533,211.467 152.671,211.467 153.067 C 211.467 153.480,211.644 153.600,212.257 153.600 C 212.792 153.600,213.147 153.785,213.353 154.169 C 213.596 154.624,213.704 154.664,213.891 154.369 C 214.063 154.097,214.133 154.176,214.156 154.667 L 214.186 155.333 214.400 154.667 C 214.517 154.300,214.625 154.163,214.640 154.362 C 214.655 154.570,214.837 154.658,215.066 154.570 C 215.310 154.477,215.633 154.673,215.897 155.075 C 216.134 155.437,216.494 155.733,216.697 155.733 C 216.900 155.733,217.067 155.856,217.067 156.007 C 217.067 156.157,217.367 156.394,217.733 156.533 C 218.249 156.729,218.400 156.976,218.400 157.625 C 218.400 158.331,218.484 158.440,218.933 158.323 C 219.227 158.246,219.467 158.292,219.467 158.425 C 219.467 158.558,219.707 158.667,220.000 158.667 C 220.300 158.667,220.533 158.844,220.533 159.072 C 220.533 159.296,220.825 159.611,221.181 159.773 C 221.729 160.023,221.781 160.144,221.519 160.563 C 221.097 161.239,221.895 162.130,222.485 161.640 C 222.955 161.250,223.611 161.907,223.372 162.530 C 223.277 162.777,223.368 162.933,223.608 162.933 C 223.824 162.933,224.000 163.053,224.000 163.200 C 224.000 163.347,224.362 163.467,224.805 163.467 C 225.525 163.467,225.593 163.536,225.448 164.115 C 225.314 164.648,225.372 164.742,225.776 164.643 C 226.109 164.562,226.732 164.995,227.720 165.995 C 228.656 166.942,229.395 167.467,229.795 167.467 C 230.137 167.467,230.486 167.647,230.570 167.867 C 230.655 168.087,230.870 168.267,231.049 168.267 C 231.227 168.267,231.656 168.567,232.000 168.933 C 232.344 169.300,232.773 169.600,232.951 169.600 C 233.130 169.600,233.345 169.780,233.430 170.000 C 233.514 170.220,233.811 170.400,234.089 170.400 C 234.367 170.400,234.881 170.623,235.231 170.897 C 235.580 171.170,236.107 171.469,236.400 171.561 C 236.693 171.653,238.543 172.569,240.510 173.597 C 242.477 174.625,244.184 175.467,244.302 175.467 C 244.421 175.467,245.151 175.753,245.925 176.104 C 246.700 176.454,247.715 176.822,248.182 176.921 C 248.648 177.020,249.173 177.273,249.348 177.484 C 249.522 177.694,250.022 177.867,250.458 177.867 C 250.894 177.867,251.570 178.092,251.959 178.367 C 252.348 178.643,253.170 178.952,253.785 179.055 C 254.400 179.158,255.044 179.412,255.217 179.621 C 255.390 179.829,255.699 180.000,255.902 180.000 C 256.459 180.000,258.907 181.671,259.070 182.162 C 259.306 182.874,258.709 191.736,258.291 193.735 C 257.745 196.346,257.114 201.485,256.934 204.800 C 256.698 209.128,256.024 218.224,255.708 221.333 C 255.552 222.873,255.363 226.711,255.288 229.861 C 255.131 236.419,255.001 236.928,253.399 237.234 C 252.545 237.397,248.276 236.718,246.400 236.121 C 246.180 236.051,245.340 235.844,244.533 235.662 C 243.727 235.480,242.934 235.246,242.773 235.141 C 242.463 234.941,242.044 236.082,241.722 238.000 C 241.624 238.587,241.194 240.665,240.767 242.618 C 239.859 246.775,239.794 246.542,241.926 246.773 C 247.552 247.382,249.047 247.693,251.115 248.685 C 254.077 250.104,254.919 252.345,253.865 256.002 C 253.243 258.158,253.201 262.133,253.799 262.133 C 254.330 262.133,256.000 263.759,256.000 264.276 C 256.000 264.418,256.107 264.533,256.238 264.533 C 256.597 264.533,257.078 254.124,257.871 229.209 C 258.027 224.319,258.255 220.571,258.407 220.420 C 258.582 220.245,263.350 220.362,272.469 220.764 C 280.058 221.099,290.107 221.540,294.800 221.743 C 308.705 222.346,308.557 222.324,308.844 223.867 C 308.954 224.460,309.421 223.802,317.214 212.051 C 319.773 208.193,321.867 204.970,321.867 204.889 C 321.867 204.807,322.467 203.916,323.200 202.908 C 323.933 201.900,324.533 201.008,324.533 200.926 C 324.533 200.764,324.646 200.614,325.866 199.155 C 326.697 198.162,326.599 197.683,325.629 197.991 C 325.138 198.147,310.997 197.435,299.200 196.660 C 290.431 196.085,267.127 194.895,264.800 194.905 C 263.700 194.909,262.020 194.761,261.067 194.575 L 259.333 194.238 259.417 191.719 C 259.755 181.492,259.980 177.514,260.231 177.262 C 260.491 177.002,280.700 178.424,288.077 179.221 C 291.089 179.546,305.682 180.719,309.333 180.929 C 313.649 181.177,313.860 181.231,314.043 182.147 C 314.339 183.628,314.897 182.910,323.592 169.867 C 328.383 162.680,332.414 156.800,332.551 156.800 C 332.688 156.800,332.800 156.569,332.800 156.288 C 332.800 155.840,332.557 155.762,330.867 155.665 C 328.230 155.514,313.660 154.172,312.667 153.988 C 312.227 153.907,308.087 153.479,303.467 153.038 C 286.443 151.413,279.006 150.689,276.533 150.416 C 275.140 150.262,271.360 149.886,268.133 149.581 C 264.907 149.277,258.727 148.684,254.400 148.265 C 250.073 147.845,243.293 147.196,239.333 146.822 C 235.373 146.449,231.724 146.071,231.224 145.985 C 230.724 145.898,226.464 145.474,221.758 145.042 C 217.051 144.611,211.460 144.089,209.333 143.883 C 207.207 143.677,204.333 143.435,202.948 143.346 C 201.564 143.257,200.184 143.144,199.882 143.094 C 199.580 143.044,199.003 143.056,198.600 143.120 M200.472 230.398 C 199.817 231.760,199.438 232.845,199.593 232.910 C 199.744 232.973,199.717 233.034,199.533 233.046 C 199.350 233.057,199.200 233.194,199.200 233.349 C 199.200 233.504,199.320 233.557,199.467 233.467 C 199.613 233.376,199.733 233.496,199.733 233.733 C 199.733 233.971,199.845 234.096,199.981 234.012 C 200.117 233.928,200.267 234.123,200.314 234.447 C 200.374 234.857,200.666 235.104,201.276 235.261 C 201.758 235.385,202.092 235.585,202.018 235.704 C 201.626 236.339,202.606 236.938,203.182 236.416 C 203.614 236.025,203.819 235.979,204.060 236.220 C 204.232 236.392,204.538 236.533,204.739 236.533 C 205.246 236.533,205.936 237.271,205.735 237.598 C 205.643 237.746,205.806 237.867,206.095 237.867 C 206.385 237.867,206.673 238.017,206.734 238.200 C 206.822 238.461,206.998 238.452,207.547 238.160 C 208.078 237.877,208.338 237.860,208.615 238.091 C 208.817 238.258,209.059 238.319,209.152 238.226 C 209.245 238.133,209.398 238.258,209.492 238.503 C 209.607 238.802,209.835 238.895,210.184 238.784 C 210.503 238.683,210.909 238.803,211.230 239.094 C 211.759 239.572,212.712 239.987,214.933 240.705 C 215.593 240.918,216.673 241.267,217.333 241.481 C 217.993 241.694,218.893 241.873,219.333 241.876 C 219.773 241.880,220.366 242.060,220.651 242.275 C 220.936 242.490,221.403 242.667,221.688 242.667 C 221.974 242.667,222.701 242.897,223.304 243.178 C 223.907 243.460,224.624 243.761,224.897 243.848 C 225.271 243.967,225.360 244.184,225.258 244.721 L 225.121 245.435 225.614 244.784 C 225.885 244.426,226.169 243.886,226.246 243.584 C 226.322 243.283,226.569 242.593,226.795 242.052 C 227.021 241.512,227.202 241.007,227.198 240.932 C 227.193 240.856,227.380 240.425,227.614 239.972 C 227.848 239.520,227.972 239.083,227.889 239.000 C 227.806 238.917,227.843 238.718,227.971 238.558 C 228.597 237.776,229.623 231.200,229.119 231.200 C 228.963 231.200,228.764 231.425,228.677 231.701 C 228.496 232.270,226.400 232.309,224.400 231.780 C 223.813 231.625,222.793 231.426,222.133 231.339 C 221.060 231.197,219.544 230.915,215.733 230.150 C 215.073 230.018,213.573 229.775,212.400 229.610 C 211.227 229.446,209.667 229.195,208.933 229.052 C 206.578 228.596,202.818 228.009,202.212 228.005 C 201.733 228.001,201.410 228.445,200.472 230.398 " stroke="none" fill="#ded569" fill-rule="evenodd"></path><path id="path2" d="M117.600 133.763 C 91.876 136.567,79.455 150.307,79.469 175.947 C 79.481 198.874,90.293 212.038,113.333 217.181 C 117.097 218.021,119.896 218.299,128.133 218.650 C 131.653 218.800,136.633 219.045,139.200 219.194 C 141.767 219.343,147.767 219.591,152.533 219.746 C 160.370 220.000,171.186 220.465,183.200 221.066 C 185.620 221.187,188.034 221.418,188.565 221.579 C 193.958 223.219,193.136 229.214,187.393 230.126 C 185.641 230.404,165.350 230.022,145.200 229.332 C 111.861 228.191,99.587 228.088,98.196 228.939 C 97.171 229.566,73.691 260.705,73.167 262.133 C 72.541 263.836,72.685 266.661,73.400 266.696 C 73.730 266.713,75.260 266.750,76.800 266.781 C 78.340 266.811,81.520 266.984,83.867 267.166 C 86.213 267.347,90.473 267.539,93.333 267.591 C 96.193 267.643,100.063 267.817,101.933 267.976 C 103.803 268.136,106.803 268.370,108.600 268.497 C 110.397 268.624,112.047 268.798,112.267 268.884 C 113.716 269.448,184.201 269.688,186.533 269.136 C 187.267 268.963,190.598 268.759,193.936 268.684 C 210.860 268.303,223.742 259.175,228.395 244.267 C 231.383 234.694,231.963 223.507,229.971 213.867 C 229.632 212.228,230.398 214.205,231.159 216.933 C 235.433 232.263,231.892 248.606,221.812 260.072 C 219.493 262.710,219.334 263.153,219.524 266.433 C 219.749 270.323,219.695 270.313,241.783 270.281 C 250.903 270.268,258.453 270.169,258.561 270.062 C 258.668 269.954,258.132 269.867,257.370 269.867 L 255.984 269.867 256.526 269.133 C 257.435 267.904,257.586 265.811,258.627 239.946 C 258.880 233.683,259.166 228.478,259.264 228.380 C 259.362 228.282,261.638 228.338,264.321 228.504 C 279.574 229.450,306.991 229.990,308.451 229.374 C 309.126 229.089,310.074 227.842,313.013 223.374 C 315.054 220.272,318.826 214.543,321.396 210.643 C 327.071 202.032,326.570 202.979,326.946 200.151 C 327.551 195.606,327.821 195.699,311.467 194.798 C 307.433 194.575,302.513 194.268,300.533 194.116 C 297.315 193.868,287.423 193.265,267.737 192.117 C 264.146 191.907,261.087 191.696,260.941 191.647 C 260.627 191.542,260.733 185.584,261.054 185.248 C 261.169 185.128,262.629 185.161,264.299 185.323 C 265.968 185.484,270.033 185.795,273.333 186.014 C 276.633 186.234,281.673 186.594,284.533 186.815 C 310.314 188.809,313.478 188.885,314.988 187.543 C 315.237 187.321,318.405 182.683,322.026 177.237 C 325.647 171.790,329.566 165.903,330.735 164.154 C 332.647 161.294,332.897 160.771,333.221 158.954 C 334.226 153.319,334.516 153.463,319.200 151.999 C 303.062 150.456,299.839 150.142,296.000 149.742 C 291.952 149.319,282.611 148.406,271.333 147.331 C 267.667 146.981,262.807 146.508,260.533 146.279 C 252.251 145.447,245.324 144.764,238.800 144.136 C 235.133 143.783,230.273 143.307,228.000 143.079 C 217.731 142.048,212.451 141.532,206.000 140.928 C 202.187 140.570,198.047 140.157,196.800 140.008 C 195.553 139.860,191.773 139.494,188.400 139.196 C 185.027 138.898,181.967 138.599,181.600 138.531 C 181.233 138.463,178.233 138.165,174.933 137.869 C 171.633 137.572,167.853 137.208,166.533 137.059 C 165.213 136.910,161.073 136.497,157.333 136.141 C 153.593 135.785,148.673 135.307,146.400 135.079 C 130.644 133.498,128.598 133.335,124.895 133.366 C 122.716 133.385,119.433 133.563,117.600 133.763 M135.467 136.407 C 138.033 136.620,141.033 136.919,142.133 137.072 C 143.233 137.225,147.373 137.647,151.333 138.009 C 158.309 138.648,165.823 139.373,183.067 141.070 C 193.323 142.080,208.237 143.498,217.733 144.367 C 221.693 144.729,225.833 145.155,226.933 145.314 C 228.033 145.474,231.813 145.843,235.333 146.135 C 238.853 146.427,242.513 146.788,243.467 146.937 C 244.420 147.086,248.140 147.446,251.733 147.737 C 255.327 148.028,258.987 148.385,259.867 148.531 C 260.747 148.676,264.407 149.036,268.000 149.331 C 271.593 149.625,275.253 149.984,276.133 150.128 C 277.013 150.273,280.673 150.632,284.267 150.928 C 287.860 151.223,291.520 151.583,292.400 151.728 C 293.280 151.872,297.000 152.238,300.667 152.539 C 304.333 152.841,307.993 153.201,308.800 153.339 C 309.607 153.477,313.327 153.837,317.067 154.139 C 320.807 154.440,324.467 154.798,325.200 154.933 C 325.933 155.069,327.673 155.250,329.067 155.337 C 333.149 155.592,333.600 155.909,332.133 157.492 C 331.767 157.888,331.467 158.314,331.467 158.439 C 331.467 158.564,331.281 158.877,331.055 159.133 C 330.626 159.620,327.725 163.912,326.800 165.431 C 325.486 167.586,315.147 182.910,314.857 183.131 C 314.657 183.284,312.906 183.253,310.267 183.049 C 307.920 182.868,303.360 182.523,300.133 182.284 C 296.907 182.045,291.867 181.669,288.933 181.450 C 284.227 181.097,270.500 180.118,262.733 179.580 L 260.000 179.390 259.972 183.895 C 259.956 186.373,259.866 189.630,259.772 191.134 C 259.661 192.892,259.695 193.869,259.867 193.871 C 260.013 193.873,262.773 194.052,266.000 194.268 C 269.227 194.484,277.087 194.962,283.467 195.330 C 289.847 195.698,296.747 196.122,298.800 196.271 C 305.443 196.753,321.502 197.600,323.994 197.600 C 326.440 197.600,327.399 198.039,326.372 198.689 C 326.167 198.819,326.117 198.927,326.259 198.929 C 326.402 198.931,326.252 199.120,325.926 199.348 C 325.600 199.577,325.333 199.888,325.333 200.040 C 325.333 200.192,324.613 201.314,323.733 202.533 C 322.853 203.752,322.133 204.834,322.133 204.938 C 322.133 205.041,321.533 205.950,320.800 206.959 C 320.067 207.967,319.467 208.868,319.467 208.962 C 319.467 209.056,318.957 209.870,318.333 210.771 C 317.710 211.672,317.080 212.606,316.933 212.845 C 316.787 213.085,316.114 214.103,315.439 215.107 C 312.133 220.023,309.967 223.312,309.652 223.892 C 309.226 224.677,309.817 224.666,296.687 224.128 C 283.023 223.569,258.558 222.686,258.494 222.751 C 258.465 222.780,258.245 227.843,258.006 234.002 C 257.767 240.161,257.404 249.040,257.201 253.733 C 256.997 258.427,256.824 262.837,256.815 263.533 L 256.800 264.800 242.333 264.796 C 224.965 264.792,226.158 264.971,228.345 262.699 C 232.219 258.674,237.333 250.275,237.333 247.936 C 237.333 247.731,237.765 245.952,238.293 243.982 C 238.821 242.012,239.353 239.740,239.475 238.933 C 239.597 238.127,239.888 236.567,240.122 235.467 C 242.765 223.027,239.174 208.043,231.156 198.053 C 229.627 196.147,229.683 196.889,230.173 185.123 C 230.534 176.432,230.709 177.042,227.824 176.919 C 226.674 176.870,223.393 176.642,220.533 176.412 C 217.673 176.182,211.973 175.751,207.867 175.454 C 203.760 175.157,195.540 174.559,189.600 174.124 C 183.660 173.689,173.820 172.975,167.733 172.537 C 161.647 172.099,151.687 171.364,145.600 170.904 C 126.925 169.490,124.276 169.869,122.637 174.187 C 121.821 176.337,121.730 180.697,122.474 182.000 C 122.725 182.440,122.931 182.926,122.932 183.079 C 122.938 184.211,127.057 186.530,129.600 186.833 C 130.260 186.911,131.040 187.076,131.333 187.199 C 131.838 187.411,134.895 187.610,162.133 189.199 C 168.367 189.563,176.287 190.033,179.733 190.245 C 183.180 190.456,188.760 190.769,192.133 190.939 C 195.507 191.109,198.507 191.351,198.800 191.477 C 199.093 191.602,199.873 191.760,200.533 191.827 C 202.287 192.004,206.182 192.766,206.800 193.053 C 207.093 193.189,208.053 193.493,208.933 193.729 C 210.319 194.101,212.936 195.184,214.479 196.025 C 214.742 196.169,215.642 196.655,216.479 197.106 C 217.315 197.556,218.180 198.089,218.400 198.288 C 218.620 198.488,219.647 199.360,220.682 200.227 C 223.185 202.324,225.544 205.197,226.516 207.333 C 226.783 207.920,227.150 208.580,227.332 208.800 C 227.513 209.020,227.870 209.920,228.124 210.800 C 228.379 211.680,228.680 212.640,228.794 212.933 C 230.372 216.991,230.337 231.982,228.739 236.800 C 228.392 237.844,228.302 238.214,228.141 239.252 C 228.079 239.647,227.723 240.641,227.348 241.460 C 226.973 242.279,226.667 243.052,226.667 243.178 C 226.667 243.771,224.833 247.285,223.525 249.200 C 218.855 256.035,210.403 261.197,200.630 263.182 C 193.157 264.700,194.412 264.682,119.795 264.356 L 79.190 264.178 79.713 263.622 C 81.304 261.928,103.552 232.148,103.672 231.551 C 103.847 230.680,103.930 230.674,111.919 230.952 C 115.997 231.094,131.333 231.513,146.000 231.883 C 160.667 232.254,176.207 232.672,180.533 232.813 C 195.777 233.309,198.079 232.377,199.906 224.973 C 200.964 220.683,198.485 217.114,193.860 216.268 C 192.910 216.095,191.953 215.889,191.733 215.811 C 191.303 215.659,190.784 215.632,179.867 215.204 C 175.907 215.048,170.087 214.804,166.933 214.661 C 163.780 214.518,154.780 214.155,146.933 213.855 C 128.054 213.133,124.176 212.927,124.081 212.640 C 124.037 212.508,123.281 212.441,122.401 212.490 C 121.300 212.552,120.800 212.483,120.800 212.267 C 120.800 212.049,120.476 212.008,119.734 212.133 C 118.903 212.274,118.633 212.223,118.510 211.901 C 118.396 211.606,118.133 211.533,117.576 211.645 C 117.053 211.749,116.800 211.692,116.800 211.470 C 116.800 211.254,116.521 211.180,115.995 211.258 C 115.544 211.324,115.070 211.232,114.918 211.049 C 114.769 210.869,114.411 210.783,114.124 210.859 C 113.836 210.934,113.600 210.878,113.600 210.735 C 113.600 210.592,112.760 210.209,111.732 209.885 C 97.899 205.519,88.620 194.580,86.932 180.648 C 84.847 163.435,91.150 148.635,103.467 141.826 C 106.457 140.173,108.583 139.120,109.067 139.052 C 109.140 139.042,110.406 138.653,111.879 138.189 C 113.352 137.724,114.972 137.289,115.479 137.221 C 115.986 137.153,117.240 136.928,118.267 136.720 C 119.293 136.511,120.670 136.318,121.325 136.290 C 121.981 136.261,122.554 136.201,122.599 136.156 C 122.848 135.907,131.464 136.075,135.467 136.407 M133.067 175.739 C 134.460 175.880,139.260 176.238,143.733 176.533 C 148.207 176.828,153.127 177.188,154.667 177.332 C 156.207 177.477,161.127 177.837,165.600 178.132 C 170.073 178.428,174.993 178.787,176.533 178.931 C 178.073 179.075,182.153 179.379,185.600 179.607 C 189.047 179.835,194.027 180.192,196.667 180.401 C 199.307 180.610,206.147 181.101,211.867 181.492 C 217.587 181.883,222.296 182.226,222.332 182.256 C 222.415 182.323,221.801 198.768,221.712 198.888 C 221.676 198.936,220.748 198.247,219.651 197.357 C 214.055 192.821,204.444 189.514,194.800 188.806 C 189.290 188.402,180.048 187.835,168.667 187.202 C 163.387 186.908,157.507 186.552,155.600 186.409 C 153.693 186.266,147.633 185.902,142.133 185.601 C 127.594 184.803,124.510 183.923,123.846 180.381 C 123.156 176.705,126.417 175.063,133.067 175.739 M267.600 270.136 C 267.283 270.274,268.367 270.305,270.267 270.213 C 272.027 270.129,273.517 270.016,273.578 269.963 C 273.819 269.754,268.099 269.919,267.600 270.136 " stroke="none" fill="#0a0b0c" fill-rule="evenodd"></path><path id="path3" d="M192.944 143.335 C 192.950 143.922,193.034 144.531,193.131 144.689 C 193.342 145.030,193.415 150.517,193.284 156.267 C 193.187 160.556,193.357 161.661,194.251 162.556 C 195.119 163.424,198.227 165.364,199.000 165.519 C 199.403 165.600,199.733 165.762,199.733 165.878 C 199.733 165.994,200.303 166.290,201.000 166.536 C 201.697 166.782,202.585 167.152,202.974 167.358 C 203.364 167.565,203.844 167.737,204.041 167.742 C 204.799 167.762,206.458 168.747,206.761 169.359 C 206.980 169.801,207.347 170.026,207.939 170.084 C 208.413 170.130,208.800 170.280,208.800 170.417 C 208.800 170.554,208.927 170.667,209.082 170.667 C 209.238 170.667,209.280 170.517,209.177 170.333 C 209.047 170.103,209.079 170.083,209.280 170.267 C 209.720 170.669,210.443 172.533,210.159 172.533 C 210.023 172.533,209.855 172.383,209.788 172.200 C 209.695 171.951,209.550 171.975,209.213 172.296 C 208.796 172.692,209.024 172.749,212.181 173.043 C 222.746 174.027,228.793 174.730,229.778 175.089 C 232.046 175.916,232.053 175.961,231.633 188.400 L 231.398 195.334 232.655 196.876 C 238.412 203.944,242.031 214.810,242.330 225.925 C 242.496 232.103,242.310 234.132,241.498 235.008 C 241.063 235.477,240.776 236.367,240.438 238.292 C 240.184 239.745,239.675 242.052,239.308 243.419 C 238.836 245.172,238.689 246.233,238.807 247.021 C 239.101 248.980,236.567 254.467,233.029 259.533 L 231.213 262.133 233.673 262.140 C 247.448 262.177,252.800 262.474,252.613 263.189 C 252.444 263.837,253.378 264.427,254.862 264.609 L 255.990 264.748 255.209 263.613 C 254.505 262.590,254.294 262.462,253.074 262.317 C 251.290 262.106,251.173 262.007,251.347 260.851 C 251.547 259.526,251.657 258.283,251.886 254.744 L 252.080 251.755 251.234 250.965 C 250.427 250.211,248.576 249.600,247.101 249.600 C 246.188 249.600,241.607 248.829,240.467 248.484 C 239.259 248.119,239.203 247.664,239.984 244.578 C 240.268 243.453,240.697 241.453,240.936 240.133 C 241.297 238.144,242.019 235.232,242.543 233.657 C 242.634 233.385,242.782 233.394,243.262 233.701 C 243.595 233.913,244.287 234.154,244.800 234.236 C 245.740 234.386,246.534 234.558,249.467 235.250 C 250.347 235.457,251.217 235.606,251.400 235.580 C 251.583 235.554,251.909 235.518,252.124 235.500 C 252.745 235.447,253.150 234.398,253.220 232.668 C 253.329 229.953,253.622 224.983,253.732 224.000 C 253.789 223.487,253.909 221.807,253.998 220.267 C 254.088 218.727,254.273 216.327,254.411 214.933 C 254.548 213.540,254.904 209.280,255.203 205.467 C 255.709 198.998,256.145 195.361,256.800 192.133 C 257.917 186.636,257.183 185.468,251.781 184.145 C 250.707 183.882,249.363 183.442,248.794 183.167 C 248.225 182.892,247.650 182.667,247.517 182.667 C 247.384 182.667,246.366 182.247,245.255 181.733 C 244.144 181.220,243.095 180.800,242.924 180.800 C 242.754 180.800,242.176 180.604,241.640 180.365 C 241.105 180.125,240.127 179.696,239.467 179.411 C 238.807 179.126,237.307 178.436,236.133 177.878 C 234.960 177.320,233.657 176.783,233.237 176.686 C 232.817 176.588,232.097 176.115,231.637 175.635 C 230.920 174.888,230.456 174.696,228.406 174.299 C 227.090 174.044,225.590 173.573,225.074 173.251 C 223.792 172.453,222.166 171.734,221.638 171.732 C 221.397 171.731,220.840 171.489,220.400 171.195 C 219.225 170.409,214.740 168.267,214.271 168.267 C 214.048 168.267,213.627 168.027,213.333 167.733 C 213.040 167.440,212.528 167.200,212.195 167.200 C 211.863 167.200,211.149 166.900,210.609 166.533 C 210.070 166.167,209.382 165.867,209.081 165.867 C 208.740 165.867,208.530 165.690,208.525 165.400 C 208.511 164.620,207.814 163.917,207.212 164.074 C 206.854 164.168,206.667 164.088,206.667 163.842 C 206.667 163.635,206.547 163.467,206.400 163.467 C 206.253 163.467,206.133 163.340,206.133 163.184 C 206.133 163.029,206.253 162.976,206.400 163.067 C 206.775 163.298,206.717 162.888,206.295 162.333 C 205.800 161.681,205.600 161.751,205.600 162.578 C 205.600 163.411,205.290 163.229,205.198 162.342 C 205.163 162.007,205.119 161.609,205.101 161.457 C 205.027 160.860,203.464 161.029,203.210 161.662 C 203.025 162.122,202.963 162.155,202.950 161.800 C 202.941 161.543,202.813 161.333,202.667 161.333 C 202.520 161.333,202.400 161.080,202.400 160.771 C 202.400 160.382,202.522 160.257,202.800 160.363 C 203.020 160.448,203.200 160.387,203.200 160.229 C 203.200 160.056,202.935 160.009,202.533 160.110 C 202.131 160.210,201.867 160.163,201.867 159.989 C 201.867 159.831,201.734 159.784,201.571 159.884 C 201.379 160.003,201.331 159.893,201.434 159.567 C 201.609 159.009,200.268 158.047,199.647 158.285 C 198.709 158.646,196.347 155.147,196.305 153.333 C 196.258 151.367,195.640 145.368,195.446 145.004 C 195.285 144.701,195.325 144.178,195.561 143.492 L 195.923 142.443 194.428 142.355 L 192.933 142.267 192.944 143.335 M201.533 143.122 C 201.863 143.185,202.403 143.185,202.733 143.122 C 203.063 143.058,202.793 143.006,202.133 143.006 C 201.473 143.006,201.203 143.058,201.533 143.122 M218.467 144.717 C 218.723 144.784,219.143 144.784,219.400 144.717 C 219.657 144.650,219.447 144.595,218.933 144.595 C 218.420 144.595,218.210 144.650,218.467 144.717 M251.136 147.922 C 251.468 147.986,251.948 147.983,252.203 147.917 C 252.458 147.850,252.187 147.798,251.600 147.801 C 251.013 147.804,250.805 147.858,251.136 147.922 M267.403 149.522 C 267.735 149.586,268.215 149.583,268.470 149.517 C 268.725 149.450,268.453 149.398,267.867 149.401 C 267.280 149.404,267.071 149.458,267.403 149.522 M283.800 151.117 C 284.057 151.184,284.477 151.184,284.733 151.117 C 284.990 151.050,284.780 150.995,284.267 150.995 C 283.753 150.995,283.543 151.050,283.800 151.117 M300.203 152.722 C 300.535 152.786,301.015 152.783,301.270 152.717 C 301.525 152.650,301.253 152.598,300.667 152.601 C 300.080 152.604,299.871 152.658,300.203 152.722 M316.470 154.322 C 316.801 154.386,317.281 154.383,317.536 154.317 C 317.791 154.250,317.520 154.198,316.933 154.201 C 316.347 154.204,316.138 154.258,316.470 154.322 M122.293 173.400 C 120.190 176.997,120.595 182.302,123.145 184.546 C 123.803 185.126,124.475 185.595,124.638 185.588 C 124.800 185.581,124.292 184.992,123.508 184.277 C 122.327 183.202,122.113 182.872,122.259 182.356 C 122.383 181.919,122.359 181.843,122.180 182.102 C 121.973 182.401,121.895 182.376,121.766 181.969 C 121.444 180.950,121.144 178.950,121.330 179.065 C 121.436 179.130,121.601 178.268,121.695 177.149 C 121.803 175.868,122.109 174.586,122.519 173.690 C 123.303 171.978,123.201 171.847,122.293 173.400 M260.846 177.661 C 259.799 178.707,260.420 179.135,263.267 179.327 C 264.770 179.428,268.220 179.684,270.933 179.895 C 275.952 180.284,290.066 181.318,290.511 181.328 C 290.646 181.331,290.674 181.252,290.575 181.153 C 290.476 181.054,289.346 180.884,288.064 180.775 C 284.089 180.439,276.788 179.743,274.133 179.447 C 272.740 179.292,271.060 179.108,270.400 179.038 C 268.560 178.843,268.245 178.588,269.600 178.389 L 270.800 178.213 269.449 178.173 C 268.706 178.151,267.446 178.023,266.649 177.889 C 263.965 177.436,261.180 177.326,260.846 177.661 M121.619 180.022 C 121.629 180.377,121.746 180.907,121.879 181.200 C 122.048 181.572,122.072 181.410,121.958 180.667 C 121.770 179.429,121.592 179.090,121.619 180.022 M259.836 183.467 C 259.836 185.300,259.879 186.050,259.931 185.133 C 259.983 184.217,259.983 182.717,259.931 181.800 C 259.879 180.883,259.836 181.633,259.836 183.467 M292.867 181.517 C 293.123 181.584,293.543 181.584,293.800 181.517 C 294.057 181.450,293.847 181.395,293.333 181.395 C 292.820 181.395,292.610 181.450,292.867 181.517 M296.800 181.875 C 297.900 181.979,299.460 182.060,300.267 182.057 C 301.692 182.050,301.680 182.044,299.867 181.858 C 298.840 181.752,297.280 181.671,296.400 181.676 L 294.800 181.686 296.800 181.875 M197.450 192.071 C 197.166 192.404,196.603 192.844,196.200 193.050 C 195.797 193.255,195.467 193.543,195.467 193.690 C 195.467 193.836,195.529 193.893,195.606 193.816 C 195.683 193.739,196.673 193.909,197.806 194.194 C 198.939 194.478,200.326 194.807,200.888 194.924 C 202.026 195.161,202.514 195.524,202.351 196.012 C 202.273 196.246,202.120 196.215,201.807 195.902 C 201.567 195.663,201.213 195.470,201.019 195.475 C 200.797 195.480,200.840 195.584,201.133 195.755 C 201.760 196.120,201.725 196.533,201.067 196.533 C 200.773 196.533,200.533 196.653,200.533 196.800 C 200.533 196.947,200.773 197.067,201.067 197.067 C 201.453 197.067,201.600 197.244,201.600 197.711 C 201.600 198.066,201.701 198.396,201.825 198.444 C 201.949 198.493,202.138 198.890,202.245 199.326 C 202.439 200.114,202.437 200.116,201.887 199.618 C 201.283 199.072,201.189 199.319,201.593 200.383 C 201.818 200.974,201.782 201.067,201.327 201.067 C 200.943 201.067,200.800 201.247,200.800 201.733 C 200.800 202.100,200.903 202.400,201.028 202.400 C 201.154 202.400,201.391 202.790,201.557 203.267 C 201.855 204.126,201.856 204.124,201.726 203.000 C 201.647 202.327,201.703 201.867,201.864 201.867 C 202.012 201.867,202.150 202.137,202.171 202.467 C 202.309 204.690,202.300 205.036,202.108 204.918 C 201.803 204.729,201.263 205.833,201.438 206.288 C 201.518 206.496,201.767 206.667,201.992 206.667 C 202.580 206.667,202.494 207.274,201.789 208.094 C 201.312 208.650,201.108 208.735,200.856 208.483 C 200.604 208.230,200.533 208.283,200.533 208.724 C 200.533 209.035,200.404 209.332,200.245 209.385 C 199.785 209.538,200.543 210.933,201.087 210.933 C 201.350 210.933,201.684 210.611,201.847 210.200 C 202.130 209.489,202.134 209.494,201.999 210.387 C 201.849 211.371,201.425 211.811,200.836 211.594 C 200.335 211.409,200.701 213.384,201.223 213.680 C 201.431 213.797,201.600 214.179,201.600 214.529 C 201.600 215.014,201.822 215.246,202.533 215.503 C 203.440 215.831,203.885 216.795,203.133 216.804 C 202.906 216.807,202.892 216.870,203.090 217.004 C 203.684 217.406,203.725 218.400,203.147 218.400 C 202.790 218.400,202.659 218.528,202.756 218.783 C 202.837 218.993,202.761 219.213,202.587 219.271 C 202.372 219.343,202.420 219.524,202.736 219.840 C 202.991 220.096,203.200 220.405,203.200 220.527 C 203.200 220.650,203.459 220.682,203.775 220.600 C 204.261 220.473,204.327 220.539,204.200 221.025 C 204.118 221.341,204.144 221.600,204.259 221.600 C 204.374 221.600,204.592 222.088,204.744 222.684 C 205.067 223.959,204.670 224.306,203.565 223.714 C 203.023 223.424,202.859 223.422,202.686 223.702 C 202.569 223.891,202.369 224.028,202.241 224.007 C 202.114 223.986,201.873 224.501,201.707 225.151 C 201.347 226.563,201.110 226.992,200.798 226.799 C 200.670 226.720,200.071 227.607,199.466 228.770 C 198.092 231.411,197.023 232.206,194.343 232.577 C 191.593 232.958,190.878 233.379,193.312 233.184 C 195.837 232.982,197.801 232.244,198.997 231.047 C 199.877 230.168,201.600 227.113,201.600 226.434 C 201.600 225.973,202.686 226.109,210.000 227.483 C 210.733 227.621,212.053 227.850,212.933 227.992 C 215.507 228.408,218.614 228.998,221.333 229.589 C 226.529 230.718,226.939 230.754,227.590 230.143 C 227.911 229.842,228.243 229.665,228.329 229.751 C 228.816 230.239,229.051 223.576,228.693 219.400 C 228.501 217.163,228.054 215.837,227.974 217.267 C 227.918 218.262,227.296 215.269,227.335 214.191 C 227.358 213.556,227.284 213.197,227.169 213.383 C 226.887 213.839,226.744 213.635,226.570 212.531 C 226.436 211.673,225.979 210.494,225.298 209.241 C 224.918 208.542,225.224 208.366,225.646 209.041 C 225.838 209.348,226.105 209.600,226.239 209.600 C 226.373 209.600,226.299 209.390,226.075 209.133 C 225.851 208.877,225.524 208.218,225.348 207.670 C 225.172 207.122,224.927 206.612,224.804 206.536 C 224.680 206.459,224.331 205.888,224.028 205.265 C 223.387 203.952,220.885 201.256,218.400 199.204 C 217.447 198.416,216.695 197.677,216.731 197.561 C 216.766 197.444,216.526 197.219,216.197 197.060 C 215.623 196.782,215.620 196.787,216.118 197.185 C 216.779 197.715,216.466 197.717,215.445 197.189 C 214.984 196.950,214.726 196.653,214.832 196.481 C 214.938 196.310,214.895 196.259,214.732 196.360 C 214.359 196.590,213.561 196.278,213.749 195.975 C 213.829 195.845,213.688 195.818,213.437 195.915 C 213.150 196.025,213.044 195.986,213.153 195.810 C 213.374 195.452,211.874 194.815,211.442 195.082 C 211.240 195.207,211.187 195.171,211.300 194.987 C 211.415 194.802,211.058 194.578,210.341 194.386 C 209.714 194.219,209.069 193.974,208.909 193.843 C 208.749 193.712,208.542 193.681,208.449 193.774 C 208.356 193.867,208.127 193.819,207.940 193.669 C 207.609 193.402,206.964 193.234,205.078 192.924 C 204.570 192.841,204.005 192.649,203.823 192.497 C 203.640 192.345,203.352 192.306,203.183 192.410 C 203.015 192.515,202.400 192.443,201.818 192.251 C 200.920 191.954,200.723 191.959,200.524 192.282 C 200.337 192.585,200.221 192.595,199.958 192.331 C 199.776 192.149,199.411 192.000,199.147 192.000 C 198.883 192.000,198.667 191.880,198.667 191.733 C 198.667 191.259,197.980 191.450,197.450 192.071 M261.137 194.325 C 261.542 194.386,262.142 194.384,262.470 194.321 C 262.798 194.258,262.467 194.208,261.733 194.210 C 261.000 194.212,260.732 194.263,261.137 194.325 M265.404 194.591 C 265.809 194.653,266.409 194.651,266.737 194.588 C 267.065 194.524,266.733 194.474,266.000 194.476 C 265.267 194.478,264.998 194.530,265.404 194.591 M270.336 194.855 C 270.668 194.919,271.148 194.917,271.403 194.850 C 271.658 194.783,271.387 194.731,270.800 194.734 C 270.213 194.737,270.005 194.791,270.336 194.855 M274.870 195.122 C 275.201 195.186,275.681 195.183,275.936 195.117 C 276.191 195.050,275.920 194.998,275.333 195.001 C 274.747 195.004,274.538 195.058,274.870 195.122 M279.270 195.391 C 279.676 195.453,280.276 195.451,280.604 195.388 C 280.932 195.324,280.600 195.274,279.867 195.276 C 279.133 195.278,278.865 195.330,279.270 195.391 M283.537 195.658 C 283.942 195.719,284.542 195.718,284.870 195.654 C 285.198 195.591,284.867 195.541,284.133 195.543 C 283.400 195.545,283.132 195.597,283.537 195.658 M287.804 195.925 C 288.209 195.986,288.809 195.984,289.137 195.921 C 289.465 195.858,289.133 195.808,288.400 195.810 C 287.667 195.812,287.398 195.863,287.804 195.925 M292.736 196.189 C 293.068 196.252,293.548 196.250,293.803 196.183 C 294.058 196.116,293.787 196.064,293.200 196.067 C 292.613 196.070,292.405 196.125,292.736 196.189 M301.933 196.717 C 302.190 196.784,302.610 196.784,302.867 196.717 C 303.123 196.650,302.913 196.595,302.400 196.595 C 301.887 196.595,301.677 196.650,301.933 196.717 M306.467 196.984 C 306.723 197.051,307.143 197.051,307.400 196.984 C 307.657 196.917,307.447 196.862,306.933 196.862 C 306.420 196.862,306.210 196.917,306.467 196.984 M310.603 197.255 C 310.935 197.319,311.415 197.317,311.670 197.250 C 311.925 197.183,311.653 197.131,311.067 197.134 C 310.480 197.137,310.271 197.191,310.603 197.255 M315.000 197.517 C 315.257 197.584,315.677 197.584,315.933 197.517 C 316.190 197.450,315.980 197.395,315.467 197.395 C 314.953 197.395,314.743 197.450,315.000 197.517 M319.533 197.784 C 319.790 197.851,320.210 197.851,320.467 197.784 C 320.723 197.717,320.513 197.662,320.000 197.662 C 319.487 197.662,319.277 197.717,319.533 197.784 M201.550 209.936 C 201.611 210.256,201.468 210.400,201.086 210.400 C 200.705 210.400,200.533 210.229,200.533 209.847 C 200.533 209.164,201.416 209.241,201.550 209.936 M228.837 214.133 C 228.837 214.353,228.941 214.773,229.067 215.067 C 229.211 215.403,229.296 215.452,229.296 215.200 C 229.296 214.980,229.193 214.560,229.067 214.267 C 228.922 213.930,228.837 213.881,228.837 214.133 M204.000 219.600 C 204.000 219.820,203.880 220.000,203.733 220.000 C 203.587 220.000,203.467 219.820,203.467 219.600 C 203.467 219.380,203.587 219.200,203.733 219.200 C 203.880 219.200,204.000 219.380,204.000 219.600 M259.133 220.821 C 258.877 220.971,258.667 221.373,258.667 221.714 C 258.667 222.421,256.608 222.264,276.533 223.075 C 311.297 224.489,313.299 224.526,298.400 223.481 C 295.980 223.312,293.640 223.130,293.200 223.078 C 292.760 223.026,291.350 222.898,290.067 222.794 C 288.407 222.658,287.733 222.502,287.733 222.251 C 287.733 221.774,286.643 221.660,278.800 221.322 C 275.133 221.163,269.973 220.925,267.333 220.791 C 261.194 220.481,259.709 220.486,259.133 220.821 M229.929 222.400 C 229.929 222.913,229.983 223.123,230.050 222.867 C 230.118 222.610,230.118 222.190,230.050 221.933 C 229.983 221.677,229.929 221.887,229.929 222.400 M229.676 229.200 C 229.678 229.933,229.730 230.202,229.791 229.796 C 229.853 229.391,229.851 228.791,229.788 228.463 C 229.724 228.135,229.674 228.467,229.676 229.200 M257.947 232.000 C 257.947 232.807,257.997 233.137,258.058 232.733 C 258.119 232.330,258.119 231.670,258.058 231.267 C 257.997 230.863,257.947 231.193,257.947 232.000 M229.406 232.000 C 229.406 232.660,229.458 232.930,229.522 232.600 C 229.585 232.270,229.585 231.730,229.522 231.400 C 229.458 231.070,229.406 231.340,229.406 232.000 M188.940 233.305 C 188.169 233.422,187.788 233.649,187.544 234.133 C 187.154 234.907,187.096 235.733,187.433 235.733 C 187.561 235.733,187.739 236.195,187.829 236.759 C 188.202 239.089,193.734 241.613,200.590 242.581 C 201.134 242.658,201.719 242.889,201.889 243.094 C 202.059 243.299,202.470 243.467,202.802 243.467 C 203.426 243.467,203.707 244.022,203.745 245.333 C 203.762 245.900,203.808 245.936,204.056 245.573 C 204.319 245.187,204.393 245.193,204.840 245.640 C 205.410 246.210,205.481 246.829,205.000 247.024 C 204.749 247.126,204.766 247.229,205.067 247.442 C 205.300 247.607,205.337 247.727,205.157 247.729 C 204.837 247.733,204.858 248.580,205.198 249.403 C 205.305 249.662,205.261 250.032,205.100 250.226 C 204.523 250.922,204.796 253.241,205.501 253.618 C 205.896 253.830,206.133 254.196,206.133 254.594 C 206.133 255.008,206.241 255.165,206.441 255.041 C 206.621 254.930,206.677 254.967,206.576 255.131 C 206.211 255.722,206.719 257.070,207.367 257.232 C 207.715 257.320,208.002 257.528,208.004 257.696 C 208.006 257.863,208.124 257.820,208.267 257.600 C 208.421 257.362,208.527 257.328,208.529 257.516 C 208.534 257.858,212.427 256.318,214.268 255.247 C 214.854 254.906,215.473 254.546,215.645 254.447 C 216.421 253.998,219.141 252.113,219.833 251.542 C 220.255 251.195,220.660 250.971,220.732 251.044 C 220.924 251.235,218.907 253.702,217.843 254.577 C 217.342 254.988,216.873 255.388,216.800 255.466 C 216.727 255.544,216.037 256.080,215.267 256.658 C 213.773 257.780,213.386 258.240,214.600 257.452 C 216.958 255.921,223.695 250.017,222.200 250.792 C 221.716 251.043,221.791 250.571,222.352 249.836 C 223.891 247.819,224.680 245.600,223.857 245.600 C 223.632 245.600,223.182 245.434,222.857 245.230 C 222.532 245.027,221.607 244.715,220.800 244.538 C 219.993 244.361,218.973 244.115,218.533 243.991 C 218.093 243.867,216.713 243.559,215.467 243.305 C 214.220 243.052,212.989 242.740,212.730 242.611 C 212.472 242.483,210.552 242.069,208.464 241.692 C 202.182 240.557,200.086 240.119,194.267 238.724 C 190.229 237.757,190.219 237.752,189.591 236.451 C 188.879 234.979,188.921 234.651,189.931 233.807 C 190.824 233.061,190.756 233.027,188.940 233.305 M257.667 237.733 C 257.670 238.320,257.725 238.529,257.789 238.197 C 257.852 237.865,257.850 237.385,257.783 237.130 C 257.716 236.875,257.664 237.147,257.667 237.733 M257.395 243.733 C 257.395 244.247,257.450 244.457,257.517 244.200 C 257.584 243.943,257.584 243.523,257.517 243.267 C 257.450 243.010,257.395 243.220,257.395 243.733 M206.024 247.399 C 205.737 247.685,205.585 247.284,205.786 246.772 C 205.975 246.291,205.989 246.290,206.082 246.754 C 206.136 247.022,206.110 247.312,206.024 247.399 M206.133 248.400 C 206.133 248.620,206.013 248.800,205.867 248.800 C 205.720 248.800,205.600 248.620,205.600 248.400 C 205.600 248.180,205.720 248.000,205.867 248.000 C 206.013 248.000,206.133 248.180,206.133 248.400 " stroke="none" fill="#98934c" fill-rule="evenodd"></path><path id="path4" d="M195.819 142.742 C 195.455 143.336,195.250 144.628,195.458 145.023 C 195.643 145.373,196.260 151.427,196.305 153.333 C 196.347 155.147,198.709 158.646,199.647 158.285 C 200.268 158.047,201.609 159.009,201.434 159.567 C 201.331 159.893,201.379 160.003,201.571 159.884 C 201.734 159.784,201.867 159.831,201.867 159.989 C 201.867 160.163,202.131 160.210,202.533 160.110 C 202.935 160.009,203.200 160.056,203.200 160.229 C 203.200 160.387,203.020 160.448,202.800 160.363 C 202.522 160.257,202.400 160.382,202.400 160.771 C 202.400 161.080,202.520 161.333,202.667 161.333 C 202.813 161.333,202.941 161.543,202.950 161.800 C 202.963 162.155,203.025 162.122,203.210 161.662 C 203.464 161.029,205.027 160.860,205.101 161.457 C 205.119 161.609,205.163 162.007,205.198 162.342 C 205.290 163.229,205.600 163.411,205.600 162.578 C 205.600 161.751,205.800 161.681,206.295 162.333 C 206.717 162.888,206.775 163.298,206.400 163.067 C 206.253 162.976,206.133 163.029,206.133 163.184 C 206.133 163.340,206.253 163.467,206.400 163.467 C 206.547 163.467,206.667 163.635,206.667 163.842 C 206.667 164.088,206.854 164.168,207.212 164.074 C 207.814 163.917,208.511 164.620,208.525 165.400 C 208.530 165.690,208.740 165.867,209.081 165.867 C 209.382 165.867,210.070 166.167,210.609 166.533 C 211.149 166.900,211.863 167.200,212.195 167.200 C 212.528 167.200,213.040 167.440,213.333 167.733 C 213.627 168.027,214.048 168.267,214.271 168.267 C 214.740 168.267,219.225 170.409,220.400 171.195 C 220.840 171.489,221.397 171.731,221.638 171.732 C 222.166 171.734,223.792 172.453,225.074 173.251 C 225.590 173.573,227.090 174.044,228.406 174.299 C 230.456 174.696,230.920 174.888,231.637 175.635 C 232.097 176.115,232.817 176.588,233.237 176.686 C 233.657 176.783,234.960 177.320,236.133 177.878 C 237.307 178.436,238.807 179.126,239.467 179.411 C 240.127 179.696,241.105 180.125,241.640 180.365 C 242.176 180.604,242.754 180.800,242.924 180.800 C 243.095 180.800,244.144 181.220,245.255 181.733 C 246.366 182.247,247.384 182.667,247.517 182.667 C 247.650 182.667,248.225 182.892,248.794 183.167 C 249.363 183.442,250.707 183.882,251.781 184.145 C 257.183 185.468,257.917 186.636,256.800 192.133 C 256.145 195.361,255.709 198.998,255.203 205.467 C 254.904 209.280,254.548 213.540,254.411 214.933 C 254.273 216.327,254.088 218.727,253.998 220.267 C 253.909 221.807,253.789 223.487,253.732 224.000 C 253.622 224.983,253.329 229.953,253.220 232.668 C 253.150 234.398,252.745 235.447,252.124 235.500 C 251.909 235.518,251.583 235.554,251.400 235.580 C 251.217 235.606,250.347 235.457,249.467 235.250 C 246.534 234.558,245.740 234.386,244.800 234.236 C 244.287 234.154,243.595 233.913,243.262 233.701 C 242.782 233.394,242.634 233.385,242.543 233.657 C 242.019 235.232,241.297 238.144,240.936 240.133 C 240.697 241.453,240.268 243.453,239.984 244.578 C 239.203 247.664,239.259 248.119,240.467 248.484 C 241.607 248.829,246.188 249.600,247.101 249.600 C 248.576 249.600,250.427 250.211,251.234 250.965 L 252.080 251.755 251.886 254.744 C 251.657 258.283,251.547 259.526,251.347 260.851 C 251.173 262.007,251.290 262.106,253.074 262.317 C 254.303 262.463,254.502 262.586,255.237 263.653 C 256.288 265.181,256.661 265.025,256.691 263.046 L 256.714 261.467 256.611 263.000 C 256.528 264.215,256.000 265.319,256.000 264.276 C 256.000 263.759,254.330 262.133,253.799 262.133 C 253.201 262.133,253.243 258.158,253.865 256.002 C 255.432 250.565,252.878 248.090,244.667 247.085 C 244.080 247.013,242.847 246.873,241.926 246.773 C 239.794 246.542,239.859 246.775,240.767 242.618 C 241.194 240.665,241.624 238.587,241.722 238.000 C 242.044 236.082,242.463 234.941,242.773 235.141 C 242.934 235.246,243.727 235.480,244.533 235.662 C 245.340 235.844,246.180 236.051,246.400 236.121 C 248.276 236.718,252.545 237.397,253.399 237.234 C 255.001 236.928,255.131 236.419,255.288 229.861 C 255.363 226.711,255.552 222.873,255.708 221.333 C 256.024 218.224,256.698 209.128,256.934 204.800 C 257.114 201.485,257.745 196.346,258.291 193.735 C 258.709 191.736,259.306 182.874,259.070 182.162 C 258.907 181.671,256.459 180.000,255.902 180.000 C 255.699 180.000,255.390 179.829,255.217 179.621 C 255.044 179.412,254.400 179.158,253.785 179.055 C 253.170 178.952,252.348 178.643,251.959 178.367 C 251.570 178.092,250.894 177.867,250.458 177.867 C 250.022 177.867,249.522 177.694,249.348 177.484 C 249.173 177.273,248.648 177.020,248.182 176.921 C 247.715 176.822,246.700 176.454,245.925 176.104 C 245.151 175.753,244.421 175.467,244.302 175.467 C 244.184 175.467,242.477 174.625,240.510 173.597 C 238.543 172.569,236.693 171.653,236.400 171.561 C 236.107 171.469,235.580 171.170,235.231 170.897 C 234.881 170.623,234.367 170.400,234.089 170.400 C 233.811 170.400,233.514 170.220,233.430 170.000 C 233.345 169.780,233.130 169.600,232.951 169.600 C 232.773 169.600,232.344 169.300,232.000 168.933 C 231.656 168.567,231.227 168.267,231.049 168.267 C 230.870 168.267,230.655 168.087,230.570 167.867 C 230.486 167.647,230.137 167.467,229.795 167.467 C 229.395 167.467,228.656 166.942,227.720 165.995 C 226.732 164.995,226.109 164.562,225.776 164.643 C 225.372 164.742,225.314 164.648,225.448 164.115 C 225.593 163.536,225.525 163.467,224.805 163.467 C 224.362 163.467,224.000 163.347,224.000 163.200 C 224.000 163.053,223.824 162.933,223.608 162.933 C 223.368 162.933,223.277 162.777,223.372 162.530 C 223.611 161.907,222.955 161.250,222.485 161.640 C 221.895 162.130,221.097 161.239,221.519 160.563 C 221.781 160.144,221.729 160.023,221.181 159.773 C 220.825 159.611,220.533 159.296,220.533 159.072 C 220.533 158.844,220.300 158.667,220.000 158.667 C 219.707 158.667,219.467 158.558,219.467 158.425 C 219.467 158.292,219.227 158.246,218.933 158.323 C 218.484 158.440,218.400 158.331,218.400 157.625 C 218.400 156.976,218.249 156.729,217.733 156.533 C 217.367 156.394,217.067 156.157,217.067 156.007 C 217.067 155.856,216.900 155.733,216.697 155.733 C 216.494 155.733,216.134 155.437,215.897 155.075 C 215.633 154.673,215.310 154.477,215.066 154.570 C 214.837 154.658,214.655 154.570,214.640 154.362 C 214.625 154.163,214.517 154.300,214.400 154.667 L 214.186 155.333 214.156 154.667 C 214.133 154.176,214.063 154.097,213.891 154.369 C 213.704 154.664,213.596 154.624,213.353 154.169 C 213.147 153.785,212.792 153.600,212.257 153.600 C 211.644 153.600,211.467 153.480,211.467 153.067 C 211.467 152.671,211.289 152.533,210.776 152.533 C 210.061 152.533,209.236 151.783,208.797 150.733 C 208.545 150.130,208.000 149.902,208.000 150.400 C 208.000 150.547,207.884 150.667,207.742 150.667 C 207.600 150.667,207.558 150.473,207.649 150.236 C 207.780 149.893,207.696 149.842,207.240 149.987 C 206.813 150.123,206.667 150.058,206.667 149.732 C 206.667 149.432,206.477 149.320,206.058 149.375 C 205.723 149.419,205.003 149.191,204.458 148.870 C 203.810 148.487,203.460 148.397,203.449 148.609 C 203.439 148.787,203.292 148.633,203.123 148.267 C 202.705 147.362,202.435 147.209,201.251 147.204 C 200.643 147.202,200.301 147.093,200.400 146.933 C 200.491 146.787,200.424 146.667,200.251 146.667 C 200.078 146.667,199.527 146.307,199.026 145.867 C 198.525 145.427,198.000 145.067,197.859 145.067 C 197.718 145.067,197.654 144.797,197.715 144.467 C 197.777 144.137,197.836 143.717,197.847 143.533 C 197.858 143.350,198.160 143.200,198.518 143.200 C 200.020 143.200,199.327 142.705,197.709 142.623 C 196.740 142.574,195.890 142.627,195.819 142.742 M214.600 144.455 C 214.930 144.518,215.470 144.518,215.800 144.455 C 216.130 144.391,215.860 144.339,215.200 144.339 C 214.540 144.339,214.270 144.391,214.600 144.455 M231.533 146.050 C 231.790 146.118,232.210 146.118,232.467 146.050 C 232.723 145.983,232.513 145.929,232.000 145.929 C 231.487 145.929,231.277 145.983,231.533 146.050 M234.070 146.322 C 234.401 146.386,234.881 146.383,235.136 146.317 C 235.391 146.250,235.120 146.198,234.533 146.201 C 233.947 146.204,233.738 146.258,234.070 146.322 M247.400 147.655 C 247.730 147.718,248.270 147.718,248.600 147.655 C 248.930 147.591,248.660 147.539,248.000 147.539 C 247.340 147.539,247.070 147.591,247.400 147.655 M263.936 149.255 C 264.268 149.319,264.748 149.317,265.003 149.250 C 265.258 149.183,264.987 149.131,264.400 149.134 C 263.813 149.137,263.605 149.191,263.936 149.255 M280.200 150.855 C 280.530 150.918,281.070 150.918,281.400 150.855 C 281.730 150.791,281.460 150.739,280.800 150.739 C 280.140 150.739,279.870 150.791,280.200 150.855 M296.736 152.455 C 297.068 152.519,297.548 152.517,297.803 152.450 C 298.058 152.383,297.787 152.331,297.200 152.334 C 296.613 152.337,296.405 152.391,296.736 152.455 M313.003 154.055 C 313.335 154.119,313.815 154.117,314.070 154.050 C 314.325 153.983,314.053 153.931,313.467 153.934 C 312.880 153.937,312.671 153.991,313.003 154.055 M329.670 155.658 C 330.076 155.719,330.676 155.718,331.004 155.654 C 331.332 155.591,331.000 155.541,330.267 155.543 C 329.533 155.545,329.265 155.597,329.670 155.658 M331.200 158.400 C 330.887 158.840,330.690 159.200,330.764 159.200 C 330.837 159.200,331.153 158.840,331.467 158.400 C 331.780 157.960,331.976 157.600,331.903 157.600 C 331.830 157.600,331.513 157.960,331.200 158.400 M260.145 177.400 C 259.831 178.395,259.852 179.405,260.184 179.277 C 260.376 179.203,260.533 178.870,260.533 178.537 C 260.533 177.245,260.767 177.233,268.933 178.119 C 270.446 178.283,270.575 178.329,269.613 178.361 C 268.071 178.412,268.498 178.846,270.267 179.026 C 271.000 179.101,272.740 179.289,274.133 179.445 C 275.527 179.602,278.707 179.920,281.200 180.154 C 283.693 180.387,286.813 180.694,288.133 180.836 C 291.922 181.243,292.177 181.266,296.400 181.572 C 298.600 181.732,301.360 181.984,302.533 182.132 C 303.707 182.280,306.741 182.526,309.277 182.680 C 311.813 182.833,314.093 183.024,314.344 183.104 C 314.624 183.194,314.687 183.163,314.508 183.025 C 314.347 182.901,314.136 182.475,314.039 182.078 C 313.833 181.238,313.560 181.171,309.333 180.929 C 305.574 180.713,290.505 179.512,289.333 179.335 C 284.285 178.574,260.277 176.982,260.145 177.400 M121.382 180.268 C 121.647 181.724,122.260 183.349,122.631 183.578 C 122.763 183.660,122.588 183.038,122.242 182.196 C 121.896 181.355,121.610 180.344,121.606 179.949 C 121.603 179.554,121.497 179.168,121.371 179.090 C 121.245 179.012,121.250 179.542,121.382 180.268 M259.561 188.933 C 259.561 190.253,259.606 190.827,259.662 190.208 C 259.717 189.589,259.718 188.509,259.663 187.808 C 259.608 187.107,259.562 187.613,259.561 188.933 M259.290 193.600 C 259.322 194.090,259.493 194.276,259.937 194.302 C 260.407 194.330,260.426 194.311,260.020 194.219 C 259.734 194.154,259.442 193.838,259.373 193.517 C 259.267 193.031,259.253 193.045,259.290 193.600 M261.733 194.667 C 262.173 194.779,263.433 194.871,264.533 194.871 C 266.269 194.872,266.392 194.843,265.467 194.651 C 264.059 194.360,260.585 194.374,261.733 194.667 M268.267 194.938 C 269.220 195.047,271.980 195.200,274.400 195.277 L 278.800 195.418 274.000 195.070 C 268.505 194.671,265.286 194.597,268.267 194.938 M280.467 195.660 C 280.943 195.719,281.723 195.719,282.200 195.660 C 282.677 195.600,282.287 195.552,281.333 195.552 C 280.380 195.552,279.990 195.600,280.467 195.660 M215.052 196.926 C 218.569 198.970,222.938 203.029,224.028 205.265 C 224.331 205.888,224.680 206.459,224.804 206.536 C 224.927 206.612,225.172 207.122,225.348 207.670 C 225.524 208.218,225.851 208.877,226.075 209.133 C 226.299 209.390,226.373 209.600,226.239 209.600 C 226.105 209.600,225.838 209.348,225.646 209.041 C 224.783 207.659,225.180 209.197,226.152 210.998 C 226.290 211.254,226.473 211.914,226.560 212.465 C 226.744 213.634,226.884 213.845,227.169 213.383 C 227.284 213.197,227.358 213.556,227.335 214.191 C 227.296 215.269,227.918 218.262,227.974 217.267 C 228.054 215.837,228.501 217.163,228.693 219.400 C 229.051 223.576,228.816 230.239,228.329 229.751 C 228.243 229.665,227.911 229.842,227.590 230.143 C 226.939 230.754,226.529 230.718,221.333 229.589 C 218.614 228.998,215.507 228.408,212.933 227.992 C 212.053 227.850,210.733 227.621,210.000 227.483 C 202.686 226.109,201.600 225.973,201.600 226.434 C 201.600 227.113,199.877 230.168,198.997 231.047 C 197.683 232.361,195.563 233.105,192.898 233.186 C 189.442 233.291,188.509 234.213,189.591 236.451 C 190.219 237.752,190.229 237.757,194.267 238.724 C 200.086 240.119,202.182 240.557,208.464 241.692 C 210.552 242.069,212.472 242.483,212.730 242.611 C 212.989 242.740,214.220 243.052,215.467 243.305 C 216.713 243.559,218.093 243.867,218.533 243.991 C 218.973 244.115,219.993 244.361,220.800 244.538 C 221.607 244.715,222.532 245.027,222.857 245.230 C 223.182 245.434,223.632 245.600,223.857 245.600 C 224.758 245.600,224.014 247.481,221.907 250.533 C 221.352 251.336,221.209 251.669,221.547 251.370 C 222.351 250.658,224.607 247.321,225.447 245.600 C 225.969 244.530,226.022 244.309,225.642 244.784 L 225.121 245.435 225.258 244.721 C 225.360 244.184,225.271 243.967,224.897 243.848 C 224.624 243.761,223.907 243.460,223.304 243.178 C 222.701 242.897,221.974 242.667,221.688 242.667 C 221.403 242.667,220.936 242.490,220.651 242.275 C 220.366 242.060,219.773 241.880,219.333 241.876 C 218.893 241.873,217.993 241.694,217.333 241.481 C 216.673 241.267,215.593 240.918,214.933 240.705 C 212.712 239.987,211.759 239.572,211.230 239.094 C 210.909 238.803,210.503 238.683,210.184 238.784 C 209.835 238.895,209.607 238.802,209.492 238.503 C 209.398 238.258,209.245 238.133,209.152 238.226 C 209.059 238.319,208.817 238.258,208.615 238.091 C 208.338 237.860,208.078 237.877,207.547 238.160 C 206.998 238.452,206.822 238.461,206.734 238.200 C 206.673 238.017,206.385 237.867,206.095 237.867 C 205.806 237.867,205.643 237.746,205.735 237.598 C 205.936 237.271,205.246 236.533,204.739 236.533 C 204.538 236.533,204.232 236.392,204.060 236.220 C 203.819 235.979,203.614 236.025,203.182 236.416 C 202.606 236.938,201.626 236.339,202.018 235.704 C 202.092 235.585,201.758 235.385,201.276 235.261 C 200.666 235.104,200.374 234.857,200.314 234.447 C 200.267 234.123,200.117 233.928,199.981 234.012 C 199.845 234.096,199.733 233.971,199.733 233.733 C 199.733 233.496,199.613 233.376,199.467 233.467 C 199.320 233.557,199.200 233.514,199.200 233.371 C 199.200 233.228,199.350 233.051,199.533 232.977 C 199.717 232.903,199.743 232.833,199.592 232.821 C 198.992 232.775,201.590 228.000,202.212 228.005 C 202.818 228.009,206.578 228.596,208.933 229.052 C 209.667 229.195,211.227 229.446,212.400 229.610 C 213.573 229.775,215.073 230.018,215.733 230.150 C 219.544 230.915,221.060 231.197,222.133 231.339 C 222.793 231.426,223.813 231.625,224.400 231.780 C 225.759 232.139,228.533 232.273,228.533 231.978 C 228.533 231.855,228.800 231.506,229.126 231.202 C 229.861 230.517,230.082 218.639,229.375 217.785 C 229.178 217.546,229.078 217.197,229.154 217.009 C 229.234 216.810,229.300 216.880,229.312 217.178 C 229.324 217.459,229.402 217.620,229.486 217.537 C 229.883 217.139,227.723 209.794,226.690 208.032 C 226.293 207.355,225.880 206.620,225.773 206.400 C 224.885 204.571,221.959 201.283,219.771 199.653 C 218.944 199.037,218.034 198.323,217.750 198.067 C 217.465 197.810,217.119 197.600,216.979 197.600 C 216.840 197.600,216.166 197.256,215.482 196.834 C 214.797 196.413,213.944 195.985,213.585 195.882 C 213.227 195.779,213.887 196.249,215.052 196.926 M285.803 195.922 C 286.135 195.986,286.615 195.983,286.870 195.917 C 287.125 195.850,286.853 195.798,286.267 195.801 C 285.680 195.804,285.471 195.858,285.803 195.922 M290.870 196.189 C 291.201 196.252,291.681 196.250,291.936 196.183 C 292.191 196.116,291.920 196.064,291.333 196.067 C 290.747 196.070,290.538 196.125,290.870 196.189 M295.670 196.455 C 296.001 196.519,296.481 196.517,296.736 196.450 C 296.991 196.383,296.720 196.331,296.133 196.334 C 295.547 196.337,295.338 196.391,295.670 196.455 M299.933 196.722 C 300.263 196.785,300.803 196.785,301.133 196.722 C 301.463 196.658,301.193 196.606,300.533 196.606 C 299.873 196.606,299.603 196.658,299.933 196.722 M304.067 196.991 C 304.470 197.052,305.130 197.052,305.533 196.991 C 305.937 196.930,305.607 196.880,304.800 196.880 C 303.993 196.880,303.663 196.930,304.067 196.991 M308.337 197.258 C 308.742 197.319,309.342 197.318,309.670 197.254 C 309.998 197.191,309.667 197.141,308.933 197.143 C 308.200 197.145,307.932 197.197,308.337 197.258 M313.270 197.522 C 313.601 197.586,314.081 197.583,314.336 197.517 C 314.591 197.450,314.320 197.398,313.733 197.401 C 313.147 197.404,312.938 197.458,313.270 197.522 M317.933 197.784 C 318.190 197.851,318.610 197.851,318.867 197.784 C 319.123 197.717,318.913 197.662,318.400 197.662 C 317.887 197.662,317.677 197.717,317.933 197.784 M323.405 198.060 C 323.884 198.119,324.604 198.118,325.005 198.057 C 325.405 197.996,325.013 197.948,324.133 197.949 C 323.253 197.951,322.925 198.001,323.405 198.060 M258.311 220.444 C 258.029 220.727,258.105 222.400,258.400 222.400 C 258.547 222.400,258.667 222.097,258.667 221.728 C 258.667 220.514,259.328 220.434,266.583 220.770 C 270.222 220.938,275.960 221.197,279.333 221.343 C 286.627 221.661,287.733 221.780,287.733 222.249 C 287.733 222.493,288.391 222.653,289.933 222.781 C 291.143 222.882,292.613 223.016,293.200 223.078 C 293.787 223.141,296.067 223.315,298.267 223.466 C 305.001 223.927,308.114 224.205,308.557 224.385 C 308.811 224.488,309.132 224.366,309.357 224.079 C 309.700 223.642,309.692 223.632,309.267 223.966 C 308.856 224.288,308.800 224.269,308.800 223.807 C 308.800 222.372,308.506 222.330,294.267 221.721 C 289.133 221.502,279.773 221.086,273.467 220.796 C 261.084 220.228,258.586 220.170,258.311 220.444 M257.968 227.600 C 257.969 229.360,258.012 230.045,258.064 229.123 C 258.117 228.200,258.116 226.760,258.063 225.923 C 258.011 225.085,257.968 225.840,257.968 227.600 M257.680 235.467 C 257.680 236.273,257.730 236.603,257.791 236.200 C 257.852 235.797,257.852 235.137,257.791 234.733 C 257.730 234.330,257.680 234.660,257.680 235.467 M257.406 241.867 C 257.406 242.527,257.458 242.797,257.522 242.467 C 257.585 242.137,257.585 241.597,257.522 241.267 C 257.458 240.937,257.406 241.207,257.406 241.867 M257.139 249.067 C 257.139 249.727,257.191 249.997,257.255 249.667 C 257.318 249.337,257.318 248.797,257.255 248.467 C 257.191 248.137,257.139 248.407,257.139 249.067 M256.880 256.533 C 256.880 257.340,256.930 257.670,256.991 257.267 C 257.052 256.863,257.052 256.203,256.991 255.800 C 256.930 255.397,256.880 255.727,256.880 256.533 " stroke="none" fill="#acac67" fill-rule="evenodd"></path></g></svg>