<svg xmlns="http://www.w3.org/2000/svg" viewBox="0 0 95 95">
  <g>
    <path d="M47.5,95A47.5,47.5,0,1,0,0,47.5,47.38582,47.38582,0,0,0,47.5,95Z" fill="#2775ca"/>
    <path d="M60.5625,55.02067c0-6.92692-4.15625-9.30192-12.46875-10.29135-5.9375-.79182-7.125-2.375-7.125-5.14615s1.97932-4.55192,5.9375-4.55192c3.5625,0,5.54183,1.1875,6.53125,4.15625a1.48855,1.48855,0,0,0,1.38558.98942h3.16635a1.3528,1.3528,0,0,0,1.38558-1.3851v-.19807a9.88777,9.88777,0,0,0-8.90625-8.11443v-4.75c0-.79182-.59375-1.38557-1.58318-1.58365H45.91683c-.79182,0-1.38557.59375-1.58365,1.58365v4.55193c-5.9375.79182-9.6976,4.75-9.6976,9.69807,0,6.53125,3.95818,9.10385,12.27068,10.09375,5.54182.98942,7.32307,2.17692,7.32307,5.34375s-2.77115,5.34375-6.53125,5.34375c-5.14615,0-6.9274-2.1774-7.52115-5.14615a1.44542,1.44542,0,0,0-1.38509-1.1875H35.42693a1.35279,1.35279,0,0,0-1.38509,1.38558v.19808c.79134,4.9476,3.95817,8.5101,10.48942,9.5v4.75c0,.79135.59375,1.3851,1.58318,1.58317h2.96875c.79183,0,1.38558-.59375,1.58365-1.58317v-4.75c5.9375-.9899,9.89567-5.14615,9.89567-10.4899Z" fill="#fff"/>
    <path d="M37.40625,75.80192a29.61645,29.61645,0,0,1,0-55.61442,1.98657,1.98657,0,0,0,1.1875-1.97933V15.4375a1.50436,1.50436,0,0,0-1.1875-1.58318,1.19182,1.19182,0,0,0-.79182.1976,35.61548,35.61548,0,0,0,0,67.88558,1.20327,1.20327,0,0,0,1.78125-.79183c.19807-.1976.19807-.39567.19807-.79135V77.58317A2.63623,2.63623,0,0,0,37.40625,75.80192Zm20.97933-61.75a1.20327,1.20327,0,0,0-1.78125.79183c-.19808.19808-.19808.39567-.19808.79183v2.77067a2.62518,2.62518,0,0,0,1.1875,1.97932,29.61645,29.61645,0,0,1,0,55.61442,1.98656,1.98656,0,0,0-1.1875,1.97933V80.75a1.50433,1.50433,0,0,0,1.1875,1.58317,1.19185,1.19185,0,0,0,.79183-.1976,35.76813,35.76813,0,0,0,0-68.08365Z" fill="#fff"/>
  </g>
</svg>
