<?xml version="1.0" encoding="utf-8"?>
<!-- Generator: Adobe Illustrator 25.3.1, SVG Export Plug-In . SVG Version: 6.00 Build 0)  -->
<svg version="1.1" id="Camada_1" xmlns="http://www.w3.org/2000/svg" xmlns:xlink="http://www.w3.org/1999/xlink" x="0px" y="0px"
	 viewBox="0 0 300 60" style="enable-background:new 0 0 300 60;" xml:space="preserve">
<style type="text/css">
	.st0{fill:#D4CBBA;}
</style>
<g id="Camada_2_1_">
	<g id="Camada_1-2">
		<g>
			<g>
				<g>
					<polygon class="st0" points="0.5,3.5 6.6,56.5 21.5,56.6 22.5,9.9 22.5,0.5 					"/>
					<path d="M21.5,57.1C21.5,57.1,21.5,57.1,21.5,57.1L6.6,57c-0.3,0-0.5-0.2-0.5-0.4L0,3.5C0,3.2,0.2,3,0.4,3l22-3
						c0.1,0,0.3,0,0.4,0.1C23,0.2,23,0.4,23,0.5v9.4L22,56.6C21.9,56.9,21.7,57.1,21.5,57.1z M7,56L21,56.1l1-46.2V1.1L1,3.9L7,56z"
						/>
				</g>
				<g>
					<polygon class="st0" points="280.1,21.6 280.1,0.5 299.5,2.5 294.2,56.5 280.1,54.2 					"/>
					<path d="M294.2,57C294.2,57,294.1,57,294.2,57l-14.1-2.3c-0.2,0-0.4-0.2-0.4-0.5V0.5c0-0.1,0.1-0.3,0.2-0.4
						C279.9,0,280,0,280.2,0l19.4,2c0.3,0,0.5,0.3,0.4,0.5l-5.3,54c0,0.1-0.1,0.3-0.2,0.3C294.4,57,294.3,57,294.2,57z M280.6,53.8
						l13.1,2.1L299,3l-18.3-1.9V53.8z"/>
				</g>
				<g>
					<polygon class="st0" points="14.3,59.5 285.8,59.5 291.4,9.9 9.9,9.9 					"/>
					<path d="M285.8,60H14.3c-0.3,0-0.5-0.2-0.5-0.5L9.4,10c0-0.1,0-0.3,0.1-0.4c0.1-0.1,0.2-0.2,0.4-0.2h281.5
						c0.1,0,0.3,0.1,0.4,0.2c0.1,0.1,0.1,0.2,0.1,0.4l-5.6,49.6C286.3,59.8,286.1,60,285.8,60z M14.8,59h270.6l5.5-48.6H10.5
						L14.8,59z"/>
				</g>
			</g>
			<g>
				<path d="M9.9,10.4c-0.2,0-0.3-0.1-0.4-0.2C9.4,10,9.4,9.7,9.6,9.5l12.6-9.4c0.2-0.2,0.5-0.1,0.7,0.1c0.2,0.2,0.1,0.5-0.1,0.7
					l-12.6,9.4C10.1,10.4,10,10.4,9.9,10.4z"/>
			</g>
			<g>
				<path d="M291.4,10.4c-0.1,0-0.2,0-0.3-0.1l-11.3-9.4c-0.2-0.2-0.2-0.5-0.1-0.7c0.2-0.2,0.5-0.2,0.7-0.1l11.3,9.4
					c0.2,0.2,0.2,0.5,0.1,0.7C291.7,10.4,291.6,10.4,291.4,10.4z"/>
			</g>
		</g>
	</g>
</g>
</svg>
