<svg xmlns="http://www.w3.org/2000/svg" viewBox="0 0 151.77557 145.62489">
  <g>
    <g>
      <path d="M150.35894,109.74183A47.31672,47.31672,0,1,1,115.89152,52.374,47.32066,47.32066,0,0,1,150.35894,109.74183Z" fill="#f7931a"/>
      <path d="M125.31674,91.54814c.94222-6.29827-3.85322-9.68407-10.41034-11.94275l2.127-8.53181-5.19334-1.29426-2.07082,8.307c-1.36527-.34021-2.76751-.66119-4.16089-.97921l2.08562-8.3617-5.19038-1.29427L100.37511,75.98c-1.13008-.25737-2.23945-.51179-3.31628-.77952l.00591-.02662-7.1621-1.78831-1.38153,5.54686s3.85321.88306,3.77186.93779a2.76351,2.76351,0,0,1,2.41991,3.02045L92.29,92.61018a4.30029,4.30029,0,0,1,.53989.17306c-.17306-.0429-.35795-.09023-.54877-.13608L88.885,106.26284a1.89037,1.89037,0,0,1-2.38,1.23362c.05177.07543-3.77482-.94223-3.77482-.94223L80.152,112.499l6.75829,1.68477c1.25729.31506,2.48943.64491,3.70234.95554l-2.14922,8.62942,5.18742,1.29427,2.12851-8.53772c1.417.38458,2.79266.73958,4.1387,1.07387l-2.12112,8.49779,5.19334,1.29426,2.14922-8.61316c8.85574,1.67589,15.51492.99991,18.31793-7.00974,2.25869-6.44915-.11241-10.16924-4.77177-12.59506C122.07884,98.39074,124.63483,96.15868,125.31674,91.54814ZM113.4509,108.18723c-1.60489,6.44915-12.46341,2.96276-15.98382,2.08857l2.85182-11.43244C103.83931,99.722,115.12827,101.46148,113.4509,108.18723ZM115.05727,91.455c-1.46437,5.86636-10.502,2.88585-13.43375,2.15514l2.58558-10.36892C107.14079,83.97187,116.58228,85.33566,115.05727,91.455Z" fill="#fff"/>
    </g>
    <g>
      <circle cx="47.5" cy="47.5" r="47.5" fill="#fc0"/>
      <g>
        <path d="M67.57831,60.11038c-.27427.32561-.4832.614-.73173.86279q-9.258,9.26859-18.50847,18.54457c-.71313.71923-1.11657.61263-1.7703-.04551q-9.16708-9.22884-18.399-18.393c-.74683-.74028-.75548-1.18609.00448-1.90725,1.873-1.77737,3.70864-3.59883,5.47491-5.48172.78127-.83287,1.24114-.81507,2.03857.00484,3.3015,3.39455,6.6778,6.71637,10.027,10.06452,1.7591,1.75856,1.75978,1.75852,3.58153-.06318,3.30524-3.30516,6.63749-6.58407,9.89581-9.93485.81861-.84183,1.30089-.9663,2.15567-.03414,1.70264,1.85678,3.5425,3.58756,5.32026,5.37578C66.96407,59.402,67.2338,59.728,67.57831,60.11038Z" fill="#fefefe"/>
        <path d="M67.45653,34.979c-.19279.21693-.42026.49928-.67464.75484-1.77807,1.78637-3.63541,3.50109-5.3158,5.3747-1.00157,1.11674-1.56091.81666-2.45095-.09771C55.585,37.487,52.04691,34.068,48.62447,30.53685c-.913-.942-1.434-.89173-2.31985.01981-3.4273,3.52658-6.98727,6.9252-10.38,10.48379-1.05933,1.11112-1.62286.95206-2.55251-.057-1.66473-1.807-3.42357-3.53192-5.21217-5.21786-.78054-.73573-.70056-1.1882.02538-1.90823q9.166-9.09139,18.25533-18.25979c.78689-.79462,1.24634-.8286,2.05224-.01421,6.05388,6.11759,12.15591,12.18752,18.23547,18.27974C67.01778,34.15312,67.43111,34.37721,67.45653,34.979Z" fill="#fefefe"/>
        <path d="M29.28522,47.50778c-.18413.21962-.35671.459-.56231.66547-1.98949,1.99791-4.00284,3.97252-5.96645,5.99544-.56335.58037-.93383.56752-1.48748-.0001q-2.95285-3.02739-5.98236-5.97944c-.61781-.59959-.4553-.97819.07349-1.49643,1.96983-1.93055,3.90645-3.895,5.86072-5.84145.38059-.37908.71636-.89025,1.34137-.25553,2.10721,2.14,4.24135,4.25337,6.36016,6.382A4.01231,4.01231,0,0,1,29.28522,47.50778Z" fill="#fefefd"/>
        <path d="M54.92764,47.48627c-.26047.29846-.479.57931-.72821.82957-1.95179,1.9599-3.93831,3.88634-5.84985,5.88458-.67941.71023-1.098.68223-1.76337-.01151-1.91414-1.99585-3.87652-3.947-5.8651-5.869-.62282-.602-.68192-.99271-.02858-1.62641,2.02917-1.96813,4.00836-3.98828,5.98515-6.00956.49852-.50974.87-.74942,1.49151-.1087,2.054,2.11749,4.16115,4.18343,6.24347,6.27357C54.57923,47.016,54.71191,47.217,54.92764,47.48627Z" fill="#fefefe"/>
        <path d="M80.1094,47.32021c.0292.5078-.32215.71034-.57111.96093-1.94412,1.95665-3.92341,3.87919-5.83366,5.86816-.66387.69123-1.05685.49376-1.62227-.08751C70.202,52.12874,68.30681,50.2081,66.35683,48.346c-.70976-.67777-.6762-1.095.01346-1.75569,1.947-1.8653,3.83307-3.79453,5.73158-5.71.459-.46306.82051-.874,1.48129-.194,2.00737,2.066,4.06477,4.08327,6.09883,6.12336C79.851,46.97921,79.991,47.17759,80.1094,47.32021Z" fill="#fefefd"/>
      </g>
    </g>
  </g>
</svg>
