<svg xmlns="http://www.w3.org/2000/svg" viewBox="0 0 151.76858 145.67758">
  <g>
    <g>
      <path d="M150.35195,109.79451a47.31672,47.31672,0,1,1-34.46742-57.3678A47.32066,47.32066,0,0,1,150.35195,109.79451Z" fill="#f7931a"/>
      <path d="M125.30975,91.60083c.94222-6.29827-3.85322-9.68408-10.41034-11.94276l2.127-8.5318L111.8331,69.832l-2.07083,8.307c-1.36526-.3402-2.7675-.66118-4.16088-.9792l2.08562-8.3617-5.19038-1.29427-2.12851,8.52885c-1.13008-.25738-2.23945-.51179-3.31628-.77952l.00591-.02663-7.1621-1.7883-1.38153,5.54685s3.85321.88306,3.77186.93779a2.76352,2.76352,0,0,1,2.41991,3.02045L92.283,92.66286a4.302,4.302,0,0,1,.53989.17306c-.17306-.04289-.358-.09023-.54877-.13608L88.878,106.31552a1.89036,1.89036,0,0,1-2.38,1.23362c.05177.07544-3.77482-.94222-3.77482-.94222L80.145,112.55167l6.75829,1.68476c1.25729.31507,2.48943.64492,3.70234.95554l-2.14922,8.62943,5.18742,1.29427,2.12851-8.53772c1.417.38458,2.79266.73958,4.1387,1.07387l-2.12112,8.49778,5.19334,1.29427,2.14922-8.61316c8.85574,1.67589,15.51492.99991,18.31793-7.00975,2.25868-6.44914-.11241-10.16923-4.77177-12.59506C122.07185,98.44343,124.62784,96.21137,125.30975,91.60083Zm-11.86584,16.63909c-1.60489,6.44914-12.46341,2.96276-15.98382,2.08857l2.85182-11.43244C103.83232,99.77468,115.12128,101.51417,113.44391,108.23992Zm1.60637-16.73228c-1.46437,5.86635-10.502,2.88584-13.43375,2.15514l2.58557-10.36892C107.1338,84.02456,116.57529,85.38835,115.05028,91.50764Z" fill="#fff"/>
    </g>
    <g>
      <circle cx="47.5" cy="47.5" r="47.5" fill="#f0b90c"/>
      <g>
        <path d="M47.40515,79.46386c-.33737-.31028-.61409-.54754-.87145-.8042-2.09248-2.08678-4.15557-4.204-6.286-6.25124-.69914-.67186-.68172-1.06921.00282-1.751Q55.49649,55.47323,70.68142,40.22788c.70672-.70949,1.13932-.8498,1.89966-.04975,2.03513,2.14142,4.135,4.22368,6.26585,6.2704.70553.67768.678,1.08442-.00465,1.76447Q63.53238,63.46464,48.26393,78.7579C48.0129,79.00874,47.71421,79.21189,47.40515,79.46386Z" fill="#fefefe"/>
        <path d="M59.53319,27.3067c.31609.26581.61207.48054.86812.73539,2.14069,2.13064,4.25267,4.29074,6.42265,6.391.65008.6292.5957,1.00413-.023,1.62078Q51.47677,51.32648,36.204,66.65062c-.60237.60436-.96929.70794-1.61021.04314-2.05317-2.12966-4.13184-4.2383-6.28123-6.26982-.83387-.78814-.80807-1.22775.00424-2.02592,4.61628-4.53594,9.17225-9.13324,13.74873-13.70967q8.1723-8.17221,16.34633-16.34265C58.75677,28.00112,59.127,27.68187,59.53319,27.3067Z" fill="#fefefe"/>
        <path d="M35.35,43.2899c-.32876-.29776-.60827-.53065-.86486-.78651-2.09137-2.08542-4.14452-4.21084-6.28441-6.24509-.79915-.7597-.65047-1.19309.055-1.893Q37.428,25.26435,46.52757,16.09039c.75156-.75835,1.204-.72573,1.91992.01962,2.04551,2.1296,4.144,4.20948,6.26088,6.26863.61425.5975.68275,1.00172.03837,1.64212q-9.36143,9.30335-18.6805,18.64932C35.85942,42.87668,35.62373,43.05439,35.35,43.2899Z" fill="#fefefe"/>
        <path d="M23.45615,55.17044c-.57053-.03828-.795-.4493-1.08735-.739-2.05584-2.03742-4.06748-4.12065-6.16112-6.1181-.76642-.73121-.762-1.18082.00183-1.90981,2.09327-1.99785,4.13435-4.05248,6.14247-6.1363.68821-.71416,1.1469-.86365,1.91033-.06263,2.03876,2.13916,4.16358,4.19626,6.25221,6.288.42712.42775.98507.78114.26783,1.48255-2.28927,2.23875-4.53762,4.51933-6.8063,6.77921A5.50468,5.50468,0,0,1,23.45615,55.17044Z" fill="#fefefe"/>
      </g>
    </g>
  </g>
</svg>
