<?xml version="1.0" encoding="UTF-8" standalone="no"?>
<svg
   xmlns:dc="http://purl.org/dc/elements/1.1/"
   xmlns:cc="http://creativecommons.org/ns#"
   xmlns:rdf="http://www.w3.org/1999/02/22-rdf-syntax-ns#"
   xmlns:svg="http://www.w3.org/2000/svg"
   xmlns="http://www.w3.org/2000/svg"
   xmlns:sodipodi="http://sodipodi.sourceforge.net/DTD/sodipodi-0.dtd"
   xmlns:inkscape="http://www.inkscape.org/namespaces/inkscape"
   width="64"
   height="64"
   fill="none"
   version="1.1"
   id="svg17"
   sodipodi:docname="bunny-question.svg"
   inkscape:version="1.0.1 (3bc2e813f5, 2020-09-07)">
  <defs
     id="defs21">
    <clipPath
       clipPathUnits="userSpaceOnUse"
       id="clipPath3201-4">
      <rect
         style="opacity:1;fill:#ffffff;fill-opacity:1;stroke:none;stroke-width:3.20266;stroke-linecap:round;stroke-linejoin:round;stroke-miterlimit:4;stroke-dasharray:none;stroke-opacity:1"
         id="rect3203-9"
         width="172.32408"
         height="55.008789"
         x="433.53275"
         y="-103.58672"
         transform="matrix(1,0,0.46622809,0.88466455,0,0)" />
    </clipPath>
    <clipPath
       clipPathUnits="userSpaceOnUse"
       id="clipPath3205-2">
      <rect
         style="opacity:1;fill:#ffffff;fill-opacity:1;stroke:none;stroke-width:3.20266;stroke-linecap:round;stroke-linejoin:round;stroke-miterlimit:4;stroke-dasharray:none;stroke-opacity:1"
         id="rect3207-06"
         width="172.32405"
         height="55.008789"
         x="433.53275"
         y="-103.58672"
         transform="matrix(1,0,0.46622809,0.88466455,0,0)" />
    </clipPath>
    <clipPath
       clipPathUnits="userSpaceOnUse"
       id="clipPath3201-8-3-6">
      <rect
         style="opacity:1;fill:#ffffff;fill-opacity:1;stroke:none;stroke-width:3.20266;stroke-linecap:round;stroke-linejoin:round;stroke-miterlimit:4;stroke-dasharray:none;stroke-opacity:1"
         id="rect3203-4-6-1"
         width="172.32408"
         height="55.008789"
         x="433.53275"
         y="-103.58672"
         transform="matrix(1,0,0.46622809,0.88466455,0,0)" />
    </clipPath>
    <clipPath
       clipPathUnits="userSpaceOnUse"
       id="clipPath3205-5-5-1">
      <rect
         style="opacity:1;fill:#ffffff;fill-opacity:1;stroke:none;stroke-width:3.20266;stroke-linecap:round;stroke-linejoin:round;stroke-miterlimit:4;stroke-dasharray:none;stroke-opacity:1"
         id="rect3207-0-6-5"
         width="172.32405"
         height="55.008789"
         x="433.53275"
         y="-103.58672"
         transform="matrix(1,0,0.46622809,0.88466455,0,0)" />
    </clipPath>
    <clipPath
       clipPathUnits="userSpaceOnUse"
       id="clipPath903">
      <path
         d="M 64,32 C 64,49.673 49.673,64 32,64 14.327,64 0,49.673 0,32 0,14.327 14.327,0 32,0 49.673,0 64,14.327 64,32 Z"
         fill="#e9eaeb"
         id="path905" />
    </clipPath>
    <clipPath
       clipPathUnits="userSpaceOnUse"
       id="clipPath3201-4-3">
      <rect
         style="opacity:1;fill:#ffffff;fill-opacity:1;stroke:none;stroke-width:3.20266;stroke-linecap:round;stroke-linejoin:round;stroke-miterlimit:4;stroke-dasharray:none;stroke-opacity:1"
         id="rect3203-9-6"
         width="172.32408"
         height="55.008789"
         x="433.53275"
         y="-103.58672"
         transform="matrix(1,0,0.46622809,0.88466455,0,0)" />
    </clipPath>
    <clipPath
       clipPathUnits="userSpaceOnUse"
       id="clipPath3205-2-7">
      <rect
         style="opacity:1;fill:#ffffff;fill-opacity:1;stroke:none;stroke-width:3.20266;stroke-linecap:round;stroke-linejoin:round;stroke-miterlimit:4;stroke-dasharray:none;stroke-opacity:1"
         id="rect3207-06-5"
         width="172.32405"
         height="55.008789"
         x="433.53275"
         y="-103.58672"
         transform="matrix(1,0,0.46622809,0.88466455,0,0)" />
    </clipPath>
    <clipPath
       clipPathUnits="userSpaceOnUse"
       id="clipPath3201-8-3-6-3">
      <rect
         style="opacity:1;fill:#ffffff;fill-opacity:1;stroke:none;stroke-width:3.20266;stroke-linecap:round;stroke-linejoin:round;stroke-miterlimit:4;stroke-dasharray:none;stroke-opacity:1"
         id="rect3203-4-6-1-5"
         width="172.32408"
         height="55.008789"
         x="433.53275"
         y="-103.58672"
         transform="matrix(1,0,0.46622809,0.88466455,0,0)" />
    </clipPath>
    <clipPath
       clipPathUnits="userSpaceOnUse"
       id="clipPath3205-5-5-1-6">
      <rect
         style="opacity:1;fill:#ffffff;fill-opacity:1;stroke:none;stroke-width:3.20266;stroke-linecap:round;stroke-linejoin:round;stroke-miterlimit:4;stroke-dasharray:none;stroke-opacity:1"
         id="rect3207-0-6-5-2"
         width="172.32405"
         height="55.008789"
         x="433.53275"
         y="-103.58672"
         transform="matrix(1,0,0.46622809,0.88466455,0,0)" />
    </clipPath>
  </defs>
  <sodipodi:namedview
     pagecolor="#ffffff"
     bordercolor="#666666"
     borderopacity="1"
     objecttolerance="10"
     gridtolerance="10"
     guidetolerance="10"
     inkscape:pageopacity="0"
     inkscape:pageshadow="2"
     inkscape:window-width="1920"
     inkscape:window-height="1043"
     id="namedview19"
     showgrid="false"
     inkscape:zoom="2.3947718"
     inkscape:cx="-151.17277"
     inkscape:cy="68.96888"
     inkscape:window-x="1920"
     inkscape:window-y="0"
     inkscape:window-maximized="1"
     inkscape:current-layer="svg17"
     inkscape:document-rotation="0" />
  <metadata
     id="metadata2">
    <rdf:RDF>
      <cc:Work
         rdf:about="">
        <dc:format>image/svg+xml</dc:format>
        <dc:type
           rdf:resource="http://purl.org/dc/dcmitype/StillImage" />
        <dc:title />
      </cc:Work>
    </rdf:RDF>
  </metadata>
  <path
     d="M64 32c0 17.673-14.327 32-32 32S0 49.673 0 32 14.327 0 32 0s32 14.327 32 32z"
     fill="#e9eaeb"
     id="path4" />
  <path
     d="m 29.563084,21.300297 v -0.711894 c 0,-1.001396 0.201703,-1.839058 0.600364,-2.515358 0.427137,-0.676299 0.989532,-1.340733 1.689561,-1.990929 a 17.738022,17.738022 0 0 1 1.914995,-1.614813 c 0.626466,-0.450867 1.13903,-0.925462 1.540063,-1.427347 a 2.7407912,2.7407912 0 0 0 0.601551,-1.765497 c 0,-0.976482 -0.350015,-1.6646458 -1.05123,-2.0644912 -0.6763,-0.4271373 -1.81533,-0.6383319 -3.41709,-0.6383319 A 11.983546,11.983546 0 0 0 28.324389,8.9845343 C 27.298076,9.2336976 26.42126,9.559981 25.695128,9.9610147 V 4.8863985 c 0.925461,-0.450866 2.017032,-0.813932 3.267592,-1.0891976 1.276663,-0.2752657 2.667229,-0.4128984 4.169325,-0.4128984 2.904527,0 5.12089,0.6383314 6.647902,1.9149944 1.527013,1.2517463 2.289925,2.978089 2.289925,5.1825871 0,1.40243 -0.288317,2.541461 -0.863764,3.417091 -0.575448,0.851899 -1.414296,1.727529 -2.515358,2.629261 l -2.32908,2.017032 c -0.626467,0.550531 -0.937326,1.301579 -0.937326,2.254331 v 0.488833 h -5.858886 z m -0.2634,6.647903 v -4.356792 h 6.347719 V 27.9482 Z"
     id="path9"
     style="fill:none;fill-opacity:0.335752;stroke:#c4c4c4;stroke-width:1.18649;stroke-opacity:0.513135" />
  <mask
     id="A"
     x="3"
     y="3"
     width="58"
     height="58"
     mask-type="alpha"
     maskUnits="userSpaceOnUse">
    <path
       d="M60.667 32c0 15.832-12.834 28.667-28.667 28.667S3.333 47.832 3.333 32 16.168 3.333 32 3.333 60.667 16.168 60.667 32z"
       fill="#c4c4c4"
       id="path6" />
  </mask>
  <path
     d="m 63.986,32.97 -2,-0.06 L 62,32 l -0.014,-0.91 2,-0.06 L 64,32 Z m -0.115,-3.867 -1.992,0.18 -0.216,-1.8 1.978,-0.298 z m -0.577,-3.82 -1.956,0.418 -0.432,-1.76 1.927,-0.536 0.46,1.878 z m -1.036,-3.724 -1.89,0.652 -0.642,-1.693 1.847,-0.766 0.686,1.807 z m -1.48,-3.57 -1.798,0.877 -0.843,-1.604 1.74,-0.984 0.9,1.71 z m -1.902,-3.365 -1.678,1.087 -1.03,-1.49 1.6,-1.187 1.1,1.6 z m -2.293,-3.11 -1.536,1.28 -1.203,-1.357 1.456,-1.37 1.282,1.447 z M 53.934,8.7 l -1.37,1.456 -1.357,-1.203 1.28,-1.536 z m -2.968,-2.476 -1.187,1.6 -1.49,-1.03 1.087,-1.68 1.6,1.1 z m -3.243,-2.1 -0.984,1.74 -1.604,-0.844 0.877,-1.798 1.71,0.9 z M 44.25,2.428 43.484,4.275 41.791,3.632 42.443,1.742 Z m -3.653,-1.26 -0.536,1.927 -1.76,-0.432 0.418,-1.956 1.878,0.46 z m -3.781,-0.808 -0.3,1.978 -1.8,-0.216 0.18,-1.992 1.918,0.23 z M 32.97,0.014 32,0 l -0.97,0.014 0.06,2 L 32,2 32.91,2.014 Z m -3.868,0.116 0.18,1.992 -1.8,0.216 -0.298,-1.978 z m -3.82,0.577 0.418,1.956 -1.76,0.432 -0.536,-1.927 1.878,-0.46 z m -3.724,1.036 0.652,1.89 -1.693,0.643 -0.766,-1.847 z m -3.57,1.48 0.877,1.798 -1.604,0.844 -0.984,-1.74 1.71,-0.9 z m -3.365,1.902 1.087,1.68 -1.49,1.03 -1.187,-1.6 1.6,-1.1 z m -3.11,2.293 1.28,1.536 -1.357,1.203 -1.37,-1.456 1.447,-1.282 z m -2.813,2.648 1.456,1.37 -1.203,1.357 -1.536,-1.28 z m -2.476,2.968 1.6,1.187 -1.03,1.49 -1.68,-1.087 1.1,-1.6 z m -2.1,3.243 1.74,0.984 -0.844,1.604 -1.798,-0.877 0.9,-1.71 z m -1.696,3.473 1.847,0.766 -0.643,1.693 -1.89,-0.652 z m -1.26,3.653 1.927,0.536 -0.432,1.76 -1.956,-0.418 0.46,-1.878 z m -0.808,3.78 1.978,0.298 -0.216,1.8 -1.992,-0.18 z M 0.014,31.03 0,32 l 0.014,0.97 2,-0.06 L 2,32 2.014,31.09 Z m 0.115,3.867 1.992,-0.18 0.216,1.8 -1.978,0.3 -0.23,-1.918 z m 0.577,3.82 1.956,-0.418 0.432,1.76 -1.927,0.536 -0.46,-1.878 z m 1.036,3.723 1.89,-0.652 0.643,1.693 -1.847,0.766 z m 1.48,3.57 1.798,-0.877 0.844,1.604 -1.74,0.984 -0.9,-1.71 z m 1.902,3.365 1.68,-1.087 1.03,1.49 -1.6,1.187 -1.1,-1.6 z m 2.293,3.11 1.536,-1.28 1.203,1.357 -1.456,1.37 -1.282,-1.447 z m 2.65,2.814 1.37,-1.456 1.357,1.203 -1.28,1.536 -1.447,-1.282 z m 2.968,2.476 1.187,-1.6 1.49,1.03 -1.087,1.678 -1.6,-1.1 z m 3.243,2.1 0.984,-1.74 1.604,0.843 -0.877,1.798 -1.71,-0.9 z m 3.474,1.694 0.766,-1.847 1.693,0.642 -0.652,1.89 -1.807,-0.686 z m 3.653,1.26 0.536,-1.927 1.76,0.432 -0.418,1.956 -1.878,-0.46 z m 3.78,0.808 0.298,-1.978 1.8,0.216 -0.18,1.992 z m 3.847,0.346 0.06,-2 L 32,62 l 0.91,-0.014 0.06,2 L 32,64 c -0.324,0 -0.647,-0.005 -0.97,-0.014 z m 3.867,-0.115 -0.18,-1.992 1.8,-0.216 0.3,1.978 -1.918,0.23 z m 3.82,-0.577 -0.418,-1.956 1.76,-0.432 0.536,1.927 -1.878,0.46 z m 3.723,-1.036 -0.652,-1.89 1.693,-0.642 0.766,1.847 -1.807,0.686 z m 3.57,-1.48 -0.877,-1.798 1.604,-0.843 0.984,1.74 -1.71,0.9 z m 3.365,-1.902 -1.087,-1.678 1.49,-1.03 1.187,1.6 -1.6,1.1 z m 3.11,-2.293 -1.28,-1.536 1.357,-1.203 1.37,1.456 -1.447,1.282 z m 2.814,-2.65 -1.456,-1.37 1.203,-1.357 1.536,1.28 -1.282,1.447 z m 2.476,-2.968 -1.6,-1.187 1.03,-1.49 1.678,1.087 -1.1,1.6 z m 2.1,-3.243 -1.74,-0.984 0.843,-1.604 1.798,0.877 -0.9,1.71 z m 1.694,-3.474 -1.847,-0.766 0.642,-1.693 1.89,0.652 -0.686,1.807 z m 1.26,-3.653 -1.927,-0.536 0.432,-1.76 1.956,0.418 -0.46,1.878 z m 0.808,-3.78 -1.978,-0.3 0.216,-1.8 1.992,0.18 -0.23,1.918 z"
     fill-rule="evenodd"
     id="path11"
     style="fill:#bdc2c4" />
  <g
     id="g1109-4-0-3-8-6-8-3"
     transform="matrix(0.08972441,0,0,0.08972441,-28.910246,66.525006)"
     style="font-style:normal;font-variant:normal;font-weight:bold;font-stretch:normal;font-size:12.7845px;line-height:0.8;font-family:Waree;-inkscape-font-specification:'Waree Bold';letter-spacing:-1.52938px;display:inline;opacity:0.552569;fill:#767676;fill-opacity:1;stroke:#aeaeae;stroke-width:0.319612;stroke-opacity:1">
    <path
       style="fill:#767676;fill-opacity:1;stroke:#aeaeae;stroke-width:4;stroke-linecap:round;stroke-linejoin:round;stroke-miterlimit:4;stroke-dasharray:none;stroke-opacity:1"
       d="m 566.23063,-385.63946 c 0,-0.16105 6.78289,-2.77871 10.52158,-4.90442 l 6.79763,-3.86492 h 95.75741 95.75745 l -5.22619,4.12572 -5.22618,4.12573 -97.32885,0.032 c -53.5309,0.0176 -101.05285,0.64693 -101.05285,0.48588 z"
       id="path1097-7-8-1-2-7-6-7"
       sodipodi:nodetypes="sscccccss" />
    <path
       style="fill:#767676;fill-opacity:1;stroke:#aeaeae;stroke-width:3;stroke-linecap:round;stroke-linejoin:round;stroke-miterlimit:4;stroke-dasharray:none;stroke-opacity:1"
       d="m 754.85876,-109.80684 c -0.991,-24.72562 -4.65114,-40.92172 -13.32206,-58.95018 -7.22424,-15.02046 -18.98277,-29.87265 -30.50747,-38.53392 -2.75177,-2.06807 -4.99798,-3.93905 -4.99157,-4.15774 0.0159,-0.54574 21.49469,-12.87084 22.42976,-12.87084 0.41275,0 1.15279,0.88307 1.64457,1.96238 1.89201,4.15254 5.06841,7.25991 12.46674,12.19587 14.19545,9.47081 24.57273,21.10208 32.49015,36.41626 8.12829,15.72205 11.69656,30.04843 12.35125,49.58918 l 0.43053,12.85119 -10.48523,5.99237 c -5.76688,3.29581 -11.38819,6.612545 -12.49182,7.37054 -1.27738,0.877329 -3.36526,1.378161 -5.74532,1.378161 h -3.73875 z"
       id="path1101-8-8-8-5-7-0-1" />
    <path
       style="fill:#767676;fill-opacity:1;stroke:#aeaeae;stroke-width:3;stroke-linecap:round;stroke-linejoin:round;stroke-miterlimit:4;stroke-dasharray:none;stroke-opacity:1"
       d="m 693.93077,-225.26928 c 0,-2.40854 0.81439,-4.98324 2.83483,-8.96236 2.63321,-5.18594 3.42058,-6.02273 11.0713,-11.76602 4.53007,-3.40065 10.08817,-7.99349 12.35133,-10.20631 6.94582,-6.79122 15.75174,-19.19954 20.55625,-28.96552 9.40644,-19.12013 13.08484,-34.9279 14.11751,-60.66937 l 0.5231,-13.04018 h 8.3161 8.31606 l -0.44992,17.57589 c -0.38672,15.10717 -0.76523,19.23643 -2.69478,29.39796 -3.03398,15.97772 -4.25905,20.26737 -8.08273,28.30178 -3.78728,7.95795 -8.50853,13.21626 -16.72892,18.63188 -2.94029,1.93708 -6.34582,4.73491 -7.5678,6.21739 -2.60093,3.15539 -7.63066,13.04567 -8.27643,16.27451 -0.26186,1.30933 -1.06857,2.43731 -1.94122,2.71427 -0.82124,0.26066 -7.9184,4.19112 -15.77147,8.73438 -7.8531,4.54325 -14.79468,8.45859 -15.42576,8.70077 -0.92049,0.35322 -1.14745,-0.22809 -1.14745,-2.93907 z"
       id="path1099-4-5-9-3-4-4-2" />
    <path
       style="fill:#767676;fill-opacity:1;stroke:#aeaeae;stroke-width:3;stroke-linecap:round;stroke-linejoin:round;stroke-miterlimit:4;stroke-dasharray:none;stroke-opacity:1"
       d="m 575.78691,-102.81438 c -1.45309,-2.40923 2.19511,-31.89368 5.19128,-41.95536 6.8163,-22.89052 21.02832,-42.87191 39.3359,-55.30435 12.40972,-8.42729 15.69852,-13.63685 15.69852,-24.86696 0,-13.30841 -4.88881,-21.88655 -18.47699,-32.42069 -25.09864,-19.45754 -39.01996,-46.60928 -40.82272,-79.61952 l -0.83659,-15.31867 45.18721,-1.13322 c 45.37226,-1.13787 117.81856,-0.42346 119.41966,1.17762 0.47127,0.47128 0.12335,8.14551 -0.77327,17.05384 -3.4702,34.47989 -18.57814,62.6996 -42.29439,79.00051 -11.11631,7.64059 -17.30568,18.5629 -17.30568,30.5391 0,11.30586 3.5269,17.29627 14.44466,24.53419 28.00385,18.5651 42.78331,46.69126 45.70238,86.97423 l 0.90387,12.47321 h -82.34497 c -45.28971,0 -82.65271,-0.51027 -83.02887,-1.13393 z m 141.83016,-23.43452 c -4.64053,-28.1268 -17.39604,-48.38653 -40.40574,-64.17693 -3.87477,-2.65906 -9.55318,-8.61218 -12.61867,-13.22916 -3.06551,-4.61698 -6.14021,-8.39451 -6.83268,-8.39451 -0.69244,0 -2.30973,2.03189 -3.59396,4.51531 -3.70822,7.17092 -11.18423,14.91433 -20.52048,21.25444 -4.75189,3.22695 -11.15772,8.78416 -14.23514,12.34932 -10.37288,12.01693 -20.43946,36.35249 -20.43946,49.41166 v 4.69546 h 59.85312 59.85314 z m -55.72829,-117.92857 c 5.37853,-10.4904 11.60074,-17.92202 20.83319,-24.88257 5.28566,-3.98497 12.16607,-10.30701 15.28982,-14.04898 6.0802,-7.28355 13.98717,-22.03547 12.57035,-23.4523 -1.84621,-1.84621 -86.165,26.21293 -86.36055,28.73858 -0.0641,0.82859 2.90277,3.71749 6.59315,6.41979 10.79902,7.90763 15.81443,13.43079 20.95621,23.07776 2.65634,4.98377 5.45267,9.06141 6.21411,9.06141 0.76142,0 2.5181,-2.21116 3.90372,-4.91369 z"
       id="path1095-5-0-6-4-0-6-2" />
    <path
       id="path861-0-9-4-9-6-7-0"
       style="fill:#a8a8a8;fill-opacity:1;stroke:#ececec;stroke-width:0.617699;stroke-opacity:1"
       d="m 581.76506,-408.61532 c -1.13874,0.0209 -2.25328,0.32931 -3.24168,0.89452 -0.48027,0.2124 -0.91149,0.46301 -1.29397,0.74621 l -29.59304,17.08371 c -1.69735,0.97992 -2.80961,2.58348 -3.21736,4.35374 h -0.23876 v 12.97182 12.97181 l 8.80206,0.17106 8.80255,0.17156 v 10.41849 c 0,17.96401 2.10513,31.82952 7.11533,46.86432 8.1388,24.4233 22.29663,43.80812 41.78713,57.2146 6.28973,4.32636 6.42112,4.46728 9.12656,9.78751 2.44005,4.79837 2.74887,5.87237 2.77969,9.66814 0.0307,3.77787 -0.17902,4.5732 -1.81851,6.90088 -1.19626,1.69838 -3.47829,3.58991 -6.43784,5.3361 -15.36279,9.06429 -29.49114,24.70141 -38.64467,42.77155 -3.03022,5.98197 -7.09734,16.72037 -8.99533,23.74997 -3.30779,12.25122 -4.37092,20.32817 -4.74027,36.01641 l -0.0656,2.79621 -14.25133,8.228439 c -1.47003,0.848873 -2.50053,2.165588 -3.01533,3.653006 l -0.44442,0.0088 -0.16793,12.336714 c -0.0925,6.785103 -0.031,12.692733 0.13589,13.127883 0.24559,0.64013 22.06324,0.7614 114.1331,0.6351 l 113.83026,-0.15607 v -0.91467 c 0.6097,-0.1493 1.2092,-0.38459 1.78025,-0.71417 l 30.86168,-17.816477 c 2.85539,-1.648471 4.05742,-5.059312 3.02771,-8.06514 l -0.7679,-18.661395 -4.72064,0.0816 c -8.2e-4,-18.01714 -2.11111,-31.88922 -7.16029,-47.04054 -8.82115,-26.47011 -25.25834,-47.80391 -46.36719,-60.1524 -2.19734,-1.2854 -4.44194,-3.23229 -5.50974,-4.75165 -1.61724,-2.30119 -1.8066,-3.01277 -1.8066,-6.67607 0,-3.7426 0.26318,-4.64628 2.74608,-9.52914 1.36493,-2.68434 2.22065,-3.79118 3.44525,-4.90616 1.22462,-1.11497 2.84429,-2.24147 5.65237,-4.86327 20.88269,-19.49723 23.24007,-28.36155 28.03292,-50.85581 3.31938,-15.57889 3.89385,-46.67711 3.89485,-64.94126 v -0.7338 l 13.16612,-12.05508 c 0.1479,-0.13538 0.28702,-0.27672 0.42013,-0.42168 l 3.25612,-1.68258 -0.0858,-23.7014 -7.42743,-0.0336 c -0.47421,-0.10161 -0.96504,-0.15878 -1.46968,-0.15865 l -209.70711,0.062 c -0.50694,-0.12157 -1.04291,-0.18992 -1.60763,-0.1912 z m 194.12045,14.09888 -11.48615,8.9793 H 658.14592 567.22639 l 15.45383,-8.92245 z m -3.97963,34.92707 c 0.035,2.92519 0.0587,6.07157 0.0661,9.28832 0.0136,5.83735 -0.0235,11.81793 -0.13073,16.71112 -0.10721,4.89321 -0.29224,8.72724 -0.54674,10.16631 -2.63858,14.91974 -4.42481,26.76808 -8.21708,36.42362 -3.79228,9.65554 -9.56842,17.12883 -20.26179,23.38255 -4.83937,2.83018 -7.18215,5.67062 -11.16987,13.52941 -1.99413,3.92991 -3.14976,7.1247 -3.67628,10.47533 -0.0142,1.7e-4 -0.0282,-7.8e-4 -0.0424,-5.2e-4 -1.14853,0.0211 -2.27279,0.3334 -3.26749,0.90795 l -30.59814,17.66559 c -0.32644,-1.02174 -0.39791,-2.18674 -0.39791,-4.18941 0,-3.75867 0.29335,-4.77907 2.77966,-9.66866 2.74654,-5.40137 2.85554,-5.51839 9.1612,-9.85572 19.4905,-13.40648 33.64831,-32.7913 41.78713,-57.2146 5.01152,-15.03875 7.1138,-29.00464 7.1148,-47.26223 l 5.3e-4,-10.02058 8.80203,-0.17156 z m -69.07588,5.34128 c 33.97025,0.003 38.24462,0.21326 38.50309,0.88676 0.5679,1.47998 -0.91474,23.88686 -1.97871,29.90309 -5.27571,29.83123 -22.37227,56.91401 -43.86088,69.48103 -4.80002,2.80716 -7.06945,5.56023 -11.04895,13.4028 -3.30491,6.51314 -4.29389,10.92557 -3.91551,17.46715 0.50477,8.7264 5.11056,15.85117 13.36249,20.67057 24.44551,14.27694 41.64994,42.2385 46.05663,74.85435 0.523,3.8709 1.02454,11.34654 1.11466,16.61242 l 0.1633,9.57461 -82.8208,0.15658 c -38.34037,0.0725 -70.85004,0.002 -80.34806,-0.15813 l 0.14055,-0.0811 -1.9699,0.0408 c -0.61026,-0.0187 -1.03667,-0.0383 -1.0573,-0.0589 -0.34071,-0.34072 -0.46242,-2.2839 -0.4258,-5.08651 l 0.22014,-5.71748 c 0.43539,-7.37363 1.43494,-16.79374 2.5895,-22.54126 6.14987,-30.61434 22.41711,-54.73912 46.08298,-68.34157 3.72764,-2.14254 8.07979,-7.02851 10.19162,-11.44168 3.30017,-6.8966 2.6144,-17.00647 -1.74355,-25.70385 -3.52036,-7.02574 -6.84972,-11.05319 -11.27736,-13.64258 -17.10198,-10.00161 -32.12428,-29.96514 -39.50663,-52.50067 -4.18603,-12.77838 -5.89442,-23.49663 -6.10455,-38.29741 l -0.13176,-9.26558 82.94481,-0.15658 c 18.87349,-0.0357 33.49659,-0.0578 44.81999,-0.0568 z m 6.12159,48.05649 c -2.18112,-0.0586 -84.31366,26.89739 -84.65633,27.78436 -0.49199,1.27345 5.3104,6.18581 11.83183,10.01644 4.7658,2.79938 6.0157,3.92003 9.72449,8.71885 3.86334,4.99882 9.68142,15.35057 10.58334,18.83089 0.22135,0.85423 0.83301,1.38958 1.5875,1.38958 0.93927,0 1.61816,-0.97887 2.89179,-4.16926 2.14026,-5.36115 5.12601,-10.3314 9.96166,-16.584 3.35193,-4.33411 4.63614,-5.44812 9.61441,-8.33902 10.2857,-5.97292 20.20927,-17.06585 26.90638,-30.07724 2.86149,-5.55936 3.26506,-7.52461 1.55493,-7.5706 z m 20.09851,80.61576 c 2.00258,5.72678 6.12296,10.50362 12.16205,14.03066 24.34836,14.22018 41.51074,42.09568 45.90624,74.62904 0.51946,3.84459 1.02172,11.32498 1.11157,16.57625 l 0.15452,8.92193 0.41494,0.003 -23.72206,13.696842 c -0.78193,0.451429 -1.43841,1.036114 -1.96059,1.707388 l -8.60981,-0.16795 v -10.4185 c 0,-17.99817 -2.10431,-31.82754 -7.14478,-46.95269 -8.31813,-24.96061 -23.42097,-45.33101 -42.81392,-57.88018 z m -70.87732,13.92369 c -0.5705,0.002 -1.99843,2.04834 -3.55584,5.09633 -4.46675,8.74174 -11.3927,15.7291 -20.65973,20.84421 -5.00954,2.76507 -14.7379,12.34018 -18.96475,18.66604 -3.9502,5.91184 -8.68923,15.36259 -10.77349,21.48448 -3.09099,9.07874 -5.89976,22.44234 -5.13561,24.43365 v 5.2e-4 c 0.52197,1.35961 117.6093,1.34379 118.13129,-0.0165 0.80143,-2.08848 -2.66202,-17.73435 -5.74693,-25.96173 -2.32593,-6.20324 -6.66364,-14.69175 -10.25364,-20.06595 -4.15427,-6.21892 -13.90872,-15.79712 -18.88204,-18.54047 -9.49161,-5.23572 -16.95527,-12.85539 -21.10621,-21.54701 -1.26545,-2.64964 -2.47851,-4.39537 -3.05305,-4.39353 z" />
    <g
       id="g1062-3-6-3-0-4-6-2"
       style="opacity:1;fill:#767676;fill-opacity:1;stroke:#aeaeae;stroke-opacity:1"
       transform="translate(35.924652,-182.25446)" />
  </g>
</svg>
