<svg xmlns="http://www.w3.org/2000/svg" viewBox="0 0 262.49128 285.94161">
  <g>
    <circle cx="135.99714" cy="159.44747" r="124.99414" fill="#ed1c24" stroke="#000" stroke-miterlimit="10" stroke-width="3"/>
    <circle cx="126.49414" cy="157.44747" r="124.99414" fill="#ed1c24" stroke="#000" stroke-miterlimit="10" stroke-width="3"/>
    <path d="M241.24517,133.31038H181.21575L223.462,91.06417a9.98228,9.98228,0,0,0,0-14.11707l-15.3988-15.3988a9.98228,9.98228,0,0,0-14.11707,0l-45.51245,45.51245V42.43557a9.98221,9.98221,0,0,0-9.98224-9.98224H116.67418a9.98221,9.98221,0,0,0-9.98224,9.98224v64.62518L61.17949,61.5483a9.98227,9.98227,0,0,0-14.11706,0L31.66362,76.9471a9.9823,9.9823,0,0,0,0,14.11707l42.24622,42.24621H11.74309a9.98221,9.98221,0,0,0-9.98224,9.98224v21.77722a9.98221,9.98221,0,0,0,9.98224,9.98224H80.44231L31.66362,223.83077a9.98221,9.98221,0,0,0,0,14.117l15.39881,15.39887a9.98228,9.98228,0,0,0,14.11706,0l45.51245-45.51245v64.10345a9.98221,9.98221,0,0,0,9.98224,9.98224H138.4514a9.98221,9.98221,0,0,0,9.98224-9.98224V207.83419l45.51245,45.51245a9.9823,9.9823,0,0,0,14.11707,0l15.3988-15.39887a9.98219,9.98219,0,0,0,0-14.117l-48.77868-48.77869h66.56189a9.98226,9.98226,0,0,0,9.98229-9.98224V143.29262A9.98226,9.98226,0,0,0,241.24517,133.31038Z" fill="#fcfcfc" stroke="#000" stroke-miterlimit="10" stroke-width="3"/>
    <circle cx="126.49414" cy="157.44747" r="97.77346" fill="#8b2100" stroke="#000" stroke-miterlimit="10" stroke-width="3"/>
    <circle cx="126.49416" cy="157.44747" r="92.09368" fill="#f2f2f2" stroke="#f15a24" stroke-miterlimit="10" stroke-width="3"/>
    <ellipse cx="108.40927" cy="63.40036" rx="51.12814" ry="31.0652" transform="translate(42.77597 170.4725) rotate(-88.81258)" fill="#ffe517" stroke="#000" stroke-miterlimit="10" stroke-width="3"/>
    <ellipse cx="183.87329" cy="69.49585" rx="51.12814" ry="31.0652" transform="translate(72.14315 231.22226) rotate(-76.06534)" fill="#ffe517" stroke="#000" stroke-miterlimit="10" stroke-width="3"/>
    <path d="M130.64128,67.813c-.37744,18.20964-9.65262,32.78555-20.7167,32.55622S90.19726,85.19213,90.5747,66.9825c.04239-2.04513,14.4103-1.31326,14.66708-3.25089.31481-2.37549-13.43011-7.38947-12.82676-9.55044q.59553-2.13293,1.36111-4.09928c3.70181-9.52063,10.21963-15.80683,17.51527-15.65561C122.35549,34.65561,131.01872,49.60334,130.64128,67.813Z"/>
    <path d="M199.77376,81.271c-3.72378,17.82881-15.52414,30.44776-26.35684,28.18521s-16.59561-18.54982-12.87183-36.37863c.41822-2.00236,15.726,1.52309,16.33515-.33413.74681-2.27691-13.1602-9.89656-12.16928-11.9095q.97806-1.98681,2.09261-3.77859c5.39147-8.67627,12.95529-13.65492,20.09836-12.163C197.73463,47.15486,203.49754,63.44213,199.77376,81.271Z"/>
    <path d="M43.83382,32.45333s72.44229-45.92649,85.22435-28.51091C136.1072,13.54674,43.83382,32.45333,43.83382,32.45333Z"/>
    <path d="M255.62287,50.27947S171.72027,32.08713,173.074,10.05881c.74657-12.14813,82.54886,40.22066,82.54886,40.22066"/>
    <ellipse cx="132.34376" cy="132.58834" rx="21.112" ry="11.27658" transform="translate(-13.07301 14.48456) rotate(-5.97027)" stroke="#000" stroke-miterlimit="10" stroke-width="3"/>
    <path d="M44.06655,146.27928l165.66168,9.7s-10.72052,92.36046-90.55178,84.57019C37.69017,232.59766,44.06655,146.27928,44.06655,146.27928Z" stroke="#000" stroke-miterlimit="10" stroke-width="3"/>
    <path d="M99.08634,235.27562s30.99045-118.15707,61.28239-45.07589C187.86948,256.547,99.08634,235.27562,99.08634,235.27562Z" fill="#b93b00" stroke="#000" stroke-miterlimit="10" stroke-width="2"/>
    <path d="M119.57032,236.04058s56.22132-86.86105,65.26689-46.49153C195.139,235.525,119.57032,236.04058,119.57032,236.04058Z" fill="#b93b00" stroke="#000" stroke-miterlimit="10" stroke-width="2"/>
    <path d="M114.36,236.93206c24.83759-28.596,67.78933-79.48459,70.424-47.383C189.51207,247.15874,114.36,236.93206,114.36,236.93206Z" fill="#b93b00"/>
    <polygon points="205.232 178.246 46.289 173.717 44.067 146.279 209.728 155.979 205.232 178.246" fill="#fff" stroke="#000" stroke-miterlimit="10" stroke-width="2"/>
    <line x1="67.99853" y1="147.46674" x2="74.25687" y2="174.51376" fill="#fff" stroke="#000" stroke-miterlimit="10" stroke-width="2"/>
    <line x1="99.73198" y1="149.53865" x2="103.26914" y2="173.9335" fill="#fff" stroke="#000" stroke-miterlimit="10" stroke-width="2"/>
    <line x1="130.92844" y1="151.77922" x2="130.92844" y2="175.496" fill="#fff" stroke="#000" stroke-miterlimit="10" stroke-width="2"/>
    <line x1="162.22782" y1="153.19796" x2="155.13468" y2="178.24597" fill="#fff" stroke="#000" stroke-miterlimit="10" stroke-width="2"/>
    <line x1="187.86948" y1="154.69935" x2="178.46954" y2="178.24597" fill="#fff" stroke="#000" stroke-miterlimit="10" stroke-width="2"/>
  </g>
</svg>
