<svg xmlns="http://www.w3.org/2000/svg" viewBox="0 0 200.30134 221.63119">
  <g>
    <g>
      <path d="M100.41847,70.9479s6.02029,38.45749,38.74291,7.8293c0,0-17.5357,25.022,12.69409,31.90816,0,0-17.26376,23.6601,13.00666,25.34171,0,0-37.09359,14.58041-14.27862,27.00807,0,0-21.74885,8.26626-5.03034,29.595,0,0-24.4145-12.99277-33.56779,0s-11.56691,24.2365-11.56691,24.2365S97.0394,201.12538,78.69589,201.875s-21.964,14.99165-21.964,14.99165,2.89635-21.23817-15.92989-26.48525-26.30846,5.60911-26.30846,5.60911,13.999-17.85229,4.34451-29.34589S.25323,155.78258.25323,155.78258s26.37731-6.90453,6.18349-34.42337c0,0,25.65276-2.81411,14.92568-27.33682,0,0,32.15117-2.38722,17.91081-20.87692,0,0,15.7239,14.793,27.57329-2.19757C66.8465,70.9479,83.28176,94.68467,100.41847,70.9479Z" fill="#ffba00" stroke="#000" stroke-miterlimit="10" stroke-width="2"/>
      <path d="M81.79222,91.18656s48.26537,1.01765,49.86452,53.20821c0,0-.14538,42.01413-49.86452,47.82923,0,0-45.93932,1.45378-50.88216-48.7015C30.91006,143.5225,28.584,94.53025,81.79222,91.18656Z" fill="#ffd61f" stroke="#000" stroke-miterlimit="10" stroke-width="2"/>
      <path d="M46.17471,155.73422s25.15032,17.44531,75.451,6.39661c0,0-48.4374,40.87287-70.20077,5.36879A54.23968,54.23968,0,0,1,46.17471,155.73422Z" stroke="#000" stroke-miterlimit="10" stroke-width="2"/>
      <g>
        <path d="M67.07205,176.78464s3.90622,5.541,12.195,3.69623c12.49836-2.78169,1.26408-10.90372-9.65212-6.58308C64.91349,175.75864,67.07205,176.78464,67.07205,176.78464Z" fill="#e73800" stroke="#000" stroke-miterlimit="10"/>
        <path d="M66.06882,176.88177A16.09984,16.09984,0,0,0,77.334,181.16585c7.5053-.35144-1.84739-10.15346-9.04182-8.07437C63.95087,174.34607,66.06882,176.88177,66.06882,176.88177Z" fill="#e73800" stroke="#000" stroke-miterlimit="10" stroke-width="3"/>
        <path d="M68.08251,177.01781a13.41382,13.41382,0,0,0,11.40144,3.24925c6.67775-1.39154-4.79863-7.9613-9.38224-6.664C66.15527,174.72,68.08251,177.01781,68.08251,177.01781Z" fill="#e73800"/>
      </g>
      <path d="M110.85917,169.82232c-38.75343,10.28716-60.61389-4.057-60.61389-4.057a39.18381,39.18381,0,0,1-4.07057-10.03106s26.168,17.59069,75.451,6.39661C121.62568,162.13083,112.83021,169.2991,110.85917,169.82232Z" fill="#fff" stroke="#000" stroke-miterlimit="10" stroke-width="2"/>
      <path d="M61.99427,134.64408s-1.51582,22.4498,15.85249,19.7628,1.4329-31.57051,1.4329-31.57051S62.0364,113.8724,61.99427,134.64408Z" fill="#fff" stroke="#000" stroke-miterlimit="10" stroke-width="2"/>
      <path d="M119.45262,137.93s1.51582,22.44981-15.85249,19.76281-1.4329-31.57052-1.4329-31.57052S119.41049,117.15832,119.45262,137.93Z" fill="#fff" stroke="#000" stroke-miterlimit="10" stroke-width="2"/>
      <path d="M62.93369,181.9191s5.25225,5.90308,19.64286,3.34439" fill="none" stroke="#000" stroke-miterlimit="10" stroke-width="2"/>
      <path d="M80.0151,125.35863c1.81349,4.16556,4.145,14.50611-3.83183,14.50777-2.4734.00051-3.88077-1.97864-4.64286-4.55137-.3113-1.05089,3.19043-6.94839,3.19043-6.94839s-3.98126,1.69733-3.99307.79688a30.91221,30.91221,0,0,1,.19027-3.95318C71.37033,121.55177,77.20341,118.90026,80.0151,125.35863Z" stroke="#000" stroke-miterlimit="10" stroke-width="2"/>
      <path d="M110.2241,129.5648c1.27263,4.36131,2.27885,14.91358-5.63423,13.90732-2.45364-.312-3.59966-2.45313-4.03057-5.10153-.176-1.0818,4.04282-6.48958,4.04282-6.48958s-4.16381,1.18067-4.06176.28595a30.91346,30.91346,0,0,1,.68825-3.89746C102.12963,124.69614,108.251,122.80292,110.2241,129.5648Z" stroke="#000" stroke-miterlimit="10" stroke-width="2"/>
      <path d="M54.99983,113.842s27.16223,1.17812,30.04208,15.18467C85.04191,129.02669,72.08258,115.151,54.99983,113.842Z"/>
      <path d="M121.62568,118.95418S97.99632,119.97907,95.491,132.16385C95.491,132.16385,106.76481,120.093,121.62568,118.95418Z"/>
      <line x1="54.99983" y1="159.96239" x2="56.72486" y2="168.86623" fill="#ffba00" stroke="#000" stroke-miterlimit="10" stroke-width="2"/>
      <line x1="64.4717" y1="162.90086" x2="64.4717" y2="171.28773" fill="#ffba00" stroke="#000" stroke-miterlimit="10" stroke-width="2"/>
      <line x1="73.24094" y1="164.63549" x2="72.51234" y2="172.80232" fill="#ffba00" stroke="#000" stroke-miterlimit="10" stroke-width="2"/>
      <line x1="81.52255" y1="165.55451" x2="81.01381" y2="173.43442" fill="#ffba00" stroke="#000" stroke-miterlimit="10" stroke-width="2"/>
      <line x1="89.17662" y1="166.34838" x2="89.17662" y2="173.29625" fill="#ffba00" stroke="#000" stroke-miterlimit="10" stroke-width="2"/>
      <line x1="97.27752" y1="165.85444" x2="97.27752" y2="172.58041" fill="#ffba00" stroke="#000" stroke-miterlimit="10" stroke-width="2"/>
      <line x1="104.53741" y1="165.03582" x2="104.68972" y2="171.28773" fill="#ffba00" stroke="#000" stroke-miterlimit="10" stroke-width="2"/>
      <line x1="111.59607" y1="164.07767" x2="110.85917" y2="169.82232" fill="#ffba00" stroke="#000" stroke-miterlimit="10" stroke-width="2"/>
    </g>
    <g>
      <path d="M141.29086.91562s76.56929,33.62061,53.77025,84.916c-24.50778,55.13985-82.83975,26.669-82.83975,26.669S77.00443,98.43672,80.73182,57.50276c0,0,11.15793,44.82155,61.49156,35.67429,0,0,24.4852-3.87839,26.55077-38.87583C168.77415,54.30122,173.4934,22.7662,141.29086.91562Z" fill="#e6e6e6" stroke="#000" stroke-miterlimit="10" stroke-width="2"/>
      <path d="M168.54547,72.08359s1.53428,7.26189-3.78946,2.57393c-1.24566-1.09691,0,0-1.6989-.17277-6.7461-.68605-10.09632-5.29756-7.3178-11.31973,1.19536-2.59084,1.94379,7.88951,10.86317,5.57052" fill="#e6e6e6" stroke="#000" stroke-miterlimit="10" stroke-width="2"/>
      <path d="M174.03382,56.35935s6.86044,2.454,4.11627,10.71729-7.38082,4.17874-8.46038,2.06876C168.075,65.98944,167.40206,54.30122,174.03382,56.35935Z" fill="#fff" stroke="#000" stroke-miterlimit="10" stroke-width="2"/>
      <path d="M172.24727,71.9454s-5.39209-6.05379-.71708-8.68587c1.75313-.987,2.861-.41949,3.561.6755.44781.70046-1.27758,3.11125-1.10142,3.97451.14141.69294,2.22163-.14279,2.26019.34274s.04177.79783.04177.79783S175.8213,72.64729,172.24727,71.9454Z"/>
      <path d="M160.0329,81.24635s6.35467,4.95592,15.952-1.90452S187.98338,76.712,187.98338,76.712s.686,1.08738-1.48642,2.48749" fill="none" stroke="#000" stroke-miterlimit="10" stroke-width="2"/>
      <path d="M188.08618,73.39611a8.54057,8.54057,0,0,1-.23078,4.51706" fill="none" stroke="#000" stroke-miterlimit="10" stroke-width="2"/>
      <path d="M166.7517,54.52367s-1.02907,1.94379,0,2.05813,10.06927-6.28873,13.4922-4.11626c0,0-5.58931-2.62865-10.16293.0956S166.7517,54.52367,166.7517,54.52367Z" stroke="#000" stroke-linecap="round" stroke-linejoin="round" stroke-width="2"/>
      <path d="M175.9849,104.72546s-6.16788-4.34494-5.43157,3.54456c0,0,3.36615,2.62984,4.85258-1.48643" fill="none" stroke="#000" stroke-miterlimit="10" stroke-width="2"/>
      <path d="M154.76,112.50063s1.20795-4.11627,4.18081-1.25775" fill="none" stroke="#000" stroke-miterlimit="10" stroke-width="2"/>
      <path d="M194.17953,62.75s-.25043,4.35679-2.30856,1.327-1.236-8.97547,1.15428-6.68865" fill="none" stroke="#000" stroke-miterlimit="10" stroke-width="2"/>
      <path d="M190.04152,45.72567s-3.26829-.11434-1.74849,4.688c0,0,.77733,2.85851,2.40632,1.71511s.94294-3.65891.94294-3.65891" fill="none" stroke="#000" stroke-miterlimit="10" stroke-width="2"/>
      <path d="M172.18573,81.91452s.34976,15.66086,9.74187,7.46062c0,0,4.47748-4.62787-3.12958-11.462Z" fill="#e93b00" stroke="#000" stroke-linecap="round" stroke-linejoin="round" stroke-width="2"/>
      <path d="M177.09956,83.11912a9.31436,9.31436,0,0,0,1.08991,4.30159" fill="#f7dd92" stroke="#000" stroke-linecap="round" stroke-linejoin="round" stroke-width="2"/>
    </g>
  </g>
</svg>
