<svg xmlns="http://www.w3.org/2000/svg" viewBox="0 0 328.54542 297.35687">
  <g>
    <g>
      <g>
        <path d="M112.60931,83.92887c11.357,31.37476,2.32471,65.56722-31.70818,75.73024C45.1977,170.321,16.65878,154.06933,5.30182,122.69456S7.29741,58.553,39.77394,46.04105C74.49377,32.66487,101.25235,52.55411,112.60931,83.92887Z" fill="#103f4f"/>
        <path d="M59.68731,164.207a57.29009,57.29009,0,0,1-26.30156-6.12039c-13.35792-6.826-23.4876-18.913-29.294-34.95387C-7.82225,90.2191,6.98966,57.29237,39.31131,44.83993c14.86823-5.72824,29.38552-5.72019,41.98125.02413,14.32322,6.5324,25.87522,20.2503,32.52678,38.62655,6.65759,18.39159,6.24683,37.334-1.12619,51.96965-6.22522,12.35792-17.09144,21.152-31.42422,25.432A75.48559,75.48559,0,0,1,59.68731,164.207ZM61.13225,43.06894A58.06982,58.06982,0,0,0,40.2364,47.24213C9.27874,59.16893-4.90421,90.71708,6.512,122.25643c5.58067,15.41674,15.27847,27.014,28.04514,33.53809,13.22017,6.75563,29.11855,7.66563,45.9752,2.63121,13.637-4.07213,23.96321-12.414,29.86163-24.12359,7.05578-14.006,7.4223-32.20677,1.005-49.93521h0C104.98478,66.64628,93.91292,53.449,80.22419,47.20618A45.54055,45.54055,0,0,0,61.13225,43.06894Z"/>
      </g>
      <path d="M1.55488,95.22388l8.45568.63521L1.242,97.83719l-.18183,2.42348,5.942-1.38273L.9721,101.4304.94393,106.209l4.163-.70863-4.10666,1.96621,8.90087.53284L1.1376,109.33027S-.2174,100.35606,1.55488,95.22388Z"/>
      <polygon points="4.184 118.604 11.131 116.625 4.553 119.615 5.638 122.773 10.318 121.982 6.377 124.706 8.644 130.636 14.426 128.993 9.308 132.813 20.493 129.456 10.417 135.274 4.184 118.604"/>
      <polygon points="16.104 142.254 26.743 138.07 17.163 143.574 18.799 145.386 26.426 142.286 19.453 146.071 20.988 147.598 25.534 145.479 22.338 148.398 29.749 145.796 23.309 149.355 16.104 142.254"/>
      <g>
        <line x1="6.00363" y1="114.64832" x2="21.52147" y2="109.0225"/>
        <rect x="5.50957" y="111.57783" width="16.50615" height="0.51515" transform="translate(-37.37363 11.42798) rotate(-19.97355)"/>
      </g>
      <g>
        <line x1="32.62476" y1="157.2359" x2="40.91061" y2="153.48188"/>
        <rect x="32.21918" y="155.10146" width="9.09681" height="0.51483" transform="translate(-60.75756 28.95839) rotate(-24.33745)"/>
      </g>
      <g>
        <line x1="50.82969" y1="161.74397" x2="62.70837" y2="157.30762"/>
        <rect x="50.42892" y="159.26845" width="12.68019" height="0.51465" transform="translate(-52.2062 29.92795) rotate(-20.47088)"/>
      </g>
      <g>
        <path d="M21.16381,80.99857,8.292,84.18691"/>
        <rect x="8.09733" y="82.33539" width="13.26073" height="0.51482" transform="translate(-19.41055 5.95693) rotate(-13.90054)"/>
      </g>
      <g>
        <line x1="25.0264" y1="69.10844" x2="12.58622" y2="72.25717"/>
        <rect x="12.39029" y="70.42531" width="12.83214" height="0.51507" transform="translate(-16.80868 6.7977) rotate(-14.23971)"/>
      </g>
      <path d="M12.71754,66.21087l10.81955-1.02258-11.97454,2.6004L10.129,70.20012l8.01285-1.0346L9.43665,71.36385l-2.48048,4.9275,6.09755-.46077L6.37025,77.62146l11.18893-1.58539L5.55826,79.62074S8.22756,70.59246,12.71754,66.21087Z"/>
      <g>
        <line x1="39.48134" y1="159.36724" x2="54.3467" y2="153.56008"/>
        <rect x="38.93425" y="156.20617" width="15.95971" height="0.51481" transform="translate(-53.63691 27.7341) rotate(-21.30266)"/>
      </g>
      <g>
        <line x1="14.63278" y1="126.23922" x2="25.18194" y2="121.77055"/>
        <rect x="14.17893" y="123.74742" width="11.45696" height="0.51499" transform="translate(-46.8433 17.61945) rotate(-22.9856)"/>
      </g>
      <g>
        <line x1="20.00181" y1="135.99383" x2="29.56222" y2="131.44086"/>
        <rect x="19.48729" y="133.45993" width="10.58934" height="0.51499" transform="translate(-55.0361 23.61032) rotate(-25.4393)"/>
      </g>
      <g>
        <path d="M19.91314,85.05992c-12.87185,3.18835-7.58376,1.52048-7.58376,1.52048"/>
        <path d="M11.322,87.251c-.26545,0-.28758-.07918-.31573-.17948-.07642-.2715.098-.37481,1.24585-.7368l.07943.25263c1.06988-.221,3.2197-.71216,7.51984-1.77726l.12368.49974C13.81468,86.83575,11.92982,87.251,11.322,87.251Z"/>
      </g>
      <g>
        <path d="M20.57747,88.80371c-12.87185,3.18834-7.58376,1.52048-7.58376,1.52048"/>
        <path d="M11.98613,90.99486c-.26546,0-.28759-.07919-.31574-.17949-.07642-.27149.098-.37481,1.24585-.7368l.07943.25264c1.06988-.221,3.2197-.71216,7.51984-1.77727l.12368.49975C14.47883,90.57958,12.594,90.99486,11.98613,90.99486Z"/>
      </g>
      <g>
        <path d="M20.01779,98.00366c-10.60025,3.359-11.89516,3.26172-11.89516,3.26172"/>
        <path d="M8.1249,101.52272l-.02162-.00075.03821-.51332c.05028,0,1.52639.00452,11.79835-3.25037l.15586.4907C10.13545,101.40508,8.33606,101.52272,8.1249,101.52272Z"/>
      </g>
      <g>
        <line x1="37.00554" y1="152.19262" x2="45.29139" y2="148.4386"/>
        <rect x="36.60023" y="150.05824" width="9.09636" height="0.51483" transform="translate(-58.28989 30.3156) rotate(-24.33745)"/>
      </g>
      <g>
        <line x1="34.9911" y1="150.23279" x2="43.27695" y2="146.47877"/>
        <rect x="34.58573" y="148.09835" width="9.09671" height="0.51483" transform="translate(-57.6612 29.31131) rotate(-24.33745)"/>
      </g>
      <g>
        <ellipse cx="67.96449" cy="100.75782" rx="49.90608" ry="58.91902" transform="translate(-27.05003 24.9716) rotate(-17.4222)" fill="#316b84"/>
        <path d="M72.69782,159.72387a49.24958,49.24958,0,0,1-26.34229-7.9967c-12.47959-7.89314-21.9778-20.60576-26.7445-35.79575s-4.23477-31.04991,1.49774-44.65821C26.85988,57.62042,37.15295,47.8653,50.09207,43.805c12.93912-4.05982,26.96018-1.93564,39.481,5.98364,12.4801,7.89313,21.9783,20.6055,26.745,35.79549s4.23478,31.05016-1.49773,44.65846c-5.75161,13.65279-16.04469,23.40791-28.98381,27.46822A43.78377,43.78377,0,0,1,72.69782,159.72387ZM63.22576,43.33792a42.2159,42.2159,0,0,0-12.67115,1.94067c-12.4987,3.922-22.45039,13.36671-28.02252,26.59417-5.59073,13.27194-6.10455,28.75454-1.447,43.59612,4.65709,14.84182,13.925,27.2548,26.09643,34.95286C59.31225,158.09441,72.8758,160.159,85.374,156.2372c12.4987-3.9223,22.4509-13.367,28.023-26.59417,5.59072-13.27194,6.10455-28.75479,1.447-43.59637h0c-4.6571-14.84157-13.925-27.2548-26.09644-34.95286A47.73191,47.73191,0,0,0,63.22576,43.33792Z"/>
      </g>
      <g>
        <ellipse cx="69.29294" cy="100.36206" rx="46.26732" ry="56.0819" transform="translate(-26.8706 25.3512) rotate(-17.4222)" fill="#316b84"/>
        <path d="M74.49671,156.156c-21.10048.0005-41.96365-16.689-49.83994-41.78693C15.31291,84.59317,27.73519,54.08524,52.347,46.36179c11.94164-3.74684,24.928-1.639,36.5685,5.93663,11.6093,7.555,20.49263,19.65,25.01348,34.05669,9.34386,29.77591-3.07842,60.28384-27.6902,68.00729A39.11857,39.11857,0,0,1,74.49671,156.156ZM64.177,45.58125a38.38189,38.38189,0,0,0-11.52132,1.76294c-24.0708,7.55352-36.18991,37.48252-27.01649,66.7167,7.738,24.65727,28.192,41.06571,48.849,41.06646A38.0911,38.0911,0,0,0,85.93005,153.38c24.0708-7.55352,36.18991-37.48252,27.01649-66.7167-4.44946-14.17893-13.183-26.07683-24.59267-33.50189A44.34284,44.34284,0,0,0,64.177,45.58125Z"/>
      </g>
      <path d="M81.324,82.58678c-4.13207.0888-8.88809.04156-13.45722.41637,4.47806,15.03177,14.74987,39.88137,11.52938,51.4562-3.94729,14.009-21.11528,17.613-26.32-6.30423.29013-2.69289,1.56133-1.02069,1.56133-1.02069,3.29666,10.90631,13.95042,5.2477,15.186-6.22668.99622-9.24993-3.09475-24.09948-6.166-35.47944-3.37237,25.38847-20.4625,26.11185-20.98085,8.81781-.29931-11.77705,8.855-15.91117,18.54454-18.54493a10.761,10.761,0,0,0-.17347-1.08374c-.70753-3.67364,3.31246-4.34237,4.70612-.02909C73.1331,72.921,80.1374,71.49846,82.97517,67.793c6.37463-7.97689,3.75547-10.07426,3.75547-10.07426l1.12447-.7351C98.58138,65.20961,94.76863,82.28731,81.324,82.58678Zm-19.02492.89975c-7.95291,1.0629-14.3844,3.63469-15.09061,10.19154C45.96092,104.725,58.58316,102.89519,62.29908,83.48653Z" fill="#002335"/>
      <path d="M27.11528,106.04483l-.51483-.00905a64.31625,64.31625,0,0,0-.77074-10.16663c-1.02664-7.70183-1.913-14.35314,6.44744-26.61755l.42534.2901C24.45315,81.64321,25.28572,87.89105,26.34,95.801A64.75882,64.75882,0,0,1,27.11528,106.04483Z"/>
      <path d="M79.65657,150.27569l-.09754-.50528a35.38572,35.38572,0,0,0,25.24123-20.02632l.46959.21015A35.90481,35.90481,0,0,1,79.65657,150.27569Z"/>
      <path d="M82.9743,147.009l-.176-.48416a27.236,27.236,0,0,0,14.83-13.74681l.4716.20614A27.78307,27.78307,0,0,1,82.9743,147.009Z"/>
      <path d="M77.13169,51.53975c-3.03669-1.35294-7.284-1.03645-11.39262-.731-3.15585.23479-6.13572.457-8.4243-.08195l.11764-.50125c2.21267.52061,5.15383.30191,8.26845.06988a45.96623,45.96623,0,0,1,7.8959-.14831,32.27215,32.27215,0,0,0-19.26589-.20387L54.18,49.451a32.73193,32.73193,0,0,1,23.16532,1.62041Z"/>
      <path d="M61.61088,54.69987l-.13575-.49673a22.50778,22.50778,0,0,1,11.86572-.00729l-.13574.49673A21.98456,21.98456,0,0,0,61.61088,54.69987Z"/>
    </g>
    <g>
      <g>
        <path d="M81.18734,261.25743V275.385c18.70865,5.41287,47.52372,4.49826,47.52372,4.49826V265.74641S81.93344,263.40525,81.18734,261.25743Z" fill="#ffc41d" stroke="#000" stroke-miterlimit="10" stroke-width="2"/>
        <path d="M75.66932,251.13548S57.61208,258.31782,90.151,262.82231c8.56539,1.18576,20.63671,2.18594,37.46624,2.82074,33.1995,1.25226,50.83186-8.36881,50.83186-8.36881s4.87781-5.32252-7.48949-7.70848S100.63014,243.52842,75.66932,251.13548Z" fill="#ffc41d" stroke="#000" stroke-miterlimit="10" stroke-width="2"/>
        <path d="M70.67256,255.6817s-.31845,9.85161.17964,14.9178c.27637,2.811,10.33515,4.78543,10.33515,4.78543v-14.1275S70.4477,259.96226,70.67256,255.6817Z" fill="#ffc41d" stroke="#000" stroke-miterlimit="10" stroke-width="2"/>
        <path d="M172.82452,259.65629V273.784s5.59465-1.91309,6.57314-3.49643c.83572-1.35233,0-14.60584,0-14.60584A27.58321,27.58321,0,0,1,172.82452,259.65629Z" fill="#ffc41d" stroke="#000" stroke-miterlimit="10" stroke-width="2"/>
      </g>
      <path d="M128.71106,265.74638s25.2743,1.43094,44.11346-6.09009V273.784s-13.27953,6.13327-44.11346,6.09921Z" fill="#ffc41d" stroke="#000" stroke-miterlimit="10" stroke-width="2"/>
    </g>
    <path d="M128.71106,265.74638l.58117-2.46655s28.78789-1.90888,39.36594-7.12l4.16635,3.49646S160.40969,266.04469,128.71106,265.74638Z" fill="#ffc41d" stroke="#000" stroke-miterlimit="10" stroke-width="2"/>
    <g>
      <g>
        <path d="M74.44947,244.654v14.12748c18.70865,5.41291,47.52372,4.49827,47.52372,4.49827v-14.1368S75.19558,246.80175,74.44947,244.654Z" fill="#ffc41d" stroke="#000" stroke-miterlimit="10" stroke-width="2"/>
        <path d="M63.9347,239.0782s-.31843,9.85162.17964,14.91778c.27637,2.811,10.33515,4.78543,10.33515,4.78543V244.654S63.70984,243.35876,63.9347,239.0782Z" fill="#ffc41d" stroke="#000" stroke-miterlimit="10" stroke-width="2"/>
        <path d="M68.93145,234.532s-28.81506,11.4613,51.948,14.50758c33.19949,1.25225,50.83187-8.3688,50.83187-8.3688s4.87781-5.32253-7.48948-7.7085S93.89227,226.925,68.93145,234.532Z" fill="#ffc41d" stroke="#000" stroke-miterlimit="10" stroke-width="2"/>
        <path d="M166.0867,243.05279v14.12767s5.54829-1.94269,6.57313-3.49644c.83573-1.267,0-14.60584,0-14.60584A56.55592,56.55592,0,0,1,166.0867,243.05279Z" fill="#ffc41d" stroke="#000" stroke-miterlimit="10" stroke-width="2"/>
      </g>
      <path d="M121.97319,249.14286s25.27429,1.431,44.11346-6.09007v14.12767s-13.27952,6.13327-44.11346,6.09921Z" fill="#ffc41d" stroke="#000" stroke-miterlimit="10" stroke-width="2"/>
    </g>
    <path d="M164.218,241.06285c.00459,2.11213-14.86716,2.58993-23.88925,1.00645-13.69079-2.37485,10.58381-7.84808,7.734-8.758-2.296-.68206-12.89186,1.4277-20.40366,3.22546a59.6615,59.6615,0,0,1-5.69107,2.04813c-1.73943.43646-14.95192.08357-12.027-.91523,4.82261-1.58828,12.80671-4.34129,11.61888-4.86035-1.26707-.49344-13.1288,1.65728-20.9569,3.43022a28.015,28.015,0,0,1-10.0395,3.31734l.07931-.00017a1.51658,1.51658,0,0,1-.23738.026c-.63277.10319-1.26558.19363-1.97723.27148a.66019.66019,0,0,0-.1581.01311c-7.67185.90735-12.57788.38374-16.93136-.89185,0,0,.47413-.1156,1.34427-.24473a37.00192,37.00192,0,0,0,9.09727-.09615c9.56991-1.11511,13.83288-5.20872,18.97216-6.60682a62.12059,62.12059,0,0,0-14.07891,1.26495c-3.637.88586,2.218,1.4711,3.32583,1.46869.0002.089.31654.12656.31654.12656-12.10175.968-16.77358-1.04494-9.3398-2.24445,7.43381-1.18681,17.95544-1.1716,25.54982-1.239,2.53144-.031,10.67949-.11236,8.387.60513a25.161,25.161,0,0,1-4.2715.17475,15.14455,15.14455,0,0,0-6.562,2.03734c16.13143-3.38155,31.79723-2.296,30.45516-1.03347a11.34034,11.34034,0,0,1-2.37037,1.37931c13.205-2.86615,24.83392-3.10782,28.71277-1.95845,5.14529,1.59187-14.46462,5.79536-9.5546,8.15118,2.45482,1.20335,8.54539.7448,10.7597.3073Z" fill="#603502"/>
    <g>
      <path d="M93.65178,244.78579s-3.8866,2.38625-3.49794,9.87412a29.46222,29.46222,0,0,1,9.81365-5.18392S104.9492,239.55635,93.65178,244.78579Z" fill="#fff" stroke="#000" stroke-miterlimit="10" stroke-width="2"/>
      <path d="M85.58709,239.84874s-5.98713,2.13244-4.09227,9.21585c0,0,4.45793-5.44019,9.72783-7.07646C92.67227,241.538,89.37651,238.94362,85.58709,239.84874Z" fill="#fff" stroke="#000" stroke-miterlimit="10" stroke-width="2"/>
      <path d="M84.09616,227.138s-7.15675-.78384-10.849,4.56464c0,0,3.69226-.98743,12.33994-.16457C85.58709,231.538,87.74517,227.86528,84.09616,227.138Z" fill="#fff" stroke="#000" stroke-miterlimit="10" stroke-width="2"/>
      <g>
        <polygon points="112.882 235.076 96.583 234.532 92.314 243.624 105.379 243.624 112.882 235.076" fill="#aba096"/>
        <path d="M110.267,236.55861s1.65181.24562-6.21855-1.15322-10.39663,9.38042-10.39663,9.38042c-4.85824,1.0697-6.42869-.42426-6.42869-.42426l3.99957-2.37341c-1.45748-3.70279-4.8614-2.13319-5.05258-2.6331-.9159-2.39495,1.9433-4.27878,1.9433-4.27878-7.1902-.82285-6.60721-3.20909-6.60721-3.20909l4.08093-.32915c2.23479-5.67763-3.886-3.43959-.38808-5.003s7.09246.47735,7.09246.47735,5.01931,4.998,16.32369,3.94965c4.70782-.43659,7.90372-5.1165,19.33581-6.25362l24.97136-3.456s9.1335,2.304,11.174,9.87413-21.47343,8.31071-21.47343,8.31071l-11.174,5.72273-14.18607,1.27144s-3.78942,4.85479-17.29535,3.04453c0,0,2.62346-4.77249-.583-5.43077,0,0-2.332-1.5634-5.73271.74055" fill="#aba096" stroke="#000" stroke-miterlimit="10" stroke-width="2"/>
        <path d="M102.33706,233.00637s-6.34237-2.85194-14.22368,2.06987" fill="none" stroke="#000" stroke-miterlimit="10" stroke-width="2"/>
        <path d="M155.469,225.05613s2.66325,3.10117-5.06018,6.14594" fill="none" stroke="#000" stroke-miterlimit="10" stroke-width="2"/>
      </g>
    </g>
    <path d="M171.35325,57.092C159.78225,28.98964,182.08244,30.186,182.08244,30.186S148.44238,21.957,159.61262,68.01095c5.64642,23.2798-7.7052,21.01358-7.7052,21.01358l15.67273,7.00328C176.38769,90.09682,177.64027,72.3612,171.35325,57.092Z" fill="#fff" stroke="#000" stroke-miterlimit="10" stroke-width="2"/>
    <path d="M61.35793,178.55481s-21.47365-2.60993-22.10523-21.51545c0,0-25.26311-13.65252-5.6842-34.59477,0,0,10.73682.77773,8.21051,17.68625l-.78947,3.05562,1.57894-3.05562s2.21052,1.003,4.421,11.26613c0,0-8.3684-27.15784,13.10524-32.52625,0,0,14.84208.67823.63158,21.26012l-1.25108,9.3158.77739-.73386s2.52632-1.89473,2.21053,3.15788c0,0,6-25.81518,20.52627-17.17074,0,0,11.05261,6.276-3.94736,16.06547l-.63158-3.42654.1579,4.84759-4.73684,4.85291s5.05263-5.6424,6.78946,2.726,1.10527,10.10524,1.10527,10.10524Z" fill="#aba096" stroke="#000" stroke-miterlimit="10" stroke-width="2"/>
    <path d="M210.10356,73.3527c28.15991-11.43,11.68376-26.50534,11.68376-26.50534s29.43887,18.24073-11.25075,42.53286c-20.56811,12.27938-9.59744,20.21952-9.59744,20.21952L184.962,103.3218C183.0243,92.88174,194.803,79.56317,210.10356,73.3527Z" fill="#fff" stroke="#000" stroke-miterlimit="10" stroke-width="2"/>
    <g>
      <path d="M302.65147,273.41368s3.8866,2.38626,3.498,9.87411a23.97187,23.97187,0,0,0-9.7165-6.089S293.518,270.69832,302.65147,273.41368Z" fill="#fff" stroke="#000" stroke-miterlimit="10" stroke-width="2"/>
      <path d="M310.71614,268.47664s5.98715,2.13244,4.09228,9.21585c0,0-4.45791-5.44019-9.72784-7.07645C303.631,270.16594,306.92671,267.57151,310.71614,268.47664Z" fill="#fff" stroke="#000" stroke-miterlimit="10" stroke-width="2"/>
      <path d="M312.20707,255.76584s7.15674-.78385,10.849,4.56465c0,0-3.69226-.98743-12.33993-.16458C310.71614,260.16594,308.55809,256.49318,312.20707,255.76584Z" fill="#fff" stroke="#000" stroke-miterlimit="10" stroke-width="2"/>
      <g>
        <polygon points="283.422 263.704 299.721 263.16 303.99 272.252 290.925 272.252 283.422 263.704" fill="#aba096"/>
        <path d="M286.03627,265.1865s-1.6518.24561,6.21853-1.15322,10.39664,9.38043,10.39664,9.38043c4.85825,1.0697,6.42868-.42426,6.42868-.42426l-3.99957-2.37341c1.45746-3.70279,4.86139-2.13321,5.05258-2.63309.91592-2.395-1.9433-4.27878-1.9433-4.27878,7.19019-.82284,6.60721-3.20907,6.60721-3.20907l-4.08093-.32913c-2.23481-5.67762,3.886-3.43958.38809-5.003s-7.09244.47736-7.09244.47736-5.01932,4.998-16.3237,3.94966c-4.70782-.43659-7.90372-5.1165-19.33581-6.25362l-24.97136-3.45593s-9.1335,2.304-11.174,9.87413,21.47343,8.31073,21.47343,8.31073l11.174,5.72272,14.18607,1.27145s3.78942,4.85477,17.29535,3.04453c0,0-2.62345-4.7725.583-5.43076,0,0,2.332-1.56339,5.73273.74057" fill="#aba096" stroke="#000" stroke-miterlimit="10" stroke-width="2"/>
        <path d="M293.9662,261.63426s6.34234-2.85193,14.22369,2.06985" fill="none" stroke="#000" stroke-miterlimit="10" stroke-width="2"/>
        <path d="M240.83429,253.684s-2.66326,3.10114,5.06018,6.14594" fill="none" stroke="#000" stroke-miterlimit="10" stroke-width="2"/>
      </g>
    </g>
    <g>
      <path d="M250.67332,94.71288s-18.59189-.00249-8.68419,25.73679c0,0,3.1198-5.23761,8.804-3.84114C250.79313,116.60853,257.46278,103.87075,250.67332,94.71288Z" fill="#aba096" stroke="#000" stroke-miterlimit="10" stroke-width="2"/>
      <path d="M282.76576,126.70987s19.69693-17.11013,4.60119-35.3322c0,0-31.79888-20.82264-37.32519,9.19891,0,0,5.05261-6.81106,21.0285-3.9,0,0-32.12454-5.42309-19.52415,17.7029,0,0,3.39039-8.14034,18.76173-3.76075,0,0-21.69134-6.9059-20.73974,12.673C249.56807,123.29177,261.71046,140.13084,282.76576,126.70987Z" fill="#aba096" stroke="#000" stroke-miterlimit="10" stroke-width="2"/>
      <path d="M257.147,123.29177s1.1315,2.98182,14.21051,2.36841" fill="#aba096" stroke="#000" stroke-miterlimit="10" stroke-width="2"/>
      <path d="M242.9365,120.44967a20.80829,20.80829,0,0,0,7.10526,9.31577s-1.89475-10.5935-.78948-13.26313S241.35756,114.29179,242.9365,120.44967Z" fill="#fff" stroke="#000" stroke-miterlimit="10" stroke-width="2"/>
      <path d="M281.46269,98.50234s5.05264,2.52631,5.6842,7.73683" fill="#aba096" stroke="#000" stroke-miterlimit="10" stroke-width="2"/>
    </g>
    <path d="M124.903,120.98439V100.509l5.54689,8.04593V92.525l4.30551,3.04977,3.96457-14.22489V97.71345l11.18518-10.07426-2.63181,7.17731,13.817-11.55072V91.241L181.3692,79.99162,174.57089,88.418l17.42357-.77883L185.53723,92.525,205.831,95.57473l-7.23746,4.02753,9.86928.90672-7.23747,3.57349h13.159l-9.86927,8.47243h5.92155l-2.6318,8.42944L222.27972,100.509l-3.58788,14.42276,8.19353-4.76466-8.19353,13.92769,8.19353-1.65022-8.19353,10.36872h8.19353l-3.94771,4.156H241.3603l-7.89541,6.37128,16.44877,3.96835-5.26361,6.73138,20.3965-3.46226-2.6318,7.07053s7.89541.20823,7.89541-10.33965-9.2113-10.33963-9.2113-10.33963L245.308,131.49739l8.4142-1.05178-1.83469-8.001s-1.6893,5.347,14.10152,7.32085,20.76986-8.781,20.76986-8.781v11.171l3.94773-9.71078v24.8643l4.12106-10.33963-4.12106,17.071h7.89541l-8.55337,7.065h8.55337l-15.13287,6.57951,11.35852,2.63181h-17.28l7.23746,9.86927-11.05075-8.55336v8.55336l-8.68778-7.23745-.658,7.23745-7.23745-9.86926s9.86926,18.86557,3.28976,29.82929l13.29343-8.40468v5.45611l21.09338-7.80012-4.12106,5.89448,26.883,3.5505-7.14447,4.453,14.62516,9.17734H317.5897l4.621,17.7176-7.15985-3.71474-3.28976,15.55787-2.63181-6.85758-7.23745,14.095-.658-9.2113-11.18515,13.81695-1.97385-5.92155-5.26361,12.50108-9.0769-5.26361v8.55338l-8.02982-7.23746-8.55338,7.23746,2.63181-9.86926-7.23746,5.92156-1.3159-8.55336L241.3603,259.798l4.60567-13.159L231.491,248.6128l18.42264-9.21131-9.21131-4.22577h33.032l-9.34574-8.70029,25.00214,3.05679-4.60565-3.05679,14.47494-3.55049-13.159-9.61289,3.94772,7.94048-13.159-4.39,3.9477,4.39-22.37034-2.789S240.7025,240.7174,215.0424,232.164s-19.0807-15.98963-19.0807-15.98963H181.36918l6.59368-4.2436H171.6175l9.75167-4.24361-20.27889.69312,5.92156-4.24361-18.42264.96558,3.94771-4.35456s-23.02829-1.81263-5.26361,11.183H138.062l22.37034,9.6266-13.817.45655,1.3159,7.5182-9.86926-6.60728v12.25087L124.903,221.5574l-3.28976,4.918-2.12237-4.918-5.11509,1.36748L117.618,217.702l-5.874-10.85635V213.089l-4.60566-12.34122-5.2636,1.19781,11.84313-10.20442-11.84313-3.002,21.7124-3.28976L117.618,180.8437l17.13741-.65794,19.09746,3.94771-4.60567-7.89542,17.10673,10.52722-2.6318-8.55336,13.00154,13.52918v-7.60762l15.27081,13.06373,4.62522-5.45611-4.62522-6.94968v6.94968L187.96289,176.896l-6.59368,4.60565v-9.63307l-5.75335,4.5213-3.28977-3.0367-7.08563,3.28977-4.302-3.0367-3.67884,3.84219-6.70326-4.5748-6.5728,1.9979s-3.73681-5.08774-5.92155-5.871l-7.61214,8.55337v-5.68536l-18.048,8.31717,2.22692-3.28975L94.63719,185.5l2.02447-4.555-12.65289,5.06116,1.26529-2.27753-11.89374,3.79587,2.5306-3.54282-15.1835-.25305,6.57951-2.02448L50.85815,180.692l4.8081-3.0367-4.8081-2.78364L58.703,176.643l-2.53058-6.32646,13.91819,4.555-1.26528-7.8448,6.83257,4.84184.75917-7.62549,2.53058,2.53058,2.27752-6.0734,3.0367,3.28977.75917-5.06116s5.82035,5.82033,22.01606,4.302l-6.0734-5.56727,21.00383-.25305-4.555-2.78365,9.11009-.75919-5.82034-5.06115,5.82034.5061-6.57951-9.18187h4.555L115.388,129.57422l8.35092,2.78364-3.28976-7.08563,3.79588-.50612-4.04892-6.57951Z" stroke="#000" stroke-miterlimit="10" stroke-width="2"/>
    <path d="M259.8097,125.18085,204.01049,294.16728a4.78349,4.78349,0,0,0,6.61325,1.42428q.09666-.06239.19024-.12939l55.52453-169.43142" fill="#fbb03b" stroke="#000" stroke-miterlimit="10" stroke-width="2"/>
    <path d="M279.78758,86.963,286.6631,64.1814s26.001,17.0921,29.61459-6.68787c0,0-7.99362-20.98308-5.22507-22.94724,3.55759-2.52395,8.35779,6.59749,8.35779,6.59749s-5.75137-13.419-.06534-15.803c0,0-16.34344-1.18494-18.60711,10.70858l7.01913-2.51542c-4.26971,7.8758,1.27774,14.59414.87576,22.88972-.45532,9.39653-12.50476,6.696-12.50476,6.696s-5.07827-1.781-6.78869-5.51185L303.586,14.24567a12.43915,12.43915,0,0,1,4.40512,5.318c1.12619,3.16679,3.07385-8.88316-2.01059-18.5046,0,0-9.97571.952-15.07751,13.21608,0,0,5.95489-2.22629,8.43844-1.34637l-15.051,43.718s-2.02677,3.01955-9.83-.19638c0,0-12.4906-5.6687-4.77749-16.07877,4.03271-5.44279,13.41836-6.9143,12.28027-14.25752l4.20135,5.1774c2.24878-14.84328-10.71511-18.15671-10.71511-18.15671a14.35129,14.35129,0,0,1-5.448,13.45148s8.792-5.90435,6.84985-.62129c-2.72525,7.413-12.934,7.32426-16.7923,14.10206-10.56245,18.555,20.22159,23.28471,20.22159,23.28471l-6.657,21.56533" fill="#fbb03b" stroke="#000" stroke-miterlimit="10" stroke-width="2"/>
    <path d="M154.86506,127.54971s.25305,12.65291,20.49771-7.33869,23.02829-2.53058,23.02829-2.53058.11272-5.06116-6.39662-2.02446c0,0,5.38439,33.15061-27.51317,31.63227,0,0-7.33868.25307-9.61621-3.79587S154.86506,127.54971,154.86506,127.54971Z" fill="#fcee21"/>
    <path d="M149.80389,128.97882s-7.33868-.66992-3.28975-15.85341,1.03562-16.44879,1.03562-16.44879-22.2925,21.763-10.14571,37.95872C137.404,134.63534,137.151,135.72213,149.80389,128.97882Z" fill="#fcee21"/>
    <path d="M47.779,158.34433s.47368,5.84208,4.10525,7.57893" fill="none" stroke="#000" stroke-miterlimit="10" stroke-width="2"/>
    <path d="M29.14746,140.13084s.63158-2.31279,4.89473-1.8391" fill="none" stroke="#000" stroke-miterlimit="10" stroke-width="2"/>
    <path d="M30.2527,142.87068s-.47368-2.73984,5.52631-2.73984" fill="none" stroke="#000" stroke-miterlimit="10" stroke-width="2"/>
    <path d="M49.83163,131.34439s5.64215.78947,6.68949,2.21052" fill="none" stroke="#000" stroke-miterlimit="10" stroke-width="2"/>
    <path d="M49.04216,134.7c.47367-.19765,5.3684-.93909,6.78946,1.40532" fill="none" stroke="#000" stroke-miterlimit="10" stroke-width="2"/>
    <path d="M68.46317,142.87068S73.2,144.116,73.67369,146.57229" fill="none" stroke="#000" stroke-miterlimit="10" stroke-width="2"/>
    <path d="M71.06842,141.50076s4.65789.96628,4.34211,3.22073" fill="none" stroke="#000" stroke-miterlimit="10" stroke-width="2"/>
    <line x1="85.30448" y1="262.39091" x2="85.30458" y2="246.705" fill="none" stroke="#000" stroke-miterlimit="10" stroke-width="2"/>
    <line x1="97.50729" y1="263.28639" x2="97.53182" y2="250.32104" fill="none" stroke="#000" stroke-miterlimit="10" stroke-width="2"/>
    <line x1="109.1473" y1="264.65837" x2="109.17183" y2="248.97245" fill="none" stroke="#000" stroke-miterlimit="10" stroke-width="2"/>
    <path d="M86.91216,139.17932c.44815,1.44259,5.07728-3.91077,5.07728-3.91077-3.63157-3.97053-8.17653,0-8.17653,0A9.585,9.585,0,0,1,86.91216,139.17932Z" fill="#fff" stroke="#000" stroke-miterlimit="10" stroke-width="2"/>
    <path d="M60.09476,118.87072a7.85577,7.85577,0,0,1,9.15788-4.26315l-3.4205,7.31529S63.72634,118.15118,60.09476,118.87072Z" fill="#fff" stroke="#000" stroke-miterlimit="10" stroke-width="2"/>
    <path d="M33.01147,122.66019a10.55479,10.55479,0,0,1,4.82019-6.97192,14.0617,14.0617,0,0,0,.46464,7.52672C39.71735,126.68866,37.34917,121.08125,33.01147,122.66019Z" fill="#fff" stroke="#000" stroke-miterlimit="10" stroke-width="2"/>
    <path d="M129.88409,129.76544s-7.002,32.3222,25.10522,38.68413c27.09313,5.3684,38.99993-22.89469,38.99993-22.89469S155.77879,168.76536,129.88409,129.76544Z" fill="#fff" stroke="#000" stroke-miterlimit="10" stroke-width="2"/>
    <path d="M139.68156,136.1537s-11.38762,8.857-1.2653,19.23242c0,0,6.57951,6.07339,13.91819-5.06116C152.33447,150.325,154.35894,135.14146,139.68156,136.1537Z"/>
    <polyline points="185.621 157.039 182.688 150.257 174.075 166.483 170.657 152.347 157.457 168.852 155.405 150.453 141.734 163.209 142.796 143.865 133.782 153.292 134.258 136.105 129.293 139.179" fill="none" stroke="#000" stroke-miterlimit="10" stroke-width="2"/>
    <path d="M164.48127,147.28825a16.70045,16.70045,0,0,1-7.10478-1.55669s.2424-18.21,6.77071-12.22769a10.03518,10.03518,0,0,1,.94737,6.627c-.19945.92612-3.32367.34123-3.40224,1.54053s3.77906.70224,3.40491,2.14667c-.15565.60093-.39626,2.82849-.616,3.47021" stroke="#000" stroke-miterlimit="10" stroke-width="2"/>
    <path d="M138.0946,135.26855l-2.45735-3.6832s.24238-18.21,6.77071-12.22769a10.03518,10.03518,0,0,1,.94735,6.627c-.19945.92612-3.32367.34122-3.40223,1.54053s3.77906.70222,3.4049,2.14667c-.15567.60093-.39625,2.82847-.616,3.47021" stroke="#000" stroke-miterlimit="10" stroke-width="2"/>
    <line x1="91.57169" y1="277.61277" x2="91.57179" y2="261.92683" fill="none" stroke="#000" stroke-miterlimit="10" stroke-width="2"/>
    <line x1="103.77449" y1="278.50825" x2="103.79901" y2="262.82231" fill="none" stroke="#000" stroke-miterlimit="10" stroke-width="2"/>
    <line x1="115.41451" y1="279.88023" x2="115.43903" y2="264.19432" fill="none" stroke="#000" stroke-miterlimit="10" stroke-width="2"/>
    <line x1="141.72032" y1="280.41874" x2="141.74485" y2="264.73283" fill="none" stroke="#000" stroke-miterlimit="10" stroke-width="2"/>
    <line x1="153.14845" y1="278.88023" x2="153.17233" y2="264.19432" fill="none" stroke="#000" stroke-miterlimit="10" stroke-width="2"/>
    <line x1="164.20953" y1="276.73481" x2="164.23405" y2="262.26802" fill="none" stroke="#000" stroke-miterlimit="10" stroke-width="2"/>
    <line x1="134.39485" y1="263.73527" x2="134.41938" y2="248.04936" fill="none" stroke="#000" stroke-miterlimit="10" stroke-width="2"/>
    <line x1="145.82298" y1="262.19676" x2="145.84686" y2="247.51085" fill="none" stroke="#000" stroke-miterlimit="10" stroke-width="2"/>
    <line x1="156.88406" y1="260.05134" x2="156.90858" y2="245.58456" fill="none" stroke="#000" stroke-miterlimit="10" stroke-width="2"/>
  </g>
</svg>
