<?xml version="1.0" encoding="utf-8"?>
<!-- Generator: Adobe Illustrator 25.2.1, SVG Export Plug-In . SVG Version: 6.00 Build 0)  -->
<svg version="1.1" id="Camada_1" xmlns="http://www.w3.org/2000/svg" xmlns:xlink="http://www.w3.org/1999/xlink" x="0px" y="0px"
	 viewBox="0 0 151.9 145.9" style="enable-background:new 0 0 151.9 145.9;" xml:space="preserve">
<style type="text/css">
	.st0{fill:#F9F9F9;}
	.st1{fill:#343434;}
	.st2{fill:#8C8C8C;}
	.st3{fill:#3C3C3B;}
	.st4{fill:#141414;}
	.st5{fill:#393939;}
	.st6{fill:#FFCC00;}
	.st7{fill:#FEFEFE;}
	.st8{fill:#FEFEFD;}
</style>
<g>
	<circle class="st0" cx="104.4" cy="98.4" r="47.5"/>
	<g>
		<polygon class="st1" points="104.4,66 104,67.5 104,110.3 104.4,110.7 124.3,99 		"/>
		<polygon class="st2" points="104.4,66 84.6,99 104.4,110.7 104.4,89.9 		"/>
		<polygon class="st3" points="104.4,114.4 104.2,114.7 104.2,130 104.4,130.7 124.3,102.7 		"/>
		<polygon class="st2" points="104.4,130.7 104.4,114.4 84.6,102.7 		"/>
		<polygon class="st4" points="104.4,110.7 124.3,99 104.4,89.9 		"/>
		<polygon class="st5" points="84.6,99 104.4,110.7 104.4,89.9 		"/>
	</g>
</g>
<g>
	<circle class="st6" cx="47.5" cy="47.5" r="47.5"/>
	<g>
		<path class="st7" d="M67.6,60.1c-0.3,0.3-0.5,0.6-0.7,0.9c-6.2,6.2-12.3,12.4-18.5,18.5c-0.7,0.7-1.1,0.6-1.8,0
			c-6.1-6.2-12.2-12.3-18.4-18.4c-0.7-0.7-0.8-1.2,0-1.9c1.9-1.8,3.7-3.6,5.5-5.5c0.8-0.8,1.2-0.8,2,0c3.3,3.4,6.7,6.7,10,10.1
			c1.8,1.8,1.8,1.8,3.6-0.1c3.3-3.3,6.6-6.6,9.9-9.9c0.8-0.8,1.3-1,2.2,0c1.7,1.9,3.5,3.6,5.3,5.4C67,59.4,67.2,59.7,67.6,60.1z"/>
		<path class="st7" d="M67.5,35c-0.2,0.2-0.4,0.5-0.7,0.8c-1.8,1.8-3.6,3.5-5.3,5.4c-1,1.1-1.6,0.8-2.5-0.1
			c-3.4-3.5-7-6.9-10.4-10.5c-0.9-0.9-1.4-0.9-2.3,0c-3.4,3.5-7,6.9-10.4,10.5c-1.1,1.1-1.6,1-2.6-0.1c-1.7-1.8-3.4-3.5-5.2-5.2
			c-0.8-0.7-0.7-1.2,0-1.9c6.1-6.1,12.2-12.1,18.3-18.3c0.8-0.8,1.2-0.8,2.1,0c6.1,6.1,12.2,12.2,18.2,18.3
			C67,34.2,67.4,34.4,67.5,35z"/>
		<path class="st8" d="M29.3,47.5c-0.2,0.2-0.4,0.5-0.6,0.7c-2,2-4,4-6,6c-0.6,0.6-0.9,0.6-1.5,0c-2-2-4-4-6-6
			c-0.6-0.6-0.5-1,0.1-1.5c2-1.9,3.9-3.9,5.9-5.8c0.4-0.4,0.7-0.9,1.3-0.3c2.1,2.1,4.2,4.3,6.4,6.4C29.1,47.1,29.2,47.3,29.3,47.5z"
			/>
		<path class="st7" d="M54.9,47.5c-0.3,0.3-0.5,0.6-0.7,0.8c-2,2-3.9,3.9-5.8,5.9c-0.7,0.7-1.1,0.7-1.8,0c-1.9-2-3.9-3.9-5.9-5.9
			c-0.6-0.6-0.7-1,0-1.6c2-2,4-4,6-6c0.5-0.5,0.9-0.7,1.5-0.1c2.1,2.1,4.2,4.2,6.2,6.3C54.6,47,54.7,47.2,54.9,47.5z"/>
		<path class="st8" d="M80.1,47.3c0,0.5-0.3,0.7-0.6,1c-1.9,2-3.9,3.9-5.8,5.9c-0.7,0.7-1.1,0.5-1.6-0.1c-1.9-1.9-3.8-3.9-5.7-5.7
			c-0.7-0.7-0.7-1.1,0-1.8c1.9-1.9,3.8-3.8,5.7-5.7c0.5-0.5,0.8-0.9,1.5-0.2c2,2.1,4.1,4.1,6.1,6.1C79.9,47,80,47.2,80.1,47.3z"/>
	</g>
</g>
</svg>
