<svg xmlns="http://www.w3.org/2000/svg" viewBox="0 0 153.90069 115.77686">
  <g>
    <path d="M85.27789,101.78266s-7.59506,2.00531-7.9898,9.96911c0,0,35.958,2.00273,38.27646-4.41117,3.40767-9.42734-5.67126-3.15789-5.67126-3.15789l-13.0844-3.75887S90.63017,104.81429,85.27789,101.78266Z" fill="#9a0000" stroke="#000" stroke-miterlimit="10" stroke-width="2"/>
    <path d="M88.27494,97.91326s-9.5658,3.98-1.11845,5.24313c12.10651,1.81032,9.6524-4.65788,9.6524-4.65788Z" fill="#fff" stroke="#000" stroke-linecap="round" stroke-linejoin="round" stroke-width="2"/>
    <path d="M25.22305,91.33742s-14.31819,10.45-22.81527,5.00314,24.247-19.549,24.247-19.549,8.53185-4.68421,5.33438,5.98944S25.22305,91.33742,25.22305,91.33742Z" fill="#9a0000" stroke="#000" stroke-miterlimit="10" stroke-width="2"/>
    <path d="M29.85989,88.59627s6.40656-7.289-3.00612-5.546-3.96584,7.84346-3.96584,7.84346S25.06667,92.83505,29.85989,88.59627Z" fill="#fff" stroke="#000" stroke-miterlimit="10" stroke-width="2"/>
    <ellipse cx="71.20916" cy="44.15274" rx="44.35539" ry="43.15274" fill="#ffcb1e" stroke="#000" stroke-miterlimit="10" stroke-width="2"/>
    <circle cx="75.44901" cy="44.05082" r="40.11554" fill="#ede200" stroke="#000" stroke-miterlimit="10" stroke-width="2"/>
    <circle cx="75.29677" cy="44.877" r="36.35407" fill="#fff" stroke="#000" stroke-miterlimit="10" stroke-width="2"/>
    <path d="M30.04893,75.77316C18.76816,71.45307.60078,93.99076,1.23572,93.05711,6.401,85.46191,30.04893,75.77316,30.04893,75.77316Z" fill="#fff" stroke="#000" stroke-linecap="round" stroke-linejoin="round" stroke-width="2"/>
    <path d="M17.39563,20.8947l12.71956,9.45813s7.82742-1.30457,1.95686-6.19671S15.43878,13.71956,15.43878,13.71956,10.2205,12.415,8.26364,16.981a11.704,11.704,0,0,0,0,8.80585l5.17684.13767-.2847-3.97457S13.70514,17.07267,17.39563,20.8947Z" fill="#ede200" stroke="#000" stroke-miterlimit="10" stroke-width="2"/>
    <path d="M87.83392,84.16636l15.66335,1.63071L87.83392,98.51663s.65229,4.23985,7.83168,0,22.50809-15.65484,22.50809-19.56856-18.264-1.30457-18.264-1.30457A62.97527,62.97527,0,0,1,87.83392,84.16636Z" fill="#ede200" stroke="#000" stroke-miterlimit="10" stroke-width="2"/>
    <path d="M43.19293,77.6064s-1.66275,22.62248-16.33916,9.69908l-1.63072,1.29079s12.06728,22.01227,25.113-6.36213Z" fill="#ede200" stroke="#000" stroke-miterlimit="10" stroke-width="2"/>
    <path d="M53.1724,34.68224S41.76134,65.82662,84.54625,64.531" fill="none"/>
    <path d="M46.87054,45.82753s5.41622-2.78823,8.65941,1.6874" fill="none" stroke="#000" stroke-linecap="round" stroke-linejoin="round" stroke-width="2"/>
    <path d="M73.0544,45.83993l-4.88548,2.78624-2.142-3.60786-5.229,9.92621s6.10047-3.486,9.15071-2.17874-.43575-2.78437-.43575-2.78437l4.123-3.82563Z"/>
    <path d="M76.82576,45.5091s13.45057,7.87354,14.91033,10.74266c1.24535,2.44772-3.90217,2.61449-3.90217,2.61449s9.96588-.98445,12.18138.4177c0,0-1.223-6.30932-5.229-9.65768-.67541-.56454.75853,4.50256-1.08937,3.34836C91.24955,51.446,76.82576,45.5091,76.82576,45.5091Z"/>
    <ellipse cx="87.14585" cy="30.35283" rx="8.13156" ry="10.18419" fill="#fff" stroke="#000" stroke-miterlimit="10" stroke-width="2"/>
    <ellipse cx="72.4947" cy="29.26181" rx="8.13156" ry="10.18419" fill="#fff" stroke="#000" stroke-miterlimit="10" stroke-width="2"/>
    <line x1="104.80072" y1="23.64144" x2="100.0153" y2="27.60392" fill="none" stroke="#000" stroke-linecap="round" stroke-linejoin="round" stroke-width="2"/>
    <line x1="109.98994" y1="53.35358" x2="103.54719" y2="50.98516" fill="none" stroke="#000" stroke-linecap="round" stroke-linejoin="round" stroke-width="2"/>
    <line x1="92.71874" y1="76.79154" x2="87.83392" y2="70.3933" fill="none" stroke="#000" stroke-linecap="round" stroke-linejoin="round" stroke-width="2"/>
    <line x1="66.94242" y1="80.26211" x2="68.99863" y2="73.59242" fill="none" stroke="#000" stroke-linecap="round" stroke-linejoin="round" stroke-width="2"/>
    <line x1="46.71894" y1="67.34072" x2="52.8934" y2="62.55364" fill="none" stroke="#000" stroke-linecap="round" stroke-linejoin="round" stroke-width="2"/>
    <line x1="39.66692" y1="37.62478" x2="46.71894" y2="39.446" fill="none" stroke="#000" stroke-linecap="round" stroke-linejoin="round" stroke-width="2"/>
    <line x1="56.14007" y1="13.97669" x2="59.70862" y2="20.16864" fill="none" stroke="#000" stroke-linecap="round" stroke-linejoin="round" stroke-width="2"/>
    <path d="M66.31443,17.07267s5.5263-6.04767,10.26314-.995" fill="none"/>
    <path d="M95.27741,21.13024c-2.14222-7.57893-10.73116-4.05757-10.73116-4.05757" fill="none" stroke="#000" stroke-miterlimit="10" stroke-width="2"/>
    <path d="M79.01428,30.63311a10.66712,10.66712,0,0,1-.12088,1.61058c-.068.44457-3.95135-.70676-4.07144-.29946-.25976.881,3.15327,3.24378,2.69295,3.88362a3.82236,3.82236,0,0,1-3.03477,1.79693c-2.50413,0-4.53414-3.13027-4.53414-6.99167s2.03-6.99167,4.53414-6.99167S79.01428,26.77172,79.01428,30.63311Z"/>
    <path d="M92.80908,32.45433a10.66567,10.66567,0,0,1-.12089,1.61057c-.068.44458-3.95134-.70675-4.07143-.29945-.25977.881,3.15327,3.24378,2.69295,3.88362A3.82238,3.82238,0,0,1,88.27494,39.446c-2.50414,0-4.53414-3.13028-4.53414-6.99167s2.03-6.99167,4.53414-6.99167S92.80908,28.59293,92.80908,32.45433Z"/>
    <path d="M146.4513,50.79274c-.54853-3.9095-3.8737-6.48223-5.7875-4.63478-2.10842,2.03532-6.45477,1.97223-6.45477,1.97223,9.63156,0,5.41972-6.78946,5.41972-6.78946a20.63915,20.63915,0,0,0-7.78814-.80371c-3.94736.45945-2.05262,10.909-2.05262,10.909s1.72322,8.72547,9.83276,7.838c9.4078-1.02958,6.83055-8.49121,6.83055-8.49121" fill="#fff" stroke="#000" stroke-miterlimit="10" stroke-width="2"/>
    <path d="M128.36,57.82368s-4.54133-10.76812,5.84907-4.00929c11.33959,7.37627,3.68334,9.34318,3.68334,9.34318A9.92482,9.92482,0,0,1,128.36,57.82368Z" fill="#fff" stroke="#000" stroke-miterlimit="10" stroke-width="2"/>
    <path d="M146.76466,52.63018s4.86539.88667,5.918-2.64877-2.04847-3.704-2.04847-3.704S145.62231,50.85452,146.76466,52.63018Z" fill="#fff" stroke="#000" stroke-miterlimit="10" stroke-width="2"/>
    <path d="M111.65083,61.89428s6.99965,9.26633,16.95942,3.35581c7.86031-4.66463,5.54442-5.87057,5.54442-5.87057s-1.44757-1.975-1.97138-1.61295c-.70566.4878-6.50832,4.12591-6.50832,4.12591a7.288,7.288,0,0,1-8.15357,0C108.9364,56.40087,111.65083,61.89428,111.65083,61.89428Z" fill="#ff0" stroke="#000" stroke-miterlimit="10" stroke-width="2"/>
    <path d="M147.59119,41.42022s8.01895,2.67342-1.58866,9.70892c0,0-2.33474.227-1.8104-2.26951" fill="#fff" stroke="#000" stroke-miterlimit="10" stroke-width="2"/>
    <path d="M144.19213,38.79811s7.04072.1513,0,10.06152c0,0-2.19908.1107-2.04778-2.025" fill="#fff" stroke="#000" stroke-miterlimit="10" stroke-width="2"/>
    <path d="M138.43748,54.60907s4.35662-3.26314-.54511-6.96493" fill="none" stroke="#000" stroke-miterlimit="10" stroke-width="2"/>
    <path d="M14.69331,32.45433s9.92892-4.08175-.78968-6.79448c0,0-6.21943-3.70991-8.01617,4.693a4.078,4.078,0,0,0,3.14494,2.1015C11.129,32.54265,14.69331,32.45433,14.69331,32.45433Z" fill="#fff" stroke="#000" stroke-miterlimit="10" stroke-width="2"/>
    <path d="M137.15142,40.43641s6.35464-10.03551,7.005.10061c.50666,7.897-4.53891,6.12829-4.53891,6.12829S142.6739,41.42022,137.15142,40.43641Z" fill="#fff" stroke="#000" stroke-miterlimit="10" stroke-width="2"/>
    <path d="M8.015,32.49358c-.97083,1.94459-11.4464,6.04181-1.19095,17.13269a3.78519,3.78519,0,0,0,3.942.80754,2.74877,2.74877,0,0,0,3.27241-.80754l-3.84007-5.96976L13.639,49.14813s1.98492,3.04356,4.40209-.07336l-3.542-6.60922,3.83752,7.16072s4.83883,2.89624,4.80629-2.78681C23.1261,43.90338,18.072,36.24612,18.072,36.24612L20.18923,39.446s5.29528-6.1111-.39591-6.50809-2.98352-1.18145-2.98352-1.18145S10.7661,26.98314,8.015,32.49358Z" fill="#fff" stroke="#000" stroke-miterlimit="10" stroke-width="2"/>
    <line x1="7.6842" y1="45.77376" x2="10.7661" y2="50.43381" fill="#fff" stroke="#000" stroke-miterlimit="10" stroke-width="2"/>
    <circle cx="75.4466" cy="44.55732" r="2.9519"/>
    <path d="M96.31437,100.401s11.921.48247,16.34207,2.211" fill="none"/>
    <path d="M76.82576,110.97217s-3.485,1.57894,1.2518,3.31578,32.13152-1.57894,35.921-3.31578a6.05869,6.05869,0,0,0,3.47368-5.76315,2.6157,2.6157,0,0,0-1.90767-2.89623C113.367,101.81429,128.44588,114.77686,76.82576,110.97217Z" fill="#fff" stroke="#000" stroke-miterlimit="10" stroke-width="2"/>
    <g>
      <path d="M88.638,67.52S58.73829,77.47779,52.15786,53.02327a35.0429,35.0429,0,0,1-.9039-4.64693S71.05005,64.06289,88.638,67.52Z" fill="#fff" stroke="#000" stroke-linecap="round" stroke-linejoin="round" stroke-width="2"/>
      <path d="M81.73,69.05037s-18.20772-3.095-29.24088-15.75972" fill="#fff" stroke="#000" stroke-linecap="round" stroke-linejoin="round" stroke-width="2"/>
      <line x1="65.66737" y1="67.74924" x2="68.99721" y2="60.30199" fill="#fff" stroke="#000" stroke-linecap="round" stroke-linejoin="round" stroke-width="2"/>
      <line x1="70.24694" y1="69.15544" x2="73.17071" y2="62.38434" fill="#fff" stroke="#000" stroke-linecap="round" stroke-linejoin="round" stroke-width="2"/>
      <line x1="74.84505" y1="69.52062" x2="77.28103" y2="63.90334" fill="#fff" stroke="#000" stroke-linecap="round" stroke-linejoin="round" stroke-width="2"/>
      <line x1="61.4499" y1="66.12457" x2="65.00764" y2="57.6446" fill="#fff" stroke="#000" stroke-linecap="round" stroke-linejoin="round" stroke-width="2"/>
      <line x1="58.08065" y1="63.19229" x2="61.4824" y2="55.49325" fill="#fff" stroke="#000" stroke-linecap="round" stroke-linejoin="round" stroke-width="2"/>
      <line x1="55.24401" y1="59.67222" x2="57.94155" y2="53.18437" fill="#fff" stroke="#000" stroke-linecap="round" stroke-linejoin="round" stroke-width="2"/>
      <line x1="52.85282" y1="55.24784" x2="54.66795" y2="50.91419" fill="#fff" stroke="#000" stroke-linecap="round" stroke-linejoin="round" stroke-width="2"/>
      <line x1="78.75401" y1="69.38718" x2="80.59055" y2="65.21137" fill="#fff" stroke="#000" stroke-linecap="round" stroke-linejoin="round" stroke-width="2"/>
      <line x1="83.28785" y1="68.76703" x2="84.24952" y2="66.54639" fill="#fff" stroke="#000" stroke-linecap="round" stroke-linejoin="round" stroke-width="2"/>
    </g>
    <path d="M64.36314,17.684s7.81073-7.878,15.38411-.61131" fill="#fff" stroke="#000" stroke-linecap="round" stroke-linejoin="round" stroke-width="2"/>
    <line x1="82.40258" y1="9.21904" x2="81.73004" y2="15.56825" fill="none" stroke="#000" stroke-linecap="round" stroke-linejoin="round" stroke-width="2"/>
  </g>
</svg>
