<svg xmlns="http://www.w3.org/2000/svg" viewBox="0 0 535.80679 620.499">
  <g>
    <path d="M37.45007,531.04882S-33.398,500.94466,27.762,449.83675L98.23046,429.982l22.42168,11.89649s14.5075,13.11288,3.97084,33.349c-7.14369,13.71977-29.06138,24.75376-62.52258,50.30237C54.2419,531.5301,49.58622,527.60325,37.45007,531.04882Z" fill="#f7931e"/>
    <path d="M38.96951,528.8204c39.45451,7.82552,65.67614-32.10759,65.67614-32.10759,49.62894-12.20433,17.52592-57.06272,17.52592-57.06272s18.031,41.14174-13.20976,49.29789c-11.08,2.8927-22.20075,17.57584-22.20075,17.57584S35.8199,559.38564,7.64079,502.623c-27.08981-54.56841,52.19336-63.02577,52.19336-63.02577s37.6281-16.795,44.26811-5.92957c0,0-67.3893,14.02366-31.32589,36.33878,40.41892,25.01021,52.26539-17.74785,49.3952-30.35634" fill="#f7931e" stroke="#000" stroke-miterlimit="10" stroke-width="4"/>
    <path d="M305.57112,603.11991s73.42057,45.23835,76.24045-29.60835l-15.58575-71.53394-21.037-14.20225s-55.207-13.561-46.35207,89.66815C299.46968,584.82174,304.28254,594.51979,305.57112,603.11991Z" fill="#f7931e"/>
    <path d="M305.57112,603.11991c-25.44688-31.1505-2.51795-73.061-2.51795-73.061-12.54678-49.54347,42.13568-42.28352,42.13568-42.28352s-44.78947,3.41538-37.30955,34.825c2.65288,11.13991-5.08289,27.85584-5.08289,27.85584s-22.72612,69.80613,40.62078,68.00872c60.89814-1.72794,31.10973-75.68738,31.10973-75.68738s-.9036,10.90522-3.31666-14.98041c0,0-14.93028,21.20884-33.04322,2.33751-33.80979-35.2254-5.45672-38.96829,7.02181-42.35923" fill="#f7931e" stroke="#000" stroke-miterlimit="10" stroke-width="4"/>
    <path d="M337.89518,558.27371s8.8-3.07118,13.18736,1.09685" fill="none" stroke="#000" stroke-linecap="round" stroke-miterlimit="10" stroke-width="4"/>
    <path d="M340.32084,567.556s3.07118-2.85181,8.33605,0" fill="none" stroke="#000" stroke-linecap="round" stroke-miterlimit="10" stroke-width="4"/>
    <path d="M443.57991,337.93091s19.28808-1.385,32.26372,9.20186c29.699,24.23147-2.424,49.99149-10.90825,43.59552-27.55386-20.7718-78.57521,4.37741-78.57521,4.37741,3.08646,36.59213-33.37083,41.85846-33.37083,41.85846s70.73347,41.67622,32.27193,77.0975-55.94392-8.025-53.2967-15.09482c1.564-4.17688,15.93406-8.02392,15.93406-8.02392s-40.91687-47.98075-45.52052-50.75743c-6.5451-3.94766-131.919-8.72409-189.19459,24.30916-18.24079,10.52022-35.194-5.11976-36.09843-14.298-2.61339-26.52091,90.13144-44.01995,125.10215-49.288,44.594-6.71779,61.30252-5.80287,61.30252-5.80287s85.50777,1.1171,10.76594-20.6157S152.13207,267.64747,152.13207,267.64747s37.98646-14.12732,40.428-24.66655S277.60933,396.11183,443.57991,337.93091Z" stroke="#000" stroke-miterlimit="10" stroke-width="4"/>
    <g>
      <path d="M111.341,241.11188s55.31889,21.10365,86.52614-29.47362c12.21051-19.78943-1.47368-57.263-1.47368-57.263s-7.57893-7.15788,34.73677-28.421c42.0001-21.10453,14.94734-52.842,14.94734-52.842s-16.62627-20.96238-48.842-10.52629c-44.842,14.52628-46.21044,73.89459-46.21044,73.89459C161.44619,33.21757,40.18328,2.023,40.18328,2.023S-.86927,5.74394,17.24814,56.90173c0,0-1.15794,8.84209,36.19827,32.842,21.75517,13.97687,43.57886,39.15781,43.57886,38.21045S28.52939,138.26894,58.28851,185.112c11.3684,17.8947,62.42092,27.15784,75.68406,9.15787,16.3843-22.23583-16.10523-52.10515-34.1052-48.31569" fill="#fcfcfc" stroke="#000" stroke-miterlimit="10" stroke-width="4"/>
      <path d="M120.60417,203.75128s7.02929,12.82195,2.85959,23.8063c-2.82656,7.44609-10.79931,14.04775-29.59638,15.23851-43.25607,2.74021-46.52622-25.89468-46.52622-25.89468s-2.10526-18.31576,9.68419-30.73678C57.02535,186.16463,69.86743,206.58564,120.60417,203.75128Z" fill="#fff" stroke="#000" stroke-miterlimit="10" stroke-width="4"/>
      <path d="M117.66564,242.98092s1.5981,42.93289,58.93842,12.2362c35.36835-18.93417,23.76021-48.76656,23.76021-48.76656C170.28828,262.79605,117.66564,242.98092,117.66564,242.98092Z" fill="#fcfcfc" stroke="#000" stroke-miterlimit="10" stroke-width="4"/>
    </g>
    <circle cx="342.62636" cy="236.23468" r="143.3013" fill="#ffdec9" stroke="#000" stroke-miterlimit="10" stroke-width="4"/>
    <path d="M205.17482,169.36325c27.35887,23.14007,111.56275,46.59079,146.61531,16.80138s-9.16377,38.45219-9.16377,38.45219,23.37426,23.22526,66.00576-10.66609,45.47359,52.32788,45.47359,52.32788,4.178-57.59756,18-43.82075,11.9524,36.91857,11.9524,36.91857S544.19349,103.5105,356.527,92.93338C203.70655,84.32023,205.17482,169.36325,205.17482,169.36325Z" fill="#754c24" stroke="#000" stroke-linecap="round" stroke-linejoin="round" stroke-width="4"/>
    <path d="M465.47411,266.27861s-3.72929-14.73771,8.436-6.23665c5.61322,3.92249-2.10915-20.26615-4.38247-22.4723-4.11887-3.99716-2.79947,10.45356-2.79947,10.45356" fill="#ffdec9" stroke="#000" stroke-miterlimit="10" stroke-width="4"/>
    <path d="M483.37636,263.23547s-3.39183,23.981-21.80043,18.60368" fill="#ffdec9" stroke="#000" stroke-miterlimit="10" stroke-width="4"/>
    <g>
      <path d="M505.54261,468.18134c38.25736,0,25.02708-33.27617,25.02708-33.27617,14.433-26.86149-24.07508-52.92115-24.07508-52.92115s-25.76876,41.01321-55.10893,24.19265c0,0-43.04749,63.487,19.0392,68.01844" fill="#fff" stroke="#000" stroke-linecap="round" stroke-linejoin="round" stroke-width="4"/>
      <path d="M483.37636,359.53263c-1.0867-2.59109,45.18874,3.20734,7.10155,42.09636-31.27159,22.05048-53.09639.80184-40.89361-18.0413C457.15386,396.41706,496.49168,390.80421,483.37636,359.53263Z" fill="#fff" stroke="#000" stroke-miterlimit="10" stroke-width="4"/>
      <path d="M497.69443,431.69783s24.456,69.75969-27.26955,42.49728c0,0-31.39733-30.46975,5.41875-28.86608" fill="#fff" stroke="#000" stroke-linecap="round" stroke-linejoin="round" stroke-width="4"/>
      <path d="M516.13665,411.01855s9.622,9.05266,11.62661,20.67928" fill="#fff" stroke="#000" stroke-linecap="round" stroke-linejoin="round" stroke-width="4"/>
    </g>
    <g>
      <circle cx="344.48886" cy="399.59513" r="14.58123" fill="#ffc41d"/>
      <path d="M351.675,409.40916c-1.03906,2.91406-4.55838,2.35172-5.77092-.57371-1.85381-4.40055,6.20177-9.95708,6.02053-11.44633-.17116-1.12947-3.54987.91066-6.09392,2.77369a26.49462,26.49462,0,0,1-2.26527,2.35794c-.599.45923-3.3429-1.11275-2.20518-2.25036,1.84706-1.79492,4.9658-4.93693,4.95909-5.75051-.03681-.78477-3.71524,1.20789-6.31691,3.0107a10.9696,10.9696,0,0,1-3.85051,3.75166l.0176.00628a.09948.09948,0,0,1-.0652.0163,3.04985,3.04985,0,0,1-.5703.2121c-.0176-.00627-.0176-.00627-.04136.00509-2.14094.62157-2.96647-.50369-3.29969-2.62091a2.14326,2.14326,0,0,1,.41736-.2272c-.09534.04522.54576.96624,2.05625.61454,2.66237-.75228,5.61954-6.04924,7.44288-7.55581a3.64524,3.64524,0,0,0-3.73185.58864,1.41071,1.41071,0,0,0,.0112,2.2992.23406.23406,0,0,0,.00758.20057c-3.149.34134-3.18945-2.81914-.95723-3.86328,2.226-1.02666,4.54192-.14148,6.25215.38923.57425.16521,2.41362.72213,1.55406,1.52363-.25693.16565-.62054.07554-1.02931-.10976-.7747.11951-1.584,1.05757-2.45229,2.27154,5.22737-3.33988,8.15222-.55577,7.23413,1.07572a14.88578,14.88578,0,0,1-1.20264,1.70806c4.32734-2.86926,7.0143-2.24753,7.30485-.34339.35233,2.61858-6.04792,6.80661-6.12374,10.45974-.05048,1.86163,1.52027,1.72929,2.22468,1.30763Z" fill="#fff"/>
    </g>
    <ellipse cx="329.90386" cy="359.22968" rx="36.05321" ry="12.09691" stroke="#000" stroke-miterlimit="10" stroke-width="4"/>
    <g>
      <path d="M309.91533,361.97s8.313,11.79209,25.95279,7.86611c26.59832-5.91984,2.69015-23.2047-20.54111-14.00974C305.32161,359.78654,309.91533,361.97,309.91533,361.97Z" fill="#e73800" stroke="#000" stroke-miterlimit="10"/>
      <path d="M307.78033,362.17673s9.70271,9.78538,23.974,9.11713c15.97237-.74791-3.93152-21.608-19.2423-17.18342C303.273,356.78039,307.78033,362.17673,307.78033,362.17673Z" fill="#e73800" stroke="#000" stroke-miterlimit="10" stroke-width="3"/>
      <path d="M299.97647,363.57364s22.142,8.76887,36.35317,5.80747-9.83377-14.49341-19.96675-14.182C303.64256,355.5901,299.97647,363.57364,299.97647,363.57364Z" fill="#e73800"/>
    </g>
    <path d="M53.73132,469.94377s7.90042,4.91846,7.47923,10.915" fill="none" stroke="#000" stroke-linecap="round" stroke-miterlimit="10" stroke-width="4"/>
    <path d="M48.16011,477.59865s4.119.60957,5.25824,6.46844" fill="none" stroke="#000" stroke-linecap="round" stroke-miterlimit="10" stroke-width="4"/>
    <path d="M293.288,358.61574s38.19214-14.3212,69.57279-.35153c0,0,4.70882.16859,1.64349-3.42394C354.62968,343.26736,296.78041,340.32872,293.288,358.61574Z" fill="#fff" stroke="#000" stroke-miterlimit="10" stroke-width="2"/>
    <path d="M306.49936,254.98335c3.40439,26.0126-11.70285,48.24431-29.4676,49.25506s-33.374-19.40273-34.86425-45.59479-1.70659-41.40806,14.8841-34.97711C273.90722,230.20015,305.762,249.34914,306.49936,254.98335Z" fill="#f2f2f2" stroke="#000" stroke-miterlimit="10" stroke-width="4"/>
    <path d="M321.53054,257.57785c-6.981,25.28856,4.89525,49.40148,22.34789,52.8675s35.74347-14.584,40.85371-40.316,7.43587-40.77067-9.88668-36.70406C357.2463,237.55689,323.04258,252.10046,321.53054,257.57785Z" fill="#f2f2f2" stroke="#000" stroke-miterlimit="10" stroke-width="4"/>
    <ellipse cx="297.87505" cy="315.69014" rx="11.53943" ry="26.59128" transform="translate(-130.76192 383.95547) rotate(-55.71215)" fill="#ffc41d" stroke="#000" stroke-miterlimit="10" stroke-width="4"/>
    <path d="M301.05326,252.283c2.47507,20.67082-7.57811,38.21544-19.56953,38.89772-8.4182.479-16.19027-7.41584-20.48411-19.3598-.825-2.295,12.6115-8.12268,12.06338-10.686-.36631-1.713-14.79945-.0959-15.02711-1.90589q-.27633-2.197-.40741-4.47531c-1.18346-20.80035-1.43239-32.87969,9.81635-27.66295C278.8732,232.39086,300.51718,247.80584,301.05326,252.283Z"/>
    <path d="M371.378,236.87068c6.57294,39.51586-7.95574,66.906-19.94716,67.58823-8.41821.479-16.19028-7.41583-20.48412-19.35979-.825-2.295,12.6115-8.12268,12.06338-10.686-.3663-1.713-14.79945-.0959-15.0271-1.90589-.18422-1.46464-.34458-2.95687-.40741-4.47532-.39278-9.49145-.32936-17.81289,11.6621-20.96779C350.59368,244.07642,370.63816,232.42261,371.378,236.87068Z"/>
    <polygon points="213.649 208.779 308.201 244.65 233.414 203.945 213.649 208.779" stroke="#000" stroke-linecap="round" stroke-miterlimit="10" stroke-width="3"/>
    <polygon points="415.673 225.299 316.241 243.744 397.086 217.019 415.673 225.299" stroke="#000" stroke-linecap="round" stroke-miterlimit="10" stroke-width="3"/>
  </g>
</svg>
