<?xml version="1.0" encoding="utf-8"?>
<!-- Generator: Adobe Illustrator 25.2.3, SVG Export Plug-In . SVG Version: 6.00 Build 0)  -->
<svg version="1.1" id="Camada_1" xmlns="http://www.w3.org/2000/svg" xmlns:xlink="http://www.w3.org/1999/xlink" x="0px" y="0px"
	 viewBox="0 0 430 158" style="enable-background:new 0 0 430 158;" xml:space="preserve">
<style type="text/css">
	.st0{fill:#0D2737;}
	.st1{fill:#F7F7A8;}
	.st2{fill:#BEFBCD;}
	.st3{fill:#CCFAC4;}
	.st4{fill:#B5FCD2;}
	.st5{fill:#F7F7A9;}
	.st6{fill:#D6F9BD;}
	.st7{fill:#F0F8AC;}
	.st8{fill:#DFF8B7;}
	.st9{fill:#D5F9BE;}
	.st10{fill:#E6F8B2;}
	.st11{fill:#EFF8AC;}
	.st12{fill:#B4F8CF;}
	.st13{fill:#0E2838;}
	.st14{fill:#17313D;}
	.st15{fill:#122D3B;}
	.st16{fill:#0F2938;}
</style>
<g>
	<path class="st0" d="M0.1,116c2.1-4.1,4.2-7.6,10-6.9c3,0.4,5.1-2.8,6.7-5.4c3.9-6.2,5.9-13.1,7.9-20.3C11.5,86.1,5.2,80,8,67
		c3.7-17,14.5-29.2,28-39.2c4.8-3.6,9.8-6.9,15.2-9.4c4-1.9,8.3-3,12.2,0.3c2,1.7,2.6-0.4,3.6-1c6.4-3.7,12.7-5.9,19.6-1.3
		c1.7,1.1,2.5,2.9,3.9,4.3c4.1-5.8,7.9-11.6,13.7-15.7c10.2-7.3,20.7-3.7,24,8.3c2.5,9,1.1,17.8-0.7,26.6c-0.2,1.1-1,2.3,0,3.1
		c0.9,0.7,1.8-0.4,2.6-0.9c12-7.9,21.5-3.7,24.1,10.6c0.3,1.4,0.6,2.9,1.1,5.7c2.1-8,4.2-14.6,5.6-21.4c1.6-7.9,6.3-10.7,13.1-6.5
		c3.4,2.1,5.5,2,8.9,0.2c5.2-2.9,11.2-1,15.9,4.5c2.1,2.5,3.1,2.1,4.5-0.3c2.1-3.3,5.1-5.7,8.5-7.5c8-4.2,15.2-1.8,19,6.4
		c0.7,1.5,1.2,3,2,5c1.7-1.8,1.7-3.8,2.1-5.6c1.3-5.5,5-7.4,10.4-5.3c7.9,3.1,11.8,10.7,10.5,20.4c-0.3,2.1-0.7,4.2-1.3,7.5
		c3.4-3.4,5.2-6.5,6.4-10c1.3-3.6,2.6-7.2,4.6-10.5c2.1-3.4,5.1-5.3,8.9-5.6c1.7-0.1,3.1-0.5,4.7-0.9c4.4-1,9-0.6,10.6-6.8
		c0.8-3.1,7.1-2.9,10.6-0.1c3.7,2.9,6.9,6.2,8.1,11.1c0.2,1,0.4,2.5,2.1,2.2c1.6-0.3,0.6-1.6,0.8-2.4c0.6-2.2,0.8-4.6,1.7-6.7
		c2.7-6,9.9-7.8,15-3.9c7.7,5.8,8,17.8,0.5,23.8c-1,0.8-2.1,1.2-1.4,2.6c1.3,2.7,0.6,5.5,1,8.8c2.2-2.5,2.7-5.3,3.5-7.8
		c2-5.9,6.1-7.6,11.5-4.3c1.1,0.7,2.4,1.4,3.1,2.5c2.1,3.1,4.5,3.8,8.3,3.5c5.5-0.5,9.7,2.7,12.9,7.1c0.8,1.2,1.1,2.8,3.7,2
		c8.5-2.7,14.5-0.4,19.3,7.7c1.9,3.1,3,3.5,6.4,2c8-3.4,16.9,0.4,21,8.5c1.1,2.2,1.9,4.6,2.3,7c0.8,4.5,0.5,9.3,6.4,11
		c2.2,0.6,1.7,4,3.5,5.6c0,1,0,2,0,3c-2,9.3-22,23.2-33.9,18.6c-6.5-2.5-12.2-5.5-19.5-4.2c-3.7,0.6-7-2.6-9.7-5.4
		c-1.2-1.2-1.9-2.3-4.1-1c-6.3,3.7-11.6,3.1-17.4-1.9c-1.9-1.6-2.9-2.2-5.3-0.5c-4.5,3.3-11.3,1.6-16-3.8c-2.1-2.5-3.2-2.7-5.8-0.7
		c-5.9,4.5-11.3,4-17.2-1c-1.8-1.5-3-2.7-5.6-1.1c-7.7,4.5-10.5,4.1-17.4-1.6c-0.6-0.5-1.1-1.2-2.5-1.2c-1,2.1-1.1,4.6-1.4,7
		c-2.1,12.9-4.9,25.5-12.3,36.6c-4.8,7.2-10.8,12.5-19.9,13.1c-1.3,0-2.7,0-4,0c-11.3-1.2-16.4-9.1-19.8-18.5
		c-2.5-6.8-3-14-2.3-21.2c0.6-5.5,3.2-10.1,7.7-13.5c1.3-1,2.7-2,4-3c1.3-1,1.6-2,0.5-3.4c-1-1.1-2-1.7-3.5-0.8
		c-1.5,1-2.9,2.2-4.5,3.2c-6.2,3.8-12.5,4.5-18.6-0.2c-1.6-1.2-2.8-1.7-4.7-0.2c-6.1,4.9-10.9,4.9-17.8,0.6c-1.5-0.9-2.3-1.9-4.1,0
		c-4.6,5.1-9.1,5.5-15.1,2c-4.2-2.4-7-6.1-8.6-10.8c-3.8,8.1-7.2,16.3-17.8,17.1c-7.8,0.6-12.3-3.6-15.5-9.6
		c1.1,5.2-0.7,11.2,2.3,16.9c2.5-1.1,4.6-3,7.6-3.2c5.4-0.3,9.1,2.6,9.4,7.9c0.4,7.3-1,14.3-4.8,20.6c-7.1,11.8-21,14.2-31.8,5.7
		c-9.5-7.5-14.6-17.4-16-29.4c-2.4-20.6,3.1-40.2,7-58.9c-1.7,4.8-4.9,10.4-6.5,16.5c-1.7,6.3-3.2,12.6-5,18.8
		c-3.3,11.8-14.9,16.6-25.6,10.4c-5-2.9-7.7-9-6.4-15c1.3-5.9,3.2-11.5,5-16.3c-3,5.4-4.3,12.3-5.8,19.1c-1.5,6.3-3.2,12.6-5.7,18.6
		c-2.9,7-7.5,12.6-13.3,17.2c-10.9,8.7-24.4,3.1-28.4-9.7C0.1,118,0.1,117,0.1,116z"/>
	<path class="st1" d="M94,37c-2.7,5.9-5.2,11.8-8.1,17.6c-6.1,12.3-9.2,25.6-12.8,38.7c-1.8,6.7-8.9,9.3-14.9,5.6
		c-3.7-2.3-3.6-5.5-2.5-9.2c4.6-15.1,9-30.3,11.9-45.8c0.7-3.7,1.8-7.4,1-11.5c-2.5,0.5-3.3,2.4-4.2,4C56.3,50,49.7,64.4,43.5,78.9
		c-2.5,5.9-2.9,12.6-4.6,18.8c-2.5,9-5.9,17.7-13.3,24.1c-7,6.1-13.5,5.2-18.4-2.6c-1.3-2.1-1.6-4.1,1.5-4.1
		c6.9,0.1,10.5-4.3,13.6-9.4c3.7-6,5.9-12.7,7.6-19.4c3.9-15.9,7.4-32,11.3-48.9c-10.2,7.1-15.5,16.3-17.8,27.3
		c-0.5,2.3,0.6,4.8,3.3,5.5c3.6,0.9,2.4,2.3,0.5,3.8c-3.2,2.5-6.5,6.4-10.9,4c-4.6-2.6-3.5-7.5-2.3-11.7
		c3.6-12.6,11.5-22.4,21.4-30.6c5.9-4.9,12.3-9.1,19.2-12.4c1.5-0.7,3.7-1.9,5,0c1.3,2,0.9,4.8-0.9,5.9c-8.9,5.1-8.3,14.6-11.5,23
		c2.7-0.6,2.9-2.7,3.6-4.1c4.1-7.9,8.6-15.4,14.9-21.7c2.5-2.5,5.3-4.6,8.6-5.9c6.7-2.6,11.9,0.5,12,7.8c0.1,4.6-0.7,9.2-1.2,15
		c2.2-4.1,3.9-7.3,5.7-10.4C93.9,32.6,94.2,34.6,94,37z"/>
	<path class="st2" d="M322.4,90.2c-1.9,3.5-4.4,6.6-7.3,9.4c-3.6,3.6-6.1,3.5-9.8,0c-2.8-2.7-4-5.5-4.9-12.2
		c-2.7,3.4-4.9,6.5-7.5,9.4c-3.9,4.3-6.8,4.2-10.8-0.1c-4-4.4-4.5-9.7-4.1-16c-1.7,1.3-2.9,2.3-4.1,3.2c-1.9-0.5-3.1-1.6-3.3-3.6
		c0.3-1.7,1.4-3.1,2.5-4.2c6.5-6.6,8.5-15.3,11-23.7c0.8-2.6,0.7-4.4-2.8-3.6c-2.7,0.5-4.5-0.4-5.3-3.1c-2.3,6-3.8,12.2-4,18.7
		c-0.1,1.7-0.6,3.3-1.8,4.6c-3,0.5-3.5-1.9-4.3-3.8c-1.2-3.1-2.2-6.2-3.7-9.2c3.1-4.8,4.4-10.3,6.9-15.4c1.6-3.2,3.4-7,8.3-4.3
		c1.1,0.6,1.3-0.1,1.9-0.8c1.8-2.2,4.3-2.7,6.8-1.8c4.6,1.7,6.4-0.7,6.8-4.6c0.6-4.9,2.6-4.1,5.2-1.6c2.5,2.4,5.2,4.9,4.7,8.9
		c-0.3,2.6,1.6,3.2,3.2,3.5c5.4,0.8,4.1,4.5,3.8,7.9c-0.4,3.8-3.2,3.9-5.9,3.3c-3.3-0.8-4.3,0.7-5.1,3.5c-1.8,6.6-3.8,13.1-5.7,19.6
		c-0.4,1.4-1.1,3.3,0.1,4.3c1.5,1.1,3-0.5,4.4-1.4c3.5-2.4,6.1-5.3,7.4-9.6c2.3-7.4,5.2-14.7,7.6-22.1c0.7-2.3,1.5-2.8,3.4-1.3
		c4,3.1,6.8,6.6,6,12.2c-1.1,7.4-3.9,14.4-6,21.5c-0.5,1.9-2.1,4.5,2,4.3C322.3,83.2,321.4,87.2,322.4,90.2z"/>
	<path class="st3" d="M270.7,80.9c1.4,0.6,2.5,1.7,3.2,3c-5.8,4.1-5.5,10.3-6,16.3c-1.1,12.6-3.7,24.9-9.4,36.2
		c-1.2,2.3-2.3,4.8-4.4,6.5c-3,0-3-2.5-3.7-4.4c-2-5.4-2.8-11.1-5.8-16.2c-0.7-2,0.3-3.5,1.2-5c3-4.6,5-9.6,7.3-14.9
		c-2.6,1.3-4.3,3.2-6.4,4.6c-1.5,1.1-2.9,2.8-5.2,1.8c-1.4-1.9-2.6-3.8-1.7-6.3c4.6-2.9,9.2-5.9,13.9-8.7c2.7-1.6,4.5-3.5,4.7-6.9
		c0.2-3.9,1.8-7.6,1.5-12.5c-3.2,4.9-6,9.2-8.8,13.4c-1,1.5-2.2,2.9-3.4,4.3c-7.2,7.8-14.3,6.1-17.7-4.1c-0.8-2.3,0-4.9-1.9-6.8
		c0.2-3.3-0.4-6.5-2.4-9.3c4.6-4.5,7.3-10,8.8-16.3c1.6-6.8,4-13.3,5.7-20c0.7-2.7,1.8-3.3,4.1-1.8c3.5,2.5,6.1,5.2,5.9,10.1
		c-0.4,8.7-3.4,16.8-5.4,25.2c-0.3,1.3-1.5,2.8-0.3,3.7c1.4,1.1,2.7-0.4,3.8-1.3c5.6-4.3,9.7-10,14-15.4c2.7,0.2,2.6,2.6,3.4,4.3
		c1.3,2.9,1.2,6.6,4.3,8.7C272.7,72.8,270.8,76.9,270.7,80.9z"/>
	<path class="st4" d="M322.4,90.2c-2.8-2-1.7-6.1-4.4-8.2c12-6.1,14.8-18.2,18.6-29.4c1.5-4.4,2.8-3.5,5.1-1.2
		c2.6,2.6,5.2,5.2,4.5,9.5c10.8-7.3,17.4-3.7,20.2,11.8c0.5-0.9,0.6-1.4,0.9-1.8c2.9-3.8,6.1-7.8,11.5-5.8c5.3,2,8.3,6.5,9,12.2
		c0.6,5.2-0.8,10.2-2.4,15.1c-1.9,5.7-4.2,11.2-4.2,17.3c0,2.9-1.7,3.2-4,2.7c-5.4-1.3-8.7-6.2-8-12.1c0.8-6.5,3.3-12.5,6.2-18.3
		c1-2.1,1.9-4.2,2.7-6.4c0.5-1.6,0.7-3.5-1-4.5c-1.7-1.1-3.2,0.1-4.4,1.3c-4.2,3.9-7.3,8.7-9.4,14c-2.3,5.8-4.6,11.8-4.4,18.3
		c0.1,3.8-2,4.1-4.9,3.2c-4.9-1.4-7.5-5.2-7.4-10.5c0.2-7.1,2.6-13.6,5.5-20c1.3-2.9,2.7-5.7,3.7-8.7c0.6-1.7,0.9-3.8-1-5
		c-2.1-1.3-3.4,0.5-4.6,1.8c-6.8,7-10.3,15.8-12.2,25.2c-0.8,3.6-1.1,7.2-1.1,10.9c0,3.9-1.6,4.7-4.9,2.7c-4.8-3-6.7-7.6-6.9-13.1
		c0-1,0-1.9-0.9-3.6C323.6,88.5,323,89.3,322.4,90.2z"/>
	<path class="st5" d="M112.1,88.1c-0.4,8.8-2.2,17.5-0.2,26.3c0.4,1.6,0.6,3.3,1.2,4.8c1.1,3.2,2.2,6.7,5.9,7.3
		c3.3,0.6,5.4-2,7.1-4.5c0.7-1,1.5-2,2.8-1.7c1.9,0.4,1.1,2.1,1.1,3.3c0.1,4.5-0.7,8.9-2.7,13c-4.4,9.2-13.1,11.8-21.4,6
		c-8.1-5.6-12.4-13.6-13.8-23.3c-2.3-15.1,0.7-29.8,3.5-44.4c1-5,2.4-10,3.6-15c3.5-3,4.3,0.7,5.1,2.5c2.3,5.5,4,11.2,5.7,16.8
		C110.9,82.2,113.4,84.7,112.1,88.1z"/>
	<path class="st6" d="M225.7,71.8c3.8,2.3,5.1,5.3,2.4,9.3c-2.8,4.5-5.7,8.8-9.9,12.2c-7,5.5-13.3,4.3-16-4
		c-5.8-17.6-4.2-34.7,5.7-50.6c2.7-4.4,6.8-8.6,12.6-7.4c5.9,1.2,6.5,7.1,7.3,11.9c1.1,6.3,0.6,12.6-1.9,18.6
		c-3.1,7.4-8.1,8.2-13.3,2.1c-0.7,1.6-0.3,3.2,0,4.8c1.4,7,4.5,8.5,10.4,4.8C223.8,73,224.4,71.8,225.7,71.8z"/>
	<path class="st7" d="M112.1,88.1c-3.1-8.7-6.1-17.5-9.3-26.2c-0.6-1.5-1.5-3.1-3.7-1.9c1.8-8.9,3.8-17.7,5.5-26.7
		c0.5-2.6,1.8-6.5-1.2-7.6c-2.6-0.9-3.9,2.9-5.4,5c-1.4,2-2.7,4.1-4,6.2c-0.9-1.6-1.3-3.4-3.3-4.1c3.8-8.2,8.6-15.8,15.3-21.9
		c3.2-2.9,6.8-5.3,11.3-3.5c4.1,1.6,5.3,5.6,6,9.7c1.4,9.1-0.5,17.9-2.2,26.7C118.2,58.6,115.1,73.4,112.1,88.1z"/>
	<path class="st8" d="M163.7,49.9c1.1-4.4,2.4-8.7,3.2-13.1c0.6-3.3,2.1-2.8,4.1-1.8c3.3,1.8,6,4.2,6.1,8.6c1.9-0.9,2.3-2.8,3.4-4.1
		c5.4-6.7,12.6-5.7,15.9,2.3c2.1,4.9,1.9,10.1,1,15.2c-1.5,8.7-3.1,17.3-4.9,26c-0.6,3.1-0.7,6.3-0.6,9.4c0.2,4.1-2.2,4.9-5.4,4.3
		c-4.5-0.8-7.4-4.7-7.5-9.8c-0.3-9.8,2.6-19,5.4-28.2c0.9-3,1.9-6,2.5-9.1c0.3-1.8,1.2-4.4-1.1-5.4c-2.4-1-3.4,1.6-4.4,3.2
		c-3.8,5.9-6.5,12.3-8.6,19c-0.2,0.6-0.5,1.2-0.8,1.8c-2.4-1.6-2.9-4.3-3.8-6.8C166.9,57.5,166,53.4,163.7,49.9z"/>
	<path class="st4" d="M401,96c0.1,6.7,2.9,9.4,8.8,9c3.6-0.2,6.7-1.7,9.5-3.9c1.1-0.9,2.1-1.9,3.3-0.4c0.9,1.1,1.5,2.5,0.4,3.6
		c-6.2,6.3-12.6,12.6-22.2,13c-4.5,0.2-8.1-2.2-9.8-6.4c-4.4-10.4-4-20.9,1.8-30.6c5.1-8.5,15.4-7.8,19.9,1c1.5,2.8,2.2,5.9,2.2,9.1
		c-0.1,3.8-0.4,7.4-4.2,9.5C408,101.5,405.4,100.4,401,96z"/>
	<path class="st9" d="M244.6,121.8c4.2,2.4,3.9,7,5.3,10.8c1.3,3.5,1.5,7.5,4.2,10.4c-8.9,12.2-21.5,11.2-27.8-2.4
		c-3.3-7.1-3.9-14.6-3.2-22.3c0.3-3.3,2.3-5.8,4.8-7.9c3.7-3,7.7-5.8,12-7.9c0.7,2.1,1.4,4.3,2.2,6.4c0.5,2.5-1.5,3.5-2.8,4.9
		c-2.5,2.5-4.4,5.4-5.5,8.8c-0.5,1.4-0.9,3,0.6,4.1c1.3,0.9,2.5-0.2,3.7-0.7C240.4,124.9,241.6,122.1,244.6,121.8z"/>
	<path class="st10" d="M163.7,49.9c2.1,0.1,2.7,1.6,3.3,3.2c1.7,5,3.4,10,5.1,15c-1.4,9-3.6,17.9-2.6,27.1c0.4,3.8-2.8,3.2-4.9,2.2
		c-5-2.3-7.2-6.7-7.5-12c-0.3-4.3-0.1-8.6,0.7-13.1c-2.8,3.6-10.1-0.4-10.6,6.7c-3.2,0.5-3.5-2.3-4.5-4.2c-1.2-2.3-1.9-4.8-4-6.6
		c-1.4-2.7-0.8-5.2,1.3-7.2c1.8-1.7,4.7-2.7,3-6.3c-1.8-3.7-4.6-1.3-6.9-1.5c-1.3-1.5-2.7-2.9-4.2-4.3c2.4-3.8,5.7-6.1,10.4-4.9
		c4.3,1.1,5.4,4.9,6.2,8.8c0.6,3,0.5,5.9-0.3,8.9c-1.2,4.5,1.6,5.3,4.8,4.9c4.2-0.5,6.6-3.5,8-7.3C162.1,56.3,162.8,53.1,163.7,49.9
		z"/>
	<path class="st11" d="M139.2,68c2.8,0.3,3.1,2.6,3.9,4.5c1,2.4,1.5,5.2,4.2,6.5c-1.1,5.8-2.4,11.6-5.6,16.7
		c-2.3,3.8-5,7.4-10.2,6.7c-5.1-0.8-7.7-4.6-8.5-9.3c-2.8-15.8,0-30.6,8.9-44.1c2.9-0.2,4.3,1.2,4.2,4.1c1.3,1.9,0,3.5-0.6,5.1
		c-1.9,5.7-2.5,11.6-2.1,17.6c0.1,1.8,0,4.2,2.3,4.4c2.6,0.2,2.6-2.4,3.3-4.2C140,73.4,136.8,70.7,139.2,68z"/>
	<path class="st12" d="M328,35.2c-0.1,2.6-0.7,5.6-4.1,6.1c-3.4,0.6-4.9-2-6-4.8c-1.3-3.5-1.2-6.8,1.4-9.7c1.3-1.4,3.1-1.4,4.6-0.5
		C327,28.3,328,31.4,328,35.2z"/>
	<path class="st13" d="M270.7,80.9c-2.5-1.7-0.6-4-0.9-6c-0.3-1.9,0-3.9,0-5.9c1.3-6,1.1-12.2,2.9-18.1c0.8-2.5,1.6-5,3.9-7.7
		c0.6,9.2,6.8,1.6,10.1,4.4C283.8,59.7,280.5,71.8,270.7,80.9z"/>
	<path class="st13" d="M244.6,121.8c-2.5,2.3-4.5,5.2-7.9,6.5c-3.4,1.3-5.1,0.4-4.7-3.4c0.5-4.6,3-8.3,6-11.6c1.3-1.4,2.7-2.9,4-4.3
		c4.1-3,8.2-6.1,13.2-9.7C252.9,108.1,248.8,115,244.6,121.8z"/>
	<path class="st14" d="M213.4,56.3c0.8-5.4,2.5-9.6,4.9-13.6c0.5-0.8,1.2-1.9,2.3-1.6c1.3,0.5,1.4,1.8,1,3
		C220.3,48.8,218.1,52.9,213.4,56.3z"/>
	<path class="st15" d="M402.2,90.1c0.3-2.7,1.7-4.5,3.2-6.1c0.9-1,2.1-1.9,3.4-0.7c1.2,1.1,0.6,2.5-0.3,3.5
		C407,88.8,405.1,90.1,402.2,90.1z"/>
	<path class="st16" d="M139.2,68c-0.9,3.3,3.3,6.2,0.8,9.7c-1.3,1.8-1.6,5-4.4,4.7c-3.1-0.2-3.5-3.1-3.7-5.7
		c-0.8-8.3,1-16.1,4.2-23.7c1.8-1.5,3.6-3.5,6-1.8c2.5,1.7,2.9,4.7,2.9,7.5c0,0.5,0.2,1.3-0.9,1.4C138.9,60.5,139.1,64.3,139.2,68z"
		/>
</g>
</svg>
