<svg xmlns="http://www.w3.org/2000/svg" viewBox="0 0 232.11349 240.37834">
  <g>
    <path d="M218.68328,84.37468c22.073,60.97891,4.54047,127.42613-61.56548,147.16445C87.767,252.24632,32.32325,220.65159,10.25025,159.67269S14.10261,35.0188,77.18441,10.715C144.62355-15.26765,196.61028,23.39577,218.68328,84.37468Z" fill="#ffc41d" stroke="#000" stroke-miterlimit="10" stroke-width="5"/>
    <path d="M2.94808,106.24717,19.3723,107.481,2.3404,111.32323l-.35317,4.70736L13.529,113.34478,1.8161,118.30265l-.05473,9.28187,8.08626-1.37643-7.97675,3.81914,17.289,1.035L2.13755,133.64728S-.49438,116.21586,2.94808,106.24717Z"/>
    <polygon points="8.054 151.661 21.548 147.816 8.772 153.624 10.879 159.759 19.97 158.222 12.314 163.513 16.718 175.031 27.949 171.841 18.008 179.26 39.733 172.74 20.162 184.04 8.054 151.661"/>
    <polygon points="31.209 197.599 51.873 189.472 33.264 200.163 36.442 203.681 51.258 197.659 37.713 205.011 40.695 207.978 49.525 203.863 43.318 209.533 57.713 204.478 45.203 211.391 31.209 197.599"/>
    <line x1="11.58927" y1="143.97701" x2="41.73098" y2="133.04948" stroke="#000" stroke-miterlimit="10"/>
    <line x1="63.29789" y1="226.6987" x2="79.39225" y2="219.40693" stroke="#000" stroke-miterlimit="10"/>
    <line x1="98.65897" y1="235.45513" x2="121.73199" y2="226.838" stroke="#000" stroke-miterlimit="10"/>
    <path d="M41.03627,78.61607l-25.00216,6.193" stroke="#000" stroke-miterlimit="10"/>
    <line x1="48.53892" y1="55.52081" x2="24.37524" y2="61.63686" stroke="#000" stroke-miterlimit="10"/>
    <path d="M24.63032,49.89259l21.01579-1.98625-23.25923,5.051-2.78461,4.684,15.56407-2.00959-16.90879,4.27-4.81806,9.57111,11.84383-.895L12.30141,72.0564,34.03468,68.977,10.7242,75.93979S15.909,58.40335,24.63032,49.89259Z"/>
    <line x1="77.37616" y1="230.54166" x2="105.49039" y2="219.55882" stroke="#000" stroke-miterlimit="10"/>
    <line x1="28.35046" y1="166.49105" x2="48.84105" y2="157.81116" stroke="#000" stroke-miterlimit="10"/>
    <line x1="38.77922" y1="185.43832" x2="57.34925" y2="176.59467" stroke="#000" stroke-miterlimit="10"/>
    <path d="M38.607,86.5048c-25.00216,6.193-14.73062,2.95336-14.73062,2.95336" stroke="#000" stroke-miterlimit="10"/>
    <path d="M39.89737,93.7767c-25.00216,6.193-14.73062,2.95336-14.73062,2.95336" stroke="#000" stroke-miterlimit="10"/>
    <path d="M38.81025,111.64659c-20.58983,6.52448-23.105,6.33553-23.105,6.33553" stroke="#000" stroke-miterlimit="10"/>
    <line x1="71.80708" y1="216.90268" x2="87.90144" y2="209.61091" stroke="#000" stroke-miterlimit="10"/>
    <line x1="67.89425" y1="213.09593" x2="83.98861" y2="205.80416" stroke="#000" stroke-miterlimit="10"/>
    <ellipse cx="132.13329" cy="116.93603" rx="96.73599" ry="114.44371" transform="translate(-28.95018 44.9266) rotate(-17.4222)" fill="#ffb317" stroke="#000" stroke-miterlimit="10" stroke-width="3"/>
    <ellipse cx="134.68473" cy="116.1764" rx="89.8272" ry="108.93291" transform="translate(-28.60569 45.65569) rotate(-17.4222)" fill="#ffc41d" stroke="#000" stroke-miterlimit="10" stroke-width="3"/>
    <path d="M209.77648,128.41491c11.84873,21.48515-3.76145,36.00179-23.73571,25.7496-30.15313-15.27205-30.98945-86.71532-39.596-94.122-6.64807-5.44827-7.84905,22.89518-7.00671,46.06211,2.55611,11.92379,4.44932,22.18886,4.48522,24.53179.30815,5.56975-17.91924,10.558-19.92262-1.50245-2.97488-19.28971-8.59265-52.48174-12.96381-56.99114-4.32505-4.19744-6.85322,25.38453-6.53905,48.50432,4.4159,14.61249,7.98954,29.52027,6.25422,40.26766l.09656-.05325c-.02544.18221-.05045.36521-.14642.41813a20.61276,20.61276,0,0,1-.90939,4.04562c-.09656.05325-.09656.05325-.121.23593-4.34719,14.21211-13.31658,12.07039-25.82289,1.91963a16.60073,16.60073,0,0,1,.28092-3.36267c-.09987.73088,7.11762,2.65738,10.64867-6.88474C100.295,139.67529,82.58413,95.26063,81.065,77.7c-5.85056,3.05832-10.82714,8.84033-10.22149,22.01.49445,11.37384,10.97636,13.52644,12.32525,12.78255a2.1501,2.1501,0,0,0,1.09886,1.082c-9.45521,17.70491-26.48726.25964-24.071-16.77012,2.48741-16.90081,15.51227-23.57723,24.47369-29.19409,2.93958-1.95852,12.50359-8.07691,13.70742.71117-.03522,2.214-1.819,3.53511-4.27325,4.55119-2.13628,4.55405-.02282,13.85263,3.35371,24.98762.87765-44.87606,26.23-44.00375,31.659-30.28736a151.14021,151.14021,0,0,1,4.81892,15.57161c.16858-37.73266,13.11474-47.7416,24.32965-38.56663,15.2536,12.85454,14.70685,68.35118,33.95471,89.13072,9.76631,10.64863,14.68531,2.029,14.95533-3.85956Z" fill="#603502"/>
    <path d="M63.45367,55.52081c-22.4174,32.88413-10.46817,44.1905-10.93961,71.17646" fill="none" stroke="#000" stroke-miterlimit="10"/>
    <path d="M154.97491,212.12894A69.4534,69.4534,0,0,0,204.36459,172.943" fill="none" stroke="#000" stroke-miterlimit="10"/>
    <path d="M161.34345,205.80416c12.2469-4.44657,24.03846-15.39978,29.09224-26.97193" fill="none" stroke="#000" stroke-miterlimit="10"/>
    <path d="M52.9855,166.49105c8.792,13.04557,10.46817,20.49834,24.39066,32.046" fill="none" stroke="#000" stroke-miterlimit="10"/>
    <path d="M111.78726,18.77006c10.15112,2.389,28.02021-3.098,38.58159,1.60941a62.98362,62.98362,0,0,0-44.63743-3.12268" fill="none" stroke="#000" stroke-miterlimit="10"/>
    <path d="M119.88654,26.49156a43.43621,43.43621,0,0,1,22.78414-.014" fill="none" stroke="#000" stroke-miterlimit="10"/>
  </g>
</svg>
