<svg xmlns="http://www.w3.org/2000/svg" xmlns:xlink="http://www.w3.org/1999/xlink" viewBox="0 0 109.95607 61.84347">
  <path d="M32.74859,18.67247S26.98488,12.57863,24.64568,9.27c-.86346-1.22129,6.38189-3.6925,7.5064-2.18224,1.591,2.13679,6.184,7.54932,6.184,7.54932l4.48952-1.5246C41.4557,10.70515,37.269,5.50976,37.68184,4.77589c.52618-.93541,5.99557-2.44878,6.89075-1.24958a82.86383,82.86383,0,0,1,6.69747,10.903Z" transform="translate(-12.30859 -2.83316)" fill="#4d4d4d" stroke="#000" stroke-miterlimit="10" stroke-width="0.5"/>
  <polygon points="30.086 3.764 34.993 12.397 36.858 11.853 30.086 3.764" fill="#666"/>
  <polygon points="17.007 6.687 23.198 15.476 25.246 14.847 17.007 6.687" fill="#666"/>
  <image width="1110" height="1300" transform="translate(84.37722 19.78286) scale(0.02304)" xlink:href="moneyprinter1.png"/>
  <g>
    <polygon points="70.424 53.26 63.84 55.004 56.557 45.432 63.141 43.688 70.424 53.26" fill="#8cc63f" stroke="#006837" stroke-miterlimit="10" stroke-width="0.5"/>
    <path d="M79.7263,55.683l-2.18747.55607a2.80385,2.80385,0,0,0-1.53756-.63117L71.6479,49.88611a.9823.9823,0,0,0,.388-1.38425l2.01738-.53273s.87636.79214,1.3707.53269l4.479,5.92735C79.33444,54.695,79.7263,55.683,79.7263,55.683Z" transform="translate(-12.30859 -2.83316)" fill="#8cc63f" stroke="#006837" stroke-miterlimit="10" stroke-width="0.5"/>
    <ellipse cx="75.90168" cy="52.28945" rx="1.008" ry="2.33148" transform="translate(-28.471 53.86702) rotate(-37.30626)" fill="#8cc63f" stroke="#006837" stroke-miterlimit="10" stroke-width="0.5"/>
  </g>
  <g>
    <polygon points="56.361 49.779 49.777 51.523 42.494 41.952 49.078 40.208 56.361 49.779" fill="#8cc63f" stroke="#006837" stroke-miterlimit="10" stroke-width="0.5"/>
    <path d="M65.66348,52.2026l-2.18747.55608a2.80378,2.80378,0,0,0-1.53756-.63118l-4.35336-5.72177a.9823.9823,0,0,0,.388-1.38425l2.01738-.53273s.87635.79214,1.37069.53269l4.479,5.92735C65.27162,51.21458,65.66348,52.2026,65.66348,52.2026Z" transform="translate(-12.30859 -2.83316)" fill="#8cc63f" stroke="#006837" stroke-miterlimit="10" stroke-width="0.5"/>
    <ellipse cx="61.83886" cy="48.80907" rx="1.008" ry="2.33148" transform="translate(-29.23878 44.63184) rotate(-37.30626)" fill="#8cc63f" stroke="#006837" stroke-miterlimit="10" stroke-width="0.5"/>
  </g>
  <g>
    <polygon points="47.98 54.914 41.396 56.658 34.114 47.087 40.698 45.343 47.98 54.914" fill="#8cc63f" stroke="#006837" stroke-miterlimit="10" stroke-width="0.5"/>
    <path d="M57.28269,57.33762l-2.18747.55607a2.80382,2.80382,0,0,0-1.53756-.63117L49.2043,51.54075a.9823.9823,0,0,0,.38795-1.38425l2.01739-.53273s.87635.79213,1.37069.53268l4.479,5.92735C56.89083,56.34959,57.28269,57.33762,57.28269,57.33762Z" transform="translate(-12.30859 -2.83316)" fill="#8cc63f" stroke="#006837" stroke-miterlimit="10" stroke-width="0.5"/>
    <ellipse cx="53.45807" cy="53.94409" rx="1.008" ry="2.33148" transform="translate(-34.06564 40.60303) rotate(-37.30626)" fill="#8cc63f" stroke="#006837" stroke-miterlimit="10" stroke-width="0.5"/>
  </g>
  <g>
    <path d="M37.15164,44.65878,25.48242,33.93216s-.714-12.28168-.3091-12.02172c7.53,4.834,12.28963,14.02648,12.28963,14.02648Z" transform="translate(-12.30859 -2.83316)" fill="#999"/>
    <path d="M37.1,45.22219a76.85658,76.85658,0,0,0,.55347-9.32847.16553.16553,0,0,0-.02333-.04553c-.0479-.09357-4.87764-9.41816-12.3646-14.22459a.8.8,0,0,0-.27421.0985c-.13707.14142-.2633.0896-.00012,6.22458.1276,2.97684.30093,5.96592.30263,5.99592l.00472.07939.05793.05337Zm.17252-9.24135-.12092,8.67794L25.66613,33.84231c-.23734-4.09878-.5343-10.52782-.40522-11.76567C32.28651,26.68937,36.90457,35.2815,37.27256,35.98084Z" transform="translate(-12.30859 -2.83316)"/>
  </g>
  <g>
    <path d="M37.30394,44.99694s22.764-3.17548,28.89808-10.35258c1.58145-1.85035,1.645-9.87324,1.35948-9.641C56.74935,33.799,37.65042,36.18563,37.65042,36.18563Z" transform="translate(-12.30859 -2.83316)"/>
    <path d="M37.1,45.22219l.231-.03213a119.7522,119.7522,0,0,0,12.171-2.48935c8.60933-2.25455,14.27785-4.92244,16.84819-7.92971,1.58073-1.84935,1.75244-9.51648,1.37641-9.90182a.21037.21037,0,0,0-.28817-.017c-5.55763,4.521-13.36352,7.30884-18.93316,8.85127a85.55283,85.55283,0,0,1-10.879,2.28877l-.16415.02051Zm30.36268-19.889c.13148,1.3385-.07988,7.62975-1.40889,9.18443C60.367,41.17151,39.91915,44.40909,37.508,44.77006l.3308-8.41287a87.55021,87.55021,0,0,0,10.76471-2.2764C54.13731,32.54859,61.86748,29.79267,67.46272,25.33315Z" transform="translate(-12.30859 -2.83316)"/>
  </g>
  <g>
    <path d="M21.99677,30.80371c1.6107,1.6588,7.53989.35747,7.53989.35747s2.52236.67093,1.11268,2.7011c-1.70844,2.46045-8.72736.889-9.21657.3795C20.82954,33.61348,21.99677,30.80371,21.99677,30.80371Z" transform="translate(-12.30859 -2.83316)" fill="#ccc"/>
    <path d="M27.98165,35.32436a3.84735,3.84735,0,0,0,2.8277-1.35078,1.87431,1.87431,0,0,0,.378-1.73723,2.50293,2.50293,0,0,0-1.60061-1.26361l-.04564-.01214-.0463.0102c-.05825.01285-5.84136,1.25945-7.35824-.30287l-.20612-.21252-.11374.2735c-.20309.48888-1.18284,2.96242-.5245,3.64794.41461.43165,3.7157,1.19268,6.26752.99026Q27.77691,35.35,27.98165,35.32436ZM29.529,31.36223a2.07855,2.07855,0,0,1,1.293,1.00957,1.51791,1.51791,0,0,1-.33277,1.37934,3.77764,3.77764,0,0,1-2.92028,1.224,13.80461,13.80461,0,0,1-5.99539-.8683c-.3295-.34309.07159-1.86508.502-2.97586C23.90524,32.504,28.93508,31.48872,29.529,31.36223Z" transform="translate(-12.30859 -2.83316)"/>
  </g>
  <path d="M37.65042,36.18563S54.33309,34.76091,67.5615,25.00337c0,0-4.58155-8.56772-10.31941-11.07307,0,0-19.14314,2.34565-32.25072,7.99689A39.58429,39.58429,0,0,1,37.65042,36.18563Z" transform="translate(-12.30859 -2.83316)" fill="#ccc"/>
  <path d="M38.49179,36.28749c3.53469-.4417,17.73187-2.67892,29.1854-11.12723l.13569-.10013-.07949-.14863c-.18839-.35229-4.67944-8.65624-10.41327-11.15983l-.04881-.02133-.0529.00651c-.186.02333-19.20876,2.38571-32.19232,7.98355l-.13813.37195A39.73427,39.73427,0,0,1,37.477,36.27444l.05946.1165.1306-.01114C37.68833,36.3781,37.97723,36.35179,38.49179,36.28749ZM67.30825,24.94755c-12.40137,9.07536-27.9672,10.87122-29.54491,11.03134A40.43157,40.43157,0,0,0,25.40015,21.96455c12.58321-5.33035,30.69437-7.69214,31.81276-7.83411,2.90435,1.28765,5.50628,4.18145,7.18156,6.38883A39.8399,39.8399,0,0,1,67.30825,24.94755Z" transform="translate(-12.30859 -2.83316)"/>
  <g opacity="0.9">
    <path d="M39.4751,31.92223s15.21652-2.01173,23.091-7.8201c0,0-5.11884-8.434-9.23471-10.17183,0,0-20.71056,4.90668-25.3163,6.37828C28.01508,20.30858,34.612,23.45465,39.4751,31.92223Z" transform="translate(-12.30859 -2.83316)" fill="#fff" stroke="#000" stroke-miterlimit="10" stroke-width="0.25"/>
    <path d="M39.37165,32.13336l.13013-.018c.03752-.00526,16.84021-3.03648,23.06431-8.01324,0,0-4.96094-8.434-9.23471-10.17183L44.0897,15.94c-2.72453.68474-15.026,3.68367-16.25868,4.30468l-.05731.16467.1575.07519a29.74806,29.74806,0,0,1,11.375,11.53482Zm22.94178-8.08717c-4.03863,2.92456-10.17264,4.80968-14.417,5.92645a82.27276,82.27276,0,0,1-8.3184,1.73781A30.58264,30.58264,0,0,0,28.26957,20.22c.48553.02067,18.60574-5.40656,25.06181-6.28967C57.55252,16.07891,62.31343,24.04619,62.31343,24.04619Z" transform="translate(-12.30859 -2.83316)" stroke="#000" stroke-miterlimit="10" stroke-width="0.05"/>
  </g>
  <g>
    <ellipse cx="51.11158" cy="21.35664" rx="2.98443" ry="4.60908" transform="translate(-16.22024 12.12475) rotate(-16.04408)" fill="#fff" stroke="#000" stroke-miterlimit="10" stroke-width="0.05"/>
    <path d="M52.44856,26.00568c1.68482-.48451,2.45576-2.96419,1.71855-5.52772s-2.70768-4.255-4.3925-3.77043-2.45573,2.96429-1.71852,5.52783S50.76374,26.4902,52.44856,26.00568Zm-2.54769-8.85913c1.47817-.42509,3.22393,1.11765,3.89155,3.43916.66758,2.32141.00806,4.55585-1.47012,4.98094-1.47826.42512-3.22393-1.11764-3.89152-3.439C47.76317,19.80609,48.4226,17.57167,49.90087,17.14655Z" transform="translate(-12.30859 -2.83316)" stroke="#000" stroke-miterlimit="10" stroke-width="0.05"/>
  </g>
  <g>
    <ellipse cx="43.68406" cy="23.10213" rx="3.32352" ry="4.45219" transform="translate(-16.99196 10.13994) rotate(-16.04408)" fill="#fff" stroke="#000" stroke-miterlimit="10" stroke-width="0.05"/>
    <path d="M44.55426,27.678a2.6859,2.6859,0,0,0,.725-.19665c1.79041-.76548,2.5313-3.35265,1.65189-5.76744-.87978-2.41464-3.05363-3.75652-4.8423-2.99094a3.3578,3.3578,0,0,0-1.835,2.283,5.73928,5.73928,0,0,0,.18331,3.48427,5.24007,5.24007,0,0,0,2.0624,2.68074A3.13567,3.13567,0,0,0,44.55426,27.678ZM42.8628,18.96127c1.4447-.18053,3.01143.99772,3.707,2.90716.79758,2.18981.152,4.52494-1.439,5.20511a2.60572,2.60572,0,0,1-2.44789-.28163,4.7983,4.7983,0,0,1-1.8845-2.45616h0a5.25289,5.25289,0,0,1-.17166-3.18842,2.96149,2.96149,0,0,1,1.61048-2.01656A2.31775,2.31775,0,0,1,42.8628,18.96127Z" transform="translate(-12.30859 -2.83316)" stroke="#000" stroke-miterlimit="10" stroke-width="0.05"/>
  </g>
  <g>
    <path d="M69.92166,19.11779c.68938,1.09129,2.066,2.74758,2.066,2.74758s-3.44878,2.35413-4.42615,3.138l-1.7643-2.86083,4.12446-3.02475" transform="translate(-12.30859 -2.83316)" fill="#ccc"/>
    <path d="M67.51139,25.29349l.172-.138c.96035-.77028,4.37966-3.10559,4.41413-3.12909l.17695-.12081-.137-.16486c-.01366-.01642-1.37645-1.6591-2.051-2.72705l-.11157-.17666-4.43805,3.25476Zm4.19038-3.4688c-.67906.4651-3.09027,2.12278-4.0889,2.89074l-1.55527-2.522,3.81258-2.79607C70.45078,20.27758,71.35836,21.40476,71.70177,21.82469Z" transform="translate(-12.30859 -2.83316)"/>
  </g>
  <g>
    <path d="M69.92166,19.11779c2.4417,4.50707,3.78539,2.93322,4.21264,2.38061a4.34574,4.34574,0,0,0,4.65484-1.61446s2.1041.356,2.613-.32652c1.27519-1.7103-.36311-2.22626-.36311-2.22626l-1.651.03953a11.849,11.849,0,0,0,1.89245-.15907c.84153-.64657.05821-3.258-.60063-3.28707a8.25361,8.25361,0,0,0-2.53388.81239c-.22768,2.62578-4.12453,1.89058-4.12453,1.89058,4.34118.4671,4.27858-1.724,3.86829-2.15519a6.69183,6.69183,0,0,0-2.29132-.82125s-5.63056-2.48816-5.20475,3.56711c0,0-1.10061-.61605-.85252,1.121a2.5739,2.5739,0,0,0,.38053.77858" transform="translate(-12.30859 -2.83316)" fill="#fff"/>
    <path d="M73.11985,22.40289a1.72991,1.72991,0,0,0,1.08676-.68142,4.54679,4.54679,0,0,0,4.66374-1.6275c.49053.07194,2.179.26267,2.688-.42a1.85273,1.85273,0,0,0,.468-1.65447,1.33256,1.33256,0,0,0-.57115-.70025A2.45145,2.45145,0,0,0,81.644,14.969c-.08988-.2848-.42425-1.21578-.95553-1.23918a7.687,7.687,0,0,0-2.53553.78793.71663.71663,0,0,0-.122-.17977,6.32677,6.32677,0,0,0-2.37441-.87424c-.26685-.11428-2.682-1.09778-4.23622-.00619-.889.62468-1.30476,1.79482-1.23735,3.48033a.69677.69677,0,0,0-.54554.08582c-.29474.20221-.38938.64157-.28925,1.34312a2.34886,2.34886,0,0,0,.40525.84951c1.10695,2.04176,2.147,3.11565,3.09131,3.19218A1.33938,1.33938,0,0,0,73.11985,22.40289Zm.945-1.133-.08477.10921a1.30816,1.30816,0,0,1-1.104.64079c-.55372-.04486-1.486-.60088-2.783-2.995l-.00659-.01126a2.24823,2.24823,0,0,1-.35237-.702c-.10335-.7234.05171-.91649.12313-.966.13092-.09071.36894.0032.44192.043l.31329.17189-.02435-.356c-.11946-1.69828.236-2.85168,1.05627-3.428,1.43357-1.00726,3.85086.042,3.87522.05274l.04193.01308a6.21513,6.21513,0,0,1,2.187.76433.75494.75494,0,0,1,.11759.55644,1.61611,1.61611,0,0,1-.57568.81948,2.257,2.257,0,0,1-.591.31453,6.561,6.561,0,0,1-2.65712.13654l-.057.38535a6.01186,6.01186,0,0,0,2.99526-.214,1.95935,1.95935,0,0,0,1.13285-.93131A1.454,1.454,0,0,0,78.246,15.257a2.4206,2.4206,0,0,0,.08216-.39109,7.3654,7.3654,0,0,1,2.34319-.74663c.121.00532.3956.31633.60083.967.23541.74623.27554,1.65384-.09816,1.96107a13.11412,13.11412,0,0,1-1.79106.12856l.00976.38977,1.61465-.03879a1.10246,1.10246,0,0,1,.64875.615,1.50973,1.50973,0,0,1-.41023,1.29914c-.31855.427-1.656.38037-2.42424.25076l-.114-.01915-.07155.09067A4.11694,4.11694,0,0,1,74.196,21.31348Z" transform="translate(-12.30859 -2.83316)"/>
  </g>
  <g>
    <path d="M78.67687,17.4565s-1.86567.7002-2.04853-.59322" transform="translate(-12.30859 -2.83316)" fill="#fff"/>
    <path d="M77.98085,17.72278a3.53054,3.53054,0,0,0,.73027-.175l-.06846-.18253a2.29479,2.29479,0,0,1-1.57514.048.72521.72521,0,0,1-.34265-.56353l-.193.0272a.92022.92022,0,0,0,.43638.70413A1.63013,1.63013,0,0,0,77.98085,17.72278Z" transform="translate(-12.30859 -2.83316)"/>
  </g>
  <g>
    <path d="M78.33233,19.84681a4.05315,4.05315,0,0,1,.44829,3.98208c-1.57054-3.11575-5.2147-.75192-5.2147-.75192.473-1.74516,2.13826-6.22546,2.13826-6.22546S77.85514,19.262,78.33233,19.84681Z" transform="translate(-12.30859 -2.83316)" fill="#39b54a"/>
    <path d="M78.79006,24.28065l.16817-.37142a4.20808,4.20808,0,0,0-.47489-4.18571h0c-.4745-.58148-2.54576-2.90331-2.63376-3.00186l-.21539-.24139-.11271.3033c-.01674.04487-1.67383,4.50869-2.14373,6.24235l-.13308.491.42725-.27632a4.91771,4.91771,0,0,1,3.33278-.73637,2.53854,2.53854,0,0,1,1.60184,1.41242ZM78.18128,19.97a3.70873,3.70873,0,0,1,.556,3.39109,2.78322,2.78322,0,0,0-1.63215-1.23357,4.7764,4.7764,0,0,0-3.21972.545c.48779-1.6158,1.543-4.50837,1.88912-5.44889.55739.62618,2.027,2.281,2.40672,2.74639Z" transform="translate(-12.30859 -2.83316)"/>
  </g>
  <g>
    <path d="M78.78914,19.88394s-3.29781-.02874-1.79906-2.40523" transform="translate(-12.30859 -2.83316)" fill="#fff"/>
    <path d="M78.78828,19.98144,78.79,19.7865c-.01566-.00016-1.57035-.02353-1.98941-.79171-.20047-.36757-.109-.86015.27191-1.46412l-.16492-.1039a1.63276,1.63276,0,0,0-.27793,1.66171C77.10374,19.95683,78.71971,19.9808,78.78828,19.98144Z" transform="translate(-12.30859 -2.83316)"/>
  </g>
  <g>
    <path d="M75.38256,22.53714c-.54724-2.29233-3.96262-2.43879-3.96262-2.43879a8.1216,8.1216,0,0,0,2.60149-3.47083L76.6846,16.508S75.74063,24.037,75.38256,22.53714Z" transform="translate(-12.30859 -2.83316)" fill="#8cc63f"/>
    <path d="M75.53416,22.9271c.19618-.02451.58387-.33339,1.34385-6.39487l.0287-.22939-3.02614.13584-.04336.12513a7.99423,7.99423,0,0,1-2.53359,3.37813l-.43989.32711.54775.024c.03271.00148,3.27507.16821,3.78148,2.28933h0c.02127.08885.08578.35945.31309.347Zm.928-6.214a49.87919,49.87919,0,0,1-.94463,5.58325,3.33382,3.33382,0,0,0-2.257-2.02227,7.128,7.128,0,0,0-1.34578-.32133,8.37846,8.37846,0,0,0,2.24381-3.13626Z" transform="translate(-12.30859 -2.83316)"/>
  </g>
  <g>
    <path d="M77.89513,14.26486s.6107-6.84593,1.06432-8.594c.29839-1.14993-3.39567.54521-5.32224-.86839-.804-.5899,1.96119,8.84865,1.96119,8.84865Z" transform="translate(-12.30859 -2.83316)" fill="#8cc63f"/>
    <path d="M78.06868,14.513l.02066-.23078c.006-.06839.61447-6.84983,1.05879-8.56245a.48322.48322,0,0,0-.079-.4593c-.242-.28363-.80717-.22921-1.66278-.14675-1.12478.10842-2.66519.257-3.65378-.46842a.26271.26271,0,0,0-.31935-.02005c-.166.11638-.39319.27561.78062,4.76074.564,2.15478,1.19124,4.2984,1.19747,4.31988l.0309.1052ZM73.6802,5.067a6.1404,6.1404,0,0,0,3.76364.43483c.54292-.0523,1.21853-.11744,1.32877.01171.01259.01473.01189.0552-.00181.10833-.41069,1.58257-.93657,7.16692-1.04893,8.39488l-1.96711-.52571A65.20774,65.20774,0,0,1,73.6802,5.067Z" transform="translate(-12.30859 -2.83316)"/>
  </g>
  <g>
    <path d="M74.01683,13.31073c-.62888-3.7384-4.53129-6.63675-4.25291-6.5633,4.14856,1.09458,5.41853-1.488,5.93238-1.09581,1.09312.83437,3.2122,8.50974,1.14017,8.26669C76.41209,13.86853,74.01683,13.31073,74.01683,13.31073Z" transform="translate(-12.30859 -2.83316)" fill="#8cc63f"/>
    <path d="M77.0368,14.11216a.87088.87088,0,0,0,.695-.59974c.71-1.75532-.96027-7.28539-1.91716-8.0157-.26778-.20463-.55935-.00474-.963.272a5.4604,5.4604,0,0,1-5.03792.79021l-.14671-.03874-.0872.13349c-.082.148-.01378.21218.31425.52054.84985.79876,3.43615,3.22966,3.93063,6.16887l.02156.12805.12647.02948c.0982.02283,2.41083.56081,2.84113.61131A.92561.92561,0,0,0,77.0368,14.11216ZM75.55888,5.80551a.05424.05424,0,0,1,.01856.00036c.85111.64992,2.41876,6.013,1.79283,7.56044-.14311.35391-.348.3774-.5111.35836-.35407-.04151-2.17617-.46-2.673-.57477-.52765-2.79933-2.81056-5.106-3.82026-6.0664A5.64781,5.64781,0,0,0,75.072,6.09024,2.09068,2.09068,0,0,1,75.55888,5.80551Z" transform="translate(-12.30859 -2.83316)"/>
  </g>
  <g>
    <path d="M76.6846,16.508a.83921.83921,0,0,0,.80669,1.12942l-.5572-.15166a1.53768,1.53768,0,0,0-.24258,1.50813,1.12751,1.12751,0,0,0,.77914.66872s-.76623,3.124-.78977,3.02253c-.53747-2.31526-3.8787-3.07215-3.8787-3.07215A7.93688,7.93688,0,0,0,75.69105,16.667Z" transform="translate(-12.30859 -2.83316)" fill="#8cc63f"/>
    <path d="M76.72839,22.8808c.15849-.01981.21873-.26542.93154-3.1718l.0446-.182-.18-.05185a.90481.90481,0,0,1-.63945-.53516l-.02412-.04255a1.33137,1.33137,0,0,1,.14186-1.17535,1.42517,1.42517,0,0,0,.47434.10965l.06539-.38247-.45838-.12478a.48655.48655,0,0,1-.14317-.134.84418.84418,0,0,1-.06934-.62789l.085-.29494-1.389.22163-.04621.08156a7.79,7.79,0,0,1-2.80911,2.869l-.47153.24512.51825.118c.03228.00729,3.2288.75827,3.732,2.92611l.03476.14991.15563.00338A.36681.36681,0,0,0,76.72839,22.8808Zm.51037-3.09164c-.17752.72109-.41537,1.67025-.5717,2.26227a5.58694,5.58694,0,0,0-3.37971-2.50558,8.33656,8.33656,0,0,0,2.5263-2.701l.63874-.10227a1.073,1.073,0,0,0,.16685.66818.85971.85971,0,0,0,.06638.08437,1.703,1.703,0,0,0-.16357,1.595l.0234.04139A1.27587,1.27587,0,0,0,77.23876,19.78916Z" transform="translate(-12.30859 -2.83316)"/>
  </g>
  <g>
    <path d="M77.88972,14.47233s4.58588-8.3282,3.466-8.68457c-.44464-.1415-4.99214.60177-6.09412-.64786-.69227-.785,1.8731,5.419,1.25173,8.72261C76.51335,13.86251,77.65473,14.00106,77.88972,14.47233Z" transform="translate(-12.30859 -2.83316)" fill="#8cc63f"/>
    <path d="M77.88114,14.89214l.17934-.32573c.42085-.76435,4.09813-7.50261,3.61592-8.71086a.41262.41262,0,0,0-.26152-.25356,4.61707,4.61707,0,0,0-1.13813.0109c-1.44.08642-4.12015.24723-4.869-.60194-.11553-.1308-.2295-.16692-.33868-.108-.21339.1155-.14763.3539.21734,1.67714.49835,1.80643,1.42608,5.169,1.0353,7.24636l-.03846.20424.20642.02523c.431.05282,1.0962.24394,1.22551.50337ZM75.40641,5.518c1.079.713,3.43245.57176,4.89365.48413a7.2543,7.2543,0,0,1,.99734-.02832c.0063.002.01339.01732.01691.02628.30276.75863-1.90856,5.28557-3.46107,8.133a2.67366,2.67366,0,0,0-1.11511-.43285c.32006-2.16434-.54979-5.31708-1.07585-7.22393C75.56686,6.13037,75.46952,5.77744,75.40641,5.518Z" transform="translate(-12.30859 -2.83316)"/>
  </g>
  <g>
    <path d="M80.19531,13.97743s4.80364-4.49119,3.73723-4.5854A11.717,11.717,0,0,1,78.206,6.923s-1.545,4.07042-1.09187,6.98341a1.46923,1.46923,0,0,1,1.02544.77962A9.09623,9.09623,0,0,1,80.19531,13.97743Z" transform="translate(-12.30859 -2.83316)" fill="#8cc63f"/>
    <path d="M78.04923,14.95459l.18182-.0964a9.01909,9.01909,0,0,1,2.00772-.6907l.05129-.01178.03839-.03587c1.26283-1.18075,4.17411-4.00213,3.934-4.69914a.3384.3384,0,0,0-.31275-.22289A11.60429,11.60429,0,0,1,78.33164,6.774l-.21033-.17708-.09759.2569c-.06378.16816-1.558,4.15234-1.10222,7.08257l.02182.14011.14.02241a1.26059,1.26059,0,0,1,.87941.66912Zm2.05115-1.15532a9.92088,9.92088,0,0,0-1.87919.63,1.66274,1.66274,0,0,0-.933-.68093A16.58551,16.58551,0,0,1,78.298,7.24513a11.65005,11.65005,0,0,0,5.592,2.33876C83.80849,10.0735,81.90452,12.10886,80.10038,13.79927Z" transform="translate(-12.30859 -2.83316)"/>
  </g>
  <g>
    <path d="M79.87518,19.97622s3.09734,2.25353,2.8892,2.42873c-.70434.59286-3.69546,1.62585-4.30185.78128a4.69287,4.69287,0,0,1-.99188-3.52367A7.92034,7.92034,0,0,0,79.87518,19.97622Z" transform="translate(-12.30859 -2.83316)" fill="#8cc63f"/>
    <path d="M79.88121,23.6666A7.16829,7.16829,0,0,0,82.88985,22.554a.22432.22432,0,0,0,.07933-.18114c-.00344-.09818-.014-.39682-2.97928-2.55436l-.05253-.03814-.06494.00082a7.812,7.812,0,0,1-2.33973-.3035l-.24737-.08276-.00955.26057a4.85257,4.85257,0,0,0,1.02837,3.6444,1.05432,1.05432,0,0,0,.76614.38225A3.34978,3.34978,0,0,0,79.88121,23.6666Zm2.64324-1.32543a6.69074,6.69074,0,0,1-3.40581.95414.69547.69547,0,0,1-.49777-.22279,4.36126,4.36126,0,0,1-.962-3.15321,8.56675,8.56675,0,0,0,2.15379.2525A26.96567,26.96567,0,0,1,82.52445,22.34117Z" transform="translate(-12.30859 -2.83316)"/>
  </g>
  <g>
    <line x1="58.08506" y1="14.38503" x2="58.81892" y2="15.78965" fill="#fff" stroke="#000" stroke-linecap="round" stroke-linejoin="round" stroke-width="0.25"/>
    <rect x="70.66313" y="17.12814" width="0.19487" height="1.58476" transform="translate(-12.56066 31.9814) rotate(-27.59369)" stroke="#000" stroke-linecap="round" stroke-linejoin="round" stroke-width="0.25"/>
  </g>
  <g>
    <line x1="61.54677" y1="18.5884" x2="60.3943" y2="17.64004" fill="#fff" stroke="#000" stroke-linecap="round" stroke-linejoin="round" stroke-width="0.25"/>
    <rect x="73.18163" y="20.20112" width="0.19499" height="1.49252" transform="translate(-1.7737 61.37834) rotate(-50.54046)" stroke="#000" stroke-linecap="round" stroke-linejoin="round" stroke-width="0.25"/>
  </g>
  <g>
    <path d="M22.38329,29.77068s1.87639.52065.38646,3.09267c-.86755,1.49761-1.33535,2.14651-2.28431,2.26942-1.17911.15271-.9955-.82641-.9955-.82641a3.66525,3.66525,0,0,1-4.49232-.47495c-.0338-.03479-.05786-.1142-.10624-.10229-1.33583.32891-3.61292-2.05025-1.41988-3.08022,0,0-2.39449-2.45448.76879-3.35372,0,0-.13984-2.41531,1.65039-2.636a3.1525,3.1525,0,0,1,1.74331.55607s2.06455-.618,2.90407.05106,2.76886,2.13774.97886,6.249" transform="translate(-12.30859 -2.83316)" fill="#fff" stroke="#000" stroke-linecap="round" stroke-linejoin="round" stroke-width="0.5"/>
    <path d="M14.39978,27.27525a4.10567,4.10567,0,0,0,2.25942,1.08552" transform="translate(-12.30859 -2.83316)" fill="#fff" stroke="#000" stroke-linecap="round" stroke-linejoin="round" stroke-width="0.5"/>
    <path d="M13.73732,30.75967s1.761.69784,2.59394.01782" transform="translate(-12.30859 -2.83316)" fill="#fff" stroke="#000" stroke-linecap="round" stroke-linejoin="round" stroke-width="0.5"/>
    <path d="M17.39452,31.22056s.73317,1.40223-2.202,2.39893" transform="translate(-12.30859 -2.83316)" fill="#fff" stroke="#000" stroke-linecap="round" stroke-linejoin="round" stroke-width="0.5"/>
    <path d="M19.89776,28.352s-.73776,3.02588-2.93739,2.41884c-1.44886-.39985-.07746-1.91611-.07746-1.91611s.56045-.412.07983-2.24174c-.18169-.6917.65037-1.25114.65037-1.25114" transform="translate(-12.30859 -2.83316)" fill="#fff" stroke="#000" stroke-linecap="round" stroke-linejoin="round" stroke-width="0.5"/>
    <path d="M20.02177,29.34443a2.54187,2.54187,0,0,0-1.45389,2.44943" transform="translate(-12.30859 -2.83316)" fill="#fff" stroke="#000" stroke-linecap="round" stroke-linejoin="round" stroke-width="0.5"/>
    <path d="M16.87417,25.90417s-.43638-.32343-.69334-.21933" transform="translate(-12.30859 -2.83316)" fill="#fff" stroke="#000" stroke-linecap="round" stroke-linejoin="round" stroke-width="0.5"/>
  </g>
  <path d="M48.95063,21.48731c.40537,1.71594,1.60837,2.90042,2.687,2.64561s1.62437-1.85241,1.219-3.56835c-.096-.40622-1.11572.26317-1.28885-.07144-.05359-.10357.7688-1.249.70935-1.34415a2.11689,2.11689,0,0,0-2.10747-1.23C49.091,18.17376,48.54526,19.77137,48.95063,21.48731Z" transform="translate(-12.30859 -2.83316)"/>
  <path d="M42.19728,23.37574c.58664,1.66272,1.90947,2.71169,2.95462,2.34294s1.41685-2.01558.83021-3.6783c-.13887-.39362-1.08116.381-1.2891.06687-.06436-.09724.63076-1.324.56146-1.41233a2.1169,2.1169,0,0,0-2.227-.99747C41.98234,20.0662,41.61064,21.713,42.19728,23.37574Z" transform="translate(-12.30859 -2.83316)"/>
  <path d="M47.57777,18.97093c3.12586-11.29487,7.936-6.4474,7.936-6.4474Z" transform="translate(-12.30859 -2.83316)" stroke="#000" stroke-miterlimit="10" stroke-width="0.5"/>
  <path d="M45.78046,19.37025c-8.62962-7.92936-10.14568-1.27074-10.14568-1.27074Z" transform="translate(-12.30859 -2.83316)" stroke="#000" stroke-miterlimit="10" stroke-width="0.5"/>
  <g>
    <path d="M37.63728,41.4826C48.87569,41.00445,62.433,35.7785,66.91286,31.131l-1.02149,3.3557C59.64923,40.7395,37.508,44.58731,37.508,44.58731Z" transform="translate(-12.30859 -2.83316)" fill="#fff" stroke="#000" stroke-linecap="round" stroke-linejoin="round" stroke-width="0.25"/>
    <line x1="28.34661" y1="40.96998" x2="28.39663" y2="38.64945" fill="#fff" stroke="#000" stroke-linecap="round" stroke-miterlimit="10" stroke-width="0.25"/>
    <line x1="32.2249" y1="40.28022" x2="32.30311" y2="37.90003" fill="#fff" stroke="#000" stroke-linecap="round" stroke-miterlimit="10" stroke-width="0.25"/>
    <line x1="36.55194" y1="39.10033" x2="36.62962" y2="37.04233" fill="#fff" stroke="#000" stroke-linecap="round" stroke-miterlimit="10" stroke-width="0.25"/>
    <line x1="40.49989" y1="37.52301" x2="40.56806" y2="35.70086" fill="#fff" stroke="#000" stroke-linecap="round" stroke-miterlimit="10" stroke-width="0.25"/>
    <line x1="44.44546" y1="36.35728" x2="44.49924" y2="34.32459" fill="#fff" stroke="#000" stroke-linecap="round" stroke-miterlimit="10" stroke-width="0.25"/>
    <line x1="47.98049" y1="34.76146" x2="48.03337" y2="32.7087" fill="#fff" stroke="#000" stroke-linecap="round" stroke-miterlimit="10" stroke-width="0.25"/>
    <polygon points="29.467 40.876 28.389 40.509 27.335 41.348 29.467 40.876"/>
    <polygon points="37.556 38.906 36.577 38.438 35.607 39.286 37.556 38.906"/>
    <polyline points="31.375 40.476 33.317 40.017 32.288 39.496"/>
    <polyline points="39.206 38.384 41.567 37.683 40.507 37.325"/>
    <polyline points="43.327 37.192 45.617 36.325 44.499 35.966"/>
    <polyline points="47.028 35.639 48.999 34.631 47.989 34.429"/>
  </g>
  <path d="M37.80441,40.88142c4.25224.02307,19.54278-3.02226,28.58609-9.66086l.46669.49606c-15.20992,9.72631-28.989,9.64825-28.989,9.64825S37.6825,40.88076,37.80441,40.88142Z" transform="translate(-12.30859 -2.83316)" fill="#fff"/>
  <g>
    <polygon points="39.362 42.919 32.778 44.663 25.496 35.091 32.08 33.347 39.362 42.919" fill="#8cc63f" stroke="#006837" stroke-miterlimit="10" stroke-width="0.5"/>
    <path d="M48.6649,45.34194l-2.18747.55608a2.80385,2.80385,0,0,0-1.53756-.63117L40.5865,39.54507a.98229.98229,0,0,0,.388-1.38424l2.01738-.53274s.87636.79214,1.3707.53269l4.479,5.92735C48.273,44.35392,48.6649,45.34194,48.6649,45.34194Z" transform="translate(-12.30859 -2.83316)" fill="#8cc63f" stroke="#006837" stroke-miterlimit="10" stroke-width="0.5"/>
    <ellipse cx="44.84028" cy="41.94842" rx="1.008" ry="2.33148" transform="translate(-28.55849 32.92577) rotate(-37.30626)" fill="#8cc63f" stroke="#006837" stroke-miterlimit="10" stroke-width="0.5"/>
  </g>
  <g>
    <polygon points="47.217 37.698 40.633 39.442 36.272 33.709 41.433 30.095 47.217 37.698" fill="#8cc63f" stroke="#006837" stroke-miterlimit="10" stroke-width="0.5"/>
    <path d="M56.51985,40.121l-2.18747.55608a2.80378,2.80378,0,0,0-1.53756-.63118l-3.00923-3.95514a.80529.80529,0,0,0,.53486-1.21593l1.35425-1.01825s.89279.46008,1.38713.20063l3.63465,4.81C56.128,39.133,56.51985,40.121,56.51985,40.121Z" transform="translate(-12.30859 -2.83316)" fill="#8cc63f" stroke="#006837" stroke-miterlimit="10" stroke-width="0.5"/>
    <ellipse cx="52.69523" cy="36.72746" rx="1.008" ry="2.33148" transform="translate(-23.78713 36.6183) rotate(-37.30626)" fill="#8cc63f" stroke="#006837" stroke-miterlimit="10" stroke-width="0.5"/>
  </g>
  <g>
    <polygon points="46.296 48.332 39.712 50.076 32.429 40.504 39.013 38.76 46.296 48.332" fill="#8cc63f" stroke="#006837" stroke-miterlimit="10" stroke-width="0.5"/>
    <path d="M55.59815,50.7547l-2.18747.55608a2.80374,2.80374,0,0,0-1.53756-.63117l-4.35336-5.72178a.98229.98229,0,0,0,.388-1.38425l2.01739-.53273s.87635.79214,1.37069.53269l4.479,5.92735C55.20629,49.76668,55.59815,50.7547,55.59815,50.7547Z" transform="translate(-12.30859 -2.83316)" fill="#8cc63f" stroke="#006837" stroke-miterlimit="10" stroke-width="0.5"/>
    <ellipse cx="51.77353" cy="47.36117" rx="1.008" ry="2.33148" transform="translate(-30.42054 38.23526) rotate(-37.30626)" fill="#8cc63f" stroke="#006837" stroke-miterlimit="10" stroke-width="0.5"/>
  </g>
  <g>
    <polygon points="51.869 41.503 45.285 43.247 38.003 33.675 44.587 31.931 51.869 41.503" fill="#8cc63f" stroke="#006837" stroke-miterlimit="10" stroke-width="0.5"/>
    <path d="M61.17181,43.92636l-2.18747.55608a2.8038,2.8038,0,0,0-1.53755-.63117l-4.35337-5.72178a.9823.9823,0,0,0,.388-1.38425l2.01738-.53273s.87635.79214,1.37069.53269l4.479,5.92735C60.78,42.93834,61.17181,43.92636,61.17181,43.92636Z" transform="translate(-12.30859 -2.83316)" fill="#8cc63f" stroke="#006837" stroke-miterlimit="10" stroke-width="0.5"/>
    <ellipse cx="57.34719" cy="40.53283" rx="1.008" ry="2.33148" transform="translate(-25.14172 40.21629) rotate(-37.30626)" fill="#8cc63f" stroke="#006837" stroke-miterlimit="10" stroke-width="0.5"/>
  </g>
  <g>
    <polygon points="61.538 41.622 54.954 43.366 47.671 33.794 54.255 32.05 61.538 41.622" fill="#8cc63f" stroke="#006837" stroke-miterlimit="10" stroke-width="0.5"/>
    <path d="M70.84009,44.04512l-2.18747.55607A2.80385,2.80385,0,0,0,67.11506,43.97l-4.35337-5.72177a.9823.9823,0,0,0,.388-1.38425l2.01738-.53273s.87636.79213,1.3707.53268l4.479,5.92735C70.44823,43.05709,70.84009,44.04512,70.84009,44.04512Z" transform="translate(-12.30859 -2.83316)" fill="#8cc63f" stroke="#006837" stroke-miterlimit="10" stroke-width="0.5"/>
    <ellipse cx="67.01547" cy="40.65159" rx="1.008" ry="2.33148" transform="translate(-23.23564 46.10029) rotate(-37.30626)" fill="#8cc63f" stroke="#006837" stroke-miterlimit="10" stroke-width="0.5"/>
  </g>
  <g>
    <line x1="52.21843" y1="32.15926" x2="52.26744" y2="30.25662" fill="#fff" stroke="#000" stroke-linecap="round" stroke-miterlimit="10" stroke-width="0.25"/>
    <polyline points="51.258 33.369 53.228 32.361 52.088 31.892"/>
  </g>
  <g>
    <polygon points="57.691 34.223 51.107 35.966 46.746 30.234 51.51 26.099 57.691 34.223" fill="#8cc63f" stroke="#006837" stroke-miterlimit="10" stroke-width="0.5"/>
    <path d="M66.99385,36.64562l-2.18747.55608a2.80382,2.80382,0,0,0-1.53756-.63117l-3.00923-3.95514a.8053.8053,0,0,0,.53486-1.21594l1.35425-1.01824s.89279.46007,1.38713.20062l3.63465,4.81C66.602,35.6576,66.99385,36.64562,66.99385,36.64562Z" transform="translate(-12.30859 -2.83316)" fill="#8cc63f" stroke="#006837" stroke-miterlimit="10" stroke-width="0.5"/>
    <ellipse cx="63.16923" cy="33.2521" rx="1.008" ry="2.33148" transform="translate(-19.5379 42.25529) rotate(-37.30626)" fill="#8cc63f" stroke="#006837" stroke-miterlimit="10" stroke-width="0.5"/>
  </g>
  <g>
    <g>
      <path d="M67.43649,28.22922C63.739,33.4884,50.032,38.32506,37.54344,38.90623L37.477,36.27444c18.72709-2.53421,30.0845-11.27107,30.0845-11.27107Z" transform="translate(-12.30859 -2.83316)" fill="#fff" stroke="#000" stroke-linecap="round" stroke-linejoin="round" stroke-width="0.25"/>
      <line x1="51.86554" y1="24.56938" x2="51.87144" y2="28.38741" fill="#fff" stroke="#000" stroke-miterlimit="10" stroke-width="0.25"/>
      <line x1="48.00644" y1="26.43134" x2="48.01355" y2="30.6098" fill="#fff" stroke="#000" stroke-miterlimit="10" stroke-width="0.25"/>
      <line x1="43.7038" y1="28.59591" x2="43.70997" y2="32.40533" fill="#fff" stroke="#000" stroke-miterlimit="10" stroke-width="0.25"/>
      <line x1="38.95538" y1="30.46235" x2="38.96147" y2="33.89035" fill="#fff" stroke="#000" stroke-miterlimit="10" stroke-width="0.25"/>
      <line x1="34.14705" y1="31.8129" x2="34.15315" y2="35.02601" fill="#fff" stroke="#000" stroke-miterlimit="10" stroke-width="0.25"/>
      <line x1="29.61174" y1="32.72467" x2="29.61679" y2="35.75842" fill="#fff" stroke="#000" stroke-miterlimit="10" stroke-width="0.25"/>
    </g>
    <g>
      <polygon points="50.948 24.952 51.823 25.562 52.569 23.962 50.948 24.952"/>
      <polygon points="42.7 28.803 43.744 29.535 44.723 28.068 42.7 28.803"/>
      <polyline points="48.955 26.096 47.028 26.954 48.033 27.548"/>
      <polyline points="40.208 29.768 38.131 30.495 38.931 31.343"/>
      <polyline points="35.32 31.343 33.22 31.899 34.226 32.747"/>
      <polyline points="30.889 32.343 28.607 32.853 29.612 33.919"/>
    </g>
  </g>
  <g>
    <polygon points="67.427 46.734 60.843 48.478 53.56 38.906 60.144 37.162 67.427 46.734" fill="#8cc63f" stroke="#006837" stroke-miterlimit="10" stroke-width="0.5"/>
    <path d="M76.72941,49.15678l-2.18747.55608a2.80385,2.80385,0,0,0-1.53756-.63117L68.651,43.35991a.98229.98229,0,0,0,.388-1.38425l2.01739-.53273s.87635.79214,1.37069.53269L76.906,47.903C76.33755,48.16876,76.72941,49.15678,76.72941,49.15678Z" transform="translate(-12.30859 -2.83316)" fill="#8cc63f" stroke="#006837" stroke-miterlimit="10" stroke-width="0.5"/>
    <ellipse cx="72.90479" cy="45.76325" rx="1.008" ry="2.33148" transform="translate(-25.12878 50.71547) rotate(-37.30626)" fill="#8cc63f" stroke="#006837" stroke-miterlimit="10" stroke-width="0.5"/>
  </g>
  <g>
    <polygon points="60.913 53.009 54.329 54.753 47.046 45.181 53.63 43.437 60.913 53.009" fill="#8cc63f" stroke="#006837" stroke-miterlimit="10" stroke-width="0.5"/>
    <path d="M70.21512,55.43169l-2.18747.55608a2.80377,2.80377,0,0,0-1.53756-.63117l-4.35337-5.72178a.98229.98229,0,0,0,.388-1.38425l2.01739-.53273s.87635.79214,1.37069.53269l4.479,5.92735C69.82326,54.44367,70.21512,55.43169,70.21512,55.43169Z" transform="translate(-12.30859 -2.83316)" fill="#8cc63f" stroke="#006837" stroke-miterlimit="10" stroke-width="0.5"/>
    <ellipse cx="66.3905" cy="52.03816" rx="1.008" ry="2.33148" transform="translate(-30.26462 48.05112) rotate(-37.30626)" fill="#8cc63f" stroke="#006837" stroke-miterlimit="10" stroke-width="0.5"/>
  </g>
  <g>
    <polygon points="54.604 59.815 48.02 61.559 40.738 51.987 47.322 50.243 54.604 59.815" fill="#8cc63f" stroke="#006837" stroke-miterlimit="10" stroke-width="0.5"/>
    <path d="M63.90683,62.23814l-2.18747.55607A2.80382,2.80382,0,0,0,60.1818,62.163l-4.35336-5.72178a.98229.98229,0,0,0,.388-1.38424l2.01738-.53274s.87635.79214,1.37069.53269l4.479,5.92735C63.515,61.25011,63.90683,62.23814,63.90683,62.23814Z" transform="translate(-12.30859 -2.83316)" fill="#8cc63f" stroke="#006837" stroke-miterlimit="10" stroke-width="0.5"/>
    <ellipse cx="60.08221" cy="58.84461" rx="1.008" ry="2.33148" transform="translate(-35.68047 45.62037) rotate(-37.30626)" fill="#8cc63f" stroke="#006837" stroke-miterlimit="10" stroke-width="0.5"/>
  </g>
  <line x1="36.63397" y1="36.9283" x2="36.15654" y2="36.18911" fill="#fff" stroke="#000" stroke-linecap="round" stroke-linejoin="round" stroke-width="0.25"/>
  <line x1="47.99115" y1="32.66072" x2="47.5561" y2="32.14995" fill="#fff" stroke="#000" stroke-linecap="round" stroke-linejoin="round" stroke-width="0.25"/>
</svg>
