<?xml version="1.0" encoding="utf-8"?>
<!-- Generator: Adobe Illustrator 25.2.1, SVG Export Plug-In . SVG Version: 6.00 Build 0)  -->
<svg version="1.1" id="Camada_1" xmlns="http://www.w3.org/2000/svg" xmlns:xlink="http://www.w3.org/1999/xlink" x="0px" y="0px"
	 viewBox="0 0 153 145.8" style="enable-background:new 0 0 153 145.8;" xml:space="preserve">
<style type="text/css">
	.st0{fill:#FFC41D;}
	.st1{fill:#FFFFFF;}
	.st2{fill:#FFCC00;}
	.st3{fill:#FEFEFE;}
	.st4{fill:#FEFEFD;}
</style>
<g>
	<g>
		<circle class="st0" cx="92.5" cy="85.2" r="60.5"/>
		<path class="st1" d="M134.2,113.6c0,12.8-14.5,15.5-23.4,5.8c-13.4-14.6,10.4-47.6,7.6-53.1c-2.2-4.2-12.6,8.5-20,19.3
			C96,91.7,93.7,96.9,92.9,98c-1.7,2.6-14.6,0.3-11.8-5.7c4.7-9.6,12.5-26.2,11.4-29.4c-1.2-3-12.8,9.9-20.5,20.6
			c-2.2,7.8-5.1,15.5-9.8,20h0.1c-0.1,0.1-0.2,0.2-0.2,0.2c-0.6,0.6-1.2,1.1-1.9,1.6c-0.1,0-0.1,0-0.2,0.1
			c-7.5,5.4-12.3,2.2-16.5-5.6c0.4-0.5,0.8-1,1.3-1.5c-0.3,0.3,3.5,3,8.9-0.5c9.4-6.7,13.5-31.5,18.6-39.9
			c-4.6-0.1-9.7,1.3-13.8,7.5c-3.6,5.3,2.2,9,3.2,9c0,0.3,0.1,0.6,0.3,0.8c-11.8,5.7-16.4-6.6-9.1-13.8c7.3-7.1,17.6-6.9,25-7.2
			c2.5-0.2,10.4-0.5,8.2,3.8c-0.8,1-2.3,1.2-4.2,1c-2.9,1.5-4.7,6.3-6.4,12.3c15.8-20.3,31.1-13.5,29.8-5.9
			c-0.6,2.8-1.4,5.6-2.3,8.4c12.9-17.2,24.3-18.6,28.1-11.5c5,9.7-14.2,35-9.4,49.4c2.4,7.3,8.4,4.6,10.5,2H134.2z"/>
	</g>
	<g>
		<circle class="st2" cx="31.9" cy="31.9" r="31.9"/>
		<g>
			<path class="st3" d="M45.5,40.4c-0.2,0.2-0.3,0.4-0.5,0.6c-4.2,4.2-8.3,8.3-12.4,12.5c-0.5,0.5-0.8,0.4-1.2,0
				c-4.1-4.1-8.2-8.3-12.4-12.4c-0.5-0.5-0.5-0.8,0-1.3c1.3-1.2,2.5-2.4,3.7-3.7c0.5-0.6,0.8-0.5,1.4,0c2.2,2.3,4.5,4.5,6.7,6.8
				c1.2,1.2,1.2,1.2,2.4,0c2.2-2.2,4.5-4.4,6.7-6.7c0.6-0.6,0.9-0.6,1.4,0c1.1,1.2,2.4,2.4,3.6,3.6C45,40,45.2,40.2,45.5,40.4z"/>
			<path class="st3" d="M45.4,23.5c-0.1,0.1-0.3,0.3-0.5,0.5c-1.2,1.2-2.4,2.4-3.6,3.6c-0.7,0.8-1,0.5-1.6-0.1c-2.3-2.4-4.7-4.7-7-7
				c-0.6-0.6-1-0.6-1.6,0c-2.3,2.4-4.7,4.7-7,7.1c-0.7,0.7-1.1,0.6-1.7,0c-1.1-1.2-2.3-2.4-3.5-3.5c-0.5-0.5-0.5-0.8,0-1.3
				c4.1-4.1,8.2-8.2,12.3-12.3c0.5-0.5,0.8-0.6,1.4,0c4.1,4.1,8.2,8.2,12.3,12.3C45.1,23,45.4,23.1,45.4,23.5z"/>
			<path class="st4" d="M19.7,32c-0.1,0.1-0.2,0.3-0.4,0.4c-1.3,1.3-2.7,2.7-4,4c-0.4,0.4-0.6,0.4-1,0c-1.3-1.4-2.7-2.7-4-4
				c-0.4-0.4-0.3-0.7,0-1c1.3-1.3,2.6-2.6,3.9-3.9c0.3-0.3,0.5-0.6,0.9-0.2c1.4,1.4,2.9,2.9,4.3,4.3C19.5,31.7,19.6,31.8,19.7,32z"
				/>
			<path class="st3" d="M36.9,31.9c-0.2,0.2-0.3,0.4-0.5,0.6c-1.3,1.3-2.6,2.6-3.9,4c-0.5,0.5-0.7,0.5-1.2,0
				c-1.3-1.3-2.6-2.7-3.9-3.9c-0.4-0.4-0.5-0.7,0-1.1c1.4-1.3,2.7-2.7,4-4c0.3-0.3,0.6-0.5,1-0.1c1.4,1.4,2.8,2.8,4.2,4.2
				C36.7,31.6,36.8,31.8,36.9,31.9z"/>
			<path class="st4" d="M53.9,31.8c0,0.3-0.2,0.5-0.4,0.6c-1.3,1.3-2.6,2.6-3.9,3.9c-0.4,0.5-0.7,0.3-1.1-0.1
				c-1.3-1.3-2.5-2.6-3.9-3.8c-0.5-0.5-0.5-0.7,0-1.2c1.3-1.3,2.6-2.6,3.9-3.8c0.3-0.3,0.6-0.6,1-0.1c1.4,1.4,2.7,2.7,4.1,4.1
				C53.7,31.6,53.8,31.7,53.9,31.8z"/>
		</g>
	</g>
</g>
</svg>
