<?xml version="1.0" encoding="UTF-8" standalone="no"?>
<svg
   xmlns:dc="http://purl.org/dc/elements/1.1/"
   xmlns:cc="http://creativecommons.org/ns#"
   xmlns:rdf="http://www.w3.org/1999/02/22-rdf-syntax-ns#"
   xmlns:svg="http://www.w3.org/2000/svg"
   xmlns="http://www.w3.org/2000/svg"
   xmlns:sodipodi="http://sodipodi.sourceforge.net/DTD/sodipodi-0.dtd"
   xmlns:inkscape="http://www.inkscape.org/namespaces/inkscape"
   width="202"
   height="134"
   fill="none"
   version="1.1"
   id="svg10"
   sodipodi:docname="pan-bg2.svg"
   inkscape:version="1.0.1 (3bc2e813f5, 2020-09-07)">
  <defs
     id="defs14">
    <clipPath
       clipPathUnits="userSpaceOnUse"
       id="clipPath3201-4">
      <rect
         style="opacity:1;fill:#ffffff;fill-opacity:1;stroke:none;stroke-width:3.20266;stroke-linecap:round;stroke-linejoin:round;stroke-miterlimit:4;stroke-dasharray:none;stroke-opacity:1"
         id="rect3203-9"
         width="172.32408"
         height="55.008789"
         x="433.53275"
         y="-103.58672"
         transform="matrix(1,0,0.46622809,0.88466455,0,0)" />
    </clipPath>
    <clipPath
       clipPathUnits="userSpaceOnUse"
       id="clipPath3205-2">
      <rect
         style="opacity:1;fill:#ffffff;fill-opacity:1;stroke:none;stroke-width:3.20266;stroke-linecap:round;stroke-linejoin:round;stroke-miterlimit:4;stroke-dasharray:none;stroke-opacity:1"
         id="rect3207-06"
         width="172.32405"
         height="55.008789"
         x="433.53275"
         y="-103.58672"
         transform="matrix(1,0,0.46622809,0.88466455,0,0)" />
    </clipPath>
    <clipPath
       clipPathUnits="userSpaceOnUse"
       id="clipPath3201-8-3-6">
      <rect
         style="opacity:1;fill:#ffffff;fill-opacity:1;stroke:none;stroke-width:3.20266;stroke-linecap:round;stroke-linejoin:round;stroke-miterlimit:4;stroke-dasharray:none;stroke-opacity:1"
         id="rect3203-4-6-1"
         width="172.32408"
         height="55.008789"
         x="433.53275"
         y="-103.58672"
         transform="matrix(1,0,0.46622809,0.88466455,0,0)" />
    </clipPath>
    <clipPath
       clipPathUnits="userSpaceOnUse"
       id="clipPath3205-5-5-1">
      <rect
         style="opacity:1;fill:#ffffff;fill-opacity:1;stroke:none;stroke-width:3.20266;stroke-linecap:round;stroke-linejoin:round;stroke-miterlimit:4;stroke-dasharray:none;stroke-opacity:1"
         id="rect3207-0-6-5"
         width="172.32405"
         height="55.008789"
         x="433.53275"
         y="-103.58672"
         transform="matrix(1,0,0.46622809,0.88466455,0,0)" />
    </clipPath>
    <clipPath
       clipPathUnits="userSpaceOnUse"
       id="clipPath26">
      <path
         d="m 284.1647,305.6992 c 0.0332,0.0423 0.0785,0.0862 0.1372,0.1321 0.001,9e-4 0.002,0.002 0.003,0.003 -0.0462,-0.036 -0.0929,-0.0814 -0.1403,-0.1347 z m -33.6322,69.4579 c -0.8436,-0.7835 -1.4856,-1.3796 -2.3788,-2.2229 l -9.5542,-8.9079 c -0.7849,-0.7018 -1.4482,-1.845 -2.4341,-1.7858 0.5802,-0.3509 0.1074,-0.4516 -0.2214,-0.7449 -0.392,-0.3498 -0.5732,-0.4984 -0.955,-0.885 -0.8691,-0.8813 -1.7606,-1.4193 -1.7748,-1.4335 l -13.6751,-14.0236 c -1.2943,-1.2319 -2.5572,-2.2039 -3.6882,-3.3341 -7.1036,-7.0988 -5.2603,-2.9644 -8.1995,-5.8286 -0.2222,1.1906 -3.6649,2.5266 -5.5905,2.1011 -2.7635,-0.61 -2.6518,-2.4846 -2.8905,-5.4153 -2.81,0 -3.4951,-1.5914 -3.9909,-3.9538 -2.3621,0.8833 -4.7727,0.2256 -6.3144,-1.4494 -0.7144,-0.7755 -1.1393,-1.7951 -1.3204,-2.9222 0.9847,-0.1156 1.9233,-0.3217 2.7913,-0.6213 v -4.7909 c -0.6302,0.4726 -1.4633,0.8025 -2.4299,0.997 0.608,-2.0387 1.7731,-3.8974 3.2667,-4.883 0.6961,-0.4595 2.7218,-1.0636 3.0934,-2.0304 l 4.0584,-0.8184 c 2.0265,2.7581 4.3245,5.4451 6.7104,7.7199 5.4817,5.2253 13.201,4.9938 18.3303,-0.1639 2.8751,-2.8913 4.3126,-6.62 4.9098,-10.9641 0.2915,-2.1198 0.5661,-4.5527 1.1265,-6.6438 1.0548,-3.9362 2.5368,-1.0883 2.3182,1.6273 -0.0703,0.8683 -0.2928,0.7577 0.0641,1.0259 0.9,0.9986 3.1039,-2.4052 3.3831,-3.1303 1.4114,-3.6652 1.7601,-7.867 3.6156,-11.2374 0.7696,-1.3978 2.3434,-2.988 4.2571,-3.1062 0.2494,0.3543 0.436,0.7753 0.6327,1.0769 0.4144,-0.4862 1.4374,-0.9357 2.1098,-1.4091 3.82,-2.6912 7.6859,-4.8447 11.573,-7.4931 0.7109,-0.4842 1.4925,-1.0392 2.2847,-1.5492 0.0562,0.0632 0.0545,0.0289 0.0377,-0.0243 0.5763,-0.3697 1.1577,-0.7149 1.7215,-0.991 9.2208,-4.5173 6.5347,-2.3661 12.1788,-1.8825 4.7449,0.4067 9.9417,-1.9877 13.3792,-1.7572 0.8235,1.279 -0.5315,2.2445 -1.7059,2.7955 -0.002,10e-4 -0.005,0.002 -0.008,0.004 -0.4918,0.2296 -1.2521,0.4711 -1.9281,0.6355 -0.9343,0.2004 -1.7836,0.2656 -2.5662,0.476 0.0241,1.0496 0.2851,1.961 0.1587,3.2332 -0.1106,1.112 -0.6712,1.487 -0.7206,2.6883 2.8922,1.7051 2.1269,3.1601 2.331,4.39 0.0785,0.472 0.6536,0.7946 0.9799,1.2793 1.2305,1.8278 0.2336,4.2931 -0.9663,5.8677 l -0.864,0.853 0.1238,1.3977 c -0.4612,-0.0983 -0.9059,-0.2151 -1.332,-0.3503 l -1.3025,4.1116 c 1.0551,0.3351 2.1844,0.5817 3.3696,0.7396 0.4563,1.878 1.0831,3.6505 1.6378,4.2763 -0.0887,-0.1125 -0.0901,-0.2109 -0.0218,-0.2965 l 0.1621,0.4312 c 0.677,1.7918 1.3919,3.5799 1.5886,4.0632 0.3747,0.9218 0.6142,1.6767 0.9683,2.6104 l 8.8557,17.2465 c 0.3881,0.9454 0.5791,1.5979 1.0264,2.6108 l 2.2011,5.3606 c 0.3909,0.9785 0.7963,1.7464 1.1639,2.6849 l 11.7202,33.702 c 0.0986,0.2313 -0.0803,-0.4071 0.089,0.3104 l 0.0487,0.2713 0.7475,1.8595 c 0.5667,0.9796 1.4054,4.0025 1.8539,5.2115 0.6202,1.6707 1.2662,3.5977 1.9655,5.4598 3.4634,9.2259 6.1002,18.6624 9.2044,28.099 l 2.219,7.1824 0.0572,0.0831 0.0519,0.0646 0.0737,0.106 0.0198,0.0624 4.366,14.4504 c 0.3379,1.569 2.2538,7.7446 0.1459,9.1035 -0.9861,0.6355 -1.7985,0.2296 -2.859,-0.0116 l -0.7514,-0.2778 -0.0995,-0.0644 -2.1518,-1.0392 c -0.6463,-0.4183 -0.0638,-0.3316 -0.9712,-0.8767 l -1.6565,-1.3289 c -0.7254,-0.5836 -1.5438,-1.1387 -2.149,-1.6523 l -0.7976,-0.8008 c -0.455,-0.4184 -0.6109,-0.43 -1.103,-0.7203 l -5.9842,-5.0491 c -0.4258,-0.3702 -0.6616,-0.5394 -1.1064,-0.9042 -1.4598,-1.1988 -1.4201,-1.9188 -2.4704,-1.3791 l 0.5066,-0.4731 c -0.1284,-0.0643 -0.578,-0.159 -0.6024,-0.1777 l -6.6246,-5.8303 c -0.1916,-0.1638 -0.5122,-0.4085 -0.6624,-0.5488 L 291.59,414.6435 c -0.0338,-0.0233 -0.0641,-0.044 -0.0922,-0.0624 -0.0243,-0.0363 -0.0552,-0.0794 -0.0938,-0.1304 -1.2506,-1.6614 -4.1043,-3.7267 -4.7174,-4.5856 -1.0905,-1.5279 -7.6278,-7.1742 -9.464,-9.019 l -1.0766,-1.1316 c -0.7895,-0.8214 -1.3884,-1.6557 -2.34,-2.3045 -1.0361,-0.7073 -2.2323,-2.0058 -3.3503,-3.0461 -0.3359,-0.313 -0.2667,-0.3238 -0.5746,-0.6248 -0.3115,-0.3039 -0.1939,-0.1244 -0.5383,-0.481 -0.4739,-0.4901 -0.6145,-0.7971 -1.1336,-1.2524 l -3.5087,-3.331 c -1.5848,-1.6452 -3.1374,-2.9506 -4.7381,-4.4833 l -4.6661,-4.5626 c -1.6651,-1.4598 -3.0915,-2.9177 -4.7642,-4.4714 z m 73.8408,63.0074 -0.068,0.0485 c 0.0224,0.0167 0.068,-0.0207 0.068,-0.0485 z m -19.8553,-16.8678 -0.0413,0.0292 c 0.0133,0.0102 0.0413,-0.0122 0.0413,-0.0292 z m -8.2595,-7.4217 c -0.2041,-0.1973 0.212,0.2058 0,0 z m -32.0922,-30.623 c 0.0159,0.0162 0.0479,-0.0255 0.0479,-0.0479 z m -4.0235,-3.6504 c 0.0544,0.0694 -0.0785,-0.1001 0,0 z m -10.5369,-91.1019 c -0.1344,-0.5731 0.0841,0.3586 0,0 z m 7.9568,3.4674 c 2.4662,-1.2543 7.8625,-3.8035 10.5282,-4.714 1.0383,-0.3546 1.927,-0.6004 2.9559,-0.8034 1.2994,-0.2562 1.9542,-0.3858 1.7343,-1.9803 -2.0143,-1.3419 -3.623,-0.5853 -5.7725,0.2566 -3.3755,1.3218 -9.754,3.9997 -12.5946,6.0936 -1.5803,1.1651 -1.8318,0.7362 -1.8318,2.0957 0,1.9221 4.1984,-0.5505 4.9805,-0.9482 z m -0.0519,-8.7191 c 0.0142,0.017 0.0477,-0.0244 0.0477,-0.0468 0,-0.009 0.0201,-0.0192 0.0192,-0.0184 -0.004,0.003 -0.2608,-0.1692 -0.0669,0.0652 z m 16.7142,-0.0111 c 0.1239,0.1432 0.0831,-0.0909 0.0542,-0.0595 -0.003,0.004 -0.2336,-0.1482 -0.0542,0.0595 z m -22.6613,4.0156 c -0.4087,-0.4711 0.1463,0.1687 0,0"
         clip-rule="evenodd"
         id="path24" />
    </clipPath>
    <clipPath
       clipPathUnits="userSpaceOnUse"
       id="clipPath232">
      <path
         d="m 301.8351,217.292 c 7.3488,-2.2864 11.4508,-10.1024 9.1627,-17.4571 -0.597,-1.918 -1.5699,-3.6142 -2.8114,-5.0349 -1.0214,1.0057 -2.2848,1.8859 -3.7412,2.4998 -5.5695,2.3474 -7.3083,1.4446 -11.8655,2.7885 -2.6314,0.7761 -5.6807,0.631 -8.3798,0.3807 -0.6327,2.4332 -0.6168,5.0678 0.1854,7.6459 2.2884,7.355 10.1009,11.4636 17.4498,9.1771"
         clip-rule="evenodd"
         id="path230" />
    </clipPath>
    <linearGradient
       x1="284.39001"
       y1="208.11"
       x2="311"
       y2="199.83"
       gradientUnits="userSpaceOnUse"
       spreadMethod="pad"
       id="linearGradient244">
      <stop
         style="stop-opacity:1;stop-color:#f9c82d"
         offset="0"
         id="stop234" />
      <stop
         style="stop-opacity:1;stop-color:#ad8f15"
         offset="0.33"
         id="stop236" />
      <stop
         style="stop-opacity:1;stop-color:#e7dfbd"
         offset="0.57"
         id="stop238" />
      <stop
         style="stop-opacity:1;stop-color:#dbb224"
         offset="0.85"
         id="stop240" />
      <stop
         style="stop-opacity:1;stop-color:#ad8f15"
         offset="1"
         id="stop242" />
    </linearGradient>
    <clipPath
       clipPathUnits="userSpaceOnUse"
       id="clipPath256">
      <path
         d="m 300.5416,213.1356 c 5.0553,-1.5732 7.8769,-6.9494 6.3028,-12.0087 -0.4685,-1.5063 -1.2738,-2.814 -2.3074,-3.8673 l -0.0918,0.0402 c -5.5695,2.3474 -7.3083,1.4446 -11.8655,2.7885 -1.2294,0.3625 -2.5504,0.5241 -3.8841,0.5678 -0.7061,1.9139 -0.8104,4.0674 -0.157,6.1667 1.5741,5.059 6.948,7.8855 12.003,6.3128"
         clip-rule="evenodd"
         id="path254" />
    </clipPath>
    <linearGradient
       x1="288.54001"
       y1="206.82001"
       x2="306.84"
       y2="201.13"
       gradientUnits="userSpaceOnUse"
       spreadMethod="pad"
       id="linearGradient266">
      <stop
         style="stop-opacity:1;stop-color:#c18525"
         offset="0"
         id="stop258" />
      <stop
         style="stop-opacity:1;stop-color:#996614"
         offset="0.3"
         id="stop260" />
      <stop
         style="stop-opacity:1;stop-color:#b87e21"
         offset="0.73"
         id="stop262" />
      <stop
         style="stop-opacity:1;stop-color:#966413"
         offset="1"
         id="stop264" />
    </linearGradient>
    <clipPath
       clipPathUnits="userSpaceOnUse"
       id="clipPath1864">
      <path
         d="m 1335.7731,-1237.8285 c 1286.9378,54.5353 2286.0359,1142.954472 2231.4265,2431.0836 -14.191,334.8916 -98.3623,650.2467 -237.5664,932.7455 -201.6593,-107.441 -431.7037,-186.8297 -678.9544,-221.5868 -1027.026,-144.3172 -1275.7055,81.9165 -2090.68304,59.5058 -450.56729,-12.376 -927.4834,132.1786 -1350.53797,285.1003 C -1000.4242,1880.6796 -1112.771,1450.6268 -1093.4633,995.61251 -1038.8699,-292.44177 48.676185,-1292.4267 1335.7731,-1237.8285"
         style="fill:#f9c82d;fill-opacity:1;fill-rule:evenodd;stroke:none;stroke-width:171.595"
         id="path1866" />
    </clipPath>
    <clipPath
       clipPathUnits="userSpaceOnUse"
       id="clipPath1854">
      <path
         d="m 1335.4156,-1147.9041 c 1286.9377,54.5353 2286.0358,1142.9544622 2231.4264,2431.0836 -14.1909,334.8916 -98.3623,650.2467 -237.5663,932.7455 -201.6594,-107.441 -431.7038,-186.8297 -678.9544,-221.5868 -1027.026,-144.3172 -1275.7055,81.9165 -2090.68308,59.5057 -450.56729,-12.3759 -927.4834,132.1787 -1350.53796,285.1004 -209.88196,-368.3403 -322.22876,-798.3932 -302.92106,-1253.4074 54.5933,-1288.05428 1142.139448,-2288.0392 2429.2364,-2233.441"
         style="fill:#f9c82d;fill-opacity:1;fill-rule:evenodd;stroke:none;stroke-width:171.595"
         id="path1856" />
    </clipPath>
    <clipPath
       clipPathUnits="userSpaceOnUse"
       id="clipPath284">
      <path
         d="m 177.1597,292.7438 c -0.5703,-0.4805 -1.16,-0.9227 -1.7649,-1.3292 -2.423,2.1436 -7.1368,3.8548 -8.5997,3.7973 -9.2132,-0.3634 -9.15,1.3986 -14.3935,-3.3542 -1.2864,0.936 -2.4823,2.0401 -3.5538,3.3111 -7.1552,8.4884 -6.0803,21.1649 2.4015,28.3139 8.481,7.1492 21.1564,6.0633 28.3116,-2.4251 7.1552,-8.4883 6.08,-21.1648 -2.4012,-28.3138"
         clip-rule="evenodd"
         id="path282" />
    </clipPath>
    <linearGradient
       x1="179.56"
       y1="321.06"
       x2="148.85001"
       y2="295.17001"
       gradientUnits="userSpaceOnUse"
       spreadMethod="pad"
       id="linearGradient296">
      <stop
         style="stop-opacity:1;stop-color:#f9c82d"
         offset="0"
         id="stop286" />
      <stop
         style="stop-opacity:1;stop-color:#ad8f15"
         offset="0.33"
         id="stop288" />
      <stop
         style="stop-opacity:1;stop-color:#e7dfbd"
         offset="0.57"
         id="stop290" />
      <stop
         style="stop-opacity:1;stop-color:#dbb224"
         offset="0.85"
         id="stop292" />
      <stop
         style="stop-opacity:1;stop-color:#ad8f15"
         offset="1"
         id="stop294" />
    </linearGradient>
    <clipPath
       clipPathUnits="userSpaceOnUse"
       id="clipPath308">
      <path
         d="m 173.1161,297.5406 c -1.4256,-1.2016 -3.024,-2.0642 -4.6968,-2.5977 -0.6874,0.1865 -1.2577,0.2835 -1.6242,0.269 -3.7525,-0.148 -5.9652,0.0564 -7.6252,0.0301 -2.0784,0.8126 -3.9895,2.1407 -5.529,3.9673 -4.9215,5.8385 -4.1822,14.5585 1.652,19.4766 5.834,4.9172 14.5534,4.1703 19.4749,-1.6682 4.9221,-5.8391 4.1825,-14.5593 -1.6517,-19.4771"
         clip-rule="evenodd"
         id="path306" />
    </clipPath>
    <linearGradient
       x1="174.77"
       y1="317.01999"
       x2="153.64"
       y2="299.20999"
       gradientUnits="userSpaceOnUse"
       spreadMethod="pad"
       id="linearGradient318">
      <stop
         style="stop-opacity:1;stop-color:#c18525"
         offset="0"
         id="stop310" />
      <stop
         style="stop-opacity:1;stop-color:#996614"
         offset="0.3"
         id="stop312" />
      <stop
         style="stop-opacity:1;stop-color:#b87e21"
         offset="0.73"
         id="stop314" />
      <stop
         style="stop-opacity:1;stop-color:#966413"
         offset="1"
         id="stop316" />
    </linearGradient>
    <clipPath
       clipPathUnits="userSpaceOnUse"
       id="clipPath126">
      <path
         d="m 102.8588,267.1163 c -0.3226,-0.2968 -0.8994,-0.445 -1.7305,-0.445 -0.8309,0 -1.6535,0.267 -2.4676,0.8013 -0.8144,0.5341 -1.4978,1.3799 -2.05,2.5376 -0.5525,1.1574 -0.741,2.7451 -0.5655,4.7631 0.1391,1.6027 0.6534,3.2499 1.5423,4.9416 0.8887,1.6914 2.3114,3.2051 4.2676,4.5408 1.9559,1.3354 4.4849,2.4336 7.5869,3.2942 3.1019,0.8608 6.9678,1.2911 11.5974,1.2911 h 4.3628 c 0.8311,0 1.4856,-0.3265 1.963,-0.9793 0.4773,-0.6531 0.5612,-1.3952 0.2517,-2.2261 -1.9145,-5.6389 -4.0136,-11.3519 -6.2972,-17.1394 -2.2833,-5.7869 -4.3274,-11.3814 -6.1322,-16.7831 -3.2629,-9.765 -3.8591,-18.8305 -2.3731,-27.1754 -2.0302,1.108 -3.7134,2.3349 -4.9567,3.6935 -1.0908,1.1923 -2.3737,2.8083 -3.6493,4.6556 -0.1089,11.2315 2.7306,23.6438 9.282,37.2124 2.1354,4.4221 3.8648,8.4433 5.1883,12.064 -3.5147,-0.8309 -6.3,-1.9735 -8.3554,-3.4277 -2.0554,-1.4544 -3.6253,-2.9531 -4.7089,-4.4963 -1.0837,-1.5432 -1.7864,-2.9679 -2.1073,-4.2738 -0.3215,-1.3056 -0.5077,-2.2555 -0.5593,-2.8491 z m 73.3465,-13.5332 c 0.297,0 0.5374,-0.1337 0.7222,-0.4008 0.1846,-0.267 0.2044,-0.549 0.0601,-0.8458 -0.3047,-0.7716 -0.7696,-1.8547 -1.3955,-3.2497 -0.6256,-1.3949 -1.3952,-2.9083 -2.3088,-4.5408 -0.9133,-1.6325 -1.948,-3.2944 -3.1039,-4.9861 -1.156,-1.6915 -2.418,-3.2349 -3.7857,-4.6299 -1.3677,-1.3946 -2.831,-2.5225 -4.3894,-3.3831 -1.5591,-0.8606 -3.1989,-1.2912 -4.9201,-1.2912 -3.5022,0 -6.0772,0.9349 -7.7253,2.8046 -1.6478,1.8697 -2.5744,4.1848 -2.7797,6.9449 -0.083,1.114 -0.0677,2.2694 0.0448,3.4659 -0.769,-1.3144 -1.6157,-2.6478 -2.5398,-4.0002 -1.156,-1.6915 -2.418,-3.2349 -3.7857,-4.6299 -1.3677,-1.3949 -2.8307,-2.5225 -4.3894,-3.3831 -1.5585,-0.8609 -3.1989,-1.2912 -4.9201,-1.2912 -3.5019,0 -6.0769,0.9349 -7.725,2.8046 -1.6481,1.8697 -2.5747,4.1848 -2.7799,6.9449 -0.2055,2.7601 0.1899,5.7722 1.186,9.0368 0.9958,3.2647 2.3703,6.2771 4.1235,9.0372 1.7535,2.7601 3.78,5.0751 6.0792,6.9449 2.2995,1.8697 4.6656,2.8046 7.0994,2.8046 1.84,0 3.2372,-0.4899 4.1907,-1.4692 0.9536,-0.9794 1.5466,-2.1813 1.7788,-3.606 0.2327,-1.4244 0.1553,-2.9976 -0.2319,-4.7188 -0.3869,-1.7212 -0.9686,-3.2942 -1.7456,-4.7189 -0.7767,-1.4244 -1.7118,-2.6265 -2.806,-3.6056 -1.0942,-0.9797 -2.2348,-1.4692 -3.4217,-1.4692 -1.3654,0 -2.2762,0.445 -2.7332,1.3354 -0.4569,0.8903 -0.6573,1.6619 -0.6006,2.315 0.5938,0 1.2407,0.4451 1.9414,1.3354 0.7005,0.8904 1.2753,1.8698 1.7243,2.9381 0.449,1.0684 0.6826,2.0478 0.7005,2.9384 0.0181,0.8904 -0.3291,1.3354 -1.0415,1.3354 -0.7123,0 -1.4941,-0.46 -2.3456,-1.3802 -0.8516,-0.9201 -1.647,-2.0477 -2.3862,-3.3831 -0.7393,-1.3357 -1.3717,-2.8046 -1.8964,-4.4073 -0.5253,-1.6027 -0.7716,-3.0719 -0.7393,-4.4073 0.0326,-1.3354 0.3946,-2.4633 1.086,-3.3832 0.6919,-0.9201 1.8391,-1.3802 3.4418,-1.3802 2.018,0 3.8993,0.4748 5.6438,1.4245 1.7444,0.9498 3.2944,2.048 4.6491,3.2944 1.3546,1.2467 2.4721,2.493 3.3519,3.7394 0.6789,0.9616 1.1977,1.711 1.5571,2.2488 0.7906,1.8827 1.7238,3.6708 2.7992,5.364 1.7535,2.7598 3.7797,5.0748 6.0789,6.9446 2.2992,1.8697 4.6658,2.8046 7.0997,2.8046 1.8992,0 3.3072,-0.5341 4.2233,-1.6027 0.9162,-1.0684 1.4247,-2.3891 1.5256,-3.962 0.1006,-1.573 -0.1516,-3.2794 -0.7566,-5.1197 -0.6049,-1.84 -1.4949,-3.5464 -2.6705,-5.1194 -1.1752,-1.5729 -2.5812,-2.8936 -4.2171,-3.9619 -1.6364,-1.0684 -3.4339,-1.6027 -5.3926,-1.6027 -1.0089,0 -1.7844,0.2967 -2.3267,0.8903 -0.0745,-1.5432 0.2152,-2.8196 0.8697,-3.8285 0.6542,-1.0091 1.8419,-1.5137 3.5634,-1.5137 2.018,0 3.8994,0.4751 5.6438,1.4245 1.7447,0.9498 3.2941,2.048 4.6491,3.2947 1.3547,1.2464 2.4721,2.4927 3.352,3.7391 0.8798,1.2464 1.4913,2.1371 1.8348,2.6714 0.2038,0.2965 0.4836,0.445 0.8397,0.445 z m -13.464,6.9449 c -0.5341,0 -1.1064,-0.2673 -1.717,-0.8013 -0.61,-0.5344 -1.2036,-1.2169 -1.7801,-2.0481 -0.5772,-0.8308 -1.1356,-1.7954 -1.6762,-2.8936 -0.5405,-1.0981 -0.9785,-2.211 -1.3138,-3.3389 0.3688,-0.5343 0.9096,-0.8013 1.622,-0.8013 0.8308,0 1.7501,0.5048 2.7578,1.5137 1.0077,1.0091 1.8479,2.137 2.52,3.3834 0.6721,1.2464 1.0372,2.3743 1.095,3.3831 0.0581,1.0092 -0.447,1.5137 -1.5154,1.5137 l 0.008,0.0893 z"
         id="path124" />
    </clipPath>
    <linearGradient
       x1="138.07001"
       y1="288.82999"
       x2="135"
       y2="224.55"
       gradientUnits="userSpaceOnUse"
       spreadMethod="pad"
       id="linearGradient134">
      <stop
         style="stop-opacity:1;stop-color:#fcf9fc"
         offset="0"
         id="stop128" />
      <stop
         style="stop-opacity:1;stop-color:#fcd8fd"
         offset="0.49"
         id="stop130" />
      <stop
         style="stop-opacity:1;stop-color:#f587ec"
         offset="1"
         id="stop132" />
    </linearGradient>
    <clipPath
       clipPathUnits="userSpaceOnUse"
       id="clipPath144">
      <path
         d="m 229.3588,259.7267 c -1.3107,-4.155 -2.766,-7.9243 -4.3659,-11.3077 -4.4881,-9.4927 -14.1607,-20.8803 -25.3652,-20.8803 h 0.178 c -4.6891,0 -8.5091,0.8977 -11.4605,2.6941 -2.9514,1.7963 -5.1523,4.1672 -6.6027,7.1141 -1.4508,2.9466 -2.2122,6.2861 -2.2848,10.0187 -0.0725,3.7324 0.413,7.5629 1.4568,11.492 1.0434,3.9288 2.5973,7.7595 4.6618,11.4919 2.0639,3.7324 4.5227,7.0722 7.3752,10.0185 2.8528,2.9469 6.0386,5.3181 9.5573,7.1144 3.5186,1.796 7.2368,2.694 11.154,2.694 3.1462,0 5.5931,-0.6596 7.3418,-1.9783 1.7487,-1.3189 2.916,-2.9888 3.5019,-5.0093 0.5859,-2.0209 0.6398,-4.1814 0.1613,-6.4829 -0.4785,-2.3011 -1.3893,-4.462 -2.7326,-6.4828 -6.7966,-10.2249 -17.2327,-4.7072 -15.6609,2.6955 1.1155,5.2551 7.8622,5.8787 8.9791,8.6181 0.2945,-1.3844 0.339,-3.0285 -0.3048,-5.127 0.7861,0.2134 1.9355,2.1297 2.037,3.5895 v 0.5638 c -0.0779,1.5132 -1.3745,3.4637 -2.668,3.8217 l 0.001,-0.003 c -3.0895,1.5151 -11.5915,-5.696 -13.0442,-7.4231 -1.6991,-2.0203 -3.2298,-4.3078 -4.5924,-6.8616 -1.3624,-2.5537 -2.4344,-5.1777 -3.2162,-7.8718 -0.7818,-2.6943 -1.2305,-5.318 -1.3468,-7.8718 -0.1156,-2.5537 0.1937,-4.841 0.9281,-6.8615 0.7345,-2.0206 1.9794,-3.6482 3.7358,-4.8833 1.7563,-1.2345 4.0887,-1.8521 6.9973,-1.8521 2.6119,0 5.0774,0.6738 7.3973,2.0208 8.0206,4.6576 11.4752,9.3186 13.8455,18.2849 -0.5913,0.7123 -1.0235,1.5434 -1.2974,2.4928 -0.2735,0.9499 -0.4011,1.8697 -0.3832,2.7603 0.0181,0.8904 0.2024,1.647 0.5533,2.2703 0.3509,0.6234 0.8827,0.9349 1.5951,0.9349 0.1366,-0.4748 0.3379,-0.8904 0.6037,-1.2464 0.2707,-0.2968 0.6336,-0.5641 1.0877,-0.8014 0.4544,-0.2375 1.097,-0.356 1.9278,-0.356 0.7719,0 2.0461,0.1483 3.8228,0.445 1.7768,0.2968 3.5706,0.4454 5.3808,0.4454 1.8105,0 3.4307,-0.3119 4.8602,-0.9352 1.4301,-0.623 2.1836,-1.8547 2.261,-3.6949 l -0.0618,-0.7121 -0.023,-0.2673 c -1.355,-1.2464 -2.5367,-2.8936 -3.5456,-4.9414 -1.0091,-2.0477 -1.7764,-4.051 -2.3031,-6.01 -0.5261,-1.9587 -0.7325,-3.6502 -0.6188,-5.0749 0.1136,-1.4246 0.6749,-2.137 1.684,-2.137 0.6529,0 1.4125,0.3711 2.278,1.1132 0.8659,0.7418 1.7124,1.6024 2.5395,2.5818 0.8269,0.9796 1.5798,1.959 2.2584,2.9384 0.6786,0.9793 1.1871,1.7064 1.525,2.1812 0.2038,0.2968 0.4842,0.4453 0.8402,0.4453 0.2968,0 0.5375,-0.1338 0.722,-0.4008 0.1842,-0.267 0.2044,-0.549 0.0598,-0.8458 -0.3637,-0.7716 -0.8583,-1.855 -1.4842,-3.2497 -0.6256,-1.3949 -1.3507,-2.9086 -2.1753,-4.5408 -0.8232,-1.6174 -1.7241,-3.2797 -2.7009,-4.9564 -0.9768,-1.6769 -1.9862,-3.2201 -3.0262,-4.6 -1.0398,-1.3802 -2.1025,-2.5078 -3.1862,-3.3687 -1.0825,-0.8456 -2.0993,-1.2762 -3.0492,-1.2762 -0.7716,0 -1.5749,0.1486 -2.4097,0.4453 -0.8348,0.2968 -1.59,0.8309 -2.2646,1.6027 -0.675,0.7716 -1.1946,1.7955 -1.5585,3.0717 -0.364,1.2761 -0.4635,2.8641 -0.2982,4.7633 0.3659,4.2143 1.0386,8.028 2.0177,11.4412 0.9791,3.4129 2.16,6.2473 3.5433,8.5028 -0.6633,-0.1188 -1.4128,-0.2078 -2.2493,-0.267 -0.836,-0.0595 -1.7612,-0.1188 -2.7754,-0.1783 l 0.1859,0.0893 z"
         clip-rule="evenodd"
         id="path142" />
    </clipPath>
    <linearGradient
       x1="216.82001"
       y1="290.14999"
       x2="213.52"
       y2="227.57001"
       gradientUnits="userSpaceOnUse"
       spreadMethod="pad"
       id="linearGradient152">
      <stop
         style="stop-opacity:1;stop-color:#ffffff"
         offset="0"
         id="stop146" />
      <stop
         style="stop-opacity:1;stop-color:#ffe2ff"
         offset="0.49"
         id="stop148" />
      <stop
         style="stop-opacity:1;stop-color:#ff8df7"
         offset="1"
         id="stop150" />
    </linearGradient>
    <clipPath
       clipPathUnits="userSpaceOnUse"
       id="clipPath162">
      <path
         d="m 276.1024,253.5831 c 0.2971,0 0.5375,-0.1337 0.7223,-0.4008 0.1845,-0.267 0.2044,-0.549 0.0601,-0.8458 -0.3047,-0.7716 -0.7699,-1.8547 -1.3955,-3.2497 -0.6256,-1.3949 -1.3952,-2.9083 -2.3088,-4.5408 -0.9134,-1.6325 -1.948,-3.2944 -3.104,-4.9861 -1.1562,-1.6915 -2.4179,-3.2349 -3.7856,-4.6299 -1.3678,-1.3946 -2.831,-2.5225 -4.3895,-3.3831 -1.559,-0.8606 -3.1989,-1.2912 -4.9204,-1.2912 -3.5019,0 -6.0769,0.9349 -7.7249,2.8046 -1.6478,1.8697 -2.5745,4.1848 -2.7797,6.9449 -0.2055,2.7601 0.1896,5.7725 1.1855,9.0371 0.9961,3.2647 2.3706,6.2768 4.1241,9.0372 1.7535,2.7598 3.7797,5.0748 6.0789,6.9446 2.2992,1.8697 4.6658,2.8046 7.0996,2.8046 1.8992,0 3.3072,-0.5341 4.2234,-1.6027 0.9161,-1.0684 1.4247,-2.3891 1.5256,-3.962 0.1006,-1.573 -0.1517,-3.2794 -0.7566,-5.1197 -0.6049,-1.84 -1.4953,-3.5464 -2.6705,-5.1194 -1.1753,-1.5729 -2.5812,-2.8936 -4.2174,-3.9619 -1.6361,-1.0684 -3.4336,-1.6027 -5.3923,-1.6027 -1.0089,0 -1.7844,0.2967 -2.3267,0.8903 -0.0746,-1.5432 0.2151,-2.8196 0.8697,-3.8285 0.6542,-1.0091 1.8419,-1.5137 3.5634,-1.5137 2.018,0 3.8993,0.4751 5.6438,1.4245 1.7447,0.9498 3.2941,2.048 4.6488,3.2947 1.3549,1.2464 2.4724,2.4927 3.3522,3.7391 0.8799,1.2464 1.4913,2.1371 1.8349,2.6714 0.2038,0.2965 0.4836,0.445 0.8396,0.445 z m -13.464,6.9449 c -0.5343,0 -1.1063,-0.2673 -1.7169,-0.8013 -0.61,-0.5344 -1.2036,-1.2169 -1.7802,-2.0481 -0.5771,-0.8308 -1.1355,-1.7954 -1.6764,-2.8936 -0.5403,-1.0981 -0.9782,-2.211 -1.3136,-3.3389 0.3688,-0.5343 0.9097,-0.8013 1.622,-0.8013 0.8309,0 1.7501,0.5048 2.7578,1.5137 1.0078,1.0091 1.8477,2.137 2.52,3.3834 0.6721,1.2464 1.0372,2.3743 1.0951,3.3831 0.0581,1.0092 -0.4471,1.5137 -1.5154,1.5137 l 0.008,0.0893 z"
         id="path160" />
    </clipPath>
    <linearGradient
       x1="263.09"
       y1="267.76001"
       x2="260.32001"
       y2="230.32001"
       gradientUnits="userSpaceOnUse"
       spreadMethod="pad"
       id="linearGradient170">
      <stop
         style="stop-opacity:1;stop-color:#fcf9fc"
         offset="0"
         id="stop164" />
      <stop
         style="stop-opacity:1;stop-color:#fcd8fd"
         offset="0.49"
         id="stop166" />
      <stop
         style="stop-opacity:1;stop-color:#f587ec"
         offset="1"
         id="stop168" />
    </linearGradient>
    <clipPath
       clipPathUnits="userSpaceOnUse"
       id="clipPath180">
      <path
         d="m 310.4623,253.4941 c 0.2971,0 0.5374,-0.1338 0.722,-0.4008 0.1848,-0.267 0.2046,-0.549 0.0601,-0.8458 -0.3045,-0.7716 -0.7844,-1.855 -1.4397,-3.2497 -0.6554,-1.3949 -1.3955,-2.9086 -2.2198,-4.5408 -0.8232,-1.6174 -1.7244,-3.2797 -2.7012,-4.9564 -0.9765,-1.6769 -1.9862,-3.2201 -3.026,-4.6 -1.04,-1.3802 -2.1024,-2.5078 -3.1864,-3.3687 -1.0825,-0.8456 -2.0993,-1.2762 -3.0489,-1.2762 -0.7719,0 -1.575,0.1486 -2.4101,0.4453 -0.8345,0.2968 -1.5908,0.8161 -2.266,1.5877 -0.6746,0.7716 -1.1956,1.7807 -1.5593,3.0569 -0.3654,1.2614 -0.4649,2.8491 -0.301,4.7336 l 0.0912,1.0539 c -0.6562,-1.41 -1.3833,-2.7751 -2.1821,-4.1108 -0.7974,-1.3204 -1.6548,-2.4778 -2.5696,-3.4424 -0.9159,-0.9796 -1.8745,-1.766 -2.8746,-2.3448 -1.0015,-0.5936 -2.0361,-0.8904 -3.1045,-0.8904 -2.1963,0 -3.9107,0.9349 -5.1432,2.8046 -1.2322,1.87 -1.7016,4.4963 -1.4077,7.8798 0.3714,4.2738 1.296,8.0872 2.7749,11.4409 1.4785,3.3539 3.2221,6.1733 5.2307,8.4583 2.0092,2.2856 4.1191,4.0218 6.3292,5.2086 2.2105,1.1872 4.265,1.7811 6.1645,1.7811 0.8904,0 1.6047,-0.1486 2.1427,-0.4454 0.5381,-0.2968 0.9349,-0.6828 1.1903,-1.1574 0.256,-0.4748 0.4034,-0.9943 0.4436,-1.5582 0.0397,-0.5638 0.005,-1.1426 -0.1063,-1.7362 0.9547,1.4244 1.9565,2.5376 3.0056,3.3389 1.0488,0.8011 2.1076,1.2019 3.1759,1.2019 1.128,0 1.9585,-0.178 2.4914,-0.534 0.5329,-0.3563 0.9,-0.7421 1.1013,-1.1577 0.1896,-0.549 0.2593,-1.1129 0.208,-1.7064 -1.3549,-1.2467 -2.5446,-2.9829 -3.5662,-5.1789 -1.0233,-2.2111 -1.8074,-4.4073 -2.3556,-6.6184 -0.5471,-2.1962 -0.7727,-4.1105 -0.6747,-5.7129 0.097,-1.6177 0.6506,-2.4191 1.6597,-2.4191 0.6531,0 1.4122,0.3711 2.2779,1.1132 0.866,0.7418 1.7125,1.6024 2.5396,2.5818 0.8269,0.9796 1.5797,1.959 2.2584,2.9384 0.6786,0.9793 1.1868,1.7064 1.525,2.1812 0.2038,0.2968 0.4839,0.4453 0.8399,0.4453 z m -17.6023,3.3832 c 0.2353,0.6531 0.4277,1.3354 0.5788,2.0477 0.1508,0.7124 0.2211,1.3505 0.2106,1.9143 -0.0102,0.5641 -0.1173,1.0389 -0.3214,1.4247 -0.2038,0.3858 -0.5726,0.5788 -1.1069,0.5788 -1.0687,0 -2.0877,-0.4601 -3.058,-1.3802 -0.9718,-0.9346 -1.8576,-2.0775 -2.6601,-3.4574 -0.801,-1.3652 -1.4953,-2.8641 -2.0834,-4.5111 -0.5871,-1.6324 -1.0007,-3.1458 -1.2376,-4.511 -0.2387,-1.3802 -0.3085,-2.5228 -0.2115,-3.4577 0.0981,-0.9201 0.4439,-1.3802 1.0375,-1.3802 0.5343,0 1.1653,0.4306 1.8941,1.3059 0.7276,0.8606 1.5046,1.944 2.3278,3.2202 0.8243,1.2912 1.6415,2.6711 2.4545,4.1697 0.8127,1.4987 1.5398,2.8642 2.1835,4.1253 l -0.008,-0.089 z"
         id="path178" />
    </clipPath>
    <linearGradient
       x1="292.64999"
       y1="267.89001"
       x2="290.5"
       y2="230.28"
       gradientUnits="userSpaceOnUse"
       spreadMethod="pad"
       id="linearGradient188">
      <stop
         style="stop-opacity:1;stop-color:#fcf9fc"
         offset="0"
         id="stop182" />
      <stop
         style="stop-opacity:1;stop-color:#fcd8fd"
         offset="0.49"
         id="stop184" />
      <stop
         style="stop-opacity:1;stop-color:#f587ec"
         offset="1"
         id="stop186" />
    </linearGradient>
    <clipPath
       clipPathUnits="userSpaceOnUse"
       id="clipPath198">
      <path
         d="m 337.1839,258.5367 c -0.7163,0 -1.7282,-1.0193 -2.2107,-1.6699 -1.7473,-2.355 -3.2119,-5.2379 -4.3427,-7.8304 -2.7187,-6.2345 -2.2861,-8.4972 -3.1524,-15.0945 -0.1755,-1.3351 -0.0436,-2.211 0.3952,-2.6266 -0.0567,-0.6528 -0.4607,-1.2022 -1.2116,-1.6469 -0.7509,-0.4451 -1.5123,-0.6679 -2.2838,-0.6679 -0.4748,0 -1.0191,0.0596 -1.6317,0.1781 -0.6128,0.1184 -1.1724,0.3412 -1.6784,0.6678 -0.5057,0.3263 -0.9272,0.7719 -1.2639,1.3354 -2.1838,3.6575 2.4695,18.5819 4.5473,22.4399 0.9907,1.84 1.7688,3.2797 2.3338,4.318 0.5652,1.0389 -0.2279,1.3417 -0.7623,1.3417 -1.0091,0 -2.141,-0.9051 -3.3964,-2.7156 -1.2555,-1.8102 -2.4903,-4.0661 -3.7041,-6.7666 -1.214,-2.7009 -2.2682,-5.6092 -3.1623,-8.7256 -0.8938,-3.1162 -1.4567,-6.0098 -1.6889,-8.6808 -0.036,-0.4156 -0.2987,-0.8757 -0.7877,-1.3802 -1.7756,-1.8315 -8.6026,-0.1299 -8.2477,3.962 0.2735,3.1458 0.9119,6.3958 1.9154,9.7494 1.0037,3.3537 1.9882,6.4849 2.9531,9.3935 0.9649,2.9083 1.7442,5.3864 2.3374,7.4341 0.5936,2.0481 0.6191,3.3687 0.0771,3.962 0.0879,1.0091 0.6047,1.6622 1.5503,1.959 0.9459,0.2968 1.9451,0.3561 2.9982,0.178 1.0531,-0.178 2.0135,-0.5638 2.882,-1.1573 0.8685,-0.5936 1.2694,-1.2762 1.2025,-2.0481 -0.0825,-0.9496 -0.222,-1.8697 -0.4182,-2.7598 -0.1958,-0.8903 -0.4541,-1.8105 -0.7741,-2.7604 1.2852,2.4931 2.6824,4.5706 4.1922,6.2326 1.5097,1.6619 3.0954,2.493 4.7574,2.493 1.7214,0 2.8819,-0.4748 3.482,-1.4246 0.6001,-0.9497 0.8397,-2.4631 0.7183,-4.5406 0.9808,1.7212 2.0571,3.1431 3.2205,4.2735 0.2299,0.2234 0.4657,0.4298 0.7049,0.62 l 6e-4,0.001 c 0.1344,0.1108 0.2758,0.2154 0.4229,0.3146 2.655,1.8604 7.4155,1.8151 10.09,0.0652 1.3195,-0.8631 -0.2172,-0.1417 -1.2816,-2.8023 -1.8283,-4.5663 -2.9097,-26.1195 -4.0909,-31.7951 -0.1333,-0.6415 -0.2716,-1.2793 -0.4145,-1.9136 -3.7006,-0.4474 -7.6751,-1.5228 -10.4655,-2.621 1.4964,4.0235 2.7587,8.1049 3.7741,12.2199 0.6284,2.5458 4.4376,18.489 2.4142,18.489"
         clip-rule="evenodd"
         id="path196" />
    </clipPath>
    <linearGradient
       x1="327.48999"
       y1="268.25"
       x2="325.19"
       y2="227.86"
       gradientUnits="userSpaceOnUse"
       spreadMethod="pad"
       id="linearGradient206">
      <stop
         style="stop-opacity:1;stop-color:#fcf9fc"
         offset="0"
         id="stop200" />
      <stop
         style="stop-opacity:1;stop-color:#fcd8fd"
         offset="0.49"
         id="stop202" />
      <stop
         style="stop-opacity:1;stop-color:#f587ec"
         offset="1"
         id="stop204" />
    </linearGradient>
  </defs>
  <sodipodi:namedview
     pagecolor="#ffffff"
     bordercolor="#666666"
     borderopacity="1"
     objecttolerance="10"
     gridtolerance="10"
     guidetolerance="10"
     inkscape:pageopacity="0"
     inkscape:pageshadow="2"
     inkscape:window-width="1920"
     inkscape:window-height="1016"
     id="namedview12"
     showgrid="false"
     inkscape:zoom="2.0618114"
     inkscape:cx="60.372901"
     inkscape:cy="40.166531"
     inkscape:window-x="0"
     inkscape:window-y="27"
     inkscape:window-maximized="1"
     inkscape:current-layer="g1302"
     inkscape:document-rotation="0" />
  <metadata
     id="metadata2">
    <rdf:RDF>
      <cc:Work
         rdf:about="">
        <dc:format>image/svg+xml</dc:format>
        <dc:type
           rdf:resource="http://purl.org/dc/dcmitype/StillImage" />
        <dc:title />
      </cc:Work>
    </rdf:RDF>
  </metadata>
  <g
     id="g1302"
     transform="matrix(0.18388643,0,0,0.18388643,38.206334,64.701559)">
    <g
       id="g1109-4-0-3-8-6-8-3"
       transform="matrix(1.8382575,0,0,1.8382575,-911.41616,456.5904)"
       style="font-style:normal;font-variant:normal;font-weight:bold;font-stretch:normal;font-size:12.7845px;line-height:0.8;font-family:Waree;-inkscape-font-specification:'Waree Bold';letter-spacing:-1.52938px;display:inline;fill:#3685b5;fill-opacity:1;stroke:none;stroke-width:0.319612">
      <path
         style="fill:#3685b5;fill-opacity:1;stroke:#3685b5;stroke-width:4;stroke-linecap:round;stroke-linejoin:round;stroke-miterlimit:4;stroke-dasharray:none;stroke-opacity:1"
         d="m 566.23063,-385.63946 c 0,-0.16105 6.78289,-2.77871 10.52158,-4.90442 l 6.79763,-3.86492 h 95.75741 95.75745 l -5.22619,4.12572 -5.22618,4.12573 -97.32885,0.032 c -53.5309,0.0176 -101.05285,0.64693 -101.05285,0.48588 z"
         id="path1097-7-8-1-2-7-6-7"
         sodipodi:nodetypes="sscccccss" />
      <path
         style="fill:#a8d8f8;fill-opacity:1;stroke:#a8d8f8;stroke-width:3;stroke-linecap:round;stroke-linejoin:round;stroke-miterlimit:4;stroke-dasharray:none;stroke-opacity:1"
         d="m 754.85876,-109.80684 c -0.991,-24.72562 -4.65114,-40.92172 -13.32206,-58.95018 -7.22424,-15.02046 -18.98277,-29.87265 -30.50747,-38.53392 -2.75177,-2.06807 -4.99798,-3.93905 -4.99157,-4.15774 0.0159,-0.54574 21.49469,-12.87084 22.42976,-12.87084 0.41275,0 1.15279,0.88307 1.64457,1.96238 1.89201,4.15254 5.06841,7.25991 12.46674,12.19587 14.19545,9.47081 24.57273,21.10208 32.49015,36.41626 8.12829,15.72205 11.69656,30.04843 12.35125,49.58918 l 0.43053,12.85119 -10.48523,5.99237 c -5.76688,3.29581 -11.38819,6.612545 -12.49182,7.37054 -1.27738,0.877329 -3.36526,1.378161 -5.74532,1.378161 h -3.73875 z"
         id="path1101-8-8-8-5-7-0-1" />
      <path
         style="fill:#a8d8f8;fill-opacity:1;stroke:#a8d8f8;stroke-width:3;stroke-linecap:round;stroke-linejoin:round;stroke-miterlimit:4;stroke-dasharray:none;stroke-opacity:1"
         d="m 693.93077,-225.26928 c 0,-2.40854 0.81439,-4.98324 2.83483,-8.96236 2.63321,-5.18594 3.42058,-6.02273 11.0713,-11.76602 4.53007,-3.40065 10.08817,-7.99349 12.35133,-10.20631 6.94582,-6.79122 15.75174,-19.19954 20.55625,-28.96552 9.40644,-19.12013 13.08484,-34.9279 14.11751,-60.66937 l 0.5231,-13.04018 h 8.3161 8.31606 l -0.44992,17.57589 c -0.38672,15.10717 -0.76523,19.23643 -2.69478,29.39796 -3.03398,15.97772 -4.25905,20.26737 -8.08273,28.30178 -3.78728,7.95795 -8.50853,13.21626 -16.72892,18.63188 -2.94029,1.93708 -6.34582,4.73491 -7.5678,6.21739 -2.60093,3.15539 -7.63066,13.04567 -8.27643,16.27451 -0.26186,1.30933 -1.06857,2.43731 -1.94122,2.71427 -0.82124,0.26066 -7.9184,4.19112 -15.77147,8.73438 -7.8531,4.54325 -14.79468,8.45859 -15.42576,8.70077 -0.92049,0.35322 -1.14745,-0.22809 -1.14745,-2.93907 z"
         id="path1099-4-5-9-3-4-4-2" />
      <path
         style="fill:#a8d8f8;fill-opacity:1;stroke:#a8d8f8;stroke-width:3;stroke-linecap:round;stroke-linejoin:round;stroke-miterlimit:4;stroke-dasharray:none;stroke-opacity:1"
         d="m 575.78691,-102.81438 c -1.45309,-2.40923 2.19511,-31.89368 5.19128,-41.95536 6.8163,-22.89052 21.02832,-42.87191 39.3359,-55.30435 12.40972,-8.42729 15.69852,-13.63685 15.69852,-24.86696 0,-13.30841 -4.88881,-21.88655 -18.47699,-32.42069 -25.09864,-19.45754 -39.01996,-46.60928 -40.82272,-79.61952 l -0.83659,-15.31867 45.18721,-1.13322 c 45.37226,-1.13787 117.81856,-0.42346 119.41966,1.17762 0.47127,0.47128 0.12335,8.14551 -0.77327,17.05384 -3.4702,34.47989 -18.57814,62.6996 -42.29439,79.00051 -11.11631,7.64059 -17.30568,18.5629 -17.30568,30.5391 0,11.30586 3.5269,17.29627 14.44466,24.53419 28.00385,18.5651 42.78331,46.69126 45.70238,86.97423 l 0.90387,12.47321 h -82.34497 c -45.28971,0 -82.65271,-0.51027 -83.02887,-1.13393 z m 141.83016,-23.43452 c -4.64053,-28.1268 -17.39604,-48.38653 -40.40574,-64.17693 -3.87477,-2.65906 -9.55318,-8.61218 -12.61867,-13.22916 -3.06551,-4.61698 -6.14021,-8.39451 -6.83268,-8.39451 -0.69244,0 -2.30973,2.03189 -3.59396,4.51531 -3.70822,7.17092 -11.18423,14.91433 -20.52048,21.25444 -4.75189,3.22695 -11.15772,8.78416 -14.23514,12.34932 -10.37288,12.01693 -20.43946,36.35249 -20.43946,49.41166 v 4.69546 h 59.85312 59.85314 z m -55.72829,-117.92857 c 5.37853,-10.4904 11.60074,-17.92202 20.83319,-24.88257 5.28566,-3.98497 12.16607,-10.30701 15.28982,-14.04898 6.0802,-7.28355 13.98717,-22.03547 12.57035,-23.4523 -1.84621,-1.84621 -86.165,26.21293 -86.36055,28.73858 -0.0641,0.82859 2.90277,3.71749 6.59315,6.41979 10.79902,7.90763 15.81443,13.43079 20.95621,23.07776 2.65634,4.98377 5.45267,9.06141 6.21411,9.06141 0.76142,0 2.5181,-2.21116 3.90372,-4.91369 z"
         id="path1095-5-0-6-4-0-6-2" />
      <path
         id="path861-0-9-4-9-6-7-0"
         style="fill:#3685b5;fill-opacity:1;stroke-width:0.617699"
         d="m 581.76506,-408.61532 c -1.13874,0.0209 -2.25328,0.32931 -3.24168,0.89452 -0.48027,0.2124 -0.91149,0.46301 -1.29397,0.74621 l -29.59304,17.08371 c -1.69735,0.97992 -2.80961,2.58348 -3.21736,4.35374 h -0.23876 v 12.97182 12.97181 l 8.80206,0.17106 8.80255,0.17156 v 10.41849 c 0,17.96401 2.10513,31.82952 7.11533,46.86432 8.1388,24.4233 22.29663,43.80812 41.78713,57.2146 6.28973,4.32636 6.42112,4.46728 9.12656,9.78751 2.44005,4.79837 2.74887,5.87237 2.77969,9.66814 0.0307,3.77787 -0.17902,4.5732 -1.81851,6.90088 -1.19626,1.69838 -3.47829,3.58991 -6.43784,5.3361 -15.36279,9.06429 -29.49114,24.70141 -38.64467,42.77155 -3.03022,5.98197 -7.09734,16.72037 -8.99533,23.74997 -3.30779,12.25122 -4.37092,20.32817 -4.74027,36.01641 l -0.0656,2.79621 -14.25133,8.228439 c -1.47003,0.848873 -2.50053,2.165588 -3.01533,3.653006 l -0.44442,0.0088 -0.16793,12.336714 c -0.0925,6.785103 -0.031,12.692733 0.13589,13.127883 0.24559,0.64013 22.06324,0.7614 114.1331,0.6351 l 113.83026,-0.15607 v -0.91467 c 0.6097,-0.1493 1.2092,-0.38459 1.78025,-0.71417 l 30.86168,-17.816477 c 2.85539,-1.648471 4.05742,-5.059312 3.02771,-8.06514 l -0.7679,-18.661395 -4.72064,0.0816 c -8.2e-4,-18.01714 -2.11111,-31.88922 -7.16029,-47.04054 -8.82115,-26.47011 -25.25834,-47.80391 -46.36719,-60.1524 -2.19734,-1.2854 -4.44194,-3.23229 -5.50974,-4.75165 -1.61724,-2.30119 -1.8066,-3.01277 -1.8066,-6.67607 0,-3.7426 0.26318,-4.64628 2.74608,-9.52914 1.36493,-2.68434 2.22065,-3.79118 3.44525,-4.90616 1.22462,-1.11497 2.84429,-2.24147 5.65237,-4.86327 20.88269,-19.49723 23.24007,-28.36155 28.03292,-50.85581 3.31938,-15.57889 3.89385,-46.67711 3.89485,-64.94126 v -0.7338 l 13.16612,-12.05508 c 0.1479,-0.13538 0.28702,-0.27672 0.42013,-0.42168 l 3.25612,-1.68258 -0.0858,-23.7014 -7.42743,-0.0336 c -0.47421,-0.10161 -0.96504,-0.15878 -1.46968,-0.15865 l -209.70711,0.062 c -0.50694,-0.12157 -1.04291,-0.18992 -1.60763,-0.1912 z m 194.12045,14.09888 -11.48615,8.9793 H 658.14592 567.22639 l 15.45383,-8.92245 z m -3.97963,34.92707 c 0.035,2.92519 0.0587,6.07157 0.0661,9.28832 0.0136,5.83735 -0.0235,11.81793 -0.13073,16.71112 -0.10721,4.89321 -0.29224,8.72724 -0.54674,10.16631 -2.63858,14.91974 -4.42481,26.76808 -8.21708,36.42362 -3.79228,9.65554 -9.56842,17.12883 -20.26179,23.38255 -4.83937,2.83018 -7.18215,5.67062 -11.16987,13.52941 -1.99413,3.92991 -3.14976,7.1247 -3.67628,10.47533 -0.0142,1.7e-4 -0.0282,-7.8e-4 -0.0424,-5.2e-4 -1.14853,0.0211 -2.27279,0.3334 -3.26749,0.90795 l -30.59814,17.66559 c -0.32644,-1.02174 -0.39791,-2.18674 -0.39791,-4.18941 0,-3.75867 0.29335,-4.77907 2.77966,-9.66866 2.74654,-5.40137 2.85554,-5.51839 9.1612,-9.85572 19.4905,-13.40648 33.64831,-32.7913 41.78713,-57.2146 5.01152,-15.03875 7.1138,-29.00464 7.1148,-47.26223 l 5.3e-4,-10.02058 8.80203,-0.17156 z m -69.07588,5.34128 c 33.97025,0.003 38.24462,0.21326 38.50309,0.88676 0.5679,1.47998 -0.91474,23.88686 -1.97871,29.90309 -5.27571,29.83123 -22.37227,56.91401 -43.86088,69.48103 -4.80002,2.80716 -7.06945,5.56023 -11.04895,13.4028 -3.30491,6.51314 -4.29389,10.92557 -3.91551,17.46715 0.50477,8.7264 5.11056,15.85117 13.36249,20.67057 24.44551,14.27694 41.64994,42.2385 46.05663,74.85435 0.523,3.8709 1.02454,11.34654 1.11466,16.61242 l 0.1633,9.57461 -82.8208,0.15658 c -38.34037,0.0725 -70.85004,0.002 -80.34806,-0.15813 l 0.14055,-0.0811 -1.9699,0.0408 c -0.61026,-0.0187 -1.03667,-0.0383 -1.0573,-0.0589 -0.34071,-0.34072 -0.46242,-2.2839 -0.4258,-5.08651 l 0.22014,-5.71748 c 0.43539,-7.37363 1.43494,-16.79374 2.5895,-22.54126 6.14987,-30.61434 22.41711,-54.73912 46.08298,-68.34157 3.72764,-2.14254 8.07979,-7.02851 10.19162,-11.44168 3.30017,-6.8966 2.6144,-17.00647 -1.74355,-25.70385 -3.52036,-7.02574 -6.84972,-11.05319 -11.27736,-13.64258 -17.10198,-10.00161 -32.12428,-29.96514 -39.50663,-52.50067 -4.18603,-12.77838 -5.89442,-23.49663 -6.10455,-38.29741 l -0.13176,-9.26558 82.94481,-0.15658 c 18.87349,-0.0357 33.49659,-0.0578 44.81999,-0.0568 z m 6.12159,48.05649 c -2.18112,-0.0586 -84.31366,26.89739 -84.65633,27.78436 -0.49199,1.27345 5.3104,6.18581 11.83183,10.01644 4.7658,2.79938 6.0157,3.92003 9.72449,8.71885 3.86334,4.99882 9.68142,15.35057 10.58334,18.83089 0.22135,0.85423 0.83301,1.38958 1.5875,1.38958 0.93927,0 1.61816,-0.97887 2.89179,-4.16926 2.14026,-5.36115 5.12601,-10.3314 9.96166,-16.584 3.35193,-4.33411 4.63614,-5.44812 9.61441,-8.33902 10.2857,-5.97292 20.20927,-17.06585 26.90638,-30.07724 2.86149,-5.55936 3.26506,-7.52461 1.55493,-7.5706 z m 20.09851,80.61576 c 2.00258,5.72678 6.12296,10.50362 12.16205,14.03066 24.34836,14.22018 41.51074,42.09568 45.90624,74.62904 0.51946,3.84459 1.02172,11.32498 1.11157,16.57625 l 0.15452,8.92193 0.41494,0.003 -23.72206,13.696842 c -0.78193,0.451429 -1.43841,1.036114 -1.96059,1.707388 l -8.60981,-0.16795 v -10.4185 c 0,-17.99817 -2.10431,-31.82754 -7.14478,-46.95269 -8.31813,-24.96061 -23.42097,-45.33101 -42.81392,-57.88018 z m -70.87732,13.92369 c -0.5705,0.002 -1.99843,2.04834 -3.55584,5.09633 -4.46675,8.74174 -11.3927,15.7291 -20.65973,20.84421 -5.00954,2.76507 -14.7379,12.34018 -18.96475,18.66604 -3.9502,5.91184 -8.68923,15.36259 -10.77349,21.48448 -3.09099,9.07874 -5.89976,22.44234 -5.13561,24.43365 v 5.2e-4 c 0.52197,1.35961 117.6093,1.34379 118.13129,-0.0165 0.80143,-2.08848 -2.66202,-17.73435 -5.74693,-25.96173 -2.32593,-6.20324 -6.66364,-14.69175 -10.25364,-20.06595 -4.15427,-6.21892 -13.90872,-15.79712 -18.88204,-18.54047 -9.49161,-5.23572 -16.95527,-12.85539 -21.10621,-21.54701 -1.26545,-2.64964 -2.47851,-4.39537 -3.05305,-4.39353 z" />
      <g
         id="g1062-3-6-3-0-4-6-2"
         style="opacity:1"
         transform="translate(35.924652,-182.25446)" />
    </g>
  </g>
</svg>
