<svg xmlns="http://www.w3.org/2000/svg" viewBox="0 0 228.7839 263.44309">
  <g>
    <path d="M42.73758,173.98489,88.241,167.24217l15.39155-26.47326-14.46-18.10986s-15.268-6.31108-21.59917-1.45453S42.73758,173.98489,42.73758,173.98489Z" fill="red"/>
    <g>
      <g>
        <path d="M55.58283,243.93585C45.519,261.68576,39.92727,255.847,39.92727,255.847c-1.66357-10.04271,6.33461-17.74991,6.33461-17.74991,21.31158-27.55908,21.31158-42.27283,31.59941-36.434l5.91509,3.26972-9.08447,17.98347s-3.48224-6.30589-9.04525,22.42094c-4.49369,23.205-18.09533,16.072-18.09533,16.072" fill="#fff" stroke="#000" stroke-miterlimit="10" stroke-width="2"/>
        <path d="M58.78044,250.94239S46.13116,270.118,41.17516,256.5598" fill="none" stroke="#000" stroke-miterlimit="10" stroke-width="2"/>
      </g>
      <g>
        <polygon points="177.051 185.081 184.875 196.525 193.171 175.739 176.233 158.923 177.051 185.081" fill="#3fa9f5"/>
        <path d="M180.78756,183.9131s4.26081-29.19913-17.28281-45.07544l-21.25319,4.7838s-45.309,3.8576-62.475,39.35744c0,0-8.71083,28.25973,12.28513,50.44713,0,0-13.46944-20.64685-13.056-25.42009,0,0-5.65179,2.29849-4.01693,19.5813,0,0,6.00244,12.37823,17.83174,18.68412s24.67464-9.57561,24.67464-9.57561,10.56318-13.546,18.94435-15.648c0,0-5.42179.4671-14.8572,11.67757,0,0,35.96693-2.102,55.55471-38.0689,0,0-7.32632,12.26146-9.078,13.77954s11.5608-6.07234,17.39959-2.45229,9.69239-18.217,9.69239-18.217,1.40131-8.1743-.93421-12.0279c-3.64085-6.00741-9.69239,14.597-9.69239,14.597s-3.38649,13.546,2.33057,16.048" fill="#3fa9f5" stroke="#000" stroke-miterlimit="10" stroke-width="2"/>
      </g>
      <g>
        <path d="M226.56366,146.82691s6.07234,3.92188-8.875,35.91843-20.78608,27.32553-20.78608,27.32553-1.86842.93421-4.671-5.13813a9.71012,9.71012,0,0,0-8.69048-5.87365,39.52139,39.52139,0,0,1,3.5035-15.98825l9.858,8.08236" fill="#fff" stroke="#000" stroke-miterlimit="10" stroke-width="2"/>
        <path d="M220.72487,162.7183s9.80917-15.26278,1.86841-20.73947c0,0-4.20392-1.40931-6.773,4.84808" fill="#fff" stroke="#000" stroke-miterlimit="10" stroke-width="2"/>
        <path d="M217.45515,164.25183l2.102-7.66426s1.40131-9.34206-3.73682-9.76066-8.40786,8.1258-11.21047,23.44752-10.04272,24.84915-10.04272,24.84915" fill="#fff" stroke="#000" stroke-miterlimit="10" stroke-width="2"/>
        <path d="M197.91244,209.86364s-.83131-6.09626,8.68256-21.70641c0,0,6.55811-14.96357,7.48179-26.50953,0,0,4.631-15.96807,13.21487-5.49011,0,0-5.39536,18.99164-11.33547,30.21741C210.58538,196.52488,205.80382,207.09261,197.91244,209.86364Z" fill="#ff7bac" stroke="#000" stroke-miterlimit="10" stroke-width="2"/>
      </g>
      <path d="M132.29783,87.68987s5.13039,0,8.4-1.28453c1.54041-.60517-2.21307,18.37974-12.05083,28.1889l3.65078-26.90437" fill="#fcee21" stroke="#000" stroke-miterlimit="10"/>
      <path d="M69.03315,69.12253C56.071,61.5321,62.61049,45.53382,60.1582,39.57826c0,0,14.24664-2.45229,14.83052,21.37C74.98872,60.94822,70.26946,69.84649,69.03315,69.12253Z" fill="#fff" stroke="#000" stroke-miterlimit="10" stroke-width="2"/>
      <path d="M75.58367,90.43907S70.668,99.601,65.06278,95.51385c0,0-20.66931,39.23666,44.18877,29.77782,0,0,14.58627-.59773,18.16949-9.22529,12.0279-28.96039-1.97927-44.43028-1.97927-44.43028-9.58153-11.73886-15.904.70838-14.73744,4.275.8352,2.55354-2.23065,2.79236-2.23065,2.79236C89.15815,73.0692,93.10683,66.70054,93.10683,66.70054s-5.38157-11.09949-16.14472-6.05427-6.39061,13.508-6.39061,13.508a48.52484,48.52484,0,0,1-14.463-10.48085,44.11941,44.11941,0,0,0-20.85359,1.3454c10.09045,23.54438,21.17946,20.50835,29.2623,18.89475,8.40871-1.67865,12.44488,9.3585,12.44488,9.3585" fill="#fff" stroke="#000" stroke-miterlimit="10" stroke-width="2"/>
      <path d="M71.01834,80.333H54.66974S45.82912,80.28086,39.956,67.37089c0,0,9.04926-.51492,11.5608.93421,3.55689,2.05227,5.48846,7.94075,13.42921,9.45883S71.01834,80.333,71.01834,80.333Z" fill="#ff7bac" stroke="#000" stroke-miterlimit="10"/>
      <path d="M82.112,67.95477s-10.15949-.93421.93421,19.7351c0,0-8.17431-21.37,3.03617-18.10024Z" stroke="#000" stroke-miterlimit="10"/>
      <path d="M88.0676,67.94835l-1.98518-3.84718s7.7072-1.99161,9.69238,1.92359A5.50624,5.50624,0,0,0,88.0676,67.94835Z" stroke="#000" stroke-miterlimit="10"/>
      <path d="M85.49854,73.20968s16.81571-.1454,13.42921,19.83757c0,0-4.671,9.35637-13.42921-6.87546C85.49854,86.17179,79.65975,74.37744,85.49854,73.20968Z" fill="#fff" stroke="#000" stroke-miterlimit="10" stroke-width="2"/>
      <path d="M97.17611,94.11254S83.96676,83.87675,90.05279,80.91688a5.30257,5.30257,0,0,1,6.178.83055c.22074.18934-1.596,3.40968-1.15662,3.95726.54834.68335,3.35515-1.284,3.50788-1.01977a12.93929,12.93929,0,0,1,.79626,1.60364S99.51163,93.17833,97.17611,94.11254Z" stroke="#000" stroke-miterlimit="10"/>
      <path d="M110.13822,73.20965s-7.95718-8.55417-17.03139-6.50911c0,0-3.67676,6.3383,15.31872,11.7954C108.42555,78.49594,111.77308,78.46453,110.13822,73.20965Z" fill="#fff" stroke="#000" stroke-miterlimit="10" stroke-width="2"/>
      <path d="M108.42415,78.49594s-10.74633-2.71185-8.81315-6.51a2.63256,2.63256,0,0,1,3.47031-1.33355c.18678.05735.52849,2.72777.96738,2.95416.54771.28253,1.20246-1.86518,1.38407-1.7379a11.37243,11.37243,0,0,1,1.03572.81227S109.2453,77.171,108.42415,78.49594Z" stroke="#000" stroke-miterlimit="10"/>
      <path d="M86.08242,112.456s26.96852,10.92936,40.52118-26.05069c0,0,4.55426,11.56079.81744,24.05581S106.635,122.60581,106.635,122.60581s-12.72,1.95658-22.07063-6.53943" fill="none" stroke="#000" stroke-miterlimit="10" stroke-width="2"/>
      <path d="M83.92431,117.9662s-.14159-4.21894,4.31672-7.59819" fill="none" stroke="#000" stroke-miterlimit="10" stroke-width="2"/>
      <path d="M106.51817,83.36917s-1.86841-14.71375,11.67758-8.1743-4.78781,14.83052-4.78781,14.83052S108.50336,91.8938,106.51817,83.36917Z" fill="#ed1c24" stroke="#000" stroke-miterlimit="10" stroke-width="2"/>
      <path d="M91.1409,113.6813l3.63744,7.964a33.15433,33.15433,0,0,0,7.65268.99927l-3.05133-8.99612a33.68488,33.68488,0,0,0,8.40022-2.76749l3.74674,11.29915c2.44731-.11095,7.70723-2.40182,7.70723-2.40182L113.974,106.81045s3.79331-3.64685,4.9065-4.95315l8.06279,9.96226c1.95028-4.89433,1.69254-7.29459,1.69254-7.29459l-6.21466-7.89684s2.29052-4.72842,2.56749-5.42228l3.31261,1.8414" fill="none" stroke="#000" stroke-miterlimit="10" stroke-width="2"/>
      <path d="M124.94441,86.40534s3.94437,13.11311-1.71426,12.8409c-3.97537-.19124-1.97581-2.683-1.97581-2.683" fill="#fff" stroke="#000" stroke-miterlimit="10" stroke-width="2"/>
      <path d="M118.19575,87.68987s5.37169,5.25491,2.45229,16.23183-14.21721-.81743-14.21721-.81743" fill="#fff" stroke="#000" stroke-miterlimit="10" stroke-width="2"/>
      <path d="M112.18922,95.73026s-12.68106.51954-17.11328,4.213" fill="none" stroke="#000" stroke-miterlimit="10"/>
      <path d="M112.18922,98.14347s-9.84937-.04691-12.31171,4.87777" fill="none" stroke="#000" stroke-miterlimit="10"/>
      <path d="M111.08116,94.11254s-4.43221-1.52167-7.44858,0" fill="none" stroke="#000" stroke-miterlimit="10"/>
      <path d="M121.5171,89.35524a18.80109,18.80109,0,0,1,3.35318-9.02224" fill="none" stroke="#000" stroke-miterlimit="10"/>
      <path d="M123.18425,90.19893s-.13864-4.83688,6.26345-6.83589" fill="none" stroke="#000" stroke-miterlimit="10"/>
      <g>
        <path d="M57.2388,153.96012s-16.64054,4.55425-18.217,29.953c0,0,37.30028,13.33138,62.52864-19.52127" fill="red" stroke="#000" stroke-miterlimit="10" stroke-width="2"/>
        <path d="M67.57346,148.16536s9.054-13.57528,16.99087-6.32245,19.41281,7.49278,19.41281,7.49278S92.951,179.45292,76.21965,182.99589,67.57346,148.16536,67.57346,148.16536Z" fill="red"/>
      </g>
      <path d="M68.77663,162.06936s-.59728-2.85146-7.50906-2.67917a12.46028,12.46028,0,0,0-12.0863,10.88424,28.95575,28.95575,0,0,0,.79653,9.29117s3.56785-4.1867,6.64775-2.79113c0,0,3.0799-8.3206,8.42957-7.30033C65.05512,169.47414,65.05512,162.25029,68.77663,162.06936Z" fill="#2e3192" stroke="#000" stroke-miterlimit="10" stroke-width="2"/>
      <path d="M38.47711,158.28893s-22.54651-4.6435-30.4076-31.68964c0,0-1.39557-.78033,1.86075-3.2139,0,0,20.36841-3.58182,35.537,25.9503C45.46725,149.33569,41.574,157.07638,38.47711,158.28893Z" fill="#2e3192" stroke="#000" stroke-miterlimit="10" stroke-width="2"/>
      <path d="M86.08242,126.59929l2.36777,8.79348,8.55076.87582-4.18049,7.35287s16.44194,6.83539-6.15417,34.68641c0,0,39.21439-24.068,10.06078-51.70858Z" fill="red" stroke="#000" stroke-miterlimit="10" stroke-width="2"/>
      <g>
        <g>
          <path d="M51.95015,149.33569c7.54927.34315,5.87642,6.09089,5.87642,6.09089l-10.87,11.81559-4.40009-2.4648-2.62919-4.22708,3.35838-7.05392Z" fill="#fff"/>
          <g>
            <path d="M56.62555,150.49382l-7.44428-3.66691-2.45229,1.8783a36.67877,36.67877,0,0,0-6.2956,3.74837c-1.89907,1.71639-3.51356,7.4621.69037,10.26472,0,0,1.05289-4.9221,2.81356-6.13073" fill="#fff" stroke="#000" stroke-miterlimit="10" stroke-width="2"/>
            <path d="M48.64735,160.74538s-8.49293,7.07743.53392,9.529c0,0,1.57648-5.361,4.55426-5.05723S58.28978,160.16,58.28978,160.16l2.97779-.76978s2.37279-1.28453-5.68474-7.94075" fill="#fff" stroke="#000" stroke-miterlimit="10" stroke-width="2"/>
          </g>
        </g>
        <path d="M45.0014,166.23575s-4.568.021-3.72164-4.16639" fill="#fff" stroke="#000" stroke-miterlimit="10" stroke-width="2"/>
      </g>
      <g>
        <path d="M84.56433,146.77841a13.10393,13.10393,0,0,1-9.57561-3.15695" fill="none" stroke="#000" stroke-miterlimit="10" stroke-width="2"/>
        <path d="M67.57346,121.20452s-5.25491-2.45229-23.47193,18.217c0,0-2.62746,7.35687,13.13727,14.53858,0,0,11.98108-10.86015,24.73305-11.736" fill="red" stroke="#000" stroke-miterlimit="10" stroke-width="2"/>
      </g>
      <path d="M161.86989,145.22418c-13.31244-2.95553-17.068.16806-17.068.16806s-20.53334-25.1103-20.38621-25.24657l3.0054-4.07929c2.91725.27558,13.61062,6.57822,13.61062,6.57822l22.47309,14.89262Z" fill="#ff0" stroke="#000" stroke-miterlimit="10" stroke-width="2"/>
      <path d="M124.87028,119.70584s-5.47065,6.5662-28.14321,6.89345c0,0,18.48858,14.09343,7.25007,35.47007,0,0,10.13757,4.44415,30.86221.64894,0,0,8.34955-16.70067,10.21483-17.49412" fill="#ff0" stroke="#000" stroke-miterlimit="10" stroke-width="2"/>
      <path d="M129.87333,122.6446s-3.93377-3.65882-5.00305,1.24576C124.87028,123.89036,129.00275,128.09379,129.87333,122.6446Z" fill="#ff0" stroke="#000" stroke-miterlimit="10"/>
      <path d="M149.37488,91.20585c.70065,4.397-10.938,13.31912-10.938,13.31912s-9.614,17.55291,17.53967,20.03742c0,0,8.11208-7.737,10.214-13.3422s-6.48106-15.48993-6.48106-15.48993-9.80916-6.375-11.0353-1.95587c0,0,5.07974,11.48333,6.83138,13.15084,0,0,7.18171,4.82045,10.685,4.295" fill="red" stroke="#000" stroke-miterlimit="10" stroke-width="2"/>
      <path d="M132.29783,132.87555s1.07877-3.64965,4.582-2.23027,0,4.34748,0,4.34748S132.85391,135.55484,132.29783,132.87555Z" fill="#ff0" stroke="#000" stroke-miterlimit="10"/>
      <path d="M135.36735,105.07565l5.66431-.55068v11.54141l5.5406-4.671s10.05933,10.22148,13.87543,24.116c0,0-24.85235-18.45237-33.02665-19.445C127.421,116.06638,133.4072,109.27957,135.36735,105.07565Z" fill="red" stroke="#000" stroke-miterlimit="10" stroke-width="2"/>
      <path d="M203.95356,77.81911s7.2978-8.33347,9.00572-23.48351C215.82029,28.95718,199.12136,1,171.88837,1.04226c0,0-17.95924-1.75164-30.85671,17.30049Z" fill="#ff0" stroke="#000" stroke-miterlimit="10" stroke-width="2"/>
      <path d="M155.50561,106.92523l4.94208-12.81269s2.90253.639,6.07435-3.91361-4.00989-12.37982-4.00989-12.37982-10.42466-3.6709-13.97051.67683-3.46787,4.08249.13259,14.33194C147.29334,99.94331,155.50561,106.92523,155.50561,106.92523Z" fill="#fff" stroke="#000" stroke-miterlimit="10" stroke-width="2"/>
      <path d="M194.39194,86.39121s22.42094-8.9776,14.71374-49.9659c0,0-5.43007-28.63677-37.21731-33.45625a38.70736,38.70736,0,0,0-28.33282,12.26145Z" fill="#f7931e" stroke="#000" stroke-miterlimit="10" stroke-width="2"/>
      <path d="M157.53184,8.224s31.95551-6.3059,44.59972,29.07716c11.42987,31.98489-7.73962,49.09008-7.73962,49.09008s-30.88719,19.531-53.36028-15.9302C140.18825,69.13016,114.80754,21.562,157.53184,8.224Z" fill="#ff0" stroke="#000" stroke-miterlimit="10" stroke-width="2"/>
      <path d="M159.00888,11.02658s32.7556-6.481,43.09026,37.485c0,0,4.72942,34.44156-20.49415,39.24862-27.28312,5.19957-39.41182-21.37556-39.41182-21.37556S121.5171,20.76683,159.00888,11.02658Z" fill="#fff" stroke="#000" stroke-miterlimit="10" stroke-width="2"/>
      <path d="M155.18462,87.27838s12.14612-6.94538,3.47393-14.06873c-2.45124-2.01346-4.13336,6.77826-10.08892,9.51438" fill="#fff" stroke="#000" stroke-miterlimit="10" stroke-width="2"/>
      <line x1="178.77918" y1="161.17135" x2="193.17071" y2="174.98273" fill="none" stroke="#000" stroke-miterlimit="10"/>
      <path d="M1.09167,119.70584s-1.62816-8.07514,8.83859,3.67955a3.00366,3.00366,0,0,0-1.86075,3.2139Z" fill="#f7931e" stroke="#000" stroke-miterlimit="10" stroke-width="2"/>
      <path d="M58.78044,191.8931s4.41393-.50539,5.3443,4.63178C64.12474,196.52488,58.088,199.33612,58.78044,191.8931Z" fill="#4d4d4d" stroke="#000" stroke-miterlimit="10"/>
      <path d="M58.78044,172.81707l4.17414,3.25961s9.63558,6.94835-4.17414,15.81642a4.81339,4.81339,0,0,1,5.3443,4.63178s5.79435-6.91268,8.03771-11.19026c2.82627-5.389-1.87635-10.35189-1.87635-10.35189l-5.231-5.50859S60.33774,168.16518,58.78044,172.81707Z" stroke="#000" stroke-miterlimit="10" stroke-width="2"/>
      <text transform="translate(155.59018 31.14159) rotate(-15.3202)" font-size="19.54081" font-family="VintageWheelFreeTrial, Vintage Wheel Free Trial"><tspan letter-spacing="-0.04001em">1</tspan><tspan x="5.54932" y="0">2</tspan></text>
      <text transform="translate(145.05556 63.27891) rotate(-15.3202)" font-size="19.54081" font-family="VintageWheelFreeTrial, Vintage Wheel Free Trial">9</text>
      <text transform="translate(177.15599 84.47155) rotate(-15.3202)" font-size="19.54081" font-family="VintageWheelFreeTrial, Vintage Wheel Free Trial">6</text>
      <text transform="translate(185.97657 50.06182) rotate(-15.3202)" font-size="19.54081" font-family="VintageWheelFreeTrial, Vintage Wheel Free Trial">3</text>
      <path d="M171.14378,51.38805s2.51474-1.29794,2.75811,1.379-2.75811,1.5413-2.75811,1.5413S168.95351,52.44262,171.14378,51.38805Z"/>
      <path d="M168.92607,52.21424s-10.8299-3.19745-16.76825-10.48835c-1.53323-1.88246,2.50419-3.13638,2.50419-3.13638-2.84027-2.37646-6.888-1.64313-7.62144-.6809-.963,1.26332,2.612,12.54356,2.28861,8.57734-.24867-3.05017,1.3235-3.023,1.75673-2.54844C158.01063,51.52338,168.92607,52.21424,168.92607,52.21424Z" stroke="#000" stroke-miterlimit="10"/>
      <path d="M173.66335,51.07347s5.05827-2.68142,8.41447-12.27184c.66741-1.90714,3.45762-.40312,3.45762-.40312a54.27182,54.27182,0,0,1-1.998-6.66442c-.47874-2.35771-5.90828,2.97484-5.875,4.67166.01224.625,2.79527,1.17339,2.71365,1.6918C179.5122,43.58479,173.66335,51.07347,173.66335,51.07347Z" stroke="#000" stroke-miterlimit="10"/>
      <path d="M154.367,67.70385s.3977-.09911.368.28741-.48563.12884-.48563.12884S154.04863,67.77322,154.367,67.70385Z" fill="#fff" stroke="#000" stroke-miterlimit="10"/>
      <path d="M160.07814,73.97809s.39769-.09911.368.28741-.48562.12884-.48562.12884S159.75973,74.04746,160.07814,73.97809Z" fill="#fff" stroke="#000" stroke-miterlimit="10"/>
      <path d="M167.51084,79.6312s.3977-.09911.368.28741-.48563.12884-.48563.12884S167.19243,79.70057,167.51084,79.6312Z" fill="#fff" stroke="#000" stroke-miterlimit="10"/>
      <path d="M189.64488,73.275s.3977-.0991.368.28741-.48563.12884-.48563.12884S189.32647,73.34435,189.64488,73.275Z" fill="#fff" stroke="#000" stroke-miterlimit="10"/>
      <path d="M194.94751,63.86193s.39769-.09911.368.28741-.48562.12884-.48562.12884S194.6291,63.9313,194.94751,63.86193Z" fill="#fff" stroke="#000" stroke-miterlimit="10"/>
      <path d="M193.67365,53.21636s.39769-.09911.368.28741-.48562.12884-.48562.12884S193.35524,53.28573,193.67365,53.21636Z" fill="#fff" stroke="#000" stroke-miterlimit="10"/>
      <path d="M189.75182,32.92287s.073-.40331.41317-.21746-.082.49569-.082.49569S189.6843,33.24167,189.75182,32.92287Z" fill="#fff" stroke="#000" stroke-miterlimit="10"/>
      <path d="M183.34712,24.22212s.073-.40331.41318-.21746-.082.49569-.082.49569S183.2796,24.54092,183.34712,24.22212Z" fill="#fff" stroke="#000" stroke-miterlimit="10"/>
      <path d="M173.11765,21.01139s.073-.40331.41318-.21746-.082.49569-.082.49569S173.05013,21.33019,173.11765,21.01139Z" fill="#fff" stroke="#000" stroke-miterlimit="10"/>
      <path d="M148.06294,26.87873s.28126.29812-.07024.46159-.35027-.3602-.35027-.3602S147.84644,26.63516,148.06294,26.87873Z" fill="#fff" stroke="#000" stroke-miterlimit="10"/>
      <path d="M144.106,33.83952s.28126.29811-.07024.46159-.35027-.3602-.35027-.3602S143.88951,33.596,144.106,33.83952Z" fill="#fff" stroke="#000" stroke-miterlimit="10"/>
      <path d="M144.106,44.18086s.28126.29812-.07024.4616-.35027-.3602-.35027-.3602S143.88951,43.93729,144.106,44.18086Z" fill="#fff" stroke="#000" stroke-miterlimit="10"/>
    </g>
  </g>
</svg>
