<svg xmlns="http://www.w3.org/2000/svg" viewBox="0 0 242.05414 282.89972">
  <g>
    <g>
      <path d="M202.65314,263.98257s3.07229,2.22741,2.76506,9.21687c0,0-3.30271-4.2244-7.68072-5.68374C197.73748,267.5157,195.43326,261.44793,202.65314,263.98257Z" fill="#fff" stroke="#000" stroke-miterlimit="10" stroke-width="2"/>
      <path d="M209.02815,259.37413s4.73273,1.99051,3.23487,8.60241c0,0-3.52392-5.07806-7.6897-6.60542C203.42743,260.951,206.03266,258.52925,209.02815,259.37413Z" fill="#fff" stroke="#000" stroke-miterlimit="10" stroke-width="2"/>
      <path d="M210.2067,247.50941s5.65729-.73167,8.576,4.26081c0,0-2.91868-.92169-9.75452-.15362C209.02815,251.6166,207.32223,248.18833,210.2067,247.50941Z" fill="#fff" stroke="#000" stroke-miterlimit="10" stroke-width="2"/>
      <g>
        <polygon points="187.452 254.919 200.336 254.411 203.711 262.898 193.383 262.898 187.452 254.919" fill="#aba096"/>
        <path d="M189.5191,256.303s-1.30572.22926,4.91567-1.07646,8.21837,8.756,8.21837,8.756c3.84037.99849,5.08177-.396,5.08177-.396l-3.16159-2.21544c1.15211-3.45632,3.84286-1.9912,3.994-2.45783.724-2.23553-1.53614-3.994-1.53614-3.994,5.68373-.76807,5.22289-2.99548,5.22289-2.99548l-3.2259-.30723c-1.76657-5.2997,3.07182-3.21063.30676-4.67s-5.60647.44557-5.60647.44557-3.96768,4.66528-12.90361,3.68675c-3.72145-.40752-6.24776-4.77593-15.28465-5.83735l-19.73946-3.22591s-7.21988,2.15061-8.83283,9.21687,16.9744,7.75754,16.9744,7.75754l8.83283,5.34181,11.21386,1.1868s2.99548,4.53163,13.67169,2.84187c0,0-2.07379-4.45482.46085-5.06928,0,0,1.84337-1.45934,4.53162.69127" fill="#aba096" stroke="#000" stroke-miterlimit="10" stroke-width="2"/>
        <path d="M195.78757,252.98722s5.01352-2.66211,11.24359,1.93209" fill="none" stroke="#000" stroke-miterlimit="10" stroke-width="2"/>
        <path d="M153.78765,245.56618s-2.10525,2.89473,4,5.73683" fill="none" stroke="#000" stroke-miterlimit="10" stroke-width="2"/>
      </g>
    </g>
    <path d="M201.91017,17.16983a14.47438,14.47438,0,0,1-2.28,12.95073s6.05445-6.7735,5.3149-1.72071c-1.03773,7.08992-9.11137,8.74738-11.13912,15.46225-5.55122,18.38272,19.46489,17.37322,19.46489,17.37322L187.73739,280.53a3.55746,3.55746,0,0,0,5.56624,0l25.1311-219.6389s23.09743,10.85457,22.377-11.01637c0,0-9.46449-17.3962-7.57375-19.62291,2.42958-2.86133,7.59026,4.4754,7.59026,4.4754s-6.55748-11.01637-2.42634-14.11473c0,0-13.08194,1.72131-13.08194,12.73768l5.16393-3.44262c-2.18762,7.76635,3.20192,12.82788,4.13113,20.31144,1.05254,8.47674-8.86685,8.11272-8.86685,8.11272s-4.27717-.728-6.18824-3.77192l4.73218-41.18385a10.27577,10.27577,0,0,1,4.27717,4.00416c1.36506,2.6391,1.09205-8.46333-4.36817-16.19864,0,0-7.73319,2.5481-9.91833,14.37857,0,0,4.36711-3.00312,6.4602-2.63911l-5.31375,41.63887s-1.14645,3.04389-7.79077,1.49683c0,0-10.71372-2.94207-6.18824-13.55953,2.36609-5.55122,9.55537-8.46333,7.55329-14.83359l4.09516,3.91316C212.64366,17.92608,201.91017,17.16983,201.91017,17.16983Z" fill="#fbb03b" stroke="#000" stroke-miterlimit="10" stroke-width="2"/>
    <g>
      <path d="M200.66632,112.979s12.21427-3.06024,15.57356,1.08365,1.40874,19.939,0,23.94847-12.67755,4.11783-13.65335,2.7091-7.80274-12.64239-6.28564-17.53688A68.374,68.374,0,0,1,200.66632,112.979Z" fill="#aba096"/>
      <g>
        <path d="M219.7624,125.08452s1.41142,7.75107-2.53724,8.921-8.27331-.585-12.39958-4.46052" fill="#aba096" stroke="#000" stroke-linecap="round" stroke-miterlimit="10" stroke-width="2"/>
        <path d="M203.62424,111.71041s14.62465-1.25053,15.79462,5.33056-1.02373,7.89731-1.02373,7.89731-1.7899,4.38739-10.1816,0,.96808-7.60482.96808-7.60482l5.55736-1.00172-2.32234-1.057" fill="#aba096" stroke="#000" stroke-linecap="round" stroke-miterlimit="10" stroke-width="2"/>
        <path d="M210.56208,142.29886s-5.19065,8.13807-14.9801-7.33558-1.61-11.195-1.61-11.195,3.39816-13.09277,8.33605-11.99221c5.90551,1.31621,9.06728,7.45857,2.64712,16.69143,0,0-6.44952,2.60941-6.157-8.50348" fill="#aba096" stroke="#000" stroke-linecap="round" stroke-miterlimit="10" stroke-width="2"/>
        <path d="M216.64018,135.17553s3.69136,2.1082-4.22355,7.12333c0,0-8.79239-2.81155-9.8301-8.6676" fill="#aba096" stroke="#000" stroke-linecap="round" stroke-miterlimit="10" stroke-width="2"/>
        <path d="M201.89984,126.46266s.43863,5.56642-1.68143,7.90061,5.83974-.60861,5.03993-8.42164C203.34278,123.18332,201.89984,126.46266,201.89984,126.46266Z" fill="#fff" stroke="#000" stroke-linecap="round" stroke-miterlimit="10" stroke-width="2"/>
        <path d="M197.1894,117.91845s0,4.38739,1.74781,5.26487" fill="none" stroke="#000" stroke-linecap="round" stroke-miterlimit="10" stroke-width="2"/>
      </g>
    </g>
    <path d="M81.41586,235.69992l2.06108,4.73683-4.73683-2.36842,2.0837,4.26315-6.5706-1.89473,4.4869,4.10526-7.11617-2.21053-8.98906,4.10526,4.90767-5.36841-8.69714,1.89473L62.0033,234.121l-3.15789,5.05263-1.57894-8.5263-2.52631,5.6842V226.22625l-4.10526,5.05262V218.64732l-4.421,7.26314-1.57894-14.84207L41.477,217.7V206.33156l-2.8421,3.47367V198.12105l-4.10526,6.31577V193.38421l-3.15789,3.15789L34.21388,187.7l-4.421,3.15789,5.36841-7.89472-5.36841,3.15789,7.89472-7.89472-7.89472,1.26315,10.73682-4.10525-7.26314-2.21052,14.52628-1.579-6.94735-4.10525,15.78944,1.89473-3.78946-1.89473h9.47366l-5.6842-3.78947,14.98905,2.8421-4.08139-2.8421,13.36253,1.26316-.08127-4.10526,8.89137,2.52631L88.7746,160.858h6.70232L92.397,158.64744l7.15118-5.36841-7.14571,1.26316,8.12708-6.63157h-5.6842l5.6842-5.61176H95.47692l5.31773-5.12506H95.16113l5.86267-6.63156-4.31067,2.21052,4.31067-7.26315-4.2984,3.78947,3.80414-6.31578-5.6842,3.15789,4.70283-6.63682s26.56027-6.84549,31.61289-30.42006l12.31576-.17906-2.77274,2.93695,7.50957-1.6958-4.10525,4.81229,10.10524-1.34375-3.78946,2.69594,11.05261,4.5222-5.22346,1.30816,7.74977,3.514-5.05263,1.05149,12.63156,3.01346-6,1.63421h10.421l-3.78946,4.25828H183.582l-4.10525,2.318,8.84209-1.57894-2.52631,3.15789,7.57893-1.26316-1.89474,2.52631,3.78947-1.26315s-.63158,9.78945,3.15789,10.10524-2.52631,2.52631-2.52631,2.52631l1.57894,1.26315-1.89473,1.57895,1.26316,4.421-6.63157-4.73683s-.31579,2.8421-1.26316,2.52631a49.7957,49.7957,0,0,1-5.05262-3.15789v3.78947l-5.36841-5.05262-1.26315,2.21052-5.05262-4.421-1.57895,2.52631-3.78946-4.10526-.63158,2.52631-3.78947-6.63156-.31579,4.73683-4.10525-8.5263-1.74978,3.78947-3.61863-8.5263-1.26316,2.52631-2.52631-5.6842-.94736,2.41881-2.8421-6.83985-.63158,2.58157-3.72011-4.64767v4.64767l-3.01686-4.64763-3.30107-5.08547-.88829,4.71032,5.55792,5.02278h-4.10526l5.75356,2.78684-4.4904,1.47144,4.4904,3.26539-3.22725.63158,2.68421,2.21052,2.6842,2.21052-4.10525.63158,5.36841,4.10525-5.05262-1.26315,7.57893,8.21051-5.93063-1.26316,5.299,5.36841-5.299-.31579,8.77273,5.36841h-6.94735l8.84208,5.05262-7.89472-.63157,9.47367,5.36841-6.94736.63157,6,2.21053-3.47368,2.21052,7.72389.31579-1.7239,2.8421,10.73682-.94737-4.421,3.47368,12.63155-2.21052-3.47368,4.5925,13.89471-5.22408-3.47367,3.47367,12.31576-1.57894-5.05262,3.32935h10.73682l-4.10526,1.72327,9.15788,3.47368-3.78947.94737,6.63157,6.31577-4.73683-1.89473,4.421,4.42105,2.21052,2.21052-3.78946-.94737,2.21052,5.6842-2.8421-.94737,2.21052,7.89472-4.421-4.10525,2.8421,7.26314-2.52631-.31579.63157,8.5263-3.78946-3.15789,3.78946,7.57893-4.73683-1.26315,1.579,7.57893-3.78947-.31579.63158,5.6842-4.10526-2.21052-.63158,6.31578-3.15788-3.78947,1.89473,7.26314-5.6842-2.8421,1.57894,8.5263-4.10525-3.47367.63158,7.26314-3.47368-4.42105,1.26316,9.78946-3.78947-4.10526.94737,4.10526-4.10526-2.21052,1.89473,8.5263-5.36841-7.57894-.31578,7.57894-3.47368-5.36841-6,5.36841,2.21052-7.57894-6.17082,3.47368,2.38136-3.78947-7.57894,1.89474,3.47368-6-8.5263,2.52631,5.36841-4.73683-5.36841-3.47368,12.31577-2.8421-5.6842-3.78947,13.57892-2.21052s-12.02586-3.78946-9.96029-3.78946,11.22344-1.89474,11.22344-1.89474l-2.8421-3.15788,12-5.6842h-7.89472l11.05261-6.31578-7.89472-1.26316,10.73682-3.78946-4.73684-3.15789,7.26315-2.8421-3.78947-3.78947,4.42105-2.8421-2.21053-3.15788s-8.22533-6.05813-3.78946-.94737-4.73683-.63158-4.73683-.63158l5.36841,4.10526-16.10524-4.10526,8.84209,4.10526-16.90764-5.6842v3.47368l-8.67125-5.05263-8.21051.31579s-14.17686,5.6842-36.61469-2.21052L92.40246,183.279v-4.10525l-7.03078,4.421-.94737-3.47368-7.54182,5.05262-.86023-4.421-6.60909,5.6842v-4.421L63.898,188.33159l-.94736-4.73683-4.10526,7.57893-2.52631-5.05262L59.477,196.22631l-3.78947-.94736,6.94736,6.63156-4.421.31579,6,5.6842-4.10525,1.57894,7.434,3.47368-1.74978,4.42105,5.83117,1.89473-2.21077,1.89473,9.32694,4.73683L71.62394,228.121l9.79192,6-5.3936-.94736Z" stroke="#000" stroke-miterlimit="10"/>
    <path d="M212.72688,110.82034l-.7791,6.01451-2.815.37986a6.04067,6.04067,0,0,0-1.99723-3.28689l.44994-3.86428" fill="#fbb03b" stroke="#000" stroke-miterlimit="10"/>
    <g>
      <path d="M34.87461,260.43208s-3.07229,2.22741-2.76506,9.21687c0,0,3.30271-4.2244,7.68073-5.68373C39.79028,263.96522,42.09449,257.89744,34.87461,260.43208Z" fill="#fff" stroke="#000" stroke-miterlimit="10" stroke-width="2"/>
      <path d="M28.49961,255.82365s-4.73274,1.99051-3.23488,8.60241c0,0,3.52392-5.07807,7.6897-6.60542C34.10032,257.4005,31.49509,254.97877,28.49961,255.82365Z" fill="#fff" stroke="#000" stroke-miterlimit="10" stroke-width="2"/>
      <path d="M27.32106,243.95893s-5.6573-.73167-8.576,4.2608c0,0,2.91867-.92169,9.75452-.15361C28.49961,248.06612,30.20553,244.63784,27.32106,243.95893Z" fill="#fff" stroke="#000" stroke-miterlimit="10" stroke-width="2"/>
      <g>
        <polygon points="50.076 251.369 37.191 250.861 33.817 259.348 44.145 259.348 50.076 251.369" fill="#aba096"/>
        <path d="M48.00865,252.75252s1.30572.22926-4.91566-1.07646-8.21838,8.756-8.21838,8.756c-3.84036.9985-5.08177-.396-5.08177-.396l3.16159-2.21543c-1.15211-3.45633-3.84285-1.99121-3.994-2.45784-.724-2.23553,1.53615-3.994,1.53615-3.994-5.68374-.76807-5.22289-2.99548-5.22289-2.99548l3.2259-.30723c1.76657-5.2997-3.07183-3.21064-.30677-4.67s5.60647.44558,5.60647.44558,3.96768,4.66528,12.90362,3.68675c3.72145-.40752,6.24776-4.77593,15.28464-5.83736l19.73946-3.2259s7.21988,2.1506,8.83284,9.21687-16.97441,7.75753-16.97441,7.75753l-8.83283,5.34181-11.21386,1.18681s-2.99548,4.53163-13.67169,2.84187c0,0,2.0738-4.45482-.46084-5.06928,0,0-1.84337-1.45934-4.53163.69126" fill="#aba096" stroke="#000" stroke-miterlimit="10" stroke-width="2"/>
        <path d="M41.74018,249.43673s-5.01352-2.66211-11.24358,1.9321" fill="none" stroke="#000" stroke-miterlimit="10" stroke-width="2"/>
        <path d="M83.7401,242.01569s2.10526,2.89474-4,5.73684" fill="none" stroke="#000" stroke-miterlimit="10" stroke-width="2"/>
      </g>
    </g>
    <path d="M82.28864,44.27541C66.61347,28.76666,81.912,23.32189,81.912,23.32189s-24.88675,3.92763-4.4263,31.52481c10.34252,13.95005.74655,16.176.74655,16.176l12.48692.28455C94.95857,64.88476,90.80568,52.702,82.28864,44.27541Z" fill="#fff" stroke="#000" stroke-miterlimit="10" stroke-width="2"/>
    <path d="M112.86523,44.27541c15.67517-15.50875.37661-20.95352.37661-20.95352s24.88675,3.92763,4.4263,31.52481c-10.34252,13.95005-.74655,16.176-.74655,16.176l-12.48692.28455C100.1953,64.88476,104.34819,52.702,112.86523,44.27541Z" fill="#fff" stroke="#000" stroke-miterlimit="10" stroke-width="2"/>
    <g>
      <g>
        <g>
          <polygon points="77.093 139.249 82.637 140.472 83.845 156.505 76.569 159.411 73.478 159.411 69.551 155.603 77.093 139.249" fill="#aba096"/>
          <path d="M78.74011,139.70011c6.31578,3.47368,2.67575,5.05262,2.67575,5.05262l1.4295,5.05262-2.02155,7.26315-6.5706,2.21052,1.76905,2.21052s4.25707,2.935,8.72366,2.935,5.79486-13.84326,5.79486-13.84326a62.56025,62.56025,0,0,0-4.53753-9.93376c-3.15789-5.6842-7.26314-3.15789-7.26314-3.15789l-9.32694-8.5263h-8.673l-3.23,11.38037,9.5937,8.24157.38632,2.06039s-.25755,1.996,2.25356,2.5755" fill="#aba096" stroke="#000" stroke-miterlimit="10" stroke-width="2"/>
          <path d="M71.62394,142.29886s2.87921-1.03039,2.62927,4.02752,2.807,6.00528.01538,8.5316-9.1074,3.15788-9.1074,3.15788l-4.421-2.8421,1.57894-3.78946,5.22346.31579s-2.9848,1.89473,1.87062,2.52631" fill="#aba096" stroke="#000" stroke-miterlimit="10" stroke-width="2"/>
          <path d="M85.37767,164.31911s.91355,6.86605-5.52518,9.69909c0,0,2.70426-5.94123,1.48091-9.69909" fill="#fff" stroke="#000" stroke-miterlimit="10" stroke-width="2"/>
          <path d="M78.73355,162.96779a7.26446,7.26446,0,0,1-3.28162,4.74046s.41923.12878.18853-6.0524" fill="#fff" stroke="#000" stroke-miterlimit="10" stroke-width="2"/>
          <path d="M72.83609,159.72423s-6.1186,3.35914-10.94765-.44521a16.72828,16.72828,0,0,0,9.01422-1.5508" fill="#fff" stroke="#000" stroke-miterlimit="10" stroke-width="2"/>
          <path d="M60.34315,154.38009s-4.44273-4.50711-3.47692-7.147c0,0,.19316,2.25355,5.02221,4.44272" fill="#fff" stroke="#000" stroke-miterlimit="10" stroke-width="2"/>
        </g>
        <path d="M71.62394,156.89119s-1.29594,2.20017,2.62927,2.38783" fill="#aba096" stroke="#000" stroke-miterlimit="10" stroke-width="2"/>
      </g>
      <path d="M80.63417,163.43135a81.3317,81.3317,0,0,0,.78169-8.15232" fill="#aba096" stroke="#000" stroke-miterlimit="10" stroke-width="2"/>
    </g>
    <polygon points="73.421 89.064 71.624 91.929 74.256 91.929 71.624 95.391 74.256 95.391 72.94 98.853 75.092 98.853 76.882 100.813 73.421 89.064" fill="none" stroke="#000" stroke-miterlimit="10"/>
    <path d="M73.395,88.00853l-7.48314-2.81072,1.63071,5.12428L57.54188,88.00853v2.31356H48.08271l1.83123,3.99385H39.04659L43.045,97.32263H32.54609l4.50035,3.00023-13.001,2.50019,3.50027,3.48855-12.00092,3.01195,6.00046,2.50019L15.24849,114.963l-3.204,1.59733L7.04414,121.8245h5.00038L2.5438,126.16983l7.00053-.31136-7.00053,6.046H8.54426L6.5441,139.82588l3.50027-4.55866,3.00023,8.73415,1.50012-4.67552,7.50057,7.00053-.5-4.02752,9.50073,4.02752-1.00008-4.02752,7.92349,4.02752v-4.02752l5.07556,4.02752v-4.02752l6.869,1.70251v-3.67545l7.62794,6.00046L56.323,142.29886l7.50885-1.97294-6.29-5.0587,6.29-.68231-2.31846-3.29439h6.02915l-5.53342-5.12069,5.53342-1.423L56.323,125.85847l5.19039-6.05092-10.05851,6.05092-3.37218-6.05092L43.045,125.85847l-1.35617-4.034-3.71939,4.034-8.92356,2.00926,8.92356-6.04323-8.42353,2.92232,4.00031-6.54371h8.14261l-3.71939-2.441,8.60685.79822L43.045,111.82374l8.40994,3.93835-1.541-7.43862,6.40907,3.50027V106.3116l5.19039,4.012v-4.012h6.02915V102.323L73.395,106.3116l-1.771-4.19036,4.39832.63158v7.07076l3.60922-3.512v7.01225l4.25023-3.50027v9.984l3.526-7.48377L90.495,121.8245l.52986-6.06241,6.25675,8.98473v-6.54371l11.57614,6.54371-2.50155-6.54371,9.6294,4.12143-3.85077-5.76423,8.30126,1.6428-3.16969-2.441,7.96868-2.43824-4.799-2.00015,10.59512-1.50012-7.05453-1.50011,9.52123-2.01187-8.26283-1.98844,11.76812-3.50027h-9.16852l9.86726-3.00023H128.5227l4.97516-3.50672,7.20622-2.49374-7.20622-1.00007,4.204-2.8136h-4.29437l7.29656-7.18717-7.29656,3.07,4.09016-8.25219-4.09016,3.68208,2.55867-9.50073-4.935,5.81865L130.60061,64.084l-1.4913,8.2367L125.235,64.084l2.5996,14.7372-5.41581-11.4126-1.13949,5.41214-4.013-11.00085-2.09743,5.58871L109.686,58.81967,108.65931,64.084l-8.26191-8.78423,1.08937,6.02009-7.03761-6.02009,2.3797,8.78423L86.857,60.31979,89.79263,64.084H78.46832l5.41339,3.3246H76.02226l4.33344,3.412-.72422,4.81858L73.395,67.40861s-.58836,8.04876-.71709,8.23056-6.76605-8.23056-6.76605-8.23056l5.7121,12.41267-5.7121-4.18211,5.7121,8.25219Z" stroke="#000" stroke-miterlimit="10"/>
    <path d="M82.49306,77.485s4.65558,9.31116,13.01175,12.89238c0,0,1.43249,2.865,1.19374,3.93934s-2.50685,1.07437-3.93934,5.9687C92.75921,100.28546,75.496,96.10766,82.49306,77.485Z" fill="#ff0" stroke="#000" stroke-miterlimit="10"/>
    <path d="M91.4461,91.6624v1.10611l-1.07436,1.78393H91.9236l-.76539,5.20332-3.65145-1.88091S87.50676,85.98473,91.4461,91.6624Z" stroke="#000" stroke-miterlimit="10"/>
    <path d="M99.80228,90.73554c4.29825,0,14.08612-8.11742,18.86107-9.78866,0,0,.83562,7.52056,0,10.863s-8.35617,12.53426-15.51861,7.40118C101.29339,97.88428,98.72791,90.73554,99.80228,90.73554Z" fill="#fcee21" stroke="#000" stroke-miterlimit="10"/>
    <path d="M106.12909,100.28546s-1.55186-6.68494,1.31312-7.87868c1.42175-.5924,2.25319,1.29472,2.73008,3.3463.13.55918-1.94755,1.02083-1.86548,1.55757.05693.37229,2.28465.83766,2.32242,1.161.11058.94652.14588,1.61605.14588,1.61605Z" stroke="#000" stroke-miterlimit="10"/>
    <path d="M78.74011,94.93869s20.05259,19.8174,43.57886,0c0,0-1.56718,20.68879-21.78943,21.39305C82.56358,115.22648,78.74011,94.93869,78.74011,94.93869Z" fill="#fff" stroke="#000" stroke-miterlimit="10"/>
    <polyline points="120.173 102.987 117.424 99.307 114.266 109.858 112.056 102.437 108.242 113.805 105.709 103.858 102.424 115.593 98.635 104.016 96.012 115.593 91.924 102.435 90.272 113.015 86.003 100.813 86.003 108.437 82.322 97.781 81.416 102.52" fill="#fff" stroke="#000" stroke-miterlimit="10"/>
    <path d="M96.7254,87.27916s-.39421,1.83028-.02685,7.0376c.044.62432-9.19179,11.31846-.71331,16.80446,0,0,6.91272,2.36842,4.5443-8.68419s0-3.13026,0-3.13026" stroke="#000" stroke-miterlimit="10"/>
  </g>
</svg>
