<svg xmlns="http://www.w3.org/2000/svg" viewBox="0 0 311.87469 296.33703">
  <g>
    <path d="M49.17641,134.01146,31.48779,102.14133C29.7862,96.669-2.35783,115.769.70569,122.47517l16.18022,24.80129L38.0965,161.60431l15.01486-16.676Z" fill="#fff" stroke="#000" stroke-miterlimit="10"/>
    <path d="M41.93514,132.03377,28.106,107.43653c-.67451-2.10906-22.48344,12.1344-20.67766,16.04093l11.465,17.06692,14.5563,19.87342,14.73269-13.67871Z" fill="#fcee21" stroke="#000" stroke-miterlimit="10"/>
    <path d="M61.80267,138.89293l6.87418-35.79579c2.205-5.28962-34.70626-11.25677-36.658-4.147L28.522,128.35553l7.08061,24.59759,22.21577-3.16119Z" fill="#fff" stroke="#000" stroke-miterlimit="10"/>
    <path d="M57.5162,132.73065,62.68577,104.99c.83546-2.05063-25.03195-5.11373-26.1526-.9585l-2.15268,20.44731L32.799,149.06205l20.07665-1.04288Z" fill="#fcee21" stroke="#000" stroke-miterlimit="10"/>
    <path d="M63.05628,157.81484,90.4319,137.69829c4.79429-2.12254-14.60979-32.68171-20.41643-29.1053l-21.13431,18.0623L37.5037,148.91714,53.53,162.58791Z" fill="#fff" stroke="#000" stroke-miterlimit="10"/>
    <g>
      <g>
        <g>
          <path d="M66.25416,260.72794v14.1275c18.70865,5.41288,47.52371,4.49824,47.52371,4.49824v-14.1368S67.00026,262.87577,66.25416,260.72794Z" fill="#fff" stroke="#000" stroke-miterlimit="10"/>
          <path d="M60.73614,250.606s-28.81506,11.4613,51.948,14.50758c33.19951,1.25224,50.83187-8.36881,50.83187-8.36881s4.8778-5.32253-7.48948-7.70849S85.697,242.99894,60.73614,250.606Z" fill="#fff" stroke="#000" stroke-miterlimit="10"/>
          <path d="M55.73937,255.1522s-.31843,9.85162.17965,14.91779c.27636,2.811,10.33514,4.78545,10.33514,4.78545v-14.1275S55.51452,259.43278,55.73937,255.1522Z" fill="#fbb03b" stroke="#000" stroke-miterlimit="10"/>
          <path d="M157.89134,259.1268v14.12768s5.59465-1.91308,6.57315-3.49644c.83572-1.35233,0-14.60584,0-14.60584S165.19743,256.86433,157.89134,259.1268Z" fill="#fff" stroke="#000" stroke-miterlimit="10"/>
        </g>
        <path d="M113.77787,265.21688s25.27431,1.43095,44.11347-6.09008v14.12768s-13.27953,6.13328-44.11347,6.0992Z" fill="#fbb03b" stroke="#000" stroke-miterlimit="10"/>
      </g>
      <path d="M113.77787,265.21688l.58118-2.46655s28.7879-1.90886,39.36594-7.12l4.16635,3.49644S145.47655,265.51522,113.77787,265.21688Z" fill="#fbb03b" stroke="#000" stroke-miterlimit="10"/>
    </g>
    <g>
      <g>
        <path d="M59.51629,244.12445v14.12749c18.70865,5.41288,47.52371,4.49825,47.52371,4.49825V248.61338S60.2624,246.27227,59.51629,244.12445Z" fill="#fbb03b" stroke="#000" stroke-miterlimit="10"/>
        <path d="M49.0015,238.54871s-.31843,9.85161.17965,14.91778c.27636,2.811,10.33514,4.78545,10.33514,4.78545V244.12445S48.77665,242.82928,49.0015,238.54871Z" fill="#fff" stroke="#000" stroke-miterlimit="10"/>
        <path d="M53.99827,234.00249s-28.815,11.4613,51.948,14.50758c33.19951,1.25224,50.83187-8.36881,50.83187-8.36881s4.8778-5.32252-7.48948-7.70848S78.95909,226.39544,53.99827,234.00249Z" fill="#fff" stroke="#000" stroke-miterlimit="10"/>
        <path d="M151.15347,242.5233V256.651s5.5483-1.94269,6.57315-3.49644c.83572-1.267,0-14.60584,0-14.60584S158.45956,240.26083,151.15347,242.5233Z" fill="#fbb03b" stroke="#000" stroke-miterlimit="10"/>
      </g>
      <path d="M107.04,248.61338s25.27431,1.431,44.11347-6.09008V256.651s-13.27952,6.13327-44.11347,6.0992Z" fill="#fff" stroke="#000" stroke-miterlimit="10"/>
    </g>
    <path d="M64.32422,150.44155l21.116-15.70248c1.84642-.83668-12.4722-21.4703-15.85322-19.36581L55.06665,128.13242,38.24319,144.192l13.31527,13.62284Z" fill="#fcee21" stroke="#000" stroke-miterlimit="10"/>
    <g>
      <path d="M78.71859,244.25632s-3.88659,2.38624-3.49793,9.87412a29.46209,29.46209,0,0,1,9.81365-5.18392S90.016,239.02686,78.71859,244.25632Z" fill="#fff" stroke="#000" stroke-miterlimit="10"/>
      <path d="M70.65391,239.31925s-5.98714,2.13246-4.09228,9.21585c0,0,4.45793-5.44018,9.72784-7.07645C77.73908,241.00855,74.44334,238.41413,70.65391,239.31925Z" fill="#fff" stroke="#000" stroke-miterlimit="10"/>
      <path d="M69.163,226.60846s-7.15674-.78384-10.849,4.56464c0,0,3.69227-.98741,12.33994-.16457C70.65391,231.00853,72.812,227.33579,69.163,226.60846Z" fill="#fff" stroke="#000" stroke-miterlimit="10"/>
      <g>
        <polygon points="97.948 234.547 81.649 234.002 77.381 243.095 90.446 243.095 97.948 234.547" fill="#aba096"/>
        <path d="M95.33378,236.02912s1.6518.24561-6.21855-1.15322-10.39664,9.38042-10.39664,9.38042c-4.85824,1.06969-6.42868-.42425-6.42868-.42425l3.99956-2.37342c-1.45747-3.7028-4.86139-2.1332-5.05257-2.6331-.9159-2.39495,1.94329-4.27879,1.94329-4.27879-7.19019-.82284-6.60721-3.20909-6.60721-3.20909l4.08093-.32914c2.23479-5.67762-3.886-3.43958-.38808-5.003s7.09245.47735,7.09245.47735,5.01931,4.998,16.3237,3.94965c4.70781-.43658,7.90371-5.1165,19.3358-6.25361l24.97136-3.45594s9.1335,2.304,11.174,9.87412-21.47343,8.31072-21.47343,8.31072l-11.174,5.72274L102.32965,245.902s-3.78943,4.85478-17.29534,3.04452c0,0,2.62345-4.77249-.583-5.43076,0,0-2.332-1.56341-5.73273.74056" fill="#aba096" stroke="#000" stroke-miterlimit="10"/>
        <path d="M87.40387,232.47689s-6.34235-2.85195-14.22368,2.06987" fill="none" stroke="#000" stroke-miterlimit="10"/>
        <path d="M140.53577,224.52666s2.66325,3.10115-5.06018,6.14592" fill="none" stroke="#000" stroke-miterlimit="10"/>
      </g>
    </g>
    <path d="M156.42006,56.56243c-11.571-28.10231,10.72919-26.90592,10.72919-26.90592s-33.64-8.22906-22.46981,37.825c5.64643,23.27979-7.7052,21.01357-7.7052,21.01357L152.647,95.49836C161.4545,89.56734,162.7071,71.83171,156.42006,56.56243Z" fill="#fff" stroke="#000" stroke-miterlimit="10"/>
    <path d="M46.42474,178.02533s-21.47364-2.60994-22.10522-21.51545c0,0-25.26311-13.65253-5.6842-34.59478,0,0,10.73682.77774,8.21051,17.68626l-.78947,3.05562,1.57894-3.05562s2.21052,1.003,4.42105,11.26613c0,0-8.36841-27.15784,13.10523-32.52625,0,0,14.84208.67821.63158,21.26012l-1.25108,9.31578.7774-.73386s2.52631-1.89473,2.21052,3.15789c0,0,6-25.81518,20.52627-17.17074,0,0,11.05261,6.276-3.94736,16.06548l-.63158-3.42654.1579,4.84759-4.73683,4.85292s5.05262-5.64239,6.78946,2.726,1.10526,10.10525,1.10526,10.10525Z" fill="#aba096" stroke="#000" stroke-miterlimit="10"/>
    <path d="M195.17037,72.82322c28.15992-11.43005,11.68377-26.50535,11.68377-26.50535S236.293,64.5586,195.6034,88.85072c-20.56812,12.27939-9.59745,20.21953-9.59745,20.21953l-15.9771-6.27794C168.09111,92.35226,179.86979,79.03369,195.17037,72.82322Z" fill="#fff" stroke="#000" stroke-miterlimit="10"/>
    <g>
      <path d="M287.71828,272.8842s3.8866,2.38625,3.49794,9.87413a23.97181,23.97181,0,0,0-9.71649-6.089S278.58479,270.16882,287.71828,272.8842Z" fill="#fff" stroke="#000" stroke-miterlimit="10"/>
      <path d="M295.783,267.94714s5.98714,2.13246,4.09227,9.21585c0,0-4.45793-5.44018-9.72784-7.07645C288.69779,269.63644,291.99354,267.042,295.783,267.94714Z" fill="#fff" stroke="#000" stroke-miterlimit="10"/>
      <path d="M297.27389,255.23635s7.15675-.78384,10.849,4.56464c0,0-3.69226-.98741-12.33993-.16457C295.783,259.63642,293.6249,255.96368,297.27389,255.23635Z" fill="#fff" stroke="#000" stroke-miterlimit="10"/>
      <g>
        <polygon points="268.488 263.175 284.788 262.63 289.056 271.723 275.991 271.723 268.488 263.175" fill="#aba096"/>
        <path d="M271.1031,264.657s-1.65181.24561,6.21855-1.15322,10.39663,9.38041,10.39663,9.38041c4.85825,1.0697,6.42869-.42425,6.42869-.42425l-3.99957-2.37341c1.45748-3.7028,4.8614-2.1332,5.05258-2.6331.9159-2.39495-1.9433-4.27879-1.9433-4.27879,7.1902-.82284,6.60721-3.20909,6.60721-3.20909l-4.08092-.32914c-2.2348-5.67762,3.886-3.43958.38807-5.003s-7.09245.47735-7.09245.47735-5.01931,4.998-16.32369,3.94965c-4.70781-.43658-7.90372-5.1165-19.33581-6.25361l-24.97136-3.45594s-9.1335,2.304-11.174,9.87412,21.47343,8.31072,21.47343,8.31072l11.174,5.72273,14.18607,1.27144s3.78943,4.85478,17.29534,3.04452c0,0-2.62345-4.77249.583-5.43076,0,0,2.332-1.56341,5.73272.74055" fill="#aba096" stroke="#000" stroke-miterlimit="10"/>
        <path d="M279.033,261.10478s6.34235-2.85195,14.22368,2.06987" fill="none" stroke="#000" stroke-miterlimit="10"/>
        <path d="M225.9011,253.15455s-2.66325,3.10115,5.06018,6.14592" fill="none" stroke="#000" stroke-miterlimit="10"/>
      </g>
    </g>
    <g>
      <path d="M235.74015,94.18339s-18.59189-.00249-8.6842,25.73679c0,0,3.11981-5.23761,8.804-3.84113C235.86,116.07905,242.52961,103.34127,235.74015,94.18339Z" fill="#aba096" stroke="#000" stroke-miterlimit="10"/>
      <path d="M267.83258,126.18038s19.69694-17.11013,4.60119-35.3322c0,0-31.7989-20.82263-37.3252,9.19891,0,0,5.05262-6.81106,21.0285-3.9,0,0-32.12456-5.42309-19.52417,17.70289,0,0,3.39039-8.14033,18.76173-3.76074,0,0-21.69133-6.9059-20.73975,12.673C234.63488,122.76228,246.77726,139.60136,267.83258,126.18038Z" fill="#aba096" stroke="#000" stroke-miterlimit="10"/>
      <path d="M242.21382,122.76228s1.13148,2.98183,14.21049,2.36842" fill="#aba096" stroke="#000" stroke-miterlimit="10"/>
      <path d="M228.00332,119.92018a20.80823,20.80823,0,0,0,7.10525,9.31577s-1.89474-10.59349-.78947-13.26313S226.42437,113.7623,228.00332,119.92018Z" fill="#fff" stroke="#000" stroke-miterlimit="10"/>
      <path d="M266.52956,97.97286s5.05262,2.52631,5.6842,7.73683" fill="#aba096" stroke="#000" stroke-miterlimit="10"/>
    </g>
    <path d="M109.96978,120.4549V99.97954l5.54689,8.04593V91.99552l4.30551,3.04978,3.96458-14.22489V97.184l11.18517-10.07426-2.63181,7.1773,13.817-11.55072V90.7115L166.436,79.46218l-6.79831,8.42636,17.42357-.77883L170.604,91.99552l20.29376,3.04978-7.23746,4.02753,9.86927.90671-7.23746,3.5735h13.159l-9.86927,8.47242h5.92156l-2.6318,8.42944,14.47492-20.47536-3.58786,14.42275,8.19352-4.76466-8.19352,13.92769,8.19352-1.65022-8.19352,10.36874h8.19352l-3.9477,4.15593h18.42263l-7.89541,6.37129,16.44878,3.96835-5.26361,6.73138,20.39649-3.46227-2.63181,7.07053s7.89542.20822,7.89542-10.33964-9.21132-10.33964-9.21132-10.33964l-15.79083-5.47184,8.4142-1.05177-1.83469-8.00106s-1.6893,5.347,14.10153,7.32085,20.76989-8.78105,20.76989-8.78105v11.171l3.9477-9.71079v24.86431l4.12107-10.33964-4.12107,17.071h7.89542l-8.55337,7.065h8.55337L268.536,167.15525l11.35853,2.63181H262.61447l7.23746,9.86927L258.80118,171.103v8.55337l-8.68778-7.23747-.658,7.23747-7.23746-9.86927s9.86927,18.86556,3.28976,29.82927l13.29344-8.40468v5.45613l21.09338-7.80014-4.12107,5.8945,26.883,3.55048-7.14449,4.453,14.62516,9.17734h-7.48067l4.621,17.71761-7.15986-3.71474-3.28976,15.55786-2.6318-6.85758-7.23746,14.095-.658-9.21132-11.18517,13.817-1.97385-5.92156-5.26361,12.50107-9.0769-5.26361v8.55337l-8.02983-7.23747-8.55337,7.23747,2.63181-9.86927-7.23747,5.92156-1.3159-8.55337-9.86927,8.55337,4.60566-13.159-14.47493,1.97386,18.42264-9.21132-9.21132-4.22578h33.032l-9.34574-8.70028,25.00215,3.05679-4.60566-3.05679,14.47493-3.55048-13.159-9.61288,3.9477,7.94047-13.159-4.39,3.94771,4.39-22.37035-2.789s-17.76468,22.25386-43.42478,13.7005-19.08058-15.98956-19.08058-15.98956H166.436l6.59368-4.2436H156.68432l9.75167-4.2436-20.27889.69311,5.92156-4.2436-18.42263.96559,3.9477-4.35456s-23.02829-1.81264-5.26361,11.18306h-9.21131l22.37034,9.6266-13.817.45654,1.3159,7.51821-9.86926-6.60727v12.25076l-13.159-13.61824-3.28976,4.918-2.12237-4.918-5.11509,1.36748,3.24221-5.2229-5.874-10.85634v6.24331L92.2051,200.21826l-5.26361,1.19781,11.84312-10.20442-11.84312-3.002,21.71239-3.28975-5.96911-4.60566,17.13741-.65795,19.09746,3.9477-4.60566-7.89541,17.10673,10.52722-2.63181-8.55337,13.00154,13.52918V183.604l15.27081,13.06375,4.62522-5.45613-4.62522-6.94966v6.94966l-4.03158-14.84508-6.59368,4.60566v-9.63307l-5.75335,4.52129-3.28976-3.03669-7.08563,3.28975-4.302-3.0367-3.67884,3.84221-6.70326-4.5748-6.57279,1.99789s-3.73682-5.08774-5.92156-5.87095l-7.61214,8.55336v-5.68536l-18.048,8.31717,2.22691-3.28976-19.9916,8.604,2.02447-4.555-12.65291,5.06116,1.26529-2.27752L58.44714,186.995l2.53058-3.54281-15.18349-.25306,6.57951-2.02446L35.925,180.16244l4.8081-3.03669-4.8081-2.78364,7.8448,1.7714-2.53058-6.32645,13.9182,4.555-1.26529-7.84481,6.83257,4.84186.75917-7.6255,2.53059,2.53058,2.27752-6.07339,3.0367,3.28975.75917-5.06116s5.82034,5.82034,22.01606,4.302l-6.07339-5.56728,21.00383-.25306-4.55505-2.78364,9.11009-.75917-5.82034-5.06117,5.82034.50612-6.57951-9.18187h4.55505l-9.1101-10.55667,8.35092,2.78364L105.516,124.7427l3.79587-.50611-4.04893-6.57952Z" stroke="#000" stroke-miterlimit="10"/>
    <path d="M244.87656,124.65136,189.07731,293.63778a4.78351,4.78351,0,0,0,6.80349,1.2949l55.52453-169.43141" fill="#fbb03b" stroke="#000" stroke-miterlimit="10"/>
    <path d="M264.8544,86.43348l6.87552-22.78154s26.001,17.09208,29.61457-6.68787c0,0-7.99362-20.98308-5.22507-22.94725,3.55758-2.52394,8.35779,6.5975,8.35779,6.5975s-5.75138-13.419-.06533-15.803c0,0-16.34345-1.18494-18.60712,10.70858l7.01914-2.51542c-4.26972,7.87581,1.27773,14.59415.87575,22.88973-.45533,9.39653-12.50477,6.69594-12.50477,6.69594s-5.07829-1.781-6.78869-5.51184L288.6528,13.71614a12.43937,12.43937,0,0,1,4.4051,5.318c1.12618,3.16679,3.07384-8.88316-2.01058-18.50459,0,0-9.9757.952-15.0775,13.21608,0,0,5.95491-2.2263,8.43844-1.34638l-15.05093,43.7181s-2.02675,3.01955-9.83-.19639c0,0-12.49059-5.6687-4.7775-16.07877,4.0327-5.44278,13.41838-6.9143,12.28026-14.25751l4.20134,5.1774c2.24879-14.84328-10.71511-18.15671-10.71511-18.15671a14.35131,14.35131,0,0,1-5.448,13.45148s8.792-5.90435,6.84985-.62129c-2.72524,7.413-12.93405,7.32425-16.79232,14.102-10.56245,18.555,20.2216,23.28471,20.2216,23.28471l-6.65688,21.56534" fill="#fbb03b" stroke="#000" stroke-miterlimit="10"/>
    <path d="M139.93187,127.02023s.25306,12.65291,20.49771-7.33869,23.02829-2.53058,23.02829-2.53058.11273-5.06117-6.39662-2.02447c0,0,5.38439,33.15062-27.51317,31.63227,0,0-7.33869.25306-9.61621-3.79587S139.93187,127.02023,139.93187,127.02023Z" fill="#fcee21"/>
    <path d="M134.8707,128.44932s-7.33868-.66992-3.28975-15.85341,1.03561-16.44878,1.03561-16.44878-22.2925,21.763-10.14571,37.95873C122.47085,134.10586,122.2178,135.19264,134.8707,128.44932Z" fill="#fcee21"/>
    <path d="M32.84582,157.81484s.47368,5.8421,4.10525,7.57894" fill="none" stroke="#000" stroke-miterlimit="10"/>
    <path d="M14.21428,139.60136s.63157-2.31279,4.89472-1.83911" fill="none" stroke="#000" stroke-miterlimit="10"/>
    <path d="M15.31954,142.34119s-.47369-2.73983,5.5263-2.73983" fill="none" stroke="#000" stroke-miterlimit="10"/>
    <path d="M34.89845,130.8149s5.64214.78947,6.68948,2.21052" fill="none" stroke="#000" stroke-miterlimit="10"/>
    <path d="M34.109,134.17043c.47369-.19764,5.36841-.93907,6.78946,1.40532" fill="none" stroke="#000" stroke-miterlimit="10"/>
    <path d="M53.53,142.34119s4.73683,1.24536,5.21051,3.70162" fill="none" stroke="#000" stroke-miterlimit="10"/>
    <path d="M56.13524,140.97127s4.65789.96629,4.3421,3.22073" fill="none" stroke="#000" stroke-miterlimit="10"/>
    <path d="M71.979,138.64983c.44816,1.44259,5.07728-3.91076,5.07728-3.91076-3.63157-3.97055-8.17653,0-8.17653,0A9.58469,9.58469,0,0,1,71.979,138.64983Z" fill="#fff" stroke="#000" stroke-miterlimit="10"/>
    <path d="M45.16158,118.34124a7.85576,7.85576,0,0,1,9.15788-4.26315l-3.4205,7.31528S48.79315,117.6217,45.16158,118.34124Z" fill="#fff" stroke="#000" stroke-miterlimit="10"/>
    <path d="M18.07829,122.13071a10.55478,10.55478,0,0,1,4.82018-6.97193,14.06173,14.06173,0,0,0,.46464,7.52671C24.78416,126.15917,22.416,120.55176,18.07829,122.13071Z" fill="#fff" stroke="#000" stroke-miterlimit="10"/>
    <path d="M114.95092,129.236s-7.002,32.32221,25.10521,38.68414c27.09312,5.36841,38.99992-22.89469,38.99992-22.89469S140.8456,168.23588,114.95092,129.236Z" fill="#fff" stroke="#000" stroke-miterlimit="10"/>
    <path d="M124.74838,135.6242s-11.38762,8.857-1.26529,19.23243c0,0,6.57951,6.07339,13.9182-5.06117C137.40129,149.79546,139.42575,134.612,124.74838,135.6242Z"/>
    <polyline points="170.688 156.51 167.755 149.727 159.141 165.953 155.723 151.817 142.523 168.323 140.471 149.923 126.8 162.68 127.863 143.335 118.848 152.762 119.325 135.576 114.359 138.65" fill="none" stroke="#000" stroke-miterlimit="10"/>
    <path d="M149.54808,146.75876a16.70062,16.70062,0,0,1-7.10478-1.55669s.2424-18.21,6.7707-12.22769a10.03513,10.03513,0,0,1,.94737,6.627c-.19945.92612-3.32367.34122-3.40223,1.54053s3.77906.70223,3.40491,2.14667c-.15567.60094-.39626,2.82848-.616,3.4702" stroke="#000" stroke-miterlimit="10"/>
    <path d="M123.16143,134.73907l-2.45736-3.6832s.24239-18.21,6.7707-12.22769a10.03509,10.03509,0,0,1,.94737,6.627c-.19945.92612-3.32367.34123-3.40224,1.54053s3.77907.70224,3.40491,2.14667c-.15566.601-.39625,2.82849-.616,3.47021" stroke="#000" stroke-miterlimit="10"/>
  </g>
</svg>
