<svg xmlns="http://www.w3.org/2000/svg" viewBox="0 0 262.49128 285.94161">
  <g>
    <circle cx="135.99714" cy="159.44747" r="124.99414" fill="#ffb317" stroke="#000" stroke-miterlimit="10" stroke-width="3"/>
    <circle cx="126.49414" cy="157.44747" r="124.99414" fill="#ffde17" stroke="#000" stroke-miterlimit="10" stroke-width="3"/>
    <circle cx="126.49414" cy="157.44747" r="97.77346" fill="#0dd000" stroke="#000" stroke-miterlimit="10" stroke-width="3"/>
    <circle cx="126.49416" cy="157.44747" r="92.09368" fill="#fff7bf" stroke="#000" stroke-miterlimit="10" stroke-width="3"/>
    <g>
      <path d="M137.50347,75.4181a1.00394,1.00394,0,0,1-.19629.68359c-2.10058-.18164-7.21484-.293-8.29687-1.65429-4.55664-7.06055,10.51953-24.01953,12.96386-30.459,2.49512-6.375-3.50195-.8125-8.38476,1.69531-3.84277.6211-3.248-3.55468-.37793-3.40234,8.19629.46289,9.09082-6.85937,14.21191-.08789C152.35015,48.59,135.99175,68.52747,137.50347,75.4181Z" fill="#fff" stroke="#000" stroke-miterlimit="10" stroke-width="2"/>
      <path d="M154.31207,73.21107c2.9082,7.04883,14.35644-.83789,11.26269-6.25977,0,0,.90039-.66211,1.23047-.97851,7.61426,2.99023,3.49219,10.71093-1.25195,12.52734-5.05567,1.957-15.50489,2.11914-18.14649-3.13281-5.43164-10.75391,15.93457-14.15039,21.05371-22.3457,4.28711-8.64649-3.98925-11.00391-8.0498-4.3379-3.625,5.95118,1.625,5.90235,2.12988,5.60743a.443.443,0,0,1,.50391.23242c-5.34375,5.51953-12.88379,1.35937-9.0127-4.68164,7.89942-12.416,24.82617-5.82813,19.63574,6.60156C170.77105,63.24427,152.06109,67.11927,154.31207,73.21107Z" fill="#fff" stroke="#000" stroke-miterlimit="10" stroke-width="2"/>
    </g>
    <ellipse cx="108.40927" cy="63.40036" rx="51.12814" ry="31.0652" transform="translate(42.77597 170.4725) rotate(-88.81258)" fill="#f2f2f2" stroke="#000" stroke-miterlimit="10" stroke-width="3"/>
    <ellipse cx="183.87329" cy="69.49585" rx="51.12814" ry="31.0652" transform="translate(72.14315 231.22226) rotate(-76.06534)" fill="#f2f2f2" stroke="#000" stroke-miterlimit="10" stroke-width="3"/>
    <path d="M130.64128,67.813c-.37744,18.20964-9.65262,32.78555-20.7167,32.55622S90.19726,85.19213,90.5747,66.9825c.04239-2.04513,14.4103-1.31326,14.66708-3.25089.31481-2.37549-13.43011-7.38947-12.82676-9.55044q.59553-2.13293,1.36111-4.09928c3.70181-9.52063,10.21963-15.80683,17.51527-15.65561C122.35549,34.65561,131.01872,49.60334,130.64128,67.813Z"/>
    <path d="M199.77376,81.271c-3.72378,17.82881-15.52414,30.44776-26.35684,28.18521s-16.59561-18.54982-12.87183-36.37863c.41822-2.00236,15.726,1.52309,16.33515-.33413.74681-2.27691-13.1602-9.89656-12.16928-11.9095q.97806-1.98681,2.09261-3.77859c5.39147-8.67627,12.95529-13.65492,20.09836-12.163C197.73463,47.15486,203.49754,63.44213,199.77376,81.271Z"/>
    <path d="M43.83382,32.45333s72.44229-45.92649,85.22435-28.51091C136.1072,13.54674,43.83382,32.45333,43.83382,32.45333Z"/>
    <path d="M255.62287,50.27947S171.72027,32.08713,173.074,10.05881c.74657-12.14813,82.54886,40.22066,82.54886,40.22066"/>
    <circle cx="126.49416" cy="195.65644" r="27.70649" stroke="#000" stroke-miterlimit="10" stroke-width="3"/>
    <ellipse cx="130.92844" cy="133.15044" rx="12.5125" ry="11.27658" transform="translate(-13.13915 14.3404) rotate(-5.97027)" stroke="#000" stroke-miterlimit="10" stroke-width="3"/>
    <path d="M102.82025,224.41544s20.18978,22.90763,48.53312,0" fill="none" stroke="#000" stroke-miterlimit="10" stroke-width="3"/>
    <g>
      <path d="M108.46025,211.36275s8.313,11.79209,25.95279,7.86611c26.59832-5.91983,2.69015-23.2047-20.54111-14.00974C103.86653,209.17927,108.46025,211.36275,108.46025,211.36275Z" fill="#e73800" stroke="#000" stroke-miterlimit="10"/>
      <path d="M106.32525,211.56946s9.70271,9.78538,23.974,9.11713c15.97237-.74791-3.93152-21.608-19.2423-17.18342C101.81794,206.17313,106.32525,211.56946,106.32525,211.56946Z" fill="#e73800" stroke="#000" stroke-miterlimit="10" stroke-width="3"/>
      <path d="M110.61066,211.859s10.05269,9.87628,24.2639,6.91487-10.21216-16.9428-19.96675-14.182C106.50922,206.96892,110.61066,211.859,110.61066,211.859Z" fill="#e73800"/>
    </g>
    <rect x="189.28899" y="192.31077" width="4.26837" height="15.71134" transform="translate(-81.79631 245.55972) rotate(-55.71215)" stroke="#000" stroke-miterlimit="10" stroke-width="0.75"/>
    <rect x="202.3684" y="162.16278" width="4.26837" height="16.21273" transform="translate(-10.00304 327.75001) rotate(-76.06534)" stroke="#000" stroke-miterlimit="10" stroke-width="0.75"/>
    <rect x="164.29002" y="216.58728" width="4.26837" height="16.7062" transform="translate(-80.42782 93.18581) rotate(-25.41319)" stroke="#000" stroke-miterlimit="10" stroke-width="0.75"/>
    <rect x="58.33249" y="188.73082" width="4.26837" height="14.95652" transform="translate(-83.60502 342.48817) rotate(-118.30761)" stroke="#000" stroke-miterlimit="10" stroke-width="0.75"/>
    <rect x="82.15828" y="214.38964" width="4.26837" height="16.55159" transform="translate(40.25634 456.64393) rotate(-148.60657)" stroke="#000" stroke-miterlimit="10" stroke-width="0.75"/>
    <rect x="68.98914" y="99.4183" width="4.26837" height="15.71134" transform="translate(199.3528 118.38396) rotate(128.49646)" stroke="#000" stroke-miterlimit="10" stroke-width="0.75"/>
    <rect x="53.7509" y="128.02441" width="4.26837" height="16.21273" transform="translate(202.64984 125.41457) rotate(108.14326)" stroke="#000" stroke-miterlimit="10" stroke-width="0.75"/>
    <path d="M127.08681,133.15044s-20.38745,22.53392-62.06749,29.54575L62.829,154.58952l-15.5306,15.344,25.57032,7.39191s-5.71666-8.07611-3.82748-8.45457C99.23754,162.82165,127.08681,133.15044,127.08681,133.15044Z" stroke="#000" stroke-miterlimit="10" stroke-width="0.75"/>
    <path d="M134.692,134.89958s26.67719,19.37848,50.53823,10.25918l.56609,6.57675,16.77175-12.67416-19.343-6.3362s2.83075,7.414,1.32654,7.8759C168.63,145.48954,134.692,134.89958,134.692,134.89958Z" stroke="#000" stroke-miterlimit="10" stroke-width="0.75"/>
    <rect x="193.27191" y="116.05032" width="4.26837" height="14.95652" transform="translate(228.38092 -105.2847) rotate(65.901)" stroke="#000" stroke-miterlimit="10" stroke-width="0.75"/>
    <path d="M34.03716,159.92005a8.70481,8.70481,0,0,1,.0542,1.2334c-.72265,8.791-.0708,17.68652-4.647,22.168-8.01416,7.7998-17.05371-1.0459-17.44531-5.543-.146-1.04394,1.502-1.09668,1.502-1.09668,1.19434,4.74024,8.55078,3.65235,11.0835,1.05274,2.32568-2.39454,3.70312-6.07422,4.51855-9.97168-6.55762,8.06933-19.63916,7.94629-20.28955-4.31836C7.95416,146.716,32.65533,140.72279,34.03716,159.92005Zm-4.35449-.27929c-.07666-7.31934-8.43164-12.53614-11.28809-4.62891C15.606,162.55482,26.379,167.72962,29.68267,159.64076Z" fill="#fff" stroke="#000" stroke-miterlimit="10" stroke-width="2"/>
    <path d="M231.97466,136.421c7.68457,2.53223,7.98047,13.96,1.26953,17.9707-9.9873,5.94824-19.53857-.63867-16.33837-7.35254,1.26025-3.251,7.6416-2.42773,6.02246-.90039-1.61914,1.52637-2.97657,6.62305,1.625,7.39844,6.84375,1.17285,10.43847-15.40918-.59034-15.64258-.81884.05469-.87451-.76465.02051-1.126a16.9093,16.9093,0,0,1,4.02686-.79883c11.59521-11.78809.62256-16.69824-1.57422-10.4209-2.022,5.83984,2.8999,4.67871,3.32324,4.32324a.4475.4475,0,0,1,.55469.16016c-3.74414,5.78515-9.71973,2.3623-7.48242-3.625C227.28179,114.25794,252.12945,119.88978,231.97466,136.421Z" fill="#fff" stroke="#000" stroke-miterlimit="10" stroke-width="2"/>
    <path d="M142.837,262.56751c.85888,16.72657-23.84229,22.72071-25.22364,3.52442a10.45019,10.45019,0,0,1-.0625-1.293c.731-8.73242.07911-17.627,4.65528-22.1084,8.01416-7.80078,17.05322,1.04492,17.44531,5.542.146,1.04395-1.50195,1.09668-1.50195,1.09668-1.19434-4.73926-8.55078-3.65234-11.09229-1.11035-2.32519,2.39356-3.70263,6.07422-4.51025,10.0293C129.105,250.17884,142.17876,250.24525,142.837,262.56751Zm-20.86914,3.80176c.07666,7.31934,8.43164,12.53711,11.28808,4.62988C136.04449,263.45716,125.26324,258.22376,121.96783,266.36927Z" fill="#fff" stroke="#000" stroke-miterlimit="10" stroke-width="2"/>
  </g>
</svg>
