<svg xmlns="http://www.w3.org/2000/svg" viewBox="0 0 249.98828 249.98828">
  <g>
    <circle cx="124.99414" cy="124.99414" r="124.99414" fill="#316b84"/>
    <path d="M168.38069,107.22433c-8.31709-4.24735-17.69615-9.379-27.25191-13.62594-10.61677,29.1982-22.47311,80.51614-43.88519,95.91171-26.01326,18.58051-64.7672,6.19321-44.06279-38.22343,4.07021-4.06974,4.42358,0,4.42358,0-7.60852,21.23539,20.8811,23.35884,38.223,6.017,13.98024-13.97979,25.1289-42.47033,33.79937-64.23623-39.63829,37.69245-74.49963,20.70442-53.08755-7.96328,14.6879-19.46531,38.223-16.45706,60.87367-10.44055a19.27269,19.27269,0,0,0,1.06195-1.94629c3.36255-6.72464,12.20972-3.53923,9.37906,4.95456,16.81088,5.13215,32.55983,10.26386,43.00084,7.2556,23.00409-6.19365,20.52681-12.3873,20.52681-12.3873h3.18587C225.18416,97.31434,195.4559,121.027,168.38069,107.22433Zm-38.93063-18.7576c-17.16518-6.72463-33.26841-9.37906-43.17844.53052C69.46072,105.63145,96.88934,116.072,129.45006,88.46673Z" fill="#fff"/>
  </g>
</svg>
