<svg xmlns="http://www.w3.org/2000/svg" viewBox="0 0 232.11685 240.25296">
  <g>
    <path d="M218.67436,84.31151c22.05964,60.942,4.51548,127.3571-61.58966,147.09766-69.35,20.70955-124.7837-10.85755-146.84334-71.79957S14.11759,35.02165,77.19967,10.7186C144.63911-15.26318,196.61471,23.3695,218.67436,84.31151Z" fill="#103f4f" stroke="#000" stroke-miterlimit="10" stroke-width="5"/>
    <path d="M2.96335,106.25082l16.42422,1.23383-17.0319,3.84223-.35318,4.70735,11.54174-2.68581L1.83136,118.30629l-.05472,9.28188,8.08626-1.37643-7.97675,3.81914,17.289,1.035L2.15282,133.65092S-.47912,116.21951,2.96335,106.25082Z"/>
    <polygon points="8.069 151.665 21.563 147.82 8.787 153.628 10.895 159.762 19.986 158.226 12.33 163.517 16.733 175.034 27.964 171.844 18.023 179.263 39.748 172.744 20.177 184.043 8.069 151.665"/>
    <polygon points="31.224 197.602 51.889 189.476 33.279 200.166 36.457 203.685 51.273 197.663 37.728 205.015 40.71 207.982 49.541 203.866 43.333 209.537 57.728 204.481 45.219 211.395 31.224 197.602"/>
    <line x1="11.60454" y1="143.98066" x2="41.74624" y2="133.05313" stroke="#000" stroke-miterlimit="10"/>
    <line x1="63.31316" y1="226.70235" x2="79.40752" y2="219.41058" stroke="#000" stroke-miterlimit="10"/>
    <line x1="98.67423" y1="235.45878" x2="121.74726" y2="226.84165" stroke="#000" stroke-miterlimit="10"/>
    <path d="M41.05154,78.61972l-25.00217,6.193" stroke="#000" stroke-miterlimit="10"/>
    <line x1="48.55419" y1="55.52446" x2="24.3905" y2="61.64051" stroke="#000" stroke-miterlimit="10"/>
    <path d="M24.64559,49.89624,45.66137,47.91,22.40214,52.961l-2.78461,4.684,15.56408-2.0096-16.90879,4.27-4.81806,9.57112,11.84382-.895L12.31667,72.06005l21.73327-3.07944L10.73946,75.94344S15.9243,58.407,24.64559,49.89624Z"/>
    <line x1="76.63131" y1="230.84225" x2="105.50565" y2="219.56246" stroke="#000" stroke-miterlimit="10"/>
    <line x1="28.36573" y1="166.4947" x2="48.85631" y2="157.81481" stroke="#000" stroke-miterlimit="10"/>
    <line x1="38.79448" y1="185.44197" x2="57.36452" y2="176.59831" stroke="#000" stroke-miterlimit="10"/>
    <path d="M38.62225,86.50845c-25.00217,6.193-14.73062,2.95336-14.73062,2.95336" stroke="#000" stroke-miterlimit="10"/>
    <path d="M39.91264,93.78035C14.91047,99.97336,25.182,96.73371,25.182,96.73371" stroke="#000" stroke-miterlimit="10"/>
    <path d="M38.82551,111.65024c-20.58982,6.52447-23.105,6.33553-23.105,6.33553" stroke="#000" stroke-miterlimit="10"/>
    <line x1="71.82235" y1="216.90633" x2="87.91671" y2="209.61456" stroke="#000" stroke-miterlimit="10"/>
    <line x1="67.90952" y1="213.09958" x2="84.00388" y2="205.80781" stroke="#000" stroke-miterlimit="10"/>
    <ellipse cx="131.9567" cy="116.99988" rx="96.93707" ry="114.44371" transform="translate(-28.9774 44.87666) rotate(-17.4222)" fill="#316b84" stroke="#000" stroke-miterlimit="10" stroke-width="3"/>
    <ellipse cx="134.53707" cy="116.23118" rx="89.86917" ry="108.93291" transform="translate(-28.62886 45.61398) rotate(-17.4222)" fill="#316b84" stroke="#000" stroke-miterlimit="10" stroke-width="2"/>
    <path d="M157.90608,81.70464c-8.02609.1725-17.26414.08074-26.13916.80876,8.69813,29.19755,28.65,77.46517,22.39454,99.948-7.66717,27.21085-41.0141,34.2114-51.12364-12.24528.56355-5.23064,3.03271-1.98258,3.03271-1.98258,6.40341,21.18432,27.09715,10.19308,29.49717-12.09464,1.935-17.967-6.01121-46.81059-11.97686-68.91491-6.55045,49.31432-39.74615,50.7194-40.753,17.12762-.58139-22.87561,17.19978-30.90569,36.02072-36.02148a20.90787,20.90787,0,0,0-.33693-2.105c-1.37432-7.13565,6.43409-8.43458,9.14111-.05652,14.33339-3.23868,27.93848-6.0018,33.45053-13.19924,12.382-15.49423,7.29459-19.56813,7.29459-19.56813l2.18416-1.42785C191.42664,47.95141,184.02079,81.123,157.90608,81.70464Zm-36.95381,1.74768c-15.44766,2.06455-27.94012,7.06-29.31186,19.79593C89.21719,124.70567,113.73449,121.1515,120.95227,83.45232Z" fill="#002335"/>
    <path d="M63.05113,56.08417C40.63373,88.9683,52.583,100.27467,52.11152,127.26062" fill="none" stroke="#000" stroke-miterlimit="10"/>
    <path d="M154.57237,212.6923a69.45343,69.45343,0,0,0,49.38968-39.18591" fill="none" stroke="#000" stroke-miterlimit="10"/>
    <path d="M160.94091,206.36752c12.2469-4.44657,24.03846-15.39978,29.09224-26.97193" fill="none" stroke="#000" stroke-miterlimit="10"/>
    <path d="M111.38472,19.33342c10.15112,2.389,28.02021-3.098,38.58159,1.60941a62.98362,62.98362,0,0,0-44.63743-3.12268" fill="none" stroke="#000" stroke-miterlimit="10"/>
    <path d="M119.484,27.05492a43.43621,43.43621,0,0,1,22.78414-.014" fill="none" stroke="#000" stroke-miterlimit="10"/>
  </g>
</svg>
