<svg xmlns="http://www.w3.org/2000/svg" viewBox="0 0 262.49 285.94"><defs><style>.cls-1{fill:#ffb317;}.cls-1,.cls-10,.cls-12,.cls-2,.cls-3,.cls-4,.cls-5,.cls-6,.cls-7,.cls-8,.cls-9{stroke:#000;stroke-miterlimit:10;}.cls-1,.cls-10,.cls-2,.cls-3,.cls-4,.cls-6,.cls-7,.cls-8{stroke-width:3px;}.cls-2{fill:#ffde17;}.cls-3{fill:#0dd000;}.cls-4{fill:#fff7bf;}.cls-5{fill:#fff;stroke-width:2px;}.cls-6{fill:#f2f2f2;}.cls-8{fill:none;}.cls-10,.cls-11,.cls-9{fill:#e73800;}.cls-12{stroke-width:0.75px;}</style></defs><g id="Camada_2" data-name="Camada 2"><g id="Camada_1-2" data-name="Camada 1"><circle class="cls-1" cx="136" cy="159.45" r="124.99"/><circle class="cls-2" cx="126.49" cy="157.45" r="124.99"/><circle class="cls-3" cx="126.49" cy="157.45" r="97.77"/><circle class="cls-4" cx="126.49" cy="157.45" r="92.09"/><path class="cls-5" d="M137.5,75.42a1,1,0,0,1-.19.68c-2.1-.18-7.22-.29-8.3-1.65-4.56-7.06,10.52-24,13-30.46s-3.5-.81-8.38,1.69c-3.84.62-3.25-3.55-.38-3.4,8.2.46,9.09-6.86,14.21-.09C152.35,48.59,136,68.53,137.5,75.42Z"/><path class="cls-5" d="M154.31,73.21c2.91,7.05,14.36-.84,11.26-6.26,0,0,.91-.66,1.24-1,7.61,3,3.49,10.71-1.26,12.53-5.05,2-15.5,2.12-18.14-3.13C142,64.61,163.34,61.22,168.46,53c4.29-8.64-4-11-8.05-4.34-3.62,6,1.63,5.91,2.13,5.61a.44.44,0,0,1,.5.23c-5.34,5.52-12.88,1.36-9-4.68,7.9-12.41,24.83-5.83,19.64,6.6C170.77,63.24,152.06,67.12,154.31,73.21Z"/><ellipse class="cls-6" cx="108.41" cy="63.4" rx="51.13" ry="31.07" transform="translate(42.78 170.47) rotate(-88.81)"/><ellipse class="cls-6" cx="183.87" cy="69.5" rx="51.13" ry="31.07" transform="translate(72.14 231.22) rotate(-76.07)"/><path d="M130.64,67.81C130.26,86,121,100.6,109.92,100.37S90.2,85.19,90.57,67c.05-2,14.41-1.31,14.67-3.25.32-2.37-13.43-7.39-12.82-9.55a41.9,41.9,0,0,1,1.36-4.1c3.7-9.52,10.22-15.8,17.51-15.65C122.36,34.66,131,49.6,130.64,67.81Z"/><path d="M199.77,81.27c-3.72,17.83-15.52,30.45-26.35,28.19s-16.6-18.55-12.87-36.38c.41-2,15.72,1.52,16.33-.34.75-2.27-13.16-9.89-12.17-11.91.65-1.32,1.35-2.58,2.09-3.77,5.4-8.68,13-13.66,20.1-12.17C197.73,47.15,203.5,63.44,199.77,81.27Z"/><path d="M43.83,32.45s72.45-45.92,85.23-28.51C136.11,13.55,43.83,32.45,43.83,32.45Z"/><path d="M255.62,50.28s-83.9-18.19-82.55-40.22c.75-12.15,82.55,40.22,82.55,40.22"/><circle class="cls-7" cx="126.49" cy="195.66" r="27.71"/><ellipse class="cls-7" cx="130.93" cy="133.15" rx="12.51" ry="11.28" transform="translate(-13.14 14.34) rotate(-5.97)"/><path class="cls-8" d="M102.82,224.42s20.19,22.9,48.53,0"/><path class="cls-9" d="M108.46,211.36s8.31,11.79,26,7.87c26.6-5.92,2.69-23.21-20.54-14C103.87,209.18,108.46,211.36,108.46,211.36Z"/><path class="cls-10" d="M106.33,211.57s9.7,9.78,24,9.12c16-.75-3.93-21.61-19.24-17.19C101.82,206.17,106.33,211.57,106.33,211.57Z"/><path class="cls-11" d="M110.61,211.86s10,9.88,24.26,6.91-10.21-16.94-20-14.18C106.51,207,110.61,211.86,110.61,211.86Z"/><rect class="cls-12" x="189.29" y="192.31" width="4.27" height="15.71" transform="translate(-81.8 245.56) rotate(-55.71)"/><rect class="cls-12" x="202.37" y="162.16" width="4.27" height="16.21" transform="translate(-10 327.75) rotate(-76.07)"/><rect class="cls-12" x="164.29" y="216.59" width="4.27" height="16.71" transform="translate(-80.43 93.19) rotate(-25.41)"/><rect class="cls-12" x="58.33" y="188.73" width="4.27" height="14.96" transform="translate(-83.61 342.49) rotate(-118.31)"/><rect class="cls-12" x="82.16" y="214.39" width="4.27" height="16.55" transform="translate(40.26 456.64) rotate(-148.61)"/><rect class="cls-12" x="68.99" y="99.42" width="4.27" height="15.71" transform="translate(199.35 118.38) rotate(128.5)"/><rect class="cls-12" x="53.75" y="128.02" width="4.27" height="16.21" transform="translate(202.65 125.41) rotate(108.14)"/><path class="cls-12" d="M127.09,133.15S106.7,155.68,65,162.7l-2.19-8.11L47.3,169.93l25.57,7.4s-5.72-8.08-3.83-8.46C99.24,162.82,127.09,133.15,127.09,133.15Z"/><path class="cls-12" d="M134.69,134.9s26.68,19.38,50.54,10.26l.57,6.58,16.77-12.68-19.34-6.33s2.83,7.41,1.32,7.87C168.63,145.49,134.69,134.9,134.69,134.9Z"/><rect class="cls-12" x="193.27" y="116.05" width="4.27" height="14.96" transform="translate(228.38 -105.28) rotate(65.9)"/><path class="cls-5" d="M34,159.92a10.12,10.12,0,0,1,.05,1.23c-.72,8.79-.07,17.69-4.65,22.17-8,7.8-17-1-17.44-5.54-.15-1.05,1.5-1.1,1.5-1.1,1.2,4.74,8.55,3.65,11.08,1,2.33-2.39,3.71-6.07,4.52-10-6.55,8.07-19.64,8-20.29-4.32C8,146.72,32.66,140.72,34,159.92Zm-4.36-.28c-.07-7.32-8.43-12.54-11.29-4.63C15.61,162.55,26.38,167.73,29.68,159.64Z"/><path class="cls-5" d="M232,136.42c7.69,2.53,8,14,1.27,18-10,6-19.53-.64-16.33-7.35,1.26-3.25,7.64-2.43,6-.9s-3,6.62,1.62,7.4c6.85,1.17,10.44-15.41-.59-15.65-.82.06-.87-.76,0-1.12a16.77,16.77,0,0,1,4-.8c11.6-11.79.62-16.7-1.57-10.42-2,5.84,2.9,4.68,3.32,4.32a.45.45,0,0,1,.55.16c-3.74,5.79-9.72,2.36-7.48-3.62C227.28,114.26,252.13,119.89,232,136.42Z"/><path class="cls-5" d="M142.84,262.57c.86,16.72-23.85,22.72-25.23,3.52a12.85,12.85,0,0,1-.06-1.29c.73-8.73.08-17.63,4.66-22.11,8-7.8,17,1.05,17.44,5.54.15,1.05-1.5,1.1-1.5,1.1-1.19-4.74-8.55-3.65-11.09-1.11-2.33,2.39-3.71,6.07-4.51,10C129.11,250.18,142.18,250.25,142.84,262.57ZM122,266.37c.07,7.32,8.43,12.54,11.29,4.63C136,263.46,125.26,258.22,122,266.37Z"/></g></g></svg>