<svg xmlns="http://www.w3.org/2000/svg" viewBox="0 0 151.93713 145.80696">
  <g>
    <g>
      <path d="M104.43713,145.807a47.5,47.5,0,1,0-47.5-47.5A47.38582,47.38582,0,0,0,104.43713,145.807Z" fill="#2775ca"/>
      <path d="M117.49963,105.82763c0-6.92693-4.15625-9.30193-12.46875-10.29135-5.9375-.79183-7.125-2.375-7.125-5.14615s1.97932-4.55193,5.9375-4.55193c3.5625,0,5.54182,1.1875,6.53125,4.15625a1.48853,1.48853,0,0,0,1.38557.98943h3.16636a1.35279,1.35279,0,0,0,1.38557-1.3851v-.19807a9.88774,9.88774,0,0,0-8.90625-8.11443v-4.75c0-.79182-.59375-1.38557-1.58317-1.58365H102.854c-.79182,0-1.38557.59375-1.58365,1.58365v4.55193c-5.9375.79182-9.6976,4.75-9.6976,9.69807,0,6.53125,3.95818,9.10385,12.27067,10.09375,5.54183.98942,7.32308,2.17692,7.32308,5.34375s-2.77115,5.34375-6.53125,5.34375c-5.14615,0-6.9274-2.1774-7.52115-5.14615a1.44544,1.44544,0,0,0-1.3851-1.1875h-3.3649a1.3528,1.3528,0,0,0-1.3851,1.38558v.19807c.79135,4.94761,3.95818,8.51011,10.48943,9.5v4.75c0,.79136.59375,1.38511,1.58317,1.58318h2.96876c.79182,0,1.38557-.59375,1.58365-1.58318v-4.75c5.9375-.98989,9.89567-5.14614,9.89567-10.48989Z" fill="#fff"/>
      <path d="M94.34338,126.60888a29.61644,29.61644,0,0,1,0-55.61442,1.98657,1.98657,0,0,0,1.1875-1.97933V66.24446a1.50436,1.50436,0,0,0-1.1875-1.58318,1.19185,1.19185,0,0,0-.79183.1976,35.61548,35.61548,0,0,0,0,67.88558,1.20327,1.20327,0,0,0,1.78125-.79183c.19808-.1976.19808-.39567.19808-.79135v-2.77115A2.63623,2.63623,0,0,0,94.34338,126.60888Zm20.97932-61.75a1.20328,1.20328,0,0,0-1.78125.79183c-.19807.19807-.19807.39567-.19807.79182v2.77068a2.62521,2.62521,0,0,0,1.1875,1.97932,29.61645,29.61645,0,0,1,0,55.61442,1.98654,1.98654,0,0,0-1.1875,1.97933V131.557a1.50434,1.50434,0,0,0,1.1875,1.58317,1.19182,1.19182,0,0,0,.79182-.1976,35.76813,35.76813,0,0,0,0-68.08365Z" fill="#fff"/>
    </g>
    <g>
      <circle cx="47.5" cy="47.5" r="47.5" fill="#f0b90c"/>
      <g>
        <path d="M47.40515,79.46386c-.33737-.31028-.61409-.54754-.87145-.8042-2.09248-2.08678-4.15557-4.204-6.286-6.25124-.69914-.67186-.68172-1.06921.00282-1.751Q55.49649,55.47323,70.68142,40.22788c.70672-.70949,1.13932-.8498,1.89966-.04975,2.03513,2.14142,4.135,4.22368,6.26585,6.2704.70553.67768.678,1.08442-.00465,1.76447Q63.53238,63.46464,48.26393,78.7579C48.0129,79.00874,47.71421,79.21189,47.40515,79.46386Z" fill="#fefefe"/>
        <path d="M59.53319,27.3067c.31609.26581.61207.48054.86812.73539,2.14069,2.13064,4.25267,4.29074,6.42265,6.391.65008.6292.5957,1.00413-.023,1.62078Q51.47677,51.32648,36.204,66.65062c-.60237.60436-.96929.70794-1.61021.04314-2.05317-2.12966-4.13184-4.2383-6.28123-6.26982-.83387-.78814-.80807-1.22775.00424-2.02592,4.61628-4.53594,9.17225-9.13324,13.74873-13.70967q8.1723-8.17221,16.34633-16.34265C58.75677,28.00112,59.127,27.68187,59.53319,27.3067Z" fill="#fefefe"/>
        <path d="M35.35,43.2899c-.32876-.29776-.60827-.53065-.86486-.78651-2.09137-2.08542-4.14452-4.21084-6.28441-6.24509-.79915-.7597-.65047-1.19309.055-1.893Q37.428,25.26435,46.52757,16.09039c.75156-.75835,1.204-.72573,1.91992.01962,2.04551,2.1296,4.144,4.20948,6.26088,6.26863.61425.5975.68275,1.00172.03837,1.64212q-9.36143,9.30335-18.6805,18.64932C35.85942,42.87668,35.62373,43.05439,35.35,43.2899Z" fill="#fefefe"/>
        <path d="M23.45615,55.17044c-.57053-.03828-.795-.4493-1.08735-.739-2.05584-2.03742-4.06748-4.12065-6.16112-6.1181-.76642-.73121-.762-1.18082.00183-1.90981,2.09327-1.99785,4.13435-4.05248,6.14247-6.1363.68821-.71416,1.1469-.86365,1.91033-.06263,2.03876,2.13916,4.16358,4.19626,6.25221,6.288.42712.42775.98507.78114.26783,1.48255-2.28927,2.23875-4.53762,4.51933-6.8063,6.77921A5.50468,5.50468,0,0,1,23.45615,55.17044Z" fill="#fefefe"/>
      </g>
    </g>
  </g>
</svg>
