<svg xmlns="http://www.w3.org/2000/svg" viewBox="0 0 141.05164 119.62213">
  <g>
    <path d="M26.37509,27.5666s34.61265,40.708-2.39458,85.33432c0,0,50.28629,18.06824,110.15093-10.01372,0,0,18.06824-48.54478-8.92527-84.02819l-3.04766-4.35379S62.07619,14.72291,26.37509,27.5666Z" fill="#fff" stroke="#000" stroke-miterlimit="10" stroke-width="2"/>
    <path d="M39.36719,54.77891s15.76094-10.34373,96.53568-15.44424c0,0-7.274-17.77842-13.74436-24.82945,0,0-73.5032,1.0701-95.78342,13.06138C26.37509,27.5666,38.01746,43.28976,39.36719,54.77891Z" fill="#f15a24" stroke="#000" stroke-miterlimit="10" stroke-width="2"/>
    <g>
      <ellipse cx="35.76333" cy="28.82721" rx="3.54172" ry="2.15824" fill="#ffa374" stroke="#000" stroke-miterlimit="10" stroke-width="2"/>
      <ellipse cx="36.13861" cy="28.70103" rx="2.97201" ry="1.59071" stroke="#000" stroke-miterlimit="10" stroke-width="2"/>
      <path d="M41.532,17.98713c-1.85144-5.08357-8.80652-6.95736-12.05311-4.91257-10.33333,6.50821-3.95331,12.93034-.07955,12.81966.66407-1.38348-1.49417-3.48638.30559-5.727,2.83956-3.53506,6.1517-2.78792,7.70337,1.47254,1.22328,3.35891-.77178,4.56756-3.38235,6.71774.25793-.07075,1.92445,1.8356,2.18013,1.74247C41.28961,28.2486,43.38335,23.07069,41.532,17.98713Z" stroke="#000" stroke-miterlimit="10" stroke-width="2"/>
    </g>
    <ellipse cx="66.48403" cy="68.19306" rx="14.1966" ry="20.24629" fill="#fff" stroke="#000" stroke-miterlimit="10" stroke-width="2"/>
    <ellipse cx="104.20084" cy="64.16915" rx="12.19361" ry="19.51247" transform="translate(-10.99034 22.85951) rotate(-11.89692)" fill="#fff" stroke="#000" stroke-miterlimit="10" stroke-width="2"/>
    <path d="M76.14777,69.27428a22.77838,22.77838,0,0,1-.60761,5.29655c-.28717,1.19591-5.37-3.26034-5.82963-2.264-.37641.816,3.89615,7.12211,3.42382,7.76991a6.21986,6.21986,0,0,1-4.88362,2.94274c-4.36142,0-7.89705-6.15395-7.89705-13.74522s3.53563-13.74523,7.89705-13.74523S76.14777,61.683,76.14777,69.27428Z" stroke="#000" stroke-miterlimit="10" stroke-width="2"/>
    <path d="M111.92826,62.54116a22.779,22.779,0,0,1,.49733,5.308c-.03446,1.22943-5.9268-2.08326-6.17114-1.01355-.2001.87607,5.2807,6.16592,4.95206,6.89718a6.21989,6.21989,0,0,1-4.17207,3.8863c-4.26774.89911-8.99607-4.39377-10.561-11.822s.62608-14.17886,4.89382-15.078S110.3633,55.11294,111.92826,62.54116Z" stroke="#000" stroke-miterlimit="10" stroke-width="2"/>
    <path d="M85.4567,76.21741c.16132,9.0342,11.82409,13.81189,19.68165,10.3248,0,0-9.27855-.01286-10.93311-7.51707C92.592,71.7083,85.29537,67.18321,85.4567,76.21741Z" fill="#ff581f" stroke="#000" stroke-miterlimit="10" stroke-width="2"/>
    <path d="M28.232,31.19941c8.61011,48.31534-15.41533,81.0085-15.41533,81.0085s9.4053,2.3929,11.16383.2249C58.76845,69.54456,28.232,31.19941,28.232,31.19941Z" fill="#fff" stroke="#000" stroke-miterlimit="10" stroke-width="2"/>
    <path d="M7.0959,103.428H1.7927C23.948,67.5455,24.51506,28.31635,24.51506,28.31635l2.16106-.74975S33.8831,66.306,7.0959,103.428Z" fill="#fff" stroke="#000" stroke-miterlimit="10" stroke-width="2"/>
    <path d="M26.37509,27.5666s23.49544,33.08584-7.85782,83.13561l6.58285.82031S53.29455,78.07059,26.37509,27.5666Z" fill="#fff" stroke="#000" stroke-miterlimit="10" stroke-width="2"/>
    <path d="M14.64082,109.22078H8.69959C40.21119,64.83781,27.11007,28.969,27.11007,28.969S42.19648,67.4671,14.64082,109.22078Z" fill="#fff" stroke="#000" stroke-miterlimit="10" stroke-width="2"/>
    <path d="M26.37509,27.5666c12.93,37.08682-14.99662,77.74048-14.99662,77.74048H5.84929c28.02791-41.48764,19.57-77.30443,19.57-77.30443Z" fill="#fff" stroke="#000" stroke-miterlimit="10" stroke-width="2"/>
    <path d="M48.69529,39.39655s4.83055-17.978,26.66161-5.48505C75.3569,33.9115,58.02339,24.01419,48.69529,39.39655Z" stroke="#000" stroke-miterlimit="10" stroke-width="2"/>
    <path d="M88.4834,33.187S93.314,15.209,115.145,27.702C115.145,27.702,97.8115,17.80468,88.4834,33.187Z" stroke="#000" stroke-miterlimit="10" stroke-width="2"/>
    <g>
      <ellipse cx="51.19234" cy="24.51074" rx="3.54172" ry="2.15824" fill="#ffa374" stroke="#000" stroke-miterlimit="10" stroke-width="2"/>
      <ellipse cx="51.56762" cy="24.38456" rx="2.97201" ry="1.59071" stroke="#000" stroke-miterlimit="10" stroke-width="2"/>
      <path d="M56.961,13.67065C55.10953,8.58709,48.15444,6.7133,44.90786,8.75809c-10.33334,6.50821-3.95331,12.93034-.07956,12.81966.66408-1.38349-1.49416-3.48638.30559-5.727,2.83956-3.535,6.15171-2.78791,7.70338,1.47255,1.22328,3.3589-.77178,4.56755-3.38235,6.71774.25793-.07075,1.92445,1.8356,2.18013,1.74246C56.71862,23.93213,58.81235,18.75422,56.961,13.67065Z" stroke="#000" stroke-miterlimit="10" stroke-width="2"/>
    </g>
    <g>
      <ellipse cx="66.6263" cy="21.95195" rx="3.54172" ry="2.15824" fill="#ffa374" stroke="#000" stroke-miterlimit="10" stroke-width="2"/>
      <ellipse cx="67.00158" cy="21.82577" rx="2.97201" ry="1.59071" stroke="#000" stroke-miterlimit="10" stroke-width="2"/>
      <path d="M72.39494,11.11187C70.54349,6.0283,63.58841,4.15451,60.34182,6.1993c-10.33333,6.50821-3.95331,12.93034-.07955,12.81966.66407-1.38348-1.49417-3.48638.30559-5.727,2.83956-3.53506,6.1517-2.78792,7.70337,1.47254,1.22328,3.35891-.77178,4.56756-3.38235,6.71774.25793-.07075,1.92445,1.8356,2.18014,1.74247C72.15258,21.37334,74.24632,16.19543,72.39494,11.11187Z" stroke="#000" stroke-miterlimit="10" stroke-width="2"/>
    </g>
    <g>
      <ellipse cx="82.06026" cy="19.97597" rx="3.54172" ry="2.15824" fill="#ffa374" stroke="#000" stroke-miterlimit="10" stroke-width="2"/>
      <ellipse cx="82.43555" cy="19.84979" rx="2.97201" ry="1.59071" stroke="#000" stroke-miterlimit="10" stroke-width="2"/>
      <path d="M87.8289,9.13589c-1.85144-5.08357-8.80653-6.95735-12.05311-4.91257-10.33334,6.50821-3.95332,12.93034-.07956,12.81967.66408-1.38349-1.49416-3.48639.30559-5.727,2.83956-3.53506,6.15171-2.78791,7.70338,1.47255,1.22328,3.3589-.77178,4.56755-3.38235,6.71774.25792-.07075,1.92445,1.8356,2.18013,1.74246C87.58655,19.39737,89.68028,14.21946,87.8289,9.13589Z" stroke="#000" stroke-miterlimit="10" stroke-width="2"/>
    </g>
    <g>
      <ellipse cx="98.96025" cy="18.46796" rx="3.54172" ry="2.15824" fill="#ffa374" stroke="#000" stroke-miterlimit="10" stroke-width="2"/>
      <ellipse cx="99.33553" cy="18.34178" rx="2.97201" ry="1.59071" stroke="#000" stroke-miterlimit="10" stroke-width="2"/>
      <path d="M104.72888,7.62787C102.87744,2.54431,95.92235.67052,92.67577,2.71531,82.34243,9.22352,88.72245,15.64565,92.59621,15.535c.66408-1.38349-1.49416-3.48638.30559-5.727,2.83956-3.535,6.15171-2.78791,7.70338,1.47255,1.22328,3.3589-.77178,4.56755-3.38235,6.71774.25792-.07075,1.92445,1.8356,2.18013,1.74246C104.48653,17.88935,106.58026,12.71144,104.72888,7.62787Z" stroke="#000" stroke-miterlimit="10" stroke-width="2"/>
    </g>
    <g>
      <ellipse cx="115.49994" cy="17.56596" rx="3.54172" ry="2.15824" fill="#ffa374" stroke="#000" stroke-miterlimit="10" stroke-width="2"/>
      <ellipse cx="115.87523" cy="17.43978" rx="2.97201" ry="1.59071" stroke="#000" stroke-miterlimit="10" stroke-width="2"/>
      <path d="M121.26858,6.72588c-1.85145-5.08357-8.80653-6.95735-12.05311-4.91257-10.33334,6.50821-3.95332,12.93034-.07956,12.81967.66407-1.38349-1.49416-3.48639.30559-5.727,2.83956-3.53506,6.1517-2.78791,7.70338,1.47255,1.22328,3.3589-.77179,4.56755-3.38235,6.71774.25792-.07075,1.92445,1.8356,2.18013,1.74246C121.02622,16.98736,123.12,11.80945,121.26858,6.72588Z" stroke="#000" stroke-miterlimit="10" stroke-width="2"/>
    </g>
    <g>
      <path d="M122.51285,84.66394S90.18573,126.48665,58.1574,98.58465a58.78152,58.78152,0,0,1-5.60356-5.626S94.788,96.29415,122.51285,84.66394Z" fill="#fff" stroke="#000" stroke-linecap="round" stroke-linejoin="round" stroke-width="2"/>
      <path d="M114.32382,93.25393s-28.24925,12.714-55.45506,5.3933" fill="#fff" stroke="#000" stroke-linecap="round" stroke-linejoin="round" stroke-width="2"/>
      <line x1="90.7389" y1="106.46038" x2="88.41286" y2="92.97622" fill="#fff" stroke="#000" stroke-linecap="round" stroke-linejoin="round" stroke-width="2"/>
      <line x1="98.43106" y1="104.13678" x2="96.17172" y2="91.97387" fill="#fff" stroke="#000" stroke-linecap="round" stroke-linejoin="round" stroke-width="2"/>
      <line x1="105.17567" y1="100.34615" x2="103.31587" y2="90.2461" fill="#fff" stroke="#000" stroke-linecap="round" stroke-linejoin="round" stroke-width="2"/>
      <line x1="83.34674" y1="108.14119" x2="80.37249" y2="93.00581" fill="#fff" stroke="#000" stroke-linecap="round" stroke-linejoin="round" stroke-width="2"/>
      <line x1="75.91318" y1="107.20798" x2="73.45186" y2="93.30595" fill="#fff" stroke="#000" stroke-linecap="round" stroke-linejoin="round" stroke-width="2"/>
      <line x1="68.67175" y1="104.95826" x2="66.36222" y2="93.40131" fill="#fff" stroke="#000" stroke-linecap="round" stroke-linejoin="round" stroke-width="2"/>
      <line x1="61.20512" y1="101.03274" x2="59.68091" y2="93.30071" fill="#fff" stroke="#000" stroke-linecap="round" stroke-linejoin="round" stroke-width="2"/>
      <line x1="110.49441" y1="96.50551" x2="109.1476" y2="88.97326" fill="#fff" stroke="#000" stroke-linecap="round" stroke-linejoin="round" stroke-width="2"/>
      <line x1="116.22826" y1="91.40283" x2="115.49119" y2="87.4113" fill="#fff" stroke="#000" stroke-linecap="round" stroke-linejoin="round" stroke-width="2"/>
    </g>
  </g>
</svg>
