<svg xmlns="http://www.w3.org/2000/svg" viewBox="0 0 176.56 177.99">
  <g id="Camada_2" data-name="Camada 2">
    <g id="Camada_1-2" data-name="Camada 1">
      <g>
        <polygon points="166 63.23 134.55 63.23 134.55 52.51 104.35 52.51 104.35 11.09 72.21 11.09 72.21 52.51 40.28 52.51 40.28 63.23 10.56 63.23 10.56 84.34 20.82 84.34 20.82 94.9 40.28 94.9 40.28 146.78 30.93 146.78 30.93 168.06 62.6 168.06 62.6 146.78 114.03 146.78 114.03 167.59 145.7 167.59 145.7 146.31 134.55 146.31 134.55 94.9 155.15 94.9 155.15 84.34 166 84.34 166 63.23" style="fill: #fef104"/>
        <g>
          <polygon points="62.89 53.15 72.81 53.15 72.81 31.82 82.77 31.82 82.77 11.09 72.21 11.09 72.21 31.82 62.25 31.82 62.25 52.84 10.56 52.84 10.56 63.08 62.89 63.08 62.89 53.15"/>
          <rect y="63.08" width="10.56" height="10.56"/>
          <rect x="10.56" y="73.64" width="10.56" height="10.56"/>
          <polygon points="52.04 104.87 42.01 104.87 42.01 94.76 31.68 94.76 31.68 84.2 21.12 84.2 21.12 94.76 31.45 94.76 31.45 105.32 41.48 105.32 41.48 126.05 52.04 126.05 52.04 104.87"/>
          <rect x="30.93" y="126.05" width="10.56" height="20.73"/>
          <rect x="20.37" y="146.78" width="10.56" height="20.73"/>
          <rect x="30.93" y="167.51" width="21.12" height="10.33"/>
          <polygon points="93.79 31.96 103.75 31.96 103.75 53.29 114.31 53.29 114.31 31.96 104.35 31.96 104.35 11.09 93.86 11.09 93.86 0 82.77 0 82.77 11.09 93.79 11.09 93.79 31.96"/>
          <polygon points="167 63.23 167 52.98 114.66 52.98 114.66 63.23 166 63.23 166 73.79 176.56 73.79 176.56 63.23 167 63.23"/>
          <rect x="155.44" y="73.79" width="10.56" height="10.56"/>
          <polygon points="144.88 94.9 134.55 94.9 134.55 105.02 124.51 105.02 124.51 126.19 135.07 126.19 135.07 105.46 145.11 105.46 145.11 94.9 155.44 94.9 155.44 84.34 144.88 84.34 144.88 94.9"/>
          <rect x="135.07" y="126.19" width="10.56" height="20.73"/>
          <rect x="145.63" y="146.92" width="10.56" height="20.73"/>
          <rect x="124.51" y="167.65" width="21.12" height="10.33"/>
          <polygon points="113.95 157.09 113.95 146.92 93.84 146.92 93.84 136.38 83.28 136.38 83.28 146.78 62.6 146.78 62.6 156.95 52.04 156.95 52.04 167.51 62.6 167.51 62.6 157.11 83.72 157.11 83.72 146.94 92.84 146.94 92.84 157.26 113.95 157.26 113.95 167.65 124.51 167.65 124.51 157.09 113.95 157.09"/>
        </g>
        <g>
          <rect x="10.56" y="63.23" width="10.41" height="10.41" style="fill: #d4bb04"/>
          <rect x="21.19" y="73.71" width="10.41" height="10.41" style="fill: #d4bb04"/>
          <rect x="31.68" y="84.13" width="10.41" height="10.41" style="fill: #d4bb04"/>
          <rect x="41.56" y="125.66" width="10.41" height="41.85" style="fill: #d4bb04"/>
          <rect x="31" y="146.58" width="10.49" height="20.92" style="fill: #d4bb04"/>
          <polygon points="93.84 125.81 72.73 125.81 72.73 115.46 62.46 115.46 62.46 104.78 52.5 104.78 52.5 94.54 42.09 94.54 42.09 104.95 52.04 104.95 52.04 156.95 62.46 156.95 62.46 146.58 72.73 146.58 83.14 146.58 83.14 136.23 93.84 136.23 93.84 125.81" style="fill: #d4bb04"/>
          <polygon points="113.95 136.45 93.84 136.45 93.84 146.87 113.95 146.87 113.95 157.15 124.37 157.15 124.37 146.74 113.95 146.74 113.95 136.45" style="fill: #d4bb04"/>
          <rect x="124.66" y="157.17" width="10.41" height="10.41" style="fill: #d4bb04"/>
        </g>
        <polygon points="104.56 73.56 104.56 63.08 93.84 63.08 93.84 73.8 104.56 73.8 104.56 84.28 115.28 84.28 115.28 73.56 104.56 73.56" style="fill: #fff"/>
      </g>
    </g>
  </g>
</svg>
