<svg xmlns="http://www.w3.org/2000/svg" viewBox="0 0 156.94 147">
  <g id="Camada_2" data-name="Camada 2">
    <g id="Camada_1-2" data-name="Camada 1">
      <g>
        <polygon points="146.47 10.82 10.82 10.82 10.82 104.65 83.59 104.65 83.59 125.82 104.71 125.82 104.71 136.15 115.98 136.15 115.98 125.82 125.82 125.82 125.82 104.65 146.47 104.65 146.47 10.82" style="fill: #fff"/>
        <g>
          <rect x="21.29" width="114.35" height="10.82"/>
          <rect x="41.68" y="73.53" width="10.82" height="10.82"/>
          <rect x="73.06" y="73.53" width="10.82" height="10.82"/>
          <rect x="104.47" y="73.53" width="10.82" height="10.82"/>
          <polygon points="10.47 21.47 0 21.47 0 94.53 10.47 94.53 10.47 104.65 21.29 104.65 21.29 114.53 83.59 114.53 83.59 103.71 21.29 103.71 21.29 93.82 10.82 93.82 10.82 21.65 21.29 21.65 21.29 10.82 10.47 10.82 10.47 21.47"/>
          <rect x="83.88" y="114.53" width="10.82" height="10.82"/>
          <polygon points="156.94 21.47 146.47 21.47 146.47 10.82 135.65 10.82 135.65 21.65 146.12 21.65 146.12 93.82 135.65 93.82 135.65 104.65 125.94 104.65 115.12 104.65 115.12 136.18 105.53 136.18 105.53 125.35 94.71 125.35 94.71 136.18 104.47 136.18 104.47 147 125.76 147 125.76 136.18 125.94 136.18 125.94 115.47 136.76 115.47 136.76 104.65 146.47 104.65 146.47 94.53 156.94 94.53 156.94 21.47"/>
        </g>
      </g>
    </g>
  </g>
</svg>
