<svg xmlns="http://www.w3.org/2000/svg" viewBox="0 0 170.9 171.27">
  <g id="Camada_2" data-name="Camada 2">
    <g id="Camada_1-2" data-name="Camada 1">
      <g>
        <rect x="25.01" y="25.01" width="120.76" height="120.76" transform="translate(85.39 -35.37) rotate(45)" style="fill: #3df7fd"/>
        <g>
          <rect x="21.53" y="86" width="42.56" height="31.57" style="fill: #29b2bf"/>
          <rect x="42.9" y="96.78" width="42.61" height="42.94" style="fill: #29b2bf"/>
          <rect x="63.9" y="138.41" width="21.94" height="22.29" style="fill: #29b2bf"/>
          <rect x="10.83" y="74.66" width="10.71" height="22.69" style="fill: #29b2bf"/>
        </g>
        <g>
          <rect x="107.36" y="53.62" width="42.56" height="31.57" transform="translate(257.29 138.8) rotate(180)" style="fill: #c7fbfb"/>
          <rect x="85.95" y="31.47" width="42.61" height="42.94" transform="translate(214.51 105.87) rotate(180)" style="fill: #c7fbfb"/>
          <rect x="85.62" y="10.49" width="21.94" height="22.29" transform="translate(193.17 43.27) rotate(180)" style="fill: #c7fbfb"/>
          <rect x="149.93" y="73.84" width="10.71" height="22.69" transform="translate(310.56 170.37) rotate(180)" style="fill: #c7fbfb"/>
        </g>
        <g>
          <rect x="0.12" y="73.95" width="10.71" height="22.69"/>
          <rect x="80.98" y="-5.01" width="10.71" height="22.69" transform="translate(92.67 -80) rotate(90)"/>
          <rect x="63.9" y="10.64" width="11.09" height="11.09" transform="translate(85.64 -53.26) rotate(90)"/>
          <rect x="53.2" y="21.69" width="10.91" height="10.91" transform="translate(85.8 -31.51) rotate(90)"/>
          <rect x="43.2" y="31.9" width="10.71" height="10.71" transform="translate(85.8 -11.3) rotate(90)"/>
          <rect x="32.2" y="42.9" width="10.71" height="10.71" transform="translate(85.8 10.7) rotate(90)"/>
          <rect x="22.2" y="53.9" width="10.71" height="10.71" transform="translate(86.8 31.7) rotate(90)"/>
          <rect x="11.2" y="64.9" width="10.71" height="10.71" transform="translate(86.8 53.7) rotate(90)"/>
          <rect x="149.86" y="95.61" width="10.71" height="10.71" transform="translate(256.18 -54.25) rotate(90)"/>
          <rect x="138.77" y="106.86" width="10.71" height="10.71" transform="translate(256.34 -31.91) rotate(90)"/>
          <rect x="128.77" y="116.86" width="10.71" height="10.71" transform="translate(256.34 -11.91) rotate(90)"/>
          <rect x="117.77" y="127.86" width="10.71" height="10.71" transform="translate(256.34 10.09) rotate(90)"/>
          <rect x="107.77" y="138.86" width="10.71" height="10.71" transform="translate(257.34 31.09) rotate(90)"/>
          <rect x="96.77" y="149.86" width="10.71" height="10.71" transform="translate(257.34 53.09) rotate(90)"/>
          <rect x="63.91" y="149.55" width="10.71" height="10.71" transform="translate(-85.64 224.17) rotate(-90)"/>
          <rect x="53.2" y="138.72" width="10.71" height="10.71" transform="translate(-85.52 202.63) rotate(-90)"/>
          <rect x="42.83" y="129.01" width="10.71" height="10.71" transform="translate(-86.19 182.55) rotate(-90)"/>
          <rect x="31.46" y="117.57" width="11.44" height="11.44" transform="translate(-86.11 160.47) rotate(-90)"/>
          <rect x="21.3" y="106.86" width="10.71" height="10.71" transform="translate(-85.56 138.87) rotate(-90)"/>
          <rect x="10.83" y="96.43" width="10.71" height="10.71" transform="translate(-85.6 117.96) rotate(-90)"/>
          <rect x="149.49" y="64.59" width="10.71" height="10.71" transform="translate(84.9 224.78) rotate(-90)"/>
          <rect x="138.4" y="53.34" width="10.71" height="10.71" transform="translate(85.07 202.44) rotate(-90)"/>
          <rect x="128.4" y="43.34" width="10.71" height="10.71" transform="translate(85.07 182.44) rotate(-90)"/>
          <rect x="117.4" y="32.34" width="10.71" height="10.71" transform="translate(85.07 160.44) rotate(-90)"/>
          <rect x="107.4" y="21.34" width="10.71" height="10.71" transform="translate(86.07 139.44) rotate(-90)"/>
          <rect x="96.4" y="10.34" width="10.71" height="10.71" transform="translate(86.07 117.44) rotate(-90)"/>
          <rect x="80.61" y="154.58" width="10.71" height="22.69" transform="translate(251.88 79.96) rotate(90)"/>
          <rect x="160.19" y="73.95" width="10.71" height="22.69"/>
        </g>
        <rect x="85.51" y="64.9" width="10.71" height="10.71" transform="translate(20.61 161.11) rotate(-90)" style="fill: #fdffff"/>
        <rect x="85.84" y="95.61" width="10.71" height="10.71" transform="translate(-9.77 192.16) rotate(-90)" style="fill: #caf8ff"/>
        <rect x="64.1" y="74.93" width="10.71" height="10.71" transform="translate(-10.83 149.73) rotate(-90)" style="fill: #caf8ff"/>
        <rect x="74.8" y="64.9" width="10.71" height="10.71" transform="translate(9.91 150.41) rotate(-90)" style="fill: #caf8ff"/>
        <rect x="96.14" y="75.29" width="10.71" height="10.71" transform="translate(20.85 182.14) rotate(-90)" style="fill: #fdffff"/>
        <rect x="96.14" y="86" width="10.71" height="10.71" transform="translate(10.14 192.84) rotate(-90)" style="fill: #caf8ff"/>
        <rect x="64.1" y="85.58" width="10.71" height="10.71" transform="translate(160.38 21.48) rotate(90)" style="fill: #3df7fd"/>
        <rect x="74.99" y="95.61" width="10.71" height="10.71" transform="translate(181.31 20.62) rotate(90)" style="fill: #3df7fd"/>
        <rect x="96.44" y="43.05" width="10.71" height="10.71" transform="translate(53.39 150.2) rotate(-90)" style="fill: #fdffff"/>
        <rect x="107.07" y="53.45" width="10.71" height="10.71" transform="translate(53.62 171.22) rotate(-90)" style="fill: #fdffff"/>
        <rect x="117.77" y="64.59" width="10.71" height="10.71" transform="translate(53.19 193.07) rotate(-90)" style="fill: #fdffff"/>
        <g>
          <rect x="85.77" y="11.13" width="10.71" height="10.71" transform="translate(74.65 107.61) rotate(-90)" style="fill: #fdffff"/>
          <rect x="96.4" y="21.53" width="10.71" height="10.71" transform="translate(74.88 128.63) rotate(-90)" style="fill: #fdffff"/>
          <rect x="107.11" y="32.66" width="10.71" height="10.71" transform="translate(74.44 150.48) rotate(-90)" style="fill: #fdffff"/>
          <rect x="117.74" y="42.8" width="10.71" height="10.71" transform="translate(74.93 171.25) rotate(-90)" style="fill: #fdffff"/>
          <rect x="128.36" y="53.2" width="10.71" height="10.71" transform="translate(75.16 192.27) rotate(-90)" style="fill: #fdffff"/>
          <rect x="139.07" y="64.34" width="10.71" height="10.71" transform="translate(74.73 214.11) rotate(-90)" style="fill: #fdffff"/>
          <rect x="149.49" y="74.93" width="10.71" height="10.71" transform="translate(74.56 235.12) rotate(-90)" style="fill: #fdffff"/>
        </g>
        <g>
          <rect x="149.63" y="85.51" width="10.71" height="10.71" transform="translate(64.12 245.85) rotate(-90)" style="fill: #c7fbfb"/>
          <rect x="139" y="95.91" width="10.71" height="10.71" transform="translate(43.09 245.62) rotate(-90)" style="fill: #c7fbfb"/>
          <rect x="128.3" y="107.05" width="10.71" height="10.71" transform="translate(21.25 246.05) rotate(-90)" style="fill: #c7fbfb"/>
          <rect x="117.67" y="117.19" width="10.71" height="10.71" transform="translate(0.48 245.56) rotate(-90)" style="fill: #c7fbfb"/>
          <rect x="107.04" y="127.58" width="10.71" height="10.71" transform="translate(-20.54 245.33) rotate(-90)" style="fill: #c7fbfb"/>
          <rect x="96.34" y="138.72" width="10.71" height="10.71" transform="translate(-42.39 245.76) rotate(-90)" style="fill: #c7fbfb"/>
          <rect x="85.92" y="149.31" width="10.71" height="10.71" transform="translate(-63.39 245.93) rotate(-90)" style="fill: #c7fbfb"/>
        </g>
        <g>
          <rect x="74.68" y="11.44" width="10.71" height="10.71" transform="translate(63.25 96.83) rotate(-90)" style="fill: #29b2bf"/>
          <rect x="64.06" y="21.83" width="10.71" height="10.71" transform="translate(42.22 96.6) rotate(-90)" style="fill: #29b2bf"/>
          <rect x="53.35" y="32.26" width="10.71" height="10.71" transform="translate(21.09 96.32) rotate(-90)" style="fill: #29b2bf"/>
          <rect x="42.72" y="42.4" width="10.71" height="10.71" transform="translate(0.33 95.83) rotate(-90)" style="fill: #29b2bf"/>
          <rect x="32.09" y="52.79" width="10.71" height="10.71" transform="translate(-20.7 95.59) rotate(-90)" style="fill: #29b2bf"/>
          <rect x="21.39" y="63.93" width="10.71" height="10.71" transform="translate(-42.54 96.03) rotate(-90)" style="fill: #29b2bf"/>
          <rect x="10.97" y="75.23" width="10.71" height="10.71" transform="translate(-64.26 96.91) rotate(-90)" style="fill: #29b2bf"/>
        </g>
      </g>
    </g>
  </g>
</svg>
