<svg xmlns="http://www.w3.org/2000/svg" viewBox="0 0 178.39 189.02">
  <g id="Camada_2" data-name="Camada 2">
    <g id="Camada_1-2" data-name="Camada 1">
      <g>
        <g>
          <g>
            <rect x="115.1" y="11.33" width="41.38" height="11.33" style="fill: #2fdb58"/>
            <rect x="105.02" y="11.33" width="11.33" height="11.33" style="fill: #25a03b"/>
          </g>
          <g>
            <rect x="125.68" y="21.08" width="41.38" height="11.33" style="fill: #2fdb58"/>
            <rect x="114.35" y="21.08" width="11.33" height="11.33" style="fill: #25a03b"/>
          </g>
          <g>
            <rect x="137.01" y="31.49" width="41.38" height="11.33" style="fill: #2fdb58"/>
            <rect x="125.68" y="31.49" width="11.33" height="11.33" style="fill: #25a03b"/>
          </g>
          <g>
            <rect x="10.09" y="115.79" width="63.21" height="60.41" style="fill: #d12a3c"/>
            <polygon points="40.85 168.1 40.85 157.01 31.01 157.01 31.01 146.32 21.17 146.32 21.17 126.33 11.33 126.33 11.33 166.31 21.17 166.31 21.17 177.94 31.01 177.94 40.59 177.94 40.85 177.94 62.32 177.94 62.32 168.1 40.85 168.1" style="fill: #a21724"/>
          </g>
          <g>
            <rect x="104.33" y="115.79" width="63.21" height="60.41" style="fill: #d12a3c"/>
            <polygon points="135.1 168.1 135.1 157.01 125.25 157.01 125.25 146.32 115.41 146.32 115.41 126.33 105.57 126.33 105.57 166.31 115.41 166.31 115.41 177.94 125.25 177.94 134.83 177.94 135.1 177.94 156.56 177.94 156.56 168.1 135.1 168.1" style="fill: #a21724"/>
          </g>
          <g>
            <polygon points="61.85 74.58 51.77 74.58 51.77 95.66 42.13 95.66 42.13 104.46 21.17 104.46 21.17 115 9.84 115 9.84 125.81 0 125.81 0 167.97 9.84 167.97 9.84 177.64 21.17 177.64 21.17 166.31 11.33 166.31 11.33 126.33 21.17 126.33 21.17 115.79 62.32 115.79 62.32 126.9 72.06 126.9 72.06 166.88 62.32 166.88 62.32 177.7 21.17 177.7 21.17 189.03 63.1 189.03 63.1 178.21 73.65 178.21 73.65 167.97 83.39 167.97 83.39 125.81 73.65 125.81 73.65 115.57 63.1 115.57 63.1 104.46 53.46 104.46 53.46 95.66 63.1 95.66 63.1 74.58 73.18 74.58 73.18 53.49 61.85 53.49 61.85 74.58"/>
            <path d="M167.84,53.5V42.81h10.35V31.49H166.86V21.23h-9.65v-9.9H146.73V0H104.5V11.33H93.69v9.75H83.39V32.41H73.18V53.5H84.5V32.41h9.19V53.5h9.6V74.3h11.33V53.22H105V32.41h9.67v10.4h10.92V53.5Zm-52.52-22V21.08H105V11.33h40.86V22.66h9.65v9.89h11.33v9.62H126V31.49Z"/>
            <polygon points="124.69 85.63 124.69 104.46 114.79 104.46 114.79 115.29 104.12 115.29 104.12 125.81 93.69 125.81 93.69 167.97 104.12 167.97 104.12 177.93 114.79 177.93 114.79 189.03 156.72 189.03 156.72 178.49 167.92 178.49 167.92 167.97 177.92 167.97 177.92 125.81 167.92 125.81 167.92 115.85 156.59 115.85 156.59 127.18 166.59 127.18 166.59 167.16 156.59 167.16 156.59 177.7 115.45 177.7 115.45 166.6 105.02 166.6 105.02 126.61 115.45 126.61 115.45 115.79 156.72 115.79 156.72 104.46 136.02 104.46 136.02 84.84 125.94 84.84 125.94 74.3 114.62 74.3 114.62 85.63 124.69 85.63"/>
          </g>
        </g>
        <polygon points="52.37 136.35 52.37 125.41 40.77 125.41 40.77 137.01 51.92 137.01 51.92 147.96 63.52 147.96 63.52 136.35 52.37 136.35" style="fill: #fff"/>
        <polygon points="146.6 136.35 146.6 125.41 134.99 125.41 134.99 137.01 146.15 137.01 146.15 147.96 157.75 147.96 157.75 136.35 146.6 136.35" style="fill: #fff"/>
      </g>
    </g>
  </g>
</svg>
