<svg xmlns="http://www.w3.org/2000/svg" viewBox="0 0 160.8 151.76">
  <g id="Camada_2" data-name="Camada 2">
    <g id="Camada_1-2" data-name="Camada 1">
      <g>
        <g>
          <g>
            <g>
              <rect x="22.56" y="43.26" width="116.34" height="85.91" style="fill: #8314ff"/>
              <g>
                <polygon points="149.5 64.13 149.5 53.34 139.16 53.34 139.16 42.05 127.86 42.05 127.86 32.12 107.15 32.12 107.15 11.29 107.15 0 53.86 0 53.86 11.29 53.65 11.29 53.65 32.12 31.93 32.12 31.93 42.05 20.64 42.05 20.64 53.34 10.29 53.34 10.29 64.13 0 64.13 0 117.88 10.29 117.88 10.29 129.18 20.64 129.18 20.64 140.47 32.93 140.47 32.93 129.18 21.59 129.18 21.59 117.88 11.29 117.88 11.29 64.64 23.59 64.64 23.59 53.34 31.93 53.34 31.93 43.41 64.94 43.41 64.94 43.26 64.94 32.12 64.94 11.29 95.86 11.29 95.86 32.12 95.86 43.26 95.86 43.41 127.86 43.41 127.86 53.34 138.21 53.34 138.21 64.64 149.5 64.64 149.5 117.88 160.8 117.88 160.8 64.13 149.5 64.13"/>
                <polygon points="138.21 129.18 127.86 129.18 127.86 140.47 32.47 140.47 32.47 151.76 128.54 151.76 128.54 140.47 139.16 140.47 139.16 129.18 149.5 129.18 149.5 117.88 138.21 117.88 138.21 129.18"/>
              </g>
            </g>
            <g>
              <rect x="64.94" y="11.29" width="30.92" height="10.35" style="fill: #e8a811"/>
              <rect x="64.94" y="21.65" width="30.92" height="10.35" style="fill: #b32e00"/>
            </g>
          </g>
          <rect x="64.94" y="32" width="30.92" height="11.26" style="fill: #440986"/>
          <polygon points="42.91 129.18 42.91 117.88 32.93 117.88 32.93 106.59 22.56 106.59 22.56 65.22 33.49 65.22 33.49 54.53 43.73 54.53 43.73 43.26 32.47 43.26 32.47 53.95 22.22 53.95 22.22 64.64 11.29 64.64 11.29 106.59 11.29 117.88 21.64 117.88 21.64 129.18 32.47 129.18 32.47 140.47 128.54 140.47 128.54 129.18 42.91 129.18" style="fill: #440986"/>
        </g>
        <rect x="117.52" y="42.88" width="10.69" height="10.69" style="fill: #ac65f3"/>
        <rect x="128.21" y="53.95" width="10.69" height="10.69" style="fill: #ac65f3"/>
        <rect x="138.89" y="63.87" width="10.69" height="10.69" style="fill: #ac65f3"/>
        <g>
          <rect x="43.59" y="53.95" width="10.69" height="10.69" style="fill: #ac65f3"/>
          <rect x="75.05" y="63.87" width="10.69" height="10.69" style="fill: #ac65f3"/>
          <rect x="96.03" y="53.95" width="10.69" height="10.69" style="fill: #ac65f3"/>
          <rect x="53.03" y="107.79" width="10.69" height="10.69" style="fill: #ac65f3"/>
          <rect x="96.03" y="118.48" width="10.69" height="10.69" style="fill: #ac65f3"/>
          <rect x="117.52" y="107.79" width="10.69" height="10.69" style="fill: #ac65f3"/>
          <rect x="138.89" y="107.19" width="10.69" height="10.69" style="fill: #ac65f3"/>
        </g>
        <g>
          <rect x="22.56" y="74.56" width="126.95" height="33.23" style="fill: #fff"/>
          <rect x="53.03" y="85.65" width="33" height="11.06" style="fill: #999"/>
          <rect x="96.03" y="85.65" width="21.48" height="11.06" style="fill: #999"/>
          <rect x="11.29" y="74.45" width="11.06" height="33.34" style="fill: #999"/>
        </g>
      </g>
    </g>
  </g>
</svg>
