<svg xmlns="http://www.w3.org/2000/svg" viewBox="0 0 151.93493 145.35309">
  <g>
    <g>
      <circle cx="104.43493" cy="97.85309" r="47.5" fill="#fc0"/>
      <g>
        <path d="M124.51324,110.46348c-.27427.3256-.4832.614-.73173.86278q-9.258,9.26859-18.50847,18.54458c-.71313.71922-1.11657.61262-1.7703-.04552q-9.16708-9.22884-18.399-18.393c-.74684-.74028-.75549-1.18609.00448-1.90725,1.873-1.77736,3.70863-3.59883,5.47491-5.48172.78127-.83286,1.24114-.81506,2.03857.00484,3.3015,3.39455,6.6778,6.71637,10.027,10.06452,1.7591,1.75856,1.75978,1.75852,3.58153-.06318,3.30523-3.30516,6.63749-6.58407,9.89581-9.93485.8186-.84183,1.30089-.9663,2.15567-.03414,1.70264,1.85679,3.54249,3.58756,5.32026,5.37578C123.899,109.75513,124.16873,110.08108,124.51324,110.46348Z" fill="#fefefe"/>
        <path d="M124.39146,85.33212c-.19279.21692-.42026.49927-.67464.75484-1.77807,1.78637-3.63542,3.50109-5.3158,5.37469-1.00158,1.11675-1.56091.81666-2.451-.0977-3.43014-3.5239-6.96823-6.94286-10.39067-10.474-.913-.942-1.434-.89172-2.31985.01981-3.4273,3.52658-6.98727,6.9252-10.38,10.4838-1.05933,1.11111-1.62286.952-2.55251-.057-1.66473-1.807-3.42357-3.53192-5.21217-5.21786-.78054-.73573-.70056-1.18819.02538-1.90823q9.166-9.0914,18.25533-18.25979c.78689-.79462,1.24634-.82859,2.05224-.01421,6.05388,6.11759,12.1559,12.18752,18.23547,18.27974C123.95271,84.50621,124.366,84.73031,124.39146,85.33212Z" fill="#fefefe"/>
        <path d="M86.22015,97.86088c-.18414.21962-.35671.459-.56231.66547-1.98949,1.9979-4.00284,3.97252-5.96645,5.99543-.56335.58037-.93383.56752-1.48748-.0001q-2.95287-3.02739-5.98236-5.97944c-.61781-.59959-.4553-.97819.07348-1.49643,1.96984-1.93055,3.90645-3.895,5.86073-5.84145.38058-.37907.71636-.89025,1.34137-.25553,2.10721,2.14,4.24135,4.25337,6.36015,6.382A4.01078,4.01078,0,0,1,86.22015,97.86088Z" fill="#fefefd"/>
        <path d="M111.86256,97.83936c-.26046.29846-.479.57931-.7282.82957-1.95179,1.95991-3.93831,3.88634-5.84985,5.88459-.67941.71022-1.098.68222-1.76337-.01151-1.91414-1.99586-3.87652-3.947-5.8651-5.869-.62283-.602-.68192-.99271-.02858-1.6264,2.02917-1.96813,4.00836-3.98829,5.98515-6.00957.49852-.50974.87-.74942,1.49151-.1087,2.054,2.11749,4.16115,4.18344,6.24346,6.27357C111.51416,97.36911,111.64684,97.57008,111.86256,97.83936Z" fill="#fefefe"/>
        <path d="M137.04433,97.67331c.0292.50779-.32215.71034-.57111.96092-1.94412,1.95665-3.92341,3.8792-5.83366,5.86817-.66387.69123-1.05685.49375-1.62227-.08752-1.88032-1.933-3.77555-3.85368-5.72553-5.71576-.70976-.67777-.6762-1.095.01346-1.75568,1.947-1.86531,3.83307-3.79454,5.73158-5.71.45895-.46305.8205-.874,1.48128-.194,2.00738,2.066,4.06478,4.08327,6.09884,6.12336C136.78592,97.33231,136.926,97.53068,137.04433,97.67331Z" fill="#fefefd"/>
      </g>
    </g>
    <g>
      <circle cx="47.5" cy="47.5" r="47.5" fill="#f0b90c"/>
      <g>
        <path d="M47.40515,79.46386c-.33737-.31028-.61409-.54754-.87145-.8042-2.09248-2.08678-4.15557-4.204-6.286-6.25124-.69914-.67186-.68172-1.06921.00282-1.751Q55.49649,55.47323,70.68142,40.22788c.70672-.70949,1.13932-.8498,1.89966-.04975,2.03513,2.14142,4.135,4.22368,6.26585,6.2704.70553.67768.678,1.08442-.00465,1.76447Q63.53238,63.46464,48.26393,78.7579C48.0129,79.00874,47.71421,79.21189,47.40515,79.46386Z" fill="#fefefe"/>
        <path d="M59.53319,27.3067c.31609.26581.61207.48054.86812.73539,2.14069,2.13064,4.25267,4.29074,6.42265,6.391.65008.6292.5957,1.00413-.023,1.62078Q51.47677,51.32648,36.204,66.65062c-.60237.60436-.96929.70794-1.61021.04314-2.05317-2.12966-4.13184-4.2383-6.28123-6.26982-.83387-.78814-.80807-1.22775.00424-2.02592,4.61628-4.53594,9.17225-9.13324,13.74873-13.70967q8.1723-8.17221,16.34633-16.34265C58.75677,28.00112,59.127,27.68187,59.53319,27.3067Z" fill="#fefefe"/>
        <path d="M35.35,43.2899c-.32876-.29776-.60827-.53065-.86486-.78651-2.09137-2.08542-4.14452-4.21084-6.28441-6.24509-.79915-.7597-.65047-1.19309.055-1.893Q37.428,25.26435,46.52757,16.09039c.75156-.75835,1.204-.72573,1.91992.01962,2.04551,2.1296,4.144,4.20948,6.26088,6.26863.61425.5975.68275,1.00172.03837,1.64212q-9.36143,9.30335-18.6805,18.64932C35.85942,42.87668,35.62373,43.05439,35.35,43.2899Z" fill="#fefefe"/>
        <path d="M23.45615,55.17044c-.57053-.03828-.795-.4493-1.08735-.739-2.05584-2.03742-4.06748-4.12065-6.16112-6.1181-.76642-.73121-.762-1.18082.00183-1.90981,2.09327-1.99785,4.13435-4.05248,6.14247-6.1363.68821-.71416,1.1469-.86365,1.91033-.06263,2.03876,2.13916,4.16358,4.19626,6.25221,6.288.42712.42775.98507.78114.26783,1.48255-2.28927,2.23875-4.53762,4.51933-6.8063,6.77921A5.50468,5.50468,0,0,1,23.45615,55.17044Z" fill="#fefefe"/>
      </g>
    </g>
  </g>
</svg>
