<svg xmlns="http://www.w3.org/2000/svg" xmlns:xlink="http://www.w3.org/1999/xlink" viewBox="0 0 95 95">
  <defs>
    <linearGradient id="a" data-name="Gradiente sem nome" x1="42.01802" y1="196.96635" x2="42.01802" y2="166.36035" gradientTransform="matrix(1, 0, 0, -1, 0, 222.6543)" gradientUnits="userSpaceOnUse">
      <stop offset="0" stop-color="#9f4a08"/>
      <stop offset="0.37" stop-color="#7d3900"/>
      <stop offset="1" stop-color="#8d4104"/>
    </linearGradient>
  </defs>
  <g>
    <path d="M47.5,95A47.5,47.5,0,1,0,0,47.5,47.38582,47.38582,0,0,0,47.5,95Z" fill="#f9f9f9"/>
    <g>
      <path d="M18.918,54.143v.6a14.91937,14.91937,0,0,0,.2,2.1h-.2v1.1a9.15087,9.15087,0,0,0,.1,1.6c1.2,10.1,13.9,18,29.5,18s28.3-7.9,29.5-18a8.083,8.083,0,0,0,.1-1.6v-1.1h-.2a14.919,14.919,0,0,0,.2-2.1v-.6c-.4-10.5-13.5-19-29.6-19S19.418,43.643,18.918,54.143Zm-2.4,0c.2-6.4,4.2-11.8,9.8-15.5,5.8-3.8,13.6-6.1,22.2-6.1s16.4,2.3,22.2,6.1c5.6,3.7,9.6,9.1,9.8,15.5h0v3.7c0,6.7-4.1,12.3-9.8,16.1-5.8,3.8-13.6,6.1-22.2,6.1s-16.4-2.3-22.2-6.1c-5.7-3.8-9.8-9.4-9.8-16.1v-3.7Z" fill="#606063" fill-rule="evenodd"/>
      <path d="M78.118,57.843c0,10.8-13.2,19.5-29.6,19.5s-29.6-8.7-29.6-19.5v-3.1h59.1C78.118,54.74294,78.118,57.843,78.118,57.843Z" fill="#bebebe"/>
      <path d="M78.118,54.74294c0,10.8-13.2,19.5-29.6,19.5s-29.6-8.7-29.6-19.5,13.2-19.5,29.6-19.5,29.6,8.7,29.6,19.5Z" fill="#faf9fa"/>
      <path d="M23.518,49.143h0a10.89987,10.89987,0,0,0,.3,2.6h-.3v1.1a7.56868,7.56868,0,0,0,.1,1.5c1.1,7.4,10.6,13.2,22,13.2s20.9-5.8,22-13.2a7.56868,7.56868,0,0,0,.1-1.5v-1.1h-.3a10.67918,10.67918,0,0,0,.3-2.5v-.1h0c0-8.1-9.9-14.7-22.1-14.7s-22.1,6.6-22.1,14.7Zm-2.4,0h0v3.8c0,5.3,3.2,9.7,7.6,12.7a30.274,30.274,0,0,0,16.9,4.7,30.274,30.274,0,0,0,16.9-4.7c4.4-2.9,7.6-7.3,7.6-12.7v-3.7c0-5.3-3.2-9.7-7.6-12.7a30.274,30.274,0,0,0-16.9-4.7,30.274,30.274,0,0,0-16.9,4.7c-4.4,2.9-7.6,7.3-7.6,12.6Z" fill="#633001" fill-rule="evenodd"/>
      <path d="M67.818,52.94294c0,8.1-9.9,14.7-22.1,14.7s-22.2-6.5-22.2-14.7v-3.4h44.3Z" fill="#fedc90"/>
      <path d="M67.818,49.24294c0,8.1-9.9,14.7-22.1,14.7s-22.2-6.6-22.2-14.7,9.9-14.7,22.1-14.7S67.818,41.143,67.818,49.24294Z" fill="#d1884f"/>
      <path d="M30.218,41.24294h0a10.89987,10.89987,0,0,0,.3,2.6h-.3v1.1a7.56868,7.56868,0,0,0,.1,1.5c1.1,7.4,10.6,13.2,22,13.2s20.9-5.8,22-13.2a7.56942,7.56942,0,0,0,.1-1.5v-1.1h-.3a10.67916,10.67916,0,0,0,.3-2.5v-.1h0c0-8.1-9.9-14.7-22.1-14.7s-22.1,6.6-22.1,14.7Zm-2.5,0h0v3.8c0,5.3,3.2,9.7,7.6,12.7a30.274,30.274,0,0,0,16.9,4.7,30.274,30.274,0,0,0,16.9-4.7c4.4-2.9,7.6-7.3,7.6-12.7v-3.7c0-5.3-3.2-9.7-7.6-12.7a30.274,30.274,0,0,0-16.9-4.7,30.274,30.274,0,0,0-16.9,4.7C31.018,31.543,27.718,35.94294,27.718,41.24294Z" fill="#633001" fill-rule="evenodd"/>
      <path d="M74.418,45.043c0,8.1-9.9,14.7-22.1,14.7s-22.1-6.6-22.1-14.7v-3.5h44.3l-.1,3.5Z" fill="#fedc90"/>
      <path d="M74.418,41.343c0,8.1-9.9,14.7-22.1,14.7s-22.1-6.6-22.1-14.7,9.9-14.7,22.1-14.7,22.1,6.5,22.1,14.7Z" fill="#d1884f"/>
      <path d="M23.518,33.343h0a10.9,10.9,0,0,0,.3,2.6h-.3v1.1a7.56868,7.56868,0,0,0,.1,1.5c1.1,7.4,10.6,13.2,22,13.2s20.9-5.8,22-13.2a7.56868,7.56868,0,0,0,.1-1.5v-1.1h-.3a10.67924,10.67924,0,0,0,.3-2.5v-.1h0c0-8.1-9.9-14.7-22.1-14.7S23.518,25.24294,23.518,33.343Zm-2.4,0h0v3.8c0,5.3,3.2,9.7,7.6,12.7a30.274,30.274,0,0,0,16.9,4.7,30.274,30.274,0,0,0,16.9-4.7c4.4-2.9,7.6-7.3,7.6-12.7v-3.7c0-5.3-3.2-9.7-7.6-12.7a30.274,30.274,0,0,0-16.9-4.7,30.274,30.274,0,0,0-16.9,4.7C24.318,23.643,21.118,28.043,21.118,33.343Z" fill="#633001" fill-rule="evenodd"/>
      <path d="M67.818,37.143c0,8.1-9.9,14.7-22.1,14.7s-22.2-6.6-22.2-14.7v-3.5h44.3Z" fill="#fedc90"/>
      <path d="M67.818,33.343c0,8.1-9.9,14.7-22.1,14.7s-22.2-6.5-22.2-14.7c0-8.1,9.9-14.7,22.1-14.7S67.818,25.24294,67.818,33.343Z" fill="#d1884f"/>
      <g>
        <path d="M28.718,34.343c0,2.7,1.8,5.1,4.7,6.8l-2,3.7v9.4a2.22464,2.22464,0,0,0,2.1,2.3,2.16311,2.16311,0,0,0,2.1-2.3v-7.5l2.1-4a20.23521,20.23521,0,0,0,4.3.5c7.4,0,13.3-4,13.3-8.9s-6-8.9-13.3-8.9C34.718,25.34295,28.718,29.343,28.718,34.343Z" fill-rule="evenodd" fill="url(#a)"/>
        <path d="M33.418,41.043l-.9-.5c-2.3-1.6-3.8-3.8-3.8-6.2,0-4.9,6-8.9,13.3-8.9,7.4,0,13.3,4,13.3,8.9s-6,8.9-13.3,8.9a21.98356,21.98356,0,0,1-4.4-.5l-2.1,4v7.5a2.22464,2.22464,0,0,1-2.1,2.3,2.16311,2.16311,0,0,1-2.1-2.3v-9.4l2.1-3.8Zm-4.1,3.8v9.4a4.45279,4.45279,0,0,0,4.2,4.6,4.389,4.389,0,0,0,4.2-4.6v-6.9l1.1-2.1a18.28728,18.28728,0,0,0,3.3.2,18.80326,18.80326,0,0,0,10.5-3,9.93265,9.93265,0,0,0,4.9-8.3c0-3.6-2.2-6.4-4.9-8.3a18.80326,18.80326,0,0,0-10.5-3,18.80326,18.80326,0,0,0-10.5,3,9.93264,9.93264,0,0,0-4.9,8.3,9.86256,9.86256,0,0,0,3.9,7.6l-.9,1.8c-.1.2-.2.3-.2.5a1.34465,1.34465,0,0,0-.2.8Z" fill="#633001" fill-rule="evenodd"/>
      </g>
      <g>
        <path d="M32.918,30.543c0,2.6,3,4.6,6.7,4.6s6.7-2.1,6.7-4.6-3-4.6-6.7-4.6S32.918,28.043,32.918,30.543Z" fill="#9e7200"/>
        <path d="M32.918,28.543h13.3v2h-13.3Z" fill="#9e7200"/>
      </g>
      <path d="M32.918,28.543c0,2.6,3,4.6,6.7,4.6s6.7-2.1,6.7-4.6c0-2.6-3-4.6-6.7-4.6S32.918,26.043,32.918,28.543Z" fill="#f0b90b"/>
      <path d="M37.018,28.043l1.9-1.3a1.0514,1.0514,0,0,1,1.3,0l1.9,1.3a.6529.6529,0,0,1,0,1.1l-1.9,1.3a1.0514,1.0514,0,0,1-1.3,0l-1.9-1.3A.6529.6529,0,0,1,37.018,28.043Z" fill="#9e7200"/>
      <path d="M33.718,23.34295a11.08824,11.08824,0,0,1,11.8,0,6.328,6.328,0,0,1,2.9,5.2v2a6.58356,6.58356,0,0,1-2.9,5.2,11.08824,11.08824,0,0,1-11.8,0,6.328,6.328,0,0,1-2.9-5.2v-2A6.32794,6.32794,0,0,1,33.718,23.34295Zm5.9.6c-3.7,0-6.7,2.1-6.7,4.6v2c0,2.6,3,4.6,6.7,4.6s6.7-2.1,6.7-4.6v-2C46.218,26.043,43.218,23.94294,39.618,23.94294Z" fill="#633001" fill-rule="evenodd"/>
    </g>
  </g>
</svg>
