<svg xmlns="http://www.w3.org/2000/svg" xmlns:xlink="http://www.w3.org/1999/xlink" viewBox="0 0 151.93713 145.80696">
  <defs>
    <linearGradient id="a" data-name="Gradiente sem nome" x1="98.95515" y1="207.73708" x2="98.95515" y2="177.13108" gradientTransform="matrix(1, 0, 0, -1, 0, 284.23199)" gradientUnits="userSpaceOnUse">
      <stop offset="0" stop-color="#9f4a08"/>
      <stop offset="0.37" stop-color="#7d3900"/>
      <stop offset="1" stop-color="#8d4104"/>
    </linearGradient>
  </defs>
  <g>
    <g>
      <path d="M104.43713,145.807a47.5,47.5,0,1,0-47.5-47.5A47.38582,47.38582,0,0,0,104.43713,145.807Z" fill="#f9f9f9"/>
      <g>
        <path d="M75.85516,104.94991v.6a14.91923,14.91923,0,0,0,.2,2.1h-.2v1.1a9.1507,9.1507,0,0,0,.1,1.6c1.2,10.1,13.9,18,29.5,18s28.3-7.9,29.5-18a8.083,8.083,0,0,0,.1-1.6v-1.1h-.2a14.92016,14.92016,0,0,0,.2-2.1v-.6c-.4-10.5-13.5-19-29.6-19S76.35516,94.44991,75.85516,104.94991Zm-2.4,0c.2-6.4,4.2-11.8,9.8-15.5,5.8-3.8,13.6-6.1,22.2-6.1s16.4,2.3,22.2,6.1c5.6,3.7,9.6,9.1,9.8,15.5h0v3.7c0,6.7-4.1,12.3-9.8,16.1-5.8,3.8-13.6,6.1-22.2,6.1s-16.4-2.3-22.2-6.1c-5.7-3.8-9.8-9.4-9.8-16.1v-3.7Z" fill="#606063" fill-rule="evenodd"/>
        <path d="M135.05516,108.64991c0,10.8-13.2,19.5-29.6,19.5s-29.6-8.7-29.6-19.5v-3.1h59.1C135.05516,105.5499,135.05516,108.64991,135.05516,108.64991Z" fill="#bebebe"/>
        <path d="M135.05516,105.5499c0,10.8-13.2,19.5-29.6,19.5s-29.6-8.7-29.6-19.5,13.2-19.5,29.6-19.5,29.6,8.7,29.6,19.5Z" fill="#faf9fa"/>
        <path d="M80.45516,99.94991h0a10.9,10.9,0,0,0,.3,2.6h-.3v1.1a7.56868,7.56868,0,0,0,.1,1.5c1.1,7.4,10.6,13.2,22,13.2s20.9-5.8,22-13.2a7.56942,7.56942,0,0,0,.1-1.5v-1.1h-.3a10.67922,10.67922,0,0,0,.3-2.5v-.1h0c0-8.1-9.9-14.7-22.1-14.7s-22.1,6.6-22.1,14.7Zm-2.4,0h0v3.8c0,5.3,3.2,9.7,7.6,12.7a30.274,30.274,0,0,0,16.9,4.7,30.274,30.274,0,0,0,16.9-4.7c4.4-2.9,7.6-7.3,7.6-12.7v-3.7c0-5.3-3.2-9.7-7.6-12.7a30.274,30.274,0,0,0-16.9-4.7,30.274,30.274,0,0,0-16.9,4.7c-4.4,2.9-7.6,7.3-7.6,12.6Z" fill="#633001" fill-rule="evenodd"/>
        <path d="M124.75516,103.7499c0,8.1-9.9,14.7-22.1,14.7s-22.2-6.5-22.2-14.7v-3.4h44.3Z" fill="#fedc90"/>
        <path d="M124.75516,100.0499c0,8.1-9.9,14.7-22.1,14.7s-22.2-6.6-22.2-14.7,9.9-14.7,22.1-14.7S124.75516,91.94991,124.75516,100.0499Z" fill="#d1884f"/>
        <path d="M87.15515,92.0499h0a10.89941,10.89941,0,0,0,.3,2.6h-.3v1.1a7.56868,7.56868,0,0,0,.1,1.5c1.1,7.4,10.6,13.2,22,13.2s20.9-5.8,22-13.2a7.56868,7.56868,0,0,0,.1-1.5v-1.1h-.3a10.67924,10.67924,0,0,0,.3-2.5v-.1h0c0-8.1-9.9-14.7-22.1-14.7s-22.1,6.6-22.1,14.7Zm-2.5,0h0v3.8c0,5.3,3.2,9.7,7.6,12.7a30.274,30.274,0,0,0,16.9,4.7,30.274,30.274,0,0,0,16.9-4.7c4.4-2.9,7.6-7.3,7.6-12.7v-3.7c0-5.3-3.2-9.7-7.6-12.7a30.274,30.274,0,0,0-16.9-4.7,30.274,30.274,0,0,0-16.9,4.7C87.95516,82.3499,84.65515,86.7499,84.65515,92.0499Z" fill="#633001" fill-rule="evenodd"/>
        <path d="M131.35516,95.8499c0,8.1-9.9,14.7-22.1,14.7s-22.1-6.6-22.1-14.7v-3.5h44.3l-.1,3.5Z" fill="#fedc90"/>
        <path d="M131.35516,92.14991c0,8.1-9.9,14.7-22.1,14.7s-22.1-6.6-22.1-14.7,9.9-14.7,22.1-14.7,22.1,6.5,22.1,14.7Z" fill="#d1884f"/>
        <path d="M80.45516,84.14991h0a10.89984,10.89984,0,0,0,.3,2.6h-.3v1.1a7.56868,7.56868,0,0,0,.1,1.5c1.1,7.4,10.6,13.2,22,13.2s20.9-5.8,22-13.2a7.56942,7.56942,0,0,0,.1-1.5v-1.1h-.3a10.6791,10.6791,0,0,0,.3-2.5v-.1h0c0-8.1-9.9-14.7-22.1-14.7S80.45516,76.0499,80.45516,84.14991Zm-2.4,0h0v3.8c0,5.3,3.2,9.7,7.6,12.7a30.274,30.274,0,0,0,16.9,4.7,30.274,30.274,0,0,0,16.9-4.7c4.4-2.9,7.6-7.3,7.6-12.7v-3.7c0-5.3-3.2-9.7-7.6-12.7a30.274,30.274,0,0,0-16.9-4.7,30.274,30.274,0,0,0-16.9,4.7C81.25516,74.44991,78.05516,78.8499,78.05516,84.14991Z" fill="#633001" fill-rule="evenodd"/>
        <path d="M124.75516,87.94991c0,8.1-9.9,14.7-22.1,14.7s-22.2-6.6-22.2-14.7v-3.5h44.3Z" fill="#fedc90"/>
        <path d="M124.75516,84.14991c0,8.1-9.9,14.7-22.1,14.7s-22.2-6.5-22.2-14.7c0-8.1,9.9-14.7,22.1-14.7S124.75516,76.0499,124.75516,84.14991Z" fill="#d1884f"/>
        <g>
          <path d="M85.65515,85.14991c0,2.7,1.8,5.1,4.7,6.8l-2,3.7v9.4a2.22463,2.22463,0,0,0,2.1,2.3,2.1631,2.1631,0,0,0,2.1-2.3v-7.5l2.1-4a20.23585,20.23585,0,0,0,4.3.5c7.4,0,13.3-4,13.3-8.9s-6-8.9-13.3-8.9C91.65515,76.14991,85.65515,80.14991,85.65515,85.14991Z" fill-rule="evenodd" fill="url(#a)"/>
          <path d="M90.35516,91.8499l-.9-.5c-2.3-1.6-3.8-3.8-3.8-6.2,0-4.9,6-8.9,13.3-8.9,7.4,0,13.3,4,13.3,8.9s-6,8.9-13.3,8.9a21.98429,21.98429,0,0,1-4.4-.5l-2.1,4v7.5a2.22463,2.22463,0,0,1-2.1,2.3,2.1631,2.1631,0,0,1-2.1-2.3v-9.4l2.1-3.8Zm-4.1,3.8v9.4a4.45278,4.45278,0,0,0,4.2,4.6,4.389,4.389,0,0,0,4.2-4.6v-6.9l1.1-2.1a18.28744,18.28744,0,0,0,3.3.2,18.80334,18.80334,0,0,0,10.5-3,9.93265,9.93265,0,0,0,4.9-8.3c0-3.6-2.2-6.4-4.9-8.3a19.875,19.875,0,0,0-21,0,9.42177,9.42177,0,0,0-1,15.9l-.9,1.8c-.1.2-.2.3-.2.5a1.3447,1.3447,0,0,0-.2.8Z" fill="#633001" fill-rule="evenodd"/>
        </g>
        <g>
          <path d="M89.85516,81.3499c0,2.6,3,4.6,6.7,4.6s6.7-2.1,6.7-4.6-3-4.6-6.7-4.6S89.85516,78.8499,89.85516,81.3499Z" fill="#9e7200"/>
          <path d="M89.85516,79.3499h13.3v2h-13.3Z" fill="#9e7200"/>
        </g>
        <path d="M89.85516,79.3499c0,2.6,3,4.6,6.7,4.6s6.7-2.1,6.7-4.6c0-2.6-3-4.6-6.7-4.6S89.85516,76.8499,89.85516,79.3499Z" fill="#f0b90b"/>
        <path d="M93.95516,78.8499l1.9-1.3a1.05139,1.05139,0,0,1,1.3,0l1.9,1.3a.6529.6529,0,0,1,0,1.1l-1.9,1.3a1.05136,1.05136,0,0,1-1.3,0l-1.9-1.3A.65291.65291,0,0,1,93.95516,78.8499Z" fill="#9e7200"/>
        <path d="M90.65515,74.14991a11.08825,11.08825,0,0,1,11.8,0,6.328,6.328,0,0,1,2.9,5.2v2a6.58356,6.58356,0,0,1-2.9,5.2,11.08825,11.08825,0,0,1-11.8,0,6.328,6.328,0,0,1-2.9-5.2v-2A6.328,6.328,0,0,1,90.65515,74.14991Zm5.9.6c-3.7,0-6.7,2.1-6.7,4.6v2c0,2.6,3,4.6,6.7,4.6s6.7-2.1,6.7-4.6v-2C103.15515,76.8499,100.15515,74.7499,96.55516,74.7499Z" fill="#633001" fill-rule="evenodd"/>
      </g>
    </g>
    <g>
      <circle cx="47.5" cy="47.5" r="47.5" fill="#fc0"/>
      <g>
        <path d="M67.57831,60.11038c-.27427.32561-.4832.614-.73173.86279q-9.258,9.26859-18.50847,18.54457c-.71313.71923-1.11657.61263-1.7703-.04551q-9.16708-9.22884-18.399-18.393c-.74683-.74028-.75548-1.18609.00448-1.90725,1.873-1.77737,3.70864-3.59883,5.47491-5.48172.78127-.83287,1.24114-.81507,2.03857.00484,3.3015,3.39455,6.6778,6.71637,10.027,10.06452,1.7591,1.75856,1.75978,1.75852,3.58153-.06318,3.30524-3.30516,6.63749-6.58407,9.89581-9.93485.81861-.84183,1.30089-.9663,2.15567-.03414,1.70264,1.85678,3.5425,3.58756,5.32026,5.37578C66.96407,59.402,67.2338,59.728,67.57831,60.11038Z" fill="#fefefe"/>
        <path d="M67.45653,34.979c-.19279.21693-.42026.49928-.67464.75484-1.77807,1.78637-3.63541,3.50109-5.3158,5.3747-1.00157,1.11674-1.56091.81666-2.45095-.09771C55.585,37.487,52.04691,34.068,48.62447,30.53685c-.913-.942-1.434-.89173-2.31985.01981-3.4273,3.52658-6.98727,6.9252-10.38,10.48379-1.05933,1.11112-1.62286.95206-2.55251-.057-1.66473-1.807-3.42357-3.53192-5.21217-5.21786-.78054-.73573-.70056-1.1882.02538-1.90823q9.166-9.09139,18.25533-18.25979c.78689-.79462,1.24634-.8286,2.05224-.01421,6.05388,6.11759,12.15591,12.18752,18.23547,18.27974C67.01778,34.15312,67.43111,34.37721,67.45653,34.979Z" fill="#fefefe"/>
        <path d="M29.28522,47.50778c-.18413.21962-.35671.459-.56231.66547-1.98949,1.99791-4.00284,3.97252-5.96645,5.99544-.56335.58037-.93383.56752-1.48748-.0001q-2.95285-3.02739-5.98236-5.97944c-.61781-.59959-.4553-.97819.07349-1.49643,1.96983-1.93055,3.90645-3.895,5.86072-5.84145.38059-.37908.71636-.89025,1.34137-.25553,2.10721,2.14,4.24135,4.25337,6.36016,6.382A4.01231,4.01231,0,0,1,29.28522,47.50778Z" fill="#fefefd"/>
        <path d="M54.92764,47.48627c-.26047.29846-.479.57931-.72821.82957-1.95179,1.9599-3.93831,3.88634-5.84985,5.88458-.67941.71023-1.098.68223-1.76337-.01151-1.91414-1.99585-3.87652-3.947-5.8651-5.869-.62282-.602-.68192-.99271-.02858-1.62641,2.02917-1.96813,4.00836-3.98828,5.98515-6.00956.49852-.50974.87-.74942,1.49151-.1087,2.054,2.11749,4.16115,4.18343,6.24347,6.27357C54.57923,47.016,54.71191,47.217,54.92764,47.48627Z" fill="#fefefe"/>
        <path d="M80.1094,47.32021c.0292.5078-.32215.71034-.57111.96093-1.94412,1.95665-3.92341,3.87919-5.83366,5.86816-.66387.69123-1.05685.49376-1.62227-.08751C70.202,52.12874,68.30681,50.2081,66.35683,48.346c-.70976-.67777-.6762-1.095.01346-1.75569,1.947-1.8653,3.83307-3.79453,5.73158-5.71.459-.46306.82051-.874,1.48129-.194,2.00737,2.066,4.06477,4.08327,6.09883,6.12336C79.851,46.97921,79.991,47.17759,80.1094,47.32021Z" fill="#fefefd"/>
      </g>
    </g>
  </g>
</svg>
