<svg xmlns="http://www.w3.org/2000/svg" viewBox="0 0 151.93713 145.85964">
  <g>
    <g>
      <path d="M104.43713,50.85964a47.5,47.5,0,1,1-47.5,47.5A47.49966,47.49966,0,0,1,104.43713,50.85964Z" fill="#f5ac37"/>
      <path d="M106.18776,101.71341H124.237c.38475,0,.56644,0,.59423-.50445a34.50269,34.50269,0,0,0,0-5.52122c0-.357-.17741-.50445-.56431-.50445h-35.921c-.4446,0-.5643.14749-.5643.5643v5.284c0,.68186,0,.68186.71179.68186ZM122.81554,89.008a.5779.5779,0,0,0,0-.41468,11.73862,11.73862,0,0,0-1.073-1.87033,15.14492,15.14492,0,0,0-2.19737-2.76168,7.28342,7.28342,0,0,0-1.36588-1.33595,21.33951,21.33951,0,0,0-8.907-4.51231,22.14111,22.14111,0,0,0-5.04669-.53438H88.28388c-.44461,0-.50446.17742-.50446.56431V88.681c0,.4446,0,.5643.56431.5643h34.25806s.29711-.05985.357-.23726h-.14321Zm0,18.88072a6.9275,6.9275,0,0,0-1.51764,0H88.37579c-.4446,0-.59423,0-.59423.59423V118.7858c0,.47453,0,.59423.59423.59423h15.19992a7.592,7.592,0,0,0,2.16531-.14749,22.62782,22.62782,0,0,0,6.44462-1.42573,11.79533,11.79533,0,0,0,2.16531-1.00891h.20734a19.28683,19.28683,0,0,0,8.2829-8.33847s.20734-.44889-.02565-.56645Zm-40.9998,16.833V108.30553c0-.38689,0-.4446-.47453-.4446H74.89872c-.357,0-.50445,0-.50445-.47453v-5.64092h6.88709c.38476,0,.53438,0,.53438-.50446V95.66c0-.357,0-.44461-.47453-.44461H74.89872c-.357,0-.50445,0-.50445-.47453v-5.2241c0-.327,0-.41468.47453-.41468h6.38264c.4446,0,.5643,0,.5643-.56431V72.53625c0-.47453,0-.59423.59423-.59423H104.6744a33.92226,33.92226,0,0,1,4.80942.53438,29.01845,29.01845,0,0,1,9.2918,3.44355,26.18556,26.18556,0,0,1,5.22411,4.03777,28.60787,28.60787,0,0,1,3.17635,3.948,23.81,23.81,0,0,1,2.31921,4.54223.773.773,0,0,0,.88707.62415h5.31388c.68187,0,.68187,0,.7118.65408v4.86928c0,.47453-.17742.59423-.65409.59423h-4.09763c-.41468,0-.53438,0-.50445.53438a30.32534,30.32534,0,0,1,0,5.43144c0,.50446,0,.56431.56644.56431h4.68759c.20734.26719,0,.53438,0,.8037a5.998,5.998,0,0,1,0,1.0367v3.59318c0,.50445-.14749.65408-.59423.65408h-5.611a.74278.74278,0,0,0-.86142.56431,23.73949,23.73949,0,0,1-6.23515,9.08447,35.7592,35.7592,0,0,1-3.17636,2.5522c-1.18846.684-2.34486,1.3958-3.56325,1.96011a32.09816,32.09816,0,0,1-7.00679,2.22516,36.52937,36.52937,0,0,1-6.947.56431H81.80719v-.02993Z" fill="#fefefd"/>
    </g>
    <g>
      <circle cx="47.5" cy="47.5" r="47.5" fill="#f0b90c"/>
      <g>
        <path d="M47.40515,79.46386c-.33737-.31028-.61409-.54754-.87145-.8042-2.09248-2.08678-4.15557-4.204-6.286-6.25124-.69914-.67186-.68172-1.06921.00282-1.751Q55.49649,55.47323,70.68142,40.22788c.70672-.70949,1.13932-.8498,1.89966-.04975,2.03513,2.14142,4.135,4.22368,6.26585,6.2704.70553.67768.678,1.08442-.00465,1.76447Q63.53238,63.46464,48.26393,78.7579C48.0129,79.00874,47.71421,79.21189,47.40515,79.46386Z" fill="#fefefe"/>
        <path d="M59.53319,27.3067c.31609.26581.61207.48054.86812.73539,2.14069,2.13064,4.25267,4.29074,6.42265,6.391.65008.6292.5957,1.00413-.023,1.62078Q51.47677,51.32648,36.204,66.65062c-.60237.60436-.96929.70794-1.61021.04314-2.05317-2.12966-4.13184-4.2383-6.28123-6.26982-.83387-.78814-.80807-1.22775.00424-2.02592,4.61628-4.53594,9.17225-9.13324,13.74873-13.70967q8.1723-8.17221,16.34633-16.34265C58.75677,28.00112,59.127,27.68187,59.53319,27.3067Z" fill="#fefefe"/>
        <path d="M35.35,43.2899c-.32876-.29776-.60827-.53065-.86486-.78651-2.09137-2.08542-4.14452-4.21084-6.28441-6.24509-.79915-.7597-.65047-1.19309.055-1.893Q37.428,25.26435,46.52757,16.09039c.75156-.75835,1.204-.72573,1.91992.01962,2.04551,2.1296,4.144,4.20948,6.26088,6.26863.61425.5975.68275,1.00172.03837,1.64212q-9.36143,9.30335-18.6805,18.64932C35.85942,42.87668,35.62373,43.05439,35.35,43.2899Z" fill="#fefefe"/>
        <path d="M23.45615,55.17044c-.57053-.03828-.795-.4493-1.08735-.739-2.05584-2.03742-4.06748-4.12065-6.16112-6.1181-.76642-.73121-.762-1.18082.00183-1.90981,2.09327-1.99785,4.13435-4.05248,6.14247-6.1363.68821-.71416,1.1469-.86365,1.91033-.06263,2.03876,2.13916,4.16358,4.19626,6.25221,6.288.42712.42775.98507.78114.26783,1.48255-2.28927,2.23875-4.53762,4.51933-6.8063,6.77921A5.50468,5.50468,0,0,1,23.45615,55.17044Z" fill="#fefefe"/>
      </g>
    </g>
  </g>
</svg>
