<svg xmlns="http://www.w3.org/2000/svg" viewBox="0 0 95 95">
  <g>
    <path d="M47.5,0A47.5,47.5,0,1,1,0,47.5,47.49965,47.49965,0,0,1,47.5,0Z" fill="#f5ac37"/>
    <path d="M49.25063,50.85377H67.29986c.38475,0,.56644,0,.59423-.50445a34.50269,34.50269,0,0,0,0-5.52122c0-.357-.17741-.50446-.56431-.50446h-35.921c-.44461,0-.56431.14749-.56431.56431v5.284c0,.68187,0,.68187.7118.68187ZM65.87841,38.14834a.5779.5779,0,0,0,0-.41468,11.739,11.739,0,0,0-1.073-1.87033A15.14528,15.14528,0,0,0,62.608,33.10166a7.28372,7.28372,0,0,0-1.36588-1.336,21.33951,21.33951,0,0,0-8.90705-4.51231,22.14061,22.14061,0,0,0-5.04669-.53438H31.34675c-.4446,0-.50445.17741-.50445.5643v10.538c0,.44461,0,.56431.5643.56431H65.66466s.29712-.05985.357-.23727h-.14322Zm0,18.88073a6.9275,6.9275,0,0,0-1.51764,0H31.43866c-.4446,0-.59423,0-.59423.59423V67.92615c0,.47453,0,.59423.59423.59423H46.63858a7.59166,7.59166,0,0,0,2.16531-.14749,22.6274,22.6274,0,0,0,6.44462-1.42572,11.79577,11.79577,0,0,0,2.16532-1.00892h.20733a19.28662,19.28662,0,0,0,8.2829-8.33847s.20734-.44888-.02565-.56644Zm-40.9998,16.833V57.44589c0-.38689,0-.4446-.47453-.4446H17.9616c-.357,0-.50446,0-.50446-.47453V50.88584h6.88709c.38476,0,.53438,0,.53438-.50446V44.80031c0-.357,0-.4446-.47453-.4446H17.9616c-.357,0-.50446,0-.50446-.47453v-5.2241c0-.327,0-.41468.47453-.41468h6.38264c.4446,0,.5643,0,.5643-.56431V21.6766c0-.47453,0-.59423.59423-.59423H47.73727a33.92372,33.92372,0,0,1,4.80942.53438A29.01874,29.01874,0,0,1,61.8385,25.0603a26.1862,26.1862,0,0,1,5.2241,4.03778,28.6063,28.6063,0,0,1,3.17635,3.948,23.81089,23.81089,0,0,1,2.31922,4.54223.773.773,0,0,0,.88707.62416h5.31388c.68187,0,.68187,0,.71179.65408v4.86927c0,.47453-.17741.59424-.65408.59424H74.7192c-.41468,0-.53438,0-.50446.53438a30.32534,30.32534,0,0,1,0,5.43144c0,.50445,0,.5643.56645.5643h4.68758c.20734.26719,0,.53438,0,.80371a5.996,5.996,0,0,1,0,1.0367v3.59318c0,.50445-.14749.65408-.59423.65408h-5.611a.74277.74277,0,0,0-.86142.56431A23.73938,23.73938,0,0,1,66.167,66.59662a35.75691,35.75691,0,0,1-3.17635,2.5522c-1.18846.684-2.34486,1.3958-3.56325,1.96011a32.09825,32.09825,0,0,1-7.0068,2.22516,36.52852,36.52852,0,0,1-6.94694.56431H24.87006v-.02993Z" fill="#fefefd"/>
  </g>
</svg>
