<svg xmlns="http://www.w3.org/2000/svg" viewBox="0 0 95 95">
  <g>
    <path d="M47.5,95A47.5,47.5,0,1,0,0,47.5,47.38582,47.38582,0,0,0,47.5,95Z" fill="#f9f9f9"/>
    <g>
      <path d="M49.66953,13.34009A26.38541,26.38541,0,0,0,23.39047,39.61915a26.9939,26.9939,0,0,0,1.38574,8.53612,3.61674,3.61674,0,1,0,6.85661-2.30309,17.3392,17.3392,0,0,1-1.02267-6.69864A18.95712,18.95712,0,1,1,50.70883,58.64528s-3.68883.22449-5.52354.449a19.07772,19.07772,0,0,0-2.00931.39909.24172.24172,0,0,1-.34366.00277l-.00277-.00277a.24119.24119,0,0,1,0-.29378l.57092-3.11513,3.46434-15.58119a3.6023,3.6023,0,0,0-7.04508-1.50768s-8.23957,38.13818-8.23957,38.48461A3.46256,3.46256,0,0,0,34.08279,81.69a.48522.48522,0,0,0,.061.01386H34.335a3.46049,3.46049,0,0,0,4.21817-2.486.93546.93546,0,0,0,.02217-.09423.8902.8902,0,0,1,0-.17183c.10255-.449,1.14185-5.52353,1.14185-5.52353a9.34808,9.34808,0,0,1,7.73794-7.35825c.79541-.12195,4.1378-.34644,4.1378-.34644a26.26088,26.26088,0,0,0-1.9234-52.38352Z" fill="#1e1e1e"/>
      <path d="M51.26313,73.9327a4.3792,4.3792,0,0,0-5.17988,3.395c-.00554.02217-.00831.04435-.01385.06651a4.36178,4.36178,0,0,0,3.33407,5.191l.00832.00278h.12194a4.29113,4.29113,0,0,0,5.17988-3.165c.00554-.01663.00831-.036.01385-.05265v-.24112A4.5411,4.5411,0,0,0,51.26313,73.9327Z" fill="#e6007a"/>
    </g>
  </g>
</svg>
