<svg xmlns="http://www.w3.org/2000/svg" viewBox="0 0 95 95">
  <g>
    <circle cx="47.5" cy="47.5" r="47.5" fill="#f9f9f9"/>
    <g>
      <polygon points="47.494 15.183 47.061 16.656 47.061 59.393 47.494 59.826 67.332 48.099 47.494 15.183" fill="#343434"/>
      <polygon points="47.494 15.183 27.656 48.099 47.494 59.826 47.494 39.082 47.494 15.183" fill="#8c8c8c"/>
      <polygon points="47.494 63.582 47.25 63.88 47.25 79.104 47.494 79.817 67.344 51.862 47.494 63.582" fill="#3c3c3b"/>
      <polygon points="47.494 79.817 47.494 63.582 27.656 51.861 47.494 79.817" fill="#8c8c8c"/>
      <polygon points="47.494 59.826 67.332 48.1 47.494 39.083 47.494 59.826" fill="#141414"/>
      <polygon points="27.656 48.1 47.494 59.826 47.494 39.083 27.656 48.1" fill="#393939"/>
    </g>
  </g>
</svg>
