<svg xmlns="http://www.w3.org/2000/svg" viewBox="0 0 152.95725 145.75001">
  <g>
    <g>
      <circle cx="92.45303" cy="85.24578" r="60.50423" fill="#ffc41d"/>
      <path d="M134.21655,113.58851c0,12.83742-14.53871,15.54417-23.35478,5.80017-13.37821-14.61577,10.36278-47.55952,7.579-53.12757-2.243-4.176-12.60531,8.50644-19.9522,19.33342-2.47465,6.10886-4.79424,11.29025-5.56762,12.37276-1.70128,2.62969-14.61624.30962-11.75491-5.72218,4.71765-9.58942,12.52827-26.2161,11.36824-29.38658-1.23755-3.01589-12.83742,9.89859-20.49345,20.57052-2.24255,7.81061-5.10386,15.5437-9.821,20.02925h.07752c-.07752.077-.15505.15458-.2321.15458a12.6562,12.6562,0,0,1-1.93339,1.62376c-.07752,0-.07752,0-.15457.07753-7.50146,5.413-12.29618,2.16549-16.54916-5.64512a8.89257,8.89257,0,0,1,1.31461-1.46966c-.30963.30962,3.47963,3.0159,8.89312-.46372C62.99311,91.08508,67.169,66.26111,72.19584,57.83172c-4.64013-.077-9.667,1.31461-13.76535,7.50146-3.55716,5.336,2.165,8.97064,3.248,8.97064a.97125.97125,0,0,0,.30916.77336c-11.832,5.72264-16.3946-6.57352-9.12522-13.76535C60.13179,54.197,70.417,54.42915,77.841,54.12c2.47465-.15457,10.43983-.54125,8.19729,3.78926-.77336,1.00546-2.32009,1.16-4.176,1.00546-2.8613,1.54671-4.71716,6.341-6.41893,12.29569,15.77627-20.33864,31.08787-13.53325,29.77325-5.87722a61.77029,61.77029,0,0,1-2.32008,8.35187c12.91448-17.245,24.2827-18.5596,28.072-11.52235,5.02636,9.74355-14.152,35.0317-9.35729,49.41537,2.39712,7.34641,8.35187,4.64013,10.51736,2.01044Z" fill="#fff"/>
    </g>
    <g>
      <circle cx="31.9488" cy="31.9488" r="31.9488" fill="#f0b90c"/>
      <g>
        <path d="M31.885,53.44789c-.22692-.20869-.413-.36828-.58614-.54091-1.40742-1.40358-2.79507-2.82764-4.228-4.20462-.47025-.4519-.45853-.71916.00189-1.17772q10.25451-10.213,20.468-20.46711c.47535-.47721.76631-.57159,1.27772-.03347,1.36884,1.44034,2.78123,2.84088,4.21445,4.21752.47454.45581.456.72938-.00312,1.18679Q42.73228,42.68672,32.46263,52.97306C32.29378,53.14178,32.09288,53.27841,31.885,53.44789Z" fill="#fefefe"/>
        <path d="M40.0424,18.36666c.2126.17878.41168.32322.5839.49463,1.43984,1.43308,2.86038,2.886,4.31991,4.29861.43726.4232.40068.67538-.01548,1.09014Q34.6236,34.52251,24.35105,44.82963c-.40517.40649-.652.47616-1.083.029-1.381-1.43242-2.7791-2.8507-4.22479-4.21712-.56087-.5301-.54352-.82579.00285-1.36264,3.10493-3.05091,6.16931-6.14308,9.24748-9.22122Q33.79028,24.561,39.28819,19.0655C39.52017,18.83373,39.76918,18.619,40.0424,18.36666Z" fill="#fefefe"/>
        <path d="M23.77661,29.11706c-.22113-.20028-.40913-.35692-.58172-.529-1.40667-1.40266-2.78763-2.83223-4.22693-4.20048-.53751-.511-.43751-.80248.037-1.27327q6.16935-6.12132,12.28979-12.2918c.50551-.51006.80983-.48812,1.29136.0132,1.37582,1.43239,2.78729,2.83133,4.2111,4.21632.41315.40189.45923.67377.02581,1.1045Q30.52645,22.414,24.25838,28.70016C24.11927,28.83913,23.96074,28.95865,23.77661,29.11706Z" fill="#fefefe"/>
        <path d="M15.77675,37.108c-.38374-.02575-.53471-.3022-.73135-.49709-1.38278-1.37038-2.73582-2.77157-4.144-4.11507-.5155-.49182-.51251-.79423.00123-1.28455,1.40795-1.34376,2.78079-2.72572,4.13146-4.12731.4629-.48035.77142-.5809,1.2849-.04213,1.37129,1.43881,2.80045,2.82243,4.20528,4.22932.28728.2877.66256.5254.18014.99717-1.53978,1.5058-3.052,3.03972-4.578,4.55974A3.70476,3.70476,0,0,1,15.77675,37.108Z" fill="#fefefe"/>
      </g>
    </g>
  </g>
</svg>
