<?xml version="1.0" encoding="UTF-8" standalone="no"?>
<svg
   xmlns:dc="http://purl.org/dc/elements/1.1/"
   xmlns:cc="http://creativecommons.org/ns#"
   xmlns:rdf="http://www.w3.org/1999/02/22-rdf-syntax-ns#"
   xmlns:svg="http://www.w3.org/2000/svg"
   xmlns="http://www.w3.org/2000/svg"
   xmlns:sodipodi="http://sodipodi.sourceforge.net/DTD/sodipodi-0.dtd"
   xmlns:inkscape="http://www.inkscape.org/namespaces/inkscape"
   width="64mm"
   height="64mm"
   viewBox="0 0 63.999998 64"
   version="1.1"
   id="svg4615"
   inkscape:version="1.0.1 (3bc2e813f5, 2020-09-07)"
   sodipodi:docname="MONEY.svg"
   inkscape:export-filename="logo.png"
   inkscape:export-xdpi="206.375"
   inkscape:export-ydpi="206.375">
  <defs
     id="defs4609">
    <clipPath
       clipPathUnits="userSpaceOnUse"
       id="clipPath3201-4">
      <rect
         style="opacity:1;fill:#ffffff;fill-opacity:1;stroke:none;stroke-width:3.20266;stroke-linecap:round;stroke-linejoin:round;stroke-miterlimit:4;stroke-dasharray:none;stroke-opacity:1"
         id="rect3203-9"
         width="172.32408"
         height="55.008789"
         x="433.53275"
         y="-103.58672"
         transform="matrix(1,0,0.46622809,0.88466455,0,0)" />
    </clipPath>
    <clipPath
       clipPathUnits="userSpaceOnUse"
       id="clipPath3205-2">
      <rect
         style="opacity:1;fill:#ffffff;fill-opacity:1;stroke:none;stroke-width:3.20266;stroke-linecap:round;stroke-linejoin:round;stroke-miterlimit:4;stroke-dasharray:none;stroke-opacity:1"
         id="rect3207-06"
         width="172.32405"
         height="55.008789"
         x="433.53275"
         y="-103.58672"
         transform="matrix(1,0,0.46622809,0.88466455,0,0)" />
    </clipPath>
    <clipPath
       clipPathUnits="userSpaceOnUse"
       id="clipPath3201-8-3-6">
      <rect
         style="opacity:1;fill:#ffffff;fill-opacity:1;stroke:none;stroke-width:3.20266;stroke-linecap:round;stroke-linejoin:round;stroke-miterlimit:4;stroke-dasharray:none;stroke-opacity:1"
         id="rect3203-4-6-1"
         width="172.32408"
         height="55.008789"
         x="433.53275"
         y="-103.58672"
         transform="matrix(1,0,0.46622809,0.88466455,0,0)" />
    </clipPath>
    <clipPath
       clipPathUnits="userSpaceOnUse"
       id="clipPath3205-5-5-1">
      <rect
         style="opacity:1;fill:#ffffff;fill-opacity:1;stroke:none;stroke-width:3.20266;stroke-linecap:round;stroke-linejoin:round;stroke-miterlimit:4;stroke-dasharray:none;stroke-opacity:1"
         id="rect3207-0-6-5"
         width="172.32405"
         height="55.008789"
         x="433.53275"
         y="-103.58672"
         transform="matrix(1,0,0.46622809,0.88466455,0,0)" />
    </clipPath>
  </defs>
  <sodipodi:namedview
     id="base"
     pagecolor="#ffffff"
     bordercolor="#666666"
     borderopacity="1.0"
     inkscape:pageopacity="0.0"
     inkscape:pageshadow="2"
     inkscape:zoom="1.979899"
     inkscape:cx="171.68827"
     inkscape:cy="80.073939"
     inkscape:document-units="mm"
     inkscape:current-layer="layer1"
     inkscape:document-rotation="0"
     showgrid="false"
     fit-margin-top="0"
     fit-margin-left="0"
     fit-margin-right="0"
     fit-margin-bottom="0"
     inkscape:window-width="1920"
     inkscape:window-height="1043"
     inkscape:window-x="1920"
     inkscape:window-y="0"
     inkscape:window-maximized="1"
     inkscape:snap-global="false"
     showguides="false" />
  <metadata
     id="metadata4612">
    <rdf:RDF>
      <cc:Work
         rdf:about="">
        <dc:format>image/svg+xml</dc:format>
        <dc:type
           rdf:resource="http://purl.org/dc/dcmitype/StillImage" />
        <dc:title></dc:title>
      </cc:Work>
    </rdf:RDF>
  </metadata>
  <g
     inkscape:label="Capa 1"
     inkscape:groupmode="layer"
     id="layer1"
     transform="translate(0.76560954,-36.419545)">
    <g
       id="g943-8-5-57-2-7-0-1"
       transform="matrix(0.29894137,0,0,0.29894137,17.443162,-4.6251044)"
       style="font-style:normal;font-variant:normal;font-weight:bold;font-stretch:normal;font-size:12.7845px;line-height:0.8;font-family:Waree;-inkscape-font-specification:'Waree Bold';letter-spacing:-1.52938px;display:inline;fill:#3685b5;fill-opacity:1;stroke:none;stroke-width:0.319612">
      <g
         id="g2587-0-4-9-7"
         transform="matrix(0.76850782,0,0,0.76850782,-93.035652,157.95784)">
        <path
           style="fill:#3685b5;fill-opacity:1;stroke:#3685b5;stroke-width:21.4083;stroke-linecap:round;stroke-linejoin:round;stroke-miterlimit:4;stroke-dasharray:none;stroke-opacity:1"
           d="m 205.91263,191.71719 c 13.94378,-8.45048 30.40679,-12.76234 61.98735,-30.94331 l 57.41919,-33.0563 415.43795,0.0568 415.43798,0.0568 -34.1989,33.51462 -34.1988,33.51461 -437.23327,10.33816 c -241.52192,5.71066 -448.0587,-5.18488 -448.0587,-5.18488 z"
           id="path876-9-6-4-1-8-7-5"
           transform="scale(0.26458333)"
           sodipodi:nodetypes="cscccccssc" />
        <rect
           style="fill:#9ffce4;fill-opacity:1;stroke-width:2.402;stroke-linecap:round;stroke-linejoin:round"
           id="rect865-3-9-8-9-5-5-17"
           width="242.35835"
           height="134.40834"
           x="48.27565"
           y="51.8834" />
        <path
           style="fill:#06d6a0;fill-opacity:1;stroke-width:0.352778"
           d="M 48.275651,119.08757 V 51.883402 H 169.45483 290.634 v 67.204168 67.20418 H 169.45483 48.275651 Z m 209.259589,51.15639 c -0.18975,-4.98636 1.0446,-8.22267 4.57603,-11.99778 1.60229,-1.71285 2.81905,-2.62441 4.67302,-3.50086 2.95696,-1.39789 4.38078,-1.68929 8.06139,-1.6499 l 2.73554,0.0293 V 119.06446 85.004232 l -2.14703,0.13836 c -6.23679,0.40193 -12.25202,-2.63279 -15.56363,-7.85194 -1.63265,-2.5731 -2.44399,-5.72479 -2.36306,-9.17947 l 0.0702,-2.99861 -88.20631,-0.0889 -88.206313,-0.0889 0.17357,2.20556 c 0.60426,7.67829 -4.27193,14.91864 -11.63244,17.27227 -1.52186,0.48664 -3.18708,0.7063 -5.37922,0.70957 l -3.17502,0.005 2e-5,33.913658 1e-5,33.91366 2.99861,0.071 c 3.861,0.0915 6.91845,0.91777 9.44993,2.55394 5.19398,3.35704 8.17993,9.24161 7.74856,15.27053 l -0.17095,2.38923 88.235553,7e-4 88.23553,7.1e-4 -0.11403,-2.99665 z m -91.25541,-10.81878 c -9.11246,-0.66538 -17.77156,-4.48367 -24.57331,-10.83575 -11.78943,-11.01003 -15.84802,-27.95659 -10.36765,-43.28998 7.24835,-20.279988 29.67196,-31.326748 50.28679,-24.773268 11.82524,3.75927 21.0908,12.5147 25.6882,24.273888 3.10798,7.9496 3.31935,18.10812 0.55884,26.85898 -5.53091,17.53306 -22.90397,29.13079 -41.59287,27.76613 z M 91.748507,132.12257 c -5.64476,-1.51971 -9.39534,-5.8567 -10.08899,-11.66643 -1.01642,-8.51315 6.82683,-15.98952 15.33646,-14.61908 11.092253,1.78635 15.307883,15.07057 7.285603,22.95823 -1.88193,1.85035 -4.10707,2.995 -6.784213,3.48989 -2.61406,0.48324 -3.43634,0.45998 -5.74886,-0.16261 z m 148.967433,0.0699 c -5.12114,-1.32721 -8.63291,-4.78808 -9.90888,-9.76528 -2.28193,-8.90116 4.6998,-17.30806 13.88312,-16.71706 4.86301,0.31296 8.83846,3.01145 11.28158,7.65779 0.87558,1.66517 0.96724,2.18981 0.96948,5.54872 0.002,3.48006 -0.069,3.855 -1.15255,6.05779 -2.76478,5.62065 -9.25107,8.72681 -15.07275,7.21804 z"
           id="path863-6-4-5-6-8-9-4" />
        <path
           style="fill:#9ffce4;fill-opacity:1;stroke:#06d6a0;stroke-width:3.965;stroke-linecap:round;stroke-linejoin:round;stroke-miterlimit:4;stroke-dasharray:none;stroke-opacity:1"
           d="M 50.303589,51.883399 85.076552,31.807221 H 311.20825 L 290.634,51.8834"
           id="path871-1-8-9-2-2-7-1"
           sodipodi:nodetypes="cccc" />
        <path
           style="fill:none;fill-opacity:1;stroke:#06d6a0;stroke-width:3.965;stroke-linecap:round;stroke-linejoin:round;stroke-miterlimit:4;stroke-dasharray:none;stroke-opacity:1"
           d="M 311.20826,31.807221 V 163.80081 L 290.634,184.33202"
           id="path873-2-1-7-1-6-8-7"
           sodipodi:nodetypes="ccc" />
        <path
           style="fill:#9ffce4;fill-opacity:1;stroke:#06d6a0;stroke-width:1.665;stroke-linecap:round;stroke-linejoin:miter;stroke-miterlimit:4;stroke-dasharray:none;stroke-opacity:1"
           d="M 127.83467,38.872961 H 252.28715"
           id="path880-9-2-5-2-0-5-1" />
        <path
           style="fill:#9ffce4;fill-opacity:1;stroke:#06d6a0;stroke-width:1.665;stroke-linecap:round;stroke-linejoin:miter;stroke-miterlimit:4;stroke-dasharray:none;stroke-opacity:1"
           d="M 117.78537,43.953053 H 242.23785"
           id="path880-3-3-9-3-0-6-3-1" />
        <path
           style="fill:#9ffce4;fill-opacity:1;stroke:#06d6a0;stroke-width:1.801;stroke-linecap:round;stroke-linejoin:miter;stroke-miterlimit:4;stroke-dasharray:none;stroke-opacity:1"
           d="M 304.07838,145.73467 V 70.885185"
           id="path880-6-1-3-8-7-6-3-1" />
        <path
           style="fill:#9ffce4;fill-opacity:1;stroke:#06d6a0;stroke-width:1.801;stroke-linecap:round;stroke-linejoin:miter;stroke-miterlimit:4;stroke-dasharray:none;stroke-opacity:1"
           d="M 298.03443,148.79 V 73.940509"
           id="path880-3-7-9-9-8-3-4-8-7" />
        <path
           style="fill:#9ffce4;fill-opacity:1;stroke:#06d6a0;stroke-width:0.0493941;stroke-linecap:round;stroke-linejoin:round;stroke-miterlimit:4;stroke-dasharray:none;stroke-opacity:1"
           d="m 179.11192,53.937578 c 0,-5.10996 0.007,-6.021241 0.0437,-6.021241 0.0241,0 0.40613,-0.355132 0.84906,-0.789182 0.44292,-0.43405 0.81388,-0.789182 0.82436,-0.789182 0.0105,0 0.019,2.674239 0.019,5.942754 v 5.942753 l -0.8681,0.867669 -0.8681,0.86767 z m 0.7734,-0.591671 v -3.614452 h -0.0789 -0.0789 l -0.008,3.582884 c -0.004,1.970587 -9.8e-4,3.601638 0.008,3.624558 0.009,0.02292 0.0479,0.03713 0.0871,0.03157 l 0.0712,-0.01011 z m 0.57623,-0.288569 c 0.007,-3.321397 0.004,-3.62054 -0.0435,-3.638672 -0.14219,-0.05457 -0.13818,-0.160265 -0.13818,3.641739 0,1.974249 0.0101,3.599612 0.0224,3.611919 0.0123,0.01231 0.0514,0.01823 0.0868,0.01315 0.0644,-0.0092 0.0644,-0.01197 0.0725,-3.628139 z"
           id="path2575-1-6-3-0"
           transform="matrix(10.574812,0,0,10.574812,-1603.4052,-452.70303)" />
      </g>
    </g>
  </g>
</svg>
