<svg xmlns="http://www.w3.org/2000/svg" viewBox="0 0 151.76858 145.35309">
  <g>
    <g>
      <circle cx="104.43493" cy="98.01944" r="47.33365" fill="#35a17d"/>
      <g>
        <ellipse cx="104.29557" cy="98.4602" rx="28.07851" ry="6.02817" fill="none" stroke="#fff" stroke-miterlimit="10"/>
        <g>
          <rect x="98.44633" y="103.46196" width="13.19397" height="22.57711" fill="#fff"/>
          <polygon points="111.64 73.217 98.446 73.217 82.741 73.217 82.741 85.123 98.446 85.123 98.446 102.626 111.64 102.626 111.64 85.123 126.744 85.123 126.744 73.217 111.64 73.217" fill="#fff"/>
        </g>
      </g>
    </g>
    <g>
      <circle cx="47.5" cy="47.5" r="47.5" fill="#f0b90c"/>
      <g>
        <path d="M47.40515,79.46386c-.33737-.31028-.61409-.54754-.87145-.8042-2.09248-2.08678-4.15557-4.204-6.286-6.25124-.69914-.67186-.68172-1.06921.00282-1.751Q55.49649,55.47323,70.68142,40.22788c.70672-.70949,1.13932-.8498,1.89966-.04975,2.03513,2.14142,4.135,4.22368,6.26585,6.2704.70553.67768.678,1.08442-.00465,1.76447Q63.53238,63.46464,48.26393,78.7579C48.0129,79.00874,47.71421,79.21189,47.40515,79.46386Z" fill="#fefefe"/>
        <path d="M59.53319,27.3067c.31609.26581.61207.48054.86812.73539,2.14069,2.13064,4.25267,4.29074,6.42265,6.391.65008.6292.5957,1.00413-.023,1.62078Q51.47677,51.32648,36.204,66.65062c-.60237.60436-.96929.70794-1.61021.04314-2.05317-2.12966-4.13184-4.2383-6.28123-6.26982-.83387-.78814-.80807-1.22775.00424-2.02592,4.61628-4.53594,9.17225-9.13324,13.74873-13.70967q8.1723-8.17221,16.34633-16.34265C58.75677,28.00112,59.127,27.68187,59.53319,27.3067Z" fill="#fefefe"/>
        <path d="M35.35,43.2899c-.32876-.29776-.60827-.53065-.86486-.78651-2.09137-2.08542-4.14452-4.21084-6.28441-6.24509-.79915-.7597-.65047-1.19309.055-1.893Q37.428,25.26435,46.52757,16.09039c.75156-.75835,1.204-.72573,1.91992.01962,2.04551,2.1296,4.144,4.20948,6.26088,6.26863.61425.5975.68275,1.00172.03837,1.64212q-9.36143,9.30335-18.6805,18.64932C35.85942,42.87668,35.62373,43.05439,35.35,43.2899Z" fill="#fefefe"/>
        <path d="M23.45615,55.17044c-.57053-.03828-.795-.4493-1.08735-.739-2.05584-2.03742-4.06748-4.12065-6.16112-6.1181-.76642-.73121-.762-1.18082.00183-1.90981,2.09327-1.99785,4.13435-4.05248,6.14247-6.1363.68821-.71416,1.1469-.86365,1.91033-.06263,2.03876,2.13916,4.16358,4.19626,6.25221,6.288.42712.42775.98507.78114.26783,1.48255-2.28927,2.23875-4.53762,4.51933-6.8063,6.77921A5.50468,5.50468,0,0,1,23.45615,55.17044Z" fill="#fefefe"/>
      </g>
    </g>
  </g>
</svg>
