<svg xmlns="http://www.w3.org/2000/svg" viewBox="0 0 95 95">
  <g>
    <circle cx="47.5" cy="47.5" r="47.5" fill="#fc0"/>
    <g>
      <path d="M67.57831,60.11038c-.27427.32561-.4832.614-.73173.86279q-9.258,9.26859-18.50847,18.54457c-.71313.71923-1.11657.61263-1.7703-.04551q-9.16708-9.22884-18.399-18.393c-.74683-.74028-.75548-1.18609.00448-1.90725,1.873-1.77737,3.70864-3.59883,5.47491-5.48172.78127-.83287,1.24114-.81507,2.03857.00484,3.3015,3.39455,6.6778,6.71637,10.027,10.06452,1.7591,1.75856,1.75978,1.75852,3.58153-.06318,3.30524-3.30516,6.63749-6.58407,9.89581-9.93485.81861-.84183,1.30089-.9663,2.15567-.03414,1.70264,1.85678,3.5425,3.58756,5.32026,5.37578C66.96407,59.402,67.2338,59.728,67.57831,60.11038Z" fill="#fefefe"/>
      <path d="M67.45653,34.979c-.19279.21693-.42026.49928-.67464.75484-1.77807,1.78637-3.63541,3.50109-5.3158,5.3747-1.00157,1.11674-1.56091.81666-2.45095-.09771C55.585,37.487,52.04691,34.068,48.62447,30.53685c-.913-.942-1.434-.89173-2.31985.01981-3.4273,3.52658-6.98727,6.9252-10.38,10.48379-1.05933,1.11112-1.62286.95206-2.55251-.057-1.66473-1.807-3.42357-3.53192-5.21217-5.21786-.78054-.73573-.70056-1.1882.02538-1.90823q9.166-9.09139,18.25533-18.25979c.78689-.79462,1.24634-.8286,2.05224-.01421,6.05388,6.11759,12.15591,12.18752,18.23547,18.27974C67.01778,34.15312,67.43111,34.37721,67.45653,34.979Z" fill="#fefefe"/>
      <path d="M29.28522,47.50778c-.18413.21962-.35671.459-.56231.66547-1.98949,1.99791-4.00284,3.97252-5.96645,5.99544-.56335.58037-.93383.56752-1.48748-.0001q-2.95285-3.02739-5.98236-5.97944c-.61781-.59959-.4553-.97819.07349-1.49643,1.96983-1.93055,3.90645-3.895,5.86072-5.84145.38059-.37908.71636-.89025,1.34137-.25553,2.10721,2.14,4.24135,4.25337,6.36016,6.382A4.01231,4.01231,0,0,1,29.28522,47.50778Z" fill="#fefefd"/>
      <path d="M54.92764,47.48627c-.26047.29846-.479.57931-.72821.82957-1.95179,1.9599-3.93831,3.88634-5.84985,5.88458-.67941.71023-1.098.68223-1.76337-.01151-1.91414-1.99585-3.87652-3.947-5.8651-5.869-.62282-.602-.68192-.99271-.02858-1.62641,2.02917-1.96813,4.00836-3.98828,5.98515-6.00956.49852-.50974.87-.74942,1.49151-.1087,2.054,2.11749,4.16115,4.18343,6.24347,6.27357C54.57923,47.016,54.71191,47.217,54.92764,47.48627Z" fill="#fefefe"/>
      <path d="M80.1094,47.32021c.0292.5078-.32215.71034-.57111.96093-1.94412,1.95665-3.92341,3.87919-5.83366,5.86816-.66387.69123-1.05685.49376-1.62227-.08751C70.202,52.12874,68.30681,50.2081,66.35683,48.346c-.70976-.67777-.6762-1.095.01346-1.75569,1.947-1.8653,3.83307-3.79453,5.73158-5.71.459-.46306.82051-.874,1.48129-.194,2.00737,2.066,4.06477,4.08327,6.09883,6.12336C79.851,46.97921,79.991,47.17759,80.1094,47.32021Z" fill="#fefefd"/>
    </g>
  </g>
</svg>
