<?xml version="1.0" encoding="UTF-8" standalone="no"?>
<svg
   xmlns:dc="http://purl.org/dc/elements/1.1/"
   xmlns:cc="http://creativecommons.org/ns#"
   xmlns:rdf="http://www.w3.org/1999/02/22-rdf-syntax-ns#"
   xmlns:svg="http://www.w3.org/2000/svg"
   xmlns="http://www.w3.org/2000/svg"
   xmlns:sodipodi="http://sodipodi.sourceforge.net/DTD/sodipodi-0.dtd"
   xmlns:inkscape="http://www.inkscape.org/namespaces/inkscape"
   width="64"
   height="64"
   fill="none"
   opacity=".5"
   version="1.1"
   id="svg18"
   sodipodi:docname="present-alt.svg"
   inkscape:version="1.0.1 (3bc2e813f5, 2020-09-07)">
  <metadata
     id="metadata24">
    <rdf:RDF>
      <cc:Work
         rdf:about="">
        <dc:format>image/svg+xml</dc:format>
        <dc:type
           rdf:resource="http://purl.org/dc/dcmitype/StillImage" />
      </cc:Work>
    </rdf:RDF>
  </metadata>
  <defs
     id="defs22" />
  <sodipodi:namedview
     pagecolor="#ffffff"
     bordercolor="#666666"
     borderopacity="1"
     objecttolerance="10"
     gridtolerance="10"
     guidetolerance="10"
     inkscape:pageopacity="0"
     inkscape:pageshadow="2"
     inkscape:window-width="1920"
     inkscape:window-height="1016"
     id="namedview20"
     showgrid="false"
     inkscape:zoom="2.4444902"
     inkscape:cx="23.219414"
     inkscape:cy="24.777044"
     inkscape:window-x="0"
     inkscape:window-y="27"
     inkscape:window-maximized="1"
     inkscape:current-layer="svg18" />
  <g
     fill-rule="evenodd"
     fill="#7645d9"
     id="g6"
     style="fill:#b3b3b3;fill-opacity:1">
    <path
       d="m 25.994,20.559 c -0.572,-1.003 -1.88,-1.025 -2.382,-0.04 a 1.66,1.66 0 0 0 0.597,2.119 l 4.493,2.74 -0.708,-1.311 z m -5.595,-2.143 c 1.825,-3.582 6.585,-3.502 8.664,0.146 l 2.025,3.552 4.087,7.574 h -6.256 c -0.332,0 -0.664,-0.095 -0.961,-0.277 l -5.389,-3.286 c -2.545,-1.552 -3.528,-5.044 -2.17,-7.709 z"
       id="path2"
       style="fill:#b3b3b3;fill-opacity:1" />
    <path
       d="m 38.038,20.559 c 0.572,-1.003 1.88,-1.025 2.382,-0.04 a 1.66,1.66 0 0 1 -0.597,2.119 l -4.493,2.74 0.708,-1.311 z m 5.595,-2.143 c -1.825,-3.582 -6.585,-3.502 -8.664,0.146 l -2.025,3.552 -4.087,7.574 h 6.256 a 1.84,1.84 0 0 0 0.961,-0.277 l 5.389,-3.286 c 2.545,-1.552 3.528,-5.044 2.17,-7.709 z M 17.585,38.4 h 28.762 v 13.135 a 2.56,2.56 0 0 1 -2.56,2.56 H 20.145 a 2.56,2.56 0 0 1 -2.56,-2.56 z m 31.322,-2.56 v 15.695 a 5.12,5.12 0 0 1 -5.12,5.12 H 20.145 a 5.12,5.12 0 0 1 -5.12,-5.12 V 35.84 Z"
       id="path4"
       style="fill:#b3b3b3;fill-opacity:1" />
  </g>
  <path
     d="m 34.824,38.4 h -5.647 v 18.24 h 5.647 z"
     fill="#7645d9"
     id="path8"
     style="stroke-width:0.999998;fill:#b3b3b3;fill-opacity:1" />
  <path
     d="m 15.059,41.92 v 6.4 h 33.881999 v -6.4 z"
     fill="#7645d9"
     id="path10"
     style="stroke-width:0.999998;fill:#b3b3b3;fill-opacity:1" />
  <path
     fill-rule="evenodd"
     d="m 16.64,29.687 h 30.719999 a 1.28,1.28 0 0 1 1.28,1.28 v 3.52 a 1.28,1.28 0 0 1 -1.28,1.28 H 16.64 a 1.28,1.28 0 0 1 -1.28,-1.28 v -3.52 a 1.28,1.28 0 0 1 1.28,-1.28 z m 30.719999,-2.56 A 3.8399999,3.84 0 0 1 51.2,30.967 v 3.52 a 3.8399999,3.84 0 0 1 -3.840001,3.84 H 16.64 a 3.8399999,3.84 0 0 1 -3.84,-3.84 v -3.52 a 3.8399999,3.84 0 0 1 3.84,-3.84 z"
     fill="#7645d9"
     id="path12"
     style="stroke-width:0.999998;fill:#b3b3b3;fill-opacity:1" />
  <path
     d="m 34.824,27.2 h -5.647 v 11.2 h 5.647 z"
     fill="#7645d9"
     id="path14"
     style="stroke-width:0.999998;fill:#b3b3b3;fill-opacity:1" />
  <path
     d="m 51.859,19.323 0.098,-0.366 c 0.138,-0.514 0.356001,-0.917 0.654,-1.209 a 5.3499999,5.35 0 0 1 1.141,-0.789 9.36,9.36 0 0 1 1.205,-0.565 c 0.383,-0.145 0.711999,-0.319 0.985999,-0.521 0.274001,-0.202 0.458001,-0.476 0.551,-0.823 0.134,-0.501 0.049,-0.902 -0.255,-1.204 -0.288,-0.311 -0.843999,-0.577 -1.666,-0.797 a 6.3600001,6.36 0 0 0 -1.656,-0.217 c -0.561,-0.013 -1.056,0.034 -1.483,0.14 l 0.697,-2.601 c 0.537,-0.104 1.146001,-0.14 1.826001,-0.11 a 10.51,10.51 0 0 1 2.195999,0.361 c 1.49,0.399 2.539,1.032 3.147001,1.897 0.610999,0.852 0.766001,1.844 0.462999,2.974 -0.192999,0.719 -0.497,1.264 -0.913,1.635 -0.412,0.358 -0.963,0.692 -1.652,1.003 l -1.474,0.72 c -0.397,0.197 -0.661,0.539 -0.791,1.027 l -0.067,0.25 -3.006,-0.805 z m -1.049001,3.375 0.599001,-2.235 3.255999,0.873 -0.599,2.235 -3.256,-0.872 z M 6.9719999,44.018 6.91,43.787 C 6.823,43.462 6.815,43.173 6.886,42.919 c 0.079,-0.256 0.2039999,-0.52 0.375,-0.792 0.157,-0.26 0.317,-0.49 0.481,-0.69 0.1639999,-0.2 0.2889999,-0.399 0.375,-0.597 A 0.91999998,0.92 0 0 0 8.159,40.215 C 8.0739999,39.898 7.901,39.705 7.6379999,39.636 7.382,39.557 6.9939999,39.587 6.474,39.726 A 4.02,4.02 0 0 0 5.499,40.131 3.5899999,3.59 0 0 0 4.731,40.676 L 4.29,39.03 c 0.261,-0.227 0.583,-0.439 0.965,-0.637 0.39,-0.2 0.829,-0.366 1.316,-0.496 0.9419999,-0.252 1.716,-0.238 2.3229999,0.044 0.6040001,0.273 1.0019998,0.767 1.1940001,1.482 0.122,0.455 0.127,0.849 0.017,1.184 -0.1129999,0.326 -0.3090001,0.683 -0.5880001,1.071 l -0.579,0.86 C 8.783,42.771 8.7469999,43.042 8.829,43.351 l 0.042,0.158 -1.9,0.509 z m 0.492,2.179 L 7.085,44.784 9.1439999,44.232 9.523,45.645 Z M 11.755,18.813 11.672,18.504 c -0.116,-0.434 -0.127,-0.82 -0.032,-1.16 a 4.52,4.52 0 0 1 0.501,-1.058 7.9499998,7.95 0 0 1 0.642,-0.922 c 0.219,-0.268 0.386,-0.534 0.501,-0.797 a 1.23,1.23 0 0 0 0.055,-0.834 C 13.226,13.31 12.994,13.052 12.644,12.96 12.302,12.854 11.784,12.894 11.089,13.08 A 5.3699999,5.37 0 0 0 9.7869999,13.621 C 9.371,13.849 9.029,14.091 8.761,14.349 L 8.1719999,12.152 c 0.349,-0.303 0.7790001,-0.586 1.289,-0.851 C 9.9820001,11.033 10.568,10.812 11.219,10.638 c 1.258,-0.337 2.292,-0.318 3.102,0.058 0.807,0.365 1.338,1.025 1.594,1.979 0.163,0.607 0.17,1.134 0.023,1.581 -0.151,0.436 -0.412,0.913 -0.785,1.431 l -0.773,1.149 c -0.207,0.311 -0.256,0.673 -0.145,1.085 l 0.057,0.212 -2.538,0.68 z m 0.658,2.91 -0.506,-1.887 2.75,-0.737 0.506,1.887 z"
     fill="#aea0d6"
     id="path16"
     style="stroke-width:0.999998;fill:#b3b3b3;fill-opacity:1" />
</svg>
