<?xml version="1.0" encoding="UTF-8" standalone="no"?>
<svg
   xmlns:dc="http://purl.org/dc/elements/1.1/"
   xmlns:cc="http://creativecommons.org/ns#"
   xmlns:rdf="http://www.w3.org/1999/02/22-rdf-syntax-ns#"
   xmlns:svg="http://www.w3.org/2000/svg"
   xmlns="http://www.w3.org/2000/svg"
   xmlns:sodipodi="http://sodipodi.sourceforge.net/DTD/sodipodi-0.dtd"
   xmlns:inkscape="http://www.inkscape.org/namespaces/inkscape"
   width="64"
   height="64"
   fill="none"
   version="1.1"
   id="svg44"
   sodipodi:docname="present.svg"
   inkscape:version="1.0.1 (3bc2e813f5, 2020-09-07)">
  <defs
     id="defs48" />
  <sodipodi:namedview
     pagecolor="#ffffff"
     bordercolor="#666666"
     borderopacity="1"
     objecttolerance="10"
     gridtolerance="10"
     guidetolerance="10"
     inkscape:pageopacity="0"
     inkscape:pageshadow="2"
     inkscape:window-width="1920"
     inkscape:window-height="1043"
     id="namedview46"
     showgrid="false"
     inkscape:zoom="5.6568543"
     inkscape:cx="-19.003536"
     inkscape:cy="61.624141"
     inkscape:window-x="1920"
     inkscape:window-y="0"
     inkscape:window-maximized="1"
     inkscape:current-layer="svg44" />
  <metadata
     id="metadata2">
    <rdf:RDF>
      <cc:Work
         rdf:about="">
        <dc:format>image/svg+xml</dc:format>
        <dc:type
           rdf:resource="http://purl.org/dc/dcmitype/StillImage" />
        <dc:title />
      </cc:Work>
    </rdf:RDF>
  </metadata>
  <style
     id="style4"><![CDATA[.B{fill-rule:evenodd}.C{fill:#7645d9}]]></style>
  <g
     id="g20">
    <path
       d="m43.194 10.691a1.53 1.53 0 1 1 1.421 2.611l-6.119 1.64 4.698-4.25zm5.919-0.177a5.07 5.07 0 0 0-8.291-2.445l-9.802 8.868c-1.46 1.321-0.158 3.712 1.744 3.203l12.768-3.421c2.702-0.724 4.306-3.502 3.582-6.204z"
       fill="#cd00cd"
       fill-rule="evenodd"
       id="path6"
       style="fill:#06d6a0;fill-opacity:1" />
    <path
       d="m30.189 8.084a1.66 1.66 0 1 0-2.754 1.683l4.864 4.864zm-5.469-3.38c2.908-2.908 7.862-1.712 9.124 2.202l4.403 13.66c0.656 2.035-1.867 3.577-3.378 2.065l-10.149-10.149a5.5 5.5 0 0 1 0-7.778z"
       fill="#cd00cd"
       fill-rule="evenodd"
       id="path8"
       style="fill:#06d6a0;fill-opacity:1" />
    <path
       d="m51.083 29.906a5.12 5.12 0 0 0-6.271-3.62l-27.2 7.288a5.12 5.12 0 0 0-3.62 6.271l4.555 17a5.12 5.12 0 0 0 6.271 3.62l27.2-7.288a5.12 5.12 0 0 0 3.62-6.271z"
       fill="#f0f"
       id="path18"
       style="fill:#a7cee5;fill-opacity:1" />
  </g>
  <g
     fill="#cd00cd"
     id="g28">
    <path
       class="B"
       d="m18.274 36.046 27.201-7.288a2.56 2.56 0 0 1 3.135 1.81l4.555 17a2.56 2.56 0 0 1-1.81 3.135l-27.2 7.288a2.56 2.56 0 0 1-3.135-1.81l-4.555-17a2.56 2.56 0 0 1 1.81-3.135zm26.538-9.761a5.12 5.12 0 0 1 6.271 3.62l4.555 17a5.12 5.12 0 0 1-3.62 6.271l-27.2 7.288a5.12 5.12 0 0 1-6.271-3.62l-4.555-17a5.12 5.12 0 0 1 3.62-6.271z"
       id="path22"
       style="fill:#3685b5;fill-opacity:1" />
    <path
       d="m35.23 28.853-8.036 2.153 7.206 26.891 8.036-2.153z"
       id="path24"
       style="fill:#3685b5;fill-opacity:1" />
    <path
       d="m54.517 42.402-2.153-8.036-37.253 9.982 2.153 8.036z"
       id="path26"
       style="fill:#3685b5;fill-opacity:1" />
  </g>
  <g
     class="B C"
     style="mix-blend-mode:normal"
     id="g32">
    <path
       d="m39.926 46.324-8.065 2.161 0.331 1.236 8.065-2.161zm-10.224-5.898 8.065-2.161-0.331-1.236-8.065 2.161z"
       fill="#cd00cd"
       id="path30"
       style="fill:#3685b5;fill-opacity:1" />
  </g>
  <path
     d="m54.831 24.945a3.84 3.84 0 0 0-2.715-4.703l-34.619-9.276a3.84 3.84 0 0 0-4.703 2.715l-0.911 3.4a3.84 3.84 0 0 0 2.715 4.703l34.619 9.276a3.84 3.84 0 0 0 4.703-2.715z"
     fill="#f0f"
     id="path34"
     style="fill:#9afce2;fill-opacity:1" />
  <g
     fill="#cd00cd"
     id="g42">
    <path
       class="B"
       d="m16.834 13.438 34.619 9.276a1.28 1.28 0 0 1 0.905 1.568l-0.911 3.4a1.28 1.28 0 0 1-1.568 0.905l-34.619-9.276a1.28 1.28 0 0 1-0.905-1.568l0.911-3.4a1.28 1.28 0 0 1 1.568-0.905zm35.281 6.803a3.84 3.84 0 0 1 2.715 4.703l-0.911 3.4a3.84 3.84 0 0 1-4.703 2.715l-34.619-9.276a3.84 3.84 0 0 1-2.715-4.703l0.911-3.4a3.84 3.84 0 0 1 4.703-2.715z"
       id="path36"
       style="fill:#06d6a0;fill-opacity:1" />
    <path
       d="m38.824 16.68-8.036-2.153-2.899 10.818 8.037 2.153 2.899-10.818z"
       id="path38"
       style="fill:#06d6a0;fill-opacity:1" />
    <path
       d="m38.426 18.08-8-2.24 0.32-1.44 8.136 2.257z"
       fill-rule="evenodd"
       style="mix-blend-mode:normal;fill:#06d6a0;fill-opacity:1"
       id="path40" />
  </g>
</svg>
